<svg xmlns="http://www.w3.org/2000/svg"
     viewBox="0 0 960 752"
     width="960" height="752"
     role="img" aria-label="Developer activity — weekly lines of code by language">

  <defs>
    <style>
      svg {
        --bg:        #FFFFFF;
        --fg:        #0F172A;
        --muted:     #64748B;
        --subtle:    #94A3B8;
        --border:    #E2E8F0;
        --grid:      #EEF2F6;
        --track:     #EEF2F6;
        --card-top:  #FFFFFF;
        --card-bot:  #F8FAFC;
        --accent:    #3178C6;
      }
      @media (prefers-color-scheme: dark) {
        svg {
          --bg:        #0D1117;
          --fg:        #E6EDF3;
          --muted:     #8B949E;
          --subtle:    #6E7681;
          --border:    #21262D;
          --grid:      #161B22;
          --track:     #1C2128;
          --card-top:  #161B22;
          --card-bot:  #0D1117;
          --accent:    #58A6FF;
        }
      }
      text {
        font-family: -apple-system, BlinkMacSystemFont, "Segoe UI",
                     "SF Pro Text", "Helvetica Neue", Arial, sans-serif;
        fill: var(--fg);
      }
      .mono {
        font-family: ui-monospace, SFMono-Regular, "SF Mono", Menlo,
                     Consolas, "Liberation Mono", monospace;
        font-variant-numeric: tabular-nums;
      }
      .eyebrow {
        font-size: 11px; font-weight: 600; letter-spacing: 2px;
        fill: var(--muted);
      }
      .period {
        font-size: 11px; fill: var(--muted);
        font-variant-numeric: tabular-nums;
      }
      .section {
        font-size: 10.5px; font-weight: 600; letter-spacing: 1.8px;
        fill: var(--muted);
      }
      .kpi-label {
        font-size: 9.5px; font-weight: 600; letter-spacing: 1.5px;
        fill: var(--muted);
      }
      .kpi-value {
        font-size: 26px; font-weight: 700; fill: var(--fg);
        font-variant-numeric: tabular-nums;
      }
      .kpi-sub {
        font-size: 10.5px; fill: var(--muted);
      }
      .axis {
        font-size: 9.5px; fill: var(--subtle);
        font-variant-numeric: tabular-nums;
      }
      .pulse-val {
        font-size: 18px; font-weight: 700; fill: var(--fg);
        font-variant-numeric: tabular-nums;
      }
      .pulse-peak {
        font-size: 11px; font-weight: 600;
        font-variant-numeric: tabular-nums;
      }
      .lb-name { font-size: 11px; font-weight: 500; fill: var(--fg); }
      .lb-val  { font-size: 10.5px; fill: var(--muted);
                  font-variant-numeric: tabular-nums; }
      .lb-pct  { font-size: 10.5px; font-weight: 600; fill: var(--fg);
                  font-variant-numeric: tabular-nums; }
      .clip-label { font-size: 9.5px; font-weight: 600; fill: var(--fg);
                     font-variant-numeric: tabular-nums; }
      .footer { font-size: 9.5px; fill: var(--subtle); }
    </style>
    <linearGradient id="g-typescript" x1="0" y1="0" x2="0" y2="1"><stop offset="0%" stop-color="#5198E8" stop-opacity="1"/><stop offset="100%" stop-color="#3178C6" stop-opacity="1"/></linearGradient><linearGradient id="g-json" x1="0" y1="0" x2="0" y2="1"><stop offset="0%" stop-color="#2DD4BF" stop-opacity="1"/><stop offset="100%" stop-color="#14B8A6" stop-opacity="1"/></linearGradient><linearGradient id="g-markdown" x1="0" y1="0" x2="0" y2="1"><stop offset="0%" stop-color="#A78BFA" stop-opacity="1"/><stop offset="100%" stop-color="#8B5CF6" stop-opacity="1"/></linearGradient><linearGradient id="g-python" x1="0" y1="0" x2="0" y2="1"><stop offset="0%" stop-color="#5497D4" stop-opacity="1"/><stop offset="100%" stop-color="#3776AB" stop-opacity="1"/></linearGradient><linearGradient id="g-terraform" x1="0" y1="0" x2="0" y2="1"><stop offset="0%" stop-color="#8B8EF7" stop-opacity="1"/><stop offset="100%" stop-color="#6366F1" stop-opacity="1"/></linearGradient><linearGradient id="g-astro" x1="0" y1="0" x2="0" y2="1"><stop offset="0%" stop-color="#FF8338" stop-opacity="1"/><stop offset="100%" stop-color="#FF5D01" stop-opacity="1"/></linearGradient><linearGradient id="g-bash" x1="0" y1="0" x2="0" y2="1"><stop offset="0%" stop-color="#4ADE80" stop-opacity="1"/><stop offset="100%" stop-color="#22C55E" stop-opacity="1"/></linearGradient><linearGradient id="g-yaml" x1="0" y1="0" x2="0" y2="1"><stop offset="0%" stop-color="#F472B6" stop-opacity="1"/><stop offset="100%" stop-color="#EC4899" stop-opacity="1"/></linearGradient><linearGradient id="g-html" x1="0" y1="0" x2="0" y2="1"><stop offset="0%" stop-color="#F76E4A" stop-opacity="1"/><stop offset="100%" stop-color="#E34C26" stop-opacity="1"/></linearGradient><linearGradient id="g-svelte" x1="0" y1="0" x2="0" y2="1"><stop offset="0%" stop-color="#FF6A3D" stop-opacity="1"/><stop offset="100%" stop-color="#FF3E00" stop-opacity="1"/></linearGradient><linearGradient id="g-rust" x1="0" y1="0" x2="0" y2="1"><stop offset="0%" stop-color="#FB9A4A" stop-opacity="1"/><stop offset="100%" stop-color="#F97316" stop-opacity="1"/></linearGradient><linearGradient id="g-dart" x1="0" y1="0" x2="0" y2="1"><stop offset="0%" stop-color="#2DCFC7" stop-opacity="1"/><stop offset="100%" stop-color="#00B4AB" stop-opacity="1"/></linearGradient><linearGradient id="g-css" x1="0" y1="0" x2="0" y2="1"><stop offset="0%" stop-color="#7A58A8" stop-opacity="1"/><stop offset="100%" stop-color="#563D7C" stop-opacity="1"/></linearGradient><linearGradient id="g-svg" x1="0" y1="0" x2="0" y2="1"><stop offset="0%" stop-color="#9CA3AF" stop-opacity="1"/><stop offset="100%" stop-color="#6B7280" stop-opacity="1"/></linearGradient><linearGradient id="g-text" x1="0" y1="0" x2="0" y2="1"><stop offset="0%" stop-color="#CBD5E1" stop-opacity="1"/><stop offset="100%" stop-color="#94A3B8" stop-opacity="1"/></linearGradient><linearGradient id="g-sql" x1="0" y1="0" x2="0" y2="1"><stop offset="0%" stop-color="#FBBF24" stop-opacity="1"/><stop offset="100%" stop-color="#F59E0B" stop-opacity="1"/></linearGradient><linearGradient id="g-dockerfile" x1="0" y1="0" x2="0" y2="1"><stop offset="0%" stop-color="#52B0F2" stop-opacity="1"/><stop offset="100%" stop-color="#2496ED" stop-opacity="1"/></linearGradient><linearGradient id="g-toml" x1="0" y1="0" x2="0" y2="1"><stop offset="0%" stop-color="#BE5D3A" stop-opacity="1"/><stop offset="100%" stop-color="#9C4221" stop-opacity="1"/></linearGradient><linearGradient id="g-make" x1="0" y1="0" x2="0" y2="1"><stop offset="0%" stop-color="#8FA1A6" stop-opacity="1"/><stop offset="100%" stop-color="#6D8086" stop-opacity="1"/></linearGradient><linearGradient id="g-other" x1="0" y1="0" x2="0" y2="1"><stop offset="0%" stop-color="#9CA3AF" stop-opacity="1"/><stop offset="100%" stop-color="#6B7280" stop-opacity="1"/></linearGradient><linearGradient id="card-bg" x1="0" y1="0" x2="0" y2="1"><stop offset="0%" stop-color="var(--card-top)"/><stop offset="100%" stop-color="var(--card-bot)"/></linearGradient>
  </defs>

  <!-- Canvas -->
  <rect width="960" height="752" fill="var(--bg)" rx="12"/>

  <!-- Header: eyebrow with accent dot (left) + period (right) -->
  <circle cx="32" cy="36" r="4" fill="var(--accent)"/>
  <text x="44" y="40" class="eyebrow">DEVELOPER ACTIVITY</text>
  <text x="932" y="40" class="period" text-anchor="end">Last 12 weeks · 2026-W10 → 2026-W21</text>

  <!-- Divider under header -->
  <line x1="28" y1="54" x2="932" y2="54"
        stroke="var(--border)" stroke-width="1"/>

  <!-- KPI cards -->
  <rect x="28.0" y="72" width="215.5" height="96" rx="10" fill="url(#card-bg)" stroke="var(--border)"/><rect x="28.0" y="84" width="3" height="72" rx="1.5" fill="#22C55E"/><text x="44.0" y="96" class="kpi-label">NET LINES</text><text x="44.0" y="132" class="kpi-value">2.1M</text><text x="44.0" y="154" class="kpi-sub">+2.2M / −168k · 20 langs</text><rect x="257.5" y="72" width="215.5" height="96" rx="10" fill="url(#card-bg)" stroke="var(--border)"/><rect x="257.5" y="84" width="3" height="72" rx="1.5" fill="#3178C6"/><text x="273.5" y="96" class="kpi-label">TOP LANGUAGE</text><text x="273.5" y="132" class="kpi-value">TypeScript</text><text x="273.5" y="154" class="kpi-sub">21.6% of activity</text><rect x="487.0" y="72" width="215.5" height="96" rx="10" fill="url(#card-bg)" stroke="var(--border)"/><rect x="487.0" y="84" width="3" height="72" rx="1.5" fill="#F97316"/><text x="503.0" y="96" class="kpi-label">PEAK WEEK</text><text x="503.0" y="132" class="kpi-value">1.6M</text><text x="503.0" y="154" class="kpi-sub">week of Apr 20</text><rect x="716.5" y="72" width="215.5" height="96" rx="10" fill="url(#card-bg)" stroke="var(--border)"/><rect x="716.5" y="84" width="3" height="72" rx="1.5" fill="#3178C6"/><text x="732.5" y="96" class="kpi-label">WEEKLY AVG</text><text x="732.5" y="132" class="kpi-value">186k</text><text x="732.5" y="154" class="kpi-sub">over 12 weeks</text>

  <!-- Chart section title -->
  <text x="28" y="196" class="section">WEEKLY ACTIVITY</text>
  <text x="932" y="196" class="period" text-anchor="end">
    lines added per week
  </text>

  <!-- Grid -->
  <line x1="68" y1="384.0" x2="932" y2="384.0" stroke="var(--grid)" stroke-width="1"/><line x1="68" y1="340.0" x2="932" y2="340.0" stroke="var(--grid)" stroke-width="1" stroke-dasharray="2,4"/><text x="60" y="343.5" text-anchor="end" class="axis">50k</text><line x1="68" y1="296.0" x2="932" y2="296.0" stroke="var(--grid)" stroke-width="1" stroke-dasharray="2,4"/><text x="60" y="299.5" text-anchor="end" class="axis">100k</text><line x1="68" y1="252.0" x2="932" y2="252.0" stroke="var(--grid)" stroke-width="1" stroke-dasharray="2,4"/><text x="60" y="255.5" text-anchor="end" class="axis">150k</text><line x1="68" y1="208.0" x2="932" y2="208.0" stroke="var(--grid)" stroke-width="1" stroke-dasharray="2,4"/><text x="60" y="211.5" text-anchor="end" class="axis">200k</text>

  <!-- Bars -->
  <rect x="68.00" y="382.80" width="69.00" height="1.20" fill="url(#g-other)"><title>2026-W10 · Other: +835</title></rect><rect x="68.00" y="381.60" width="69.00" height="1.20" fill="url(#g-text)"><title>2026-W10 · Text: +4</title></rect><rect x="68.00" y="380.40" width="69.00" height="1.20" fill="url(#g-yaml)"><title>2026-W10 · YAML: +180</title></rect><rect x="68.00" y="379.20" width="69.00" height="1.20" fill="url(#g-bash)"><title>2026-W10 · Bash: +10</title></rect><rect x="68.00" y="376.77" width="69.00" height="2.43" fill="url(#g-astro)"><title>2026-W10 · Astro: +2,758</title></rect><rect x="68.00" y="375.57" width="69.00" height="1.20" fill="url(#g-terraform)"><title>2026-W10 · Terraform: +419</title></rect><rect x="68.00" y="370.65" width="69.00" height="4.93" fill="url(#g-markdown)"><title>2026-W10 · Markdown: +5,598</title></rect><rect x="68.00" y="369.45" width="69.00" height="1.20" fill="url(#g-json)"><title>2026-W10 · JSON: +298</title></rect><path d="M 68.00,369.45 V 369.45 Q 68.00,367.24 70.21,367.24 H 134.79 Q 137.00,367.24 137.00,369.45 V 369.45 Z" fill="url(#g-typescript)"><title>2026-W10 · TypeScript: +2,507</title></path><rect x="140.00" y="379.70" width="69.00" height="4.30" fill="url(#g-other)"><title>2026-W11 · Other: +4,881</title></rect><rect x="140.00" y="378.50" width="69.00" height="1.20" fill="url(#g-svg)"><title>2026-W11 · SVG: +32</title></rect><rect x="140.00" y="376.94" width="69.00" height="1.57" fill="url(#g-svelte)"><title>2026-W11 · Svelte: +1,781</title></rect><rect x="140.00" y="375.74" width="69.00" height="1.20" fill="url(#g-yaml)"><title>2026-W11 · YAML: +760</title></rect><rect x="140.00" y="372.93" width="69.00" height="2.81" fill="url(#g-bash)"><title>2026-W11 · Bash: +3,188</title></rect><rect x="140.00" y="371.73" width="69.00" height="1.20" fill="url(#g-astro)"><title>2026-W11 · Astro: +1,204</title></rect><rect x="140.00" y="370.53" width="69.00" height="1.20" fill="url(#g-terraform)"><title>2026-W11 · Terraform: +630</title></rect><rect x="140.00" y="369.33" width="69.00" height="1.20" fill="url(#g-python)"><title>2026-W11 · Python: +419</title></rect><rect x="140.00" y="363.84" width="69.00" height="5.50" fill="url(#g-markdown)"><title>2026-W11 · Markdown: +6,246</title></rect><rect x="140.00" y="309.79" width="69.00" height="54.05" fill="url(#g-json)"><title>2026-W11 · JSON: +61,419</title></rect><path d="M 140.00,309.79 V 309.51 Q 140.00,307.01 142.50,307.01 H 206.50 Q 209.00,307.01 209.00,309.51 V 309.79 Z" fill="url(#g-typescript)"><title>2026-W11 · TypeScript: +3,159</title></path><rect x="212.00" y="378.23" width="69.00" height="5.77" fill="url(#g-other)"><title>2026-W12 · Other: +6,560</title></rect><rect x="212.00" y="377.03" width="69.00" height="1.20" fill="url(#g-make)"><title>2026-W12 · Make: +13</title></rect><rect x="212.00" y="375.83" width="69.00" height="1.20" fill="url(#g-toml)"><title>2026-W12 · TOML: +109</title></rect><rect x="212.00" y="374.63" width="69.00" height="1.20" fill="url(#g-text)"><title>2026-W12 · Text: +4</title></rect><rect x="212.00" y="373.43" width="69.00" height="1.20" fill="url(#g-css)"><title>2026-W12 · CSS: +179</title></rect><rect x="212.00" y="372.23" width="69.00" height="1.20" fill="url(#g-rust)"><title>2026-W12 · Rust: +40</title></rect><rect x="212.00" y="371.03" width="69.00" height="1.20" fill="url(#g-svelte)"><title>2026-W12 · Svelte: +1,128</title></rect><rect x="212.00" y="369.83" width="69.00" height="1.20" fill="url(#g-html)"><title>2026-W12 · HTML: +159</title></rect><rect x="212.00" y="368.63" width="69.00" height="1.20" fill="url(#g-yaml)"><title>2026-W12 · YAML: +537</title></rect><rect x="212.00" y="366.81" width="69.00" height="1.82" fill="url(#g-bash)"><title>2026-W12 · Bash: +2,065</title></rect><rect x="212.00" y="364.66" width="69.00" height="2.15" fill="url(#g-astro)"><title>2026-W12 · Astro: +2,446</title></rect><rect x="212.00" y="362.88" width="69.00" height="1.78" fill="url(#g-terraform)"><title>2026-W12 · Terraform: +2,018</title></rect><rect x="212.00" y="361.68" width="69.00" height="1.20" fill="url(#g-python)"><title>2026-W12 · Python: +627</title></rect><rect x="212.00" y="337.53" width="69.00" height="24.15" fill="url(#g-markdown)"><title>2026-W12 · Markdown: +27,441</title></rect><rect x="212.00" y="335.24" width="69.00" height="2.30" fill="url(#g-json)"><title>2026-W12 · JSON: +2,610</title></rect><path d="M 212.00,335.24 V 330.76 Q 212.00,328.26 214.50,328.26 H 278.50 Q 281.00,328.26 281.00,330.76 V 335.24 Z" fill="url(#g-typescript)"><title>2026-W12 · TypeScript: +7,925</title></path><rect x="284.00" y="381.27" width="69.00" height="2.73" fill="url(#g-other)"><title>2026-W13 · Other: +3,104</title></rect><rect x="284.00" y="380.07" width="69.00" height="1.20" fill="url(#g-toml)"><title>2026-W13 · TOML: +33</title></rect><rect x="284.00" y="378.87" width="69.00" height="1.20" fill="url(#g-text)"><title>2026-W13 · Text: +20</title></rect><rect x="284.00" y="377.67" width="69.00" height="1.20" fill="url(#g-rust)"><title>2026-W13 · Rust: +103</title></rect><rect x="284.00" y="376.47" width="69.00" height="1.20" fill="url(#g-svelte)"><title>2026-W13 · Svelte: +120</title></rect><rect x="284.00" y="375.27" width="69.00" height="1.20" fill="url(#g-yaml)"><title>2026-W13 · YAML: +399</title></rect><rect x="284.00" y="374.07" width="69.00" height="1.20" fill="url(#g-bash)"><title>2026-W13 · Bash: +335</title></rect><rect x="284.00" y="372.26" width="69.00" height="1.80" fill="url(#g-astro)"><title>2026-W13 · Astro: +2,051</title></rect><rect x="284.00" y="371.06" width="69.00" height="1.20" fill="url(#g-terraform)"><title>2026-W13 · Terraform: +1,340</title></rect><rect x="284.00" y="368.17" width="69.00" height="2.89" fill="url(#g-python)"><title>2026-W13 · Python: +3,288</title></rect><rect x="284.00" y="364.74" width="69.00" height="3.43" fill="url(#g-markdown)"><title>2026-W13 · Markdown: +3,900</title></rect><rect x="284.00" y="363.54" width="69.00" height="1.20" fill="url(#g-json)"><title>2026-W13 · JSON: +772</title></rect><path d="M 284.00,363.54 V 353.42 Q 284.00,350.92 286.50,350.92 H 350.50 Q 353.00,350.92 353.00,353.42 V 363.54 Z" fill="url(#g-typescript)"><title>2026-W13 · TypeScript: +14,343</title></path><rect x="356.00" y="381.79" width="69.00" height="2.21" fill="url(#g-other)"><title>2026-W14 · Other: +2,510</title></rect><rect x="356.00" y="380.59" width="69.00" height="1.20" fill="url(#g-make)"><title>2026-W14 · Make: +36</title></rect><rect x="356.00" y="379.39" width="69.00" height="1.20" fill="url(#g-toml)"><title>2026-W14 · TOML: +100</title></rect><rect x="356.00" y="378.19" width="69.00" height="1.20" fill="url(#g-dockerfile)"><title>2026-W14 · Dockerfile: +198</title></rect><rect x="356.00" y="376.99" width="69.00" height="1.20" fill="url(#g-text)"><title>2026-W14 · Text: +39</title></rect><rect x="356.00" y="375.79" width="69.00" height="1.20" fill="url(#g-svg)"><title>2026-W14 · SVG: +87</title></rect><rect x="356.00" y="374.59" width="69.00" height="1.20" fill="url(#g-css)"><title>2026-W14 · CSS: +154</title></rect><rect x="356.00" y="373.39" width="69.00" height="1.20" fill="url(#g-rust)"><title>2026-W14 · Rust: +396</title></rect><rect x="356.00" y="370.47" width="69.00" height="2.92" fill="url(#g-svelte)"><title>2026-W14 · Svelte: +3,317</title></rect><rect x="356.00" y="369.27" width="69.00" height="1.20" fill="url(#g-html)"><title>2026-W14 · HTML: +106</title></rect><rect x="356.00" y="368.07" width="69.00" height="1.20" fill="url(#g-yaml)"><title>2026-W14 · YAML: +483</title></rect><rect x="356.00" y="366.87" width="69.00" height="1.20" fill="url(#g-bash)"><title>2026-W14 · Bash: +475</title></rect><rect x="356.00" y="364.32" width="69.00" height="2.55" fill="url(#g-astro)"><title>2026-W14 · Astro: +2,899</title></rect><rect x="356.00" y="363.12" width="69.00" height="1.20" fill="url(#g-terraform)"><title>2026-W14 · Terraform: +1,083</title></rect><rect x="356.00" y="358.29" width="69.00" height="4.83" fill="url(#g-python)"><title>2026-W14 · Python: +5,487</title></rect><rect x="356.00" y="350.84" width="69.00" height="7.45" fill="url(#g-markdown)"><title>2026-W14 · Markdown: +8,469</title></rect><rect x="356.00" y="342.33" width="69.00" height="8.51" fill="url(#g-json)"><title>2026-W14 · JSON: +9,674</title></rect><path d="M 356.00,342.33 V 328.60 Q 356.00,326.10 358.50,326.10 H 422.50 Q 425.00,326.10 425.00,328.60 V 342.33 Z" fill="url(#g-typescript)"><title>2026-W14 · TypeScript: +18,438</title></path><rect x="428.00" y="380.21" width="69.00" height="3.79" fill="url(#g-other)"><title>2026-W15 · Other: +4,312</title></rect><rect x="428.00" y="379.01" width="69.00" height="1.20" fill="url(#g-make)"><title>2026-W15 · Make: +190</title></rect><rect x="428.00" y="377.81" width="69.00" height="1.20" fill="url(#g-toml)"><title>2026-W15 · TOML: +21</title></rect><rect x="428.00" y="376.61" width="69.00" height="1.20" fill="url(#g-dockerfile)"><title>2026-W15 · Dockerfile: +132</title></rect><rect x="428.00" y="375.41" width="69.00" height="1.20" fill="url(#g-text)"><title>2026-W15 · Text: +53</title></rect><rect x="428.00" y="374.21" width="69.00" height="1.20" fill="url(#g-svg)"><title>2026-W15 · SVG: +151</title></rect><rect x="428.00" y="373.01" width="69.00" height="1.20" fill="url(#g-css)"><title>2026-W15 · CSS: +290</title></rect><rect x="428.00" y="371.81" width="69.00" height="1.20" fill="url(#g-rust)"><title>2026-W15 · Rust: +943</title></rect><rect x="428.00" y="369.19" width="69.00" height="2.61" fill="url(#g-yaml)"><title>2026-W15 · YAML: +2,970</title></rect><rect x="428.00" y="367.99" width="69.00" height="1.20" fill="url(#g-bash)"><title>2026-W15 · Bash: +271</title></rect><rect x="428.00" y="366.79" width="69.00" height="1.20" fill="url(#g-astro)"><title>2026-W15 · Astro: +214</title></rect><rect x="428.00" y="365.59" width="69.00" height="1.20" fill="url(#g-terraform)"><title>2026-W15 · Terraform: +377</title></rect><rect x="428.00" y="363.92" width="69.00" height="1.68" fill="url(#g-python)"><title>2026-W15 · Python: +1,905</title></rect><rect x="428.00" y="356.05" width="69.00" height="7.86" fill="url(#g-markdown)"><title>2026-W15 · Markdown: +8,934</title></rect><rect x="428.00" y="351.48" width="69.00" height="4.58" fill="url(#g-json)"><title>2026-W15 · JSON: +5,201</title></rect><path d="M 428.00,351.48 V 336.87 Q 428.00,334.37 430.50,334.37 H 494.50 Q 497.00,334.37 497.00,336.87 V 351.48 Z" fill="url(#g-typescript)"><title>2026-W15 · TypeScript: +19,441</title></path><rect x="500.00" y="380.11" width="69.00" height="3.89" fill="url(#g-other)"><title>2026-W16 · Other: +4,419</title></rect><rect x="500.00" y="378.91" width="69.00" height="1.20" fill="url(#g-toml)"><title>2026-W16 · TOML: +159</title></rect><rect x="500.00" y="377.71" width="69.00" height="1.20" fill="url(#g-dockerfile)"><title>2026-W16 · Dockerfile: +35</title></rect><rect x="500.00" y="376.51" width="69.00" height="1.20" fill="url(#g-svg)"><title>2026-W16 · SVG: +608</title></rect><rect x="500.00" y="375.31" width="69.00" height="1.20" fill="url(#g-css)"><title>2026-W16 · CSS: +120</title></rect><rect x="500.00" y="372.84" width="69.00" height="2.47" fill="url(#g-rust)"><title>2026-W16 · Rust: +2,807</title></rect><rect x="500.00" y="371.63" width="69.00" height="1.21" fill="url(#g-svelte)"><title>2026-W16 · Svelte: +1,373</title></rect><rect x="500.00" y="370.43" width="69.00" height="1.20" fill="url(#g-html)"><title>2026-W16 · HTML: +897</title></rect><rect x="500.00" y="369.23" width="69.00" height="1.20" fill="url(#g-yaml)"><title>2026-W16 · YAML: +737</title></rect><rect x="500.00" y="368.03" width="69.00" height="1.20" fill="url(#g-bash)"><title>2026-W16 · Bash: +1,074</title></rect><rect x="500.00" y="366.68" width="69.00" height="1.35" fill="url(#g-astro)"><title>2026-W16 · Astro: +1,539</title></rect><rect x="500.00" y="364.75" width="69.00" height="1.93" fill="url(#g-terraform)"><title>2026-W16 · Terraform: +2,190</title></rect><rect x="500.00" y="358.97" width="69.00" height="5.78" fill="url(#g-python)"><title>2026-W16 · Python: +6,567</title></rect><rect x="500.00" y="349.49" width="69.00" height="9.48" fill="url(#g-markdown)"><title>2026-W16 · Markdown: +10,770</title></rect><rect x="500.00" y="348.29" width="69.00" height="1.20" fill="url(#g-json)"><title>2026-W16 · JSON: +463</title></rect><path d="M 500.00,348.29 V 315.16 Q 500.00,312.66 502.50,312.66 H 566.50 Q 569.00,312.66 569.00,315.16 V 348.29 Z" fill="url(#g-typescript)"><title>2026-W16 · TypeScript: +40,493</title></path><rect x="572.00" y="275.21" width="69.00" height="108.79" fill="url(#g-other)"><title>2026-W17 · Other: +1,071,231</title></rect><rect x="572.00" y="274.01" width="69.00" height="1.20" fill="url(#g-make)"><title>2026-W17 · Make: +6</title></rect><rect x="572.00" y="272.81" width="69.00" height="1.20" fill="url(#g-dockerfile)"><title>2026-W17 · Dockerfile: +225</title></rect><rect x="572.00" y="271.61" width="69.00" height="1.20" fill="url(#g-sql)"><title>2026-W17 · SQL: +76</title></rect><rect x="572.00" y="270.41" width="69.00" height="1.20" fill="url(#g-text)"><title>2026-W17 · Text: +989</title></rect><rect x="572.00" y="269.21" width="69.00" height="1.20" fill="url(#g-svg)"><title>2026-W17 · SVG: +1,013</title></rect><rect x="572.00" y="268.01" width="69.00" height="1.20" fill="url(#g-css)"><title>2026-W17 · CSS: +1,561</title></rect><rect x="572.00" y="266.81" width="69.00" height="1.20" fill="url(#g-html)"><title>2026-W17 · HTML: +127</title></rect><rect x="572.00" y="265.61" width="69.00" height="1.20" fill="url(#g-yaml)"><title>2026-W17 · YAML: +1,828</title></rect><rect x="572.00" y="264.41" width="69.00" height="1.20" fill="url(#g-bash)"><title>2026-W17 · Bash: +537</title></rect><rect x="572.00" y="263.21" width="69.00" height="1.20" fill="url(#g-astro)"><title>2026-W17 · Astro: +191</title></rect><rect x="572.00" y="262.01" width="69.00" height="1.20" fill="url(#g-terraform)"><title>2026-W17 · Terraform: +4,346</title></rect><rect x="572.00" y="260.81" width="69.00" height="1.20" fill="url(#g-python)"><title>2026-W17 · Python: +2,497</title></rect><rect x="572.00" y="252.09" width="69.00" height="8.72" fill="url(#g-markdown)"><title>2026-W17 · Markdown: +85,836</title></rect><rect x="572.00" y="238.79" width="69.00" height="13.30" fill="url(#g-json)"><title>2026-W17 · JSON: +130,988</title></rect><path d="M 572.00,238.79 V 208.02 Q 572.00,205.52 574.50,205.52 H 638.50 Q 641.00,205.52 641.00,208.02 V 238.79 Z" fill="url(#g-typescript)"><title>2026-W17 · TypeScript: +327,541</title></path><rect x="644.00" y="381.07" width="69.00" height="2.93" fill="url(#g-other)"><title>2026-W18 · Other: +3,334</title></rect><rect x="644.00" y="379.87" width="69.00" height="1.20" fill="url(#g-make)"><title>2026-W18 · Make: +25</title></rect><rect x="644.00" y="378.67" width="69.00" height="1.20" fill="url(#g-toml)"><title>2026-W18 · TOML: +117</title></rect><rect x="644.00" y="377.47" width="69.00" height="1.20" fill="url(#g-dockerfile)"><title>2026-W18 · Dockerfile: +249</title></rect><rect x="644.00" y="376.27" width="69.00" height="1.20" fill="url(#g-sql)"><title>2026-W18 · SQL: +934</title></rect><rect x="644.00" y="375.07" width="69.00" height="1.20" fill="url(#g-text)"><title>2026-W18 · Text: +284</title></rect><rect x="644.00" y="373.87" width="69.00" height="1.20" fill="url(#g-css)"><title>2026-W18 · CSS: +263</title></rect><rect x="644.00" y="372.67" width="69.00" height="1.20" fill="url(#g-svelte)"><title>2026-W18 · Svelte: +450</title></rect><rect x="644.00" y="365.06" width="69.00" height="7.61" fill="url(#g-html)"><title>2026-W18 · HTML: +8,643</title></rect><rect x="644.00" y="362.98" width="69.00" height="2.08" fill="url(#g-yaml)"><title>2026-W18 · YAML: +2,362</title></rect><rect x="644.00" y="361.43" width="69.00" height="1.55" fill="url(#g-bash)"><title>2026-W18 · Bash: +1,758</title></rect><rect x="644.00" y="360.23" width="69.00" height="1.20" fill="url(#g-astro)"><title>2026-W18 · Astro: +445</title></rect><rect x="644.00" y="358.51" width="69.00" height="1.72" fill="url(#g-terraform)"><title>2026-W18 · Terraform: +1,957</title></rect><rect x="644.00" y="352.27" width="69.00" height="6.24" fill="url(#g-python)"><title>2026-W18 · Python: +7,093</title></rect><rect x="644.00" y="346.61" width="69.00" height="5.67" fill="url(#g-markdown)"><title>2026-W18 · Markdown: +6,438</title></rect><rect x="644.00" y="336.47" width="69.00" height="10.14" fill="url(#g-json)"><title>2026-W18 · JSON: +11,522</title></rect><path d="M 644.00,336.47 V 326.37 Q 644.00,323.87 646.50,323.87 H 710.50 Q 713.00,323.87 713.00,326.37 V 336.47 Z" fill="url(#g-typescript)"><title>2026-W18 · TypeScript: +14,318</title></path><rect x="716.00" y="380.32" width="69.00" height="3.68" fill="url(#g-other)"><title>2026-W19 · Other: +4,187</title></rect><rect x="716.00" y="379.12" width="69.00" height="1.20" fill="url(#g-toml)"><title>2026-W19 · TOML: +110</title></rect><rect x="716.00" y="377.92" width="69.00" height="1.20" fill="url(#g-dockerfile)"><title>2026-W19 · Dockerfile: +2</title></rect><rect x="716.00" y="376.72" width="69.00" height="1.20" fill="url(#g-sql)"><title>2026-W19 · SQL: +31</title></rect><rect x="716.00" y="375.52" width="69.00" height="1.20" fill="url(#g-text)"><title>2026-W19 · Text: +6</title></rect><rect x="716.00" y="374.32" width="69.00" height="1.20" fill="url(#g-svg)"><title>2026-W19 · SVG: +51</title></rect><rect x="716.00" y="371.18" width="69.00" height="3.14" fill="url(#g-css)"><title>2026-W19 · CSS: +3,564</title></rect><rect x="716.00" y="369.98" width="69.00" height="1.20" fill="url(#g-dart)"><title>2026-W19 · Dart: +400</title></rect><rect x="716.00" y="367.53" width="69.00" height="2.45" fill="url(#g-rust)"><title>2026-W19 · Rust: +2,780</title></rect><rect x="716.00" y="366.11" width="69.00" height="1.42" fill="url(#g-svelte)"><title>2026-W19 · Svelte: +1,619</title></rect><rect x="716.00" y="364.13" width="69.00" height="1.97" fill="url(#g-html)"><title>2026-W19 · HTML: +2,244</title></rect><rect x="716.00" y="362.88" width="69.00" height="1.25" fill="url(#g-yaml)"><title>2026-W19 · YAML: +1,419</title></rect><rect x="716.00" y="361.14" width="69.00" height="1.74" fill="url(#g-bash)"><title>2026-W19 · Bash: +1,980</title></rect><rect x="716.00" y="359.94" width="69.00" height="1.20" fill="url(#g-astro)"><title>2026-W19 · Astro: +259</title></rect><rect x="716.00" y="355.79" width="69.00" height="4.15" fill="url(#g-terraform)"><title>2026-W19 · Terraform: +4,721</title></rect><rect x="716.00" y="352.52" width="69.00" height="3.27" fill="url(#g-python)"><title>2026-W19 · Python: +3,718</title></rect><rect x="716.00" y="340.79" width="69.00" height="11.72" fill="url(#g-markdown)"><title>2026-W19 · Markdown: +13,321</title></rect><rect x="716.00" y="313.57" width="69.00" height="27.23" fill="url(#g-json)"><title>2026-W19 · JSON: +30,938</title></rect><path d="M 716.00,313.57 V 294.00 Q 716.00,291.50 718.50,291.50 H 782.50 Q 785.00,291.50 785.00,294.00 V 313.57 Z" fill="url(#g-typescript)"><title>2026-W19 · TypeScript: +25,075</title></path><rect x="788.00" y="382.80" width="69.00" height="1.20" fill="url(#g-other)"><title>2026-W20 · Other: +714</title></rect><rect x="788.00" y="381.60" width="69.00" height="1.20" fill="url(#g-make)"><title>2026-W20 · Make: +19</title></rect><rect x="788.00" y="380.40" width="69.00" height="1.20" fill="url(#g-toml)"><title>2026-W20 · TOML: +127</title></rect><rect x="788.00" y="379.20" width="69.00" height="1.20" fill="url(#g-sql)"><title>2026-W20 · SQL: +53</title></rect><rect x="788.00" y="378.00" width="69.00" height="1.20" fill="url(#g-svg)"><title>2026-W20 · SVG: +49</title></rect><rect x="788.00" y="376.80" width="69.00" height="1.20" fill="url(#g-css)"><title>2026-W20 · CSS: +186</title></rect><rect x="788.00" y="370.78" width="69.00" height="6.02" fill="url(#g-dart)"><title>2026-W20 · Dart: +6,843</title></rect><rect x="788.00" y="369.24" width="69.00" height="1.53" fill="url(#g-rust)"><title>2026-W20 · Rust: +1,744</title></rect><rect x="788.00" y="368.04" width="69.00" height="1.20" fill="url(#g-html)"><title>2026-W20 · HTML: +8</title></rect><rect x="788.00" y="366.84" width="69.00" height="1.20" fill="url(#g-yaml)"><title>2026-W20 · YAML: +490</title></rect><rect x="788.00" y="364.11" width="69.00" height="2.73" fill="url(#g-bash)"><title>2026-W20 · Bash: +3,103</title></rect><rect x="788.00" y="362.91" width="69.00" height="1.20" fill="url(#g-astro)"><title>2026-W20 · Astro: +7</title></rect><rect x="788.00" y="361.71" width="69.00" height="1.21" fill="url(#g-terraform)"><title>2026-W20 · Terraform: +1,371</title></rect><rect x="788.00" y="360.51" width="69.00" height="1.20" fill="url(#g-python)"><title>2026-W20 · Python: +546</title></rect><rect x="788.00" y="352.41" width="69.00" height="8.09" fill="url(#g-markdown)"><title>2026-W20 · Markdown: +9,195</title></rect><rect x="788.00" y="347.65" width="69.00" height="4.76" fill="url(#g-json)"><title>2026-W20 · JSON: +5,414</title></rect><path d="M 788.00,347.65 V 345.55 Q 788.00,343.05 790.50,343.05 H 854.50 Q 857.00,343.05 857.00,345.55 V 347.65 Z" fill="url(#g-typescript)"><title>2026-W20 · TypeScript: +5,230</title></path><rect x="860.00" y="382.80" width="69.00" height="1.20" fill="url(#g-other)"><title>2026-W21 · Other: +1</title></rect><rect x="860.00" y="381.60" width="69.00" height="1.20" fill="url(#g-toml)"><title>2026-W21 · TOML: +49</title></rect><rect x="860.00" y="380.40" width="69.00" height="1.20" fill="url(#g-rust)"><title>2026-W21 · Rust: +819</title></rect><rect x="860.00" y="379.20" width="69.00" height="1.20" fill="url(#g-yaml)"><title>2026-W21 · YAML: +5</title></rect><rect x="860.00" y="378.00" width="69.00" height="1.20" fill="url(#g-python)"><title>2026-W21 · Python: +146</title></rect><rect x="860.00" y="376.80" width="69.00" height="1.20" fill="url(#g-markdown)"><title>2026-W21 · Markdown: +878</title></rect><rect x="860.00" y="375.60" width="69.00" height="1.20" fill="url(#g-json)"><title>2026-W21 · JSON: +25</title></rect><path d="M 860.00,375.60 V 375.60 Q 860.00,374.40 861.20,374.40 H 927.80 Q 929.00,374.40 929.00,375.60 V 375.60 Z" fill="url(#g-typescript)"><title>2026-W21 · TypeScript: +1,163</title></path>

  <!-- Clipped-outlier indicators -->
  <path d="M 601.5 214 L 606.5 209 L 611.5 214" stroke="var(--fg)" stroke-width="1.6" stroke-linecap="round" stroke-linejoin="round" fill="none" opacity="0.85"/><text x="606.5" y="204" text-anchor="middle" class="clip-label">+1.6M</text>

  <!-- X-axis labels -->
  <text x="102.5" y="402.0" text-anchor="middle" class="axis">MAR</text><text x="462.5" y="402.0" text-anchor="middle" class="axis">APR</text><text x="750.5" y="402.0" text-anchor="middle" class="axis">MAY</text>

  <!-- Activity pulse section (commits + repos sparklines) -->
  <text x="28" y="408" class="section">ACTIVITY PULSE</text>
  <text x="932" y="408" class="period" text-anchor="end">weekly cadence</text>
  <rect x="28.0" y="420" width="440.0" height="36" rx="8" fill="url(#card-bg)" stroke="var(--border)"/><circle cx="40.0" cy="438.0" r="3.5" fill="#22C55E"/><text x="52.0" y="441.5" class="kpi-label">COMMITS</text><text x="116.0" y="443.0" class="pulse-val mono">4,113</text><text x="456.0" y="442.0" class="pulse-peak mono" fill="#22C55E" text-anchor="end">↑1,136</text><polygon points="178.0,450.0 178.0,447.6 199.3,447.5 220.5,447.6 241.8,447.3 263.1,447.0 284.4,440.5 305.6,426.4 326.9,426.0 348.2,446.5 369.5,438.6 390.7,448.1 412.0,449.9 412.0,450.0" fill="#22C55E" opacity="0.18"/><polyline points="178.0,447.6 199.3,447.5 220.5,447.6 241.8,447.3 263.1,447.0 284.4,440.5 305.6,426.4 326.9,426.0 348.2,446.5 369.5,438.6 390.7,448.1 412.0,449.9" fill="none" stroke="#22C55E" stroke-width="1.5" stroke-linejoin="round" stroke-linecap="round"/><rect x="492.0" y="420" width="440.0" height="36" rx="8" fill="url(#card-bg)" stroke="var(--border)"/><circle cx="504.0" cy="438.0" r="3.5" fill="#F97316"/><text x="516.0" y="441.5" class="kpi-label">REPOS</text><text x="580.0" y="443.0" class="pulse-val mono">24</text><text x="920.0" y="442.0" class="pulse-peak mono" fill="#F97316" text-anchor="end">↑16</text><polygon points="642.0,450.0 642.0,444.0 663.3,442.5 684.5,439.5 705.8,436.5 727.1,439.5 748.4,436.5 769.6,438.0 790.9,436.5 812.2,430.5 833.5,426.0 854.7,430.5 876.0,447.0 876.0,450.0" fill="#F97316" opacity="0.18"/><polyline points="642.0,444.0 663.3,442.5 684.5,439.5 705.8,436.5 727.1,439.5 748.4,436.5 769.6,438.0 790.9,436.5 812.2,430.5 833.5,426.0 854.7,430.5 876.0,447.0" fill="none" stroke="#F97316" stroke-width="1.5" stroke-linejoin="round" stroke-linecap="round"/>

  <!-- Language breakdown section title -->
  <text x="28" y="480" class="section">LANGUAGE BREAKDOWN</text>
  <text x="932" y="480" class="period" text-anchor="end">
    ranked by lines added
  </text>

  <circle cx="33.0" cy="498" r="4" fill="#3178C6"/><text x="44.0" y="502" class="lb-name">TypeScript</text><rect x="120.0" y="495" width="252.0" height="6" rx="3" fill="var(--track)"/><rect x="120.0" y="495" width="109.5" height="6" rx="3" fill="url(#g-typescript)"/><text x="408.0" y="502" class="lb-val" text-anchor="end">+481k</text><text x="460.0" y="502" class="lb-pct" text-anchor="end">21.6%</text><circle cx="33.0" cy="518" r="4" fill="#14B8A6"/><text x="44.0" y="522" class="lb-name">JSON</text><rect x="120.0" y="515" width="252.0" height="6" rx="3" fill="var(--track)"/><rect x="120.0" y="515" width="69.1" height="6" rx="3" fill="url(#g-json)"/><text x="408.0" y="522" class="lb-val" text-anchor="end">+303k</text><text x="460.0" y="522" class="lb-pct" text-anchor="end">13.6%</text><circle cx="33.0" cy="538" r="4" fill="#8B5CF6"/><text x="44.0" y="542" class="lb-name">Markdown</text><rect x="120.0" y="535" width="252.0" height="6" rx="3" fill="var(--track)"/><rect x="120.0" y="535" width="43.3" height="6" rx="3" fill="url(#g-markdown)"/><text x="408.0" y="542" class="lb-val" text-anchor="end">+190k</text><text x="460.0" y="542" class="lb-pct" text-anchor="end">8.5%</text><circle cx="33.0" cy="558" r="4" fill="#3776AB"/><text x="44.0" y="562" class="lb-name">Python</text><rect x="120.0" y="555" width="252.0" height="6" rx="3" fill="var(--track)"/><rect x="120.0" y="555" width="7.4" height="6" rx="3" fill="url(#g-python)"/><text x="408.0" y="562" class="lb-val" text-anchor="end">+32k</text><text x="460.0" y="562" class="lb-pct" text-anchor="end">1.4%</text><circle cx="33.0" cy="578" r="4" fill="#6366F1"/><text x="44.0" y="582" class="lb-name">Terraform</text><rect x="120.0" y="575" width="252.0" height="6" rx="3" fill="var(--track)"/><rect x="120.0" y="575" width="4.9" height="6" rx="3" fill="url(#g-terraform)"/><text x="408.0" y="582" class="lb-val" text-anchor="end">+21k</text><text x="460.0" y="582" class="lb-pct" text-anchor="end">1.0%</text><circle cx="33.0" cy="598" r="4" fill="#FF5D01"/><text x="44.0" y="602" class="lb-name">Astro</text><rect x="120.0" y="595" width="252.0" height="6" rx="3" fill="var(--track)"/><rect x="120.0" y="595" width="4.0" height="6" rx="3" fill="url(#g-astro)"/><text x="408.0" y="602" class="lb-val" text-anchor="end">+18k</text><text x="460.0" y="602" class="lb-pct" text-anchor="end">0.8%</text><circle cx="33.0" cy="618" r="4" fill="#22C55E"/><text x="44.0" y="622" class="lb-name">Bash</text><rect x="120.0" y="615" width="252.0" height="6" rx="3" fill="var(--track)"/><rect x="120.0" y="615" width="3.4" height="6" rx="3" fill="url(#g-bash)"/><text x="408.0" y="622" class="lb-val" text-anchor="end">+15k</text><text x="460.0" y="622" class="lb-pct" text-anchor="end">0.7%</text><circle cx="33.0" cy="638" r="4" fill="#EC4899"/><text x="44.0" y="642" class="lb-name">YAML</text><rect x="120.0" y="635" width="252.0" height="6" rx="3" fill="var(--track)"/><rect x="120.0" y="635" width="2.9" height="6" rx="3" fill="url(#g-yaml)"/><text x="408.0" y="642" class="lb-val" text-anchor="end">+13k</text><text x="460.0" y="642" class="lb-pct" text-anchor="end">0.6%</text><circle cx="33.0" cy="658" r="4" fill="#E34C26"/><text x="44.0" y="662" class="lb-name">HTML</text><rect x="120.0" y="655" width="252.0" height="6" rx="3" fill="var(--track)"/><rect x="120.0" y="655" width="2.8" height="6" rx="3" fill="url(#g-html)"/><text x="408.0" y="662" class="lb-val" text-anchor="end">+12k</text><text x="460.0" y="662" class="lb-pct" text-anchor="end">0.5%</text><circle cx="33.0" cy="678" r="4" fill="#FF3E00"/><text x="44.0" y="682" class="lb-name">Svelte</text><rect x="120.0" y="675" width="252.0" height="6" rx="3" fill="var(--track)"/><rect x="120.0" y="675" width="2.2" height="6" rx="3" fill="url(#g-svelte)"/><text x="408.0" y="682" class="lb-val" text-anchor="end">+9.8k</text><text x="460.0" y="682" class="lb-pct" text-anchor="end">0.4%</text><circle cx="505.0" cy="498" r="4" fill="#F97316"/><text x="516.0" y="502" class="lb-name">Rust</text><rect x="592.0" y="495" width="252.0" height="6" rx="3" fill="var(--track)"/><rect x="592.0" y="495" width="2.2" height="6" rx="3" fill="url(#g-rust)"/><text x="880.0" y="502" class="lb-val" text-anchor="end">+9.6k</text><text x="932.0" y="502" class="lb-pct" text-anchor="end">0.4%</text><circle cx="505.0" cy="518" r="4" fill="#00B4AB"/><text x="516.0" y="522" class="lb-name">Dart</text><rect x="592.0" y="515" width="252.0" height="6" rx="3" fill="var(--track)"/><rect x="592.0" y="515" width="1.6" height="6" rx="3" fill="url(#g-dart)"/><text x="880.0" y="522" class="lb-val" text-anchor="end">+7.2k</text><text x="932.0" y="522" class="lb-pct" text-anchor="end">0.3%</text><circle cx="505.0" cy="538" r="4" fill="#563D7C"/><text x="516.0" y="542" class="lb-name">CSS</text><rect x="592.0" y="535" width="252.0" height="6" rx="3" fill="var(--track)"/><rect x="592.0" y="535" width="1.4" height="6" rx="3" fill="url(#g-css)"/><text x="880.0" y="542" class="lb-val" text-anchor="end">+6.3k</text><text x="932.0" y="542" class="lb-pct" text-anchor="end">0.3%</text><circle cx="505.0" cy="558" r="4" fill="#6B7280"/><text x="516.0" y="562" class="lb-name">SVG</text><rect x="592.0" y="555" width="252.0" height="6" rx="3" fill="var(--track)"/><rect x="592.0" y="555" width="0.5" height="6" rx="3" fill="url(#g-svg)"/><text x="880.0" y="562" class="lb-val" text-anchor="end">+2.1k</text><text x="932.0" y="562" class="lb-pct" text-anchor="end">0.1%</text><circle cx="505.0" cy="578" r="4" fill="#94A3B8"/><text x="516.0" y="582" class="lb-name">Text</text><rect x="592.0" y="575" width="252.0" height="6" rx="3" fill="var(--track)"/><rect x="592.0" y="575" width="0.4" height="6" rx="3" fill="url(#g-text)"/><text x="880.0" y="582" class="lb-val" text-anchor="end">+1.6k</text><text x="932.0" y="582" class="lb-pct" text-anchor="end">0.1%</text><circle cx="505.0" cy="598" r="4" fill="#F59E0B"/><text x="516.0" y="602" class="lb-name">SQL</text><rect x="592.0" y="595" width="252.0" height="6" rx="3" fill="var(--track)"/><rect x="592.0" y="595" width="0.2" height="6" rx="3" fill="url(#g-sql)"/><text x="880.0" y="602" class="lb-val" text-anchor="end">+1.1k</text><text x="932.0" y="602" class="lb-pct" text-anchor="end">0.0%</text><circle cx="505.0" cy="618" r="4" fill="#2496ED"/><text x="516.0" y="622" class="lb-name">Dockerfile</text><rect x="592.0" y="615" width="252.0" height="6" rx="3" fill="var(--track)"/><rect x="592.0" y="615" width="0.2" height="6" rx="3" fill="url(#g-dockerfile)"/><text x="880.0" y="622" class="lb-val" text-anchor="end">+841</text><text x="932.0" y="622" class="lb-pct" text-anchor="end">0.0%</text><circle cx="505.0" cy="638" r="4" fill="#9C4221"/><text x="516.0" y="642" class="lb-name">TOML</text><rect x="592.0" y="635" width="252.0" height="6" rx="3" fill="var(--track)"/><rect x="592.0" y="635" width="0.2" height="6" rx="3" fill="url(#g-toml)"/><text x="880.0" y="642" class="lb-val" text-anchor="end">+825</text><text x="932.0" y="642" class="lb-pct" text-anchor="end">0.0%</text><circle cx="505.0" cy="658" r="4" fill="#6D8086"/><text x="516.0" y="662" class="lb-name">Make</text><rect x="592.0" y="655" width="252.0" height="6" rx="3" fill="var(--track)"/><rect x="592.0" y="655" width="0.1" height="6" rx="3" fill="url(#g-make)"/><text x="880.0" y="662" class="lb-val" text-anchor="end">+289</text><text x="932.0" y="662" class="lb-pct" text-anchor="end">0.0%</text><circle cx="505.0" cy="678" r="4" fill="#6B7280"/><text x="516.0" y="682" class="lb-name">Other</text><rect x="592.0" y="675" width="252.0" height="6" rx="3" fill="var(--track)"/><rect x="592.0" y="675" width="252.0" height="6" rx="3" fill="url(#g-other)"/><text x="880.0" y="682" class="lb-val" text-anchor="end">+1.1M</text><text x="932.0" y="682" class="lb-pct" text-anchor="end">49.6%</text>

  <!-- Footer -->
  <line x1="28" y1="722" x2="932" y2="722"
        stroke="var(--border)" stroke-width="1"/>
  <text x="28" y="738" class="footer">
    Generated 2026-05-19 · git diff-tree --numstat · non-forked, non-archived repos
  </text>
  <text x="932" y="738" class="footer" text-anchor="end">
    github.com · auto-updated
  </text>
</svg>