<svg xmlns="http://www.w3.org/2000/svg"
     viewBox="0 0 960 752"
     width="960" height="752"
     role="img" aria-label="Developer activity — weekly lines of code by language">

  <defs>
    <style>
      svg {
        --bg:        #FFFFFF;
        --fg:        #0F172A;
        --muted:     #64748B;
        --subtle:    #94A3B8;
        --border:    #E2E8F0;
        --grid:      #EEF2F6;
        --track:     #EEF2F6;
        --card-top:  #FFFFFF;
        --card-bot:  #F8FAFC;
        --accent:    #3178C6;
      }
      @media (prefers-color-scheme: dark) {
        svg {
          --bg:        #0D1117;
          --fg:        #E6EDF3;
          --muted:     #8B949E;
          --subtle:    #6E7681;
          --border:    #21262D;
          --grid:      #161B22;
          --track:     #1C2128;
          --card-top:  #161B22;
          --card-bot:  #0D1117;
          --accent:    #58A6FF;
        }
      }
      text {
        font-family: -apple-system, BlinkMacSystemFont, "Segoe UI",
                     "SF Pro Text", "Helvetica Neue", Arial, sans-serif;
        fill: var(--fg);
      }
      .mono {
        font-family: ui-monospace, SFMono-Regular, "SF Mono", Menlo,
                     Consolas, "Liberation Mono", monospace;
        font-variant-numeric: tabular-nums;
      }
      .eyebrow {
        font-size: 11px; font-weight: 600; letter-spacing: 2px;
        fill: var(--muted);
      }
      .period {
        font-size: 11px; fill: var(--muted);
        font-variant-numeric: tabular-nums;
      }
      .section {
        font-size: 10.5px; font-weight: 600; letter-spacing: 1.8px;
        fill: var(--muted);
      }
      .kpi-label {
        font-size: 9.5px; font-weight: 600; letter-spacing: 1.5px;
        fill: var(--muted);
      }
      .kpi-value {
        font-size: 26px; font-weight: 700; fill: var(--fg);
        font-variant-numeric: tabular-nums;
      }
      .kpi-sub {
        font-size: 10.5px; fill: var(--muted);
      }
      .axis {
        font-size: 9.5px; fill: var(--subtle);
        font-variant-numeric: tabular-nums;
      }
      .pulse-val {
        font-size: 18px; font-weight: 700; fill: var(--fg);
        font-variant-numeric: tabular-nums;
      }
      .pulse-peak {
        font-size: 11px; font-weight: 600;
        font-variant-numeric: tabular-nums;
      }
      .lb-name { font-size: 11px; font-weight: 500; fill: var(--fg); }
      .lb-val  { font-size: 10.5px; fill: var(--muted);
                  font-variant-numeric: tabular-nums; }
      .lb-pct  { font-size: 10.5px; font-weight: 600; fill: var(--fg);
                  font-variant-numeric: tabular-nums; }
      .clip-label { font-size: 9.5px; font-weight: 600; fill: var(--fg);
                     font-variant-numeric: tabular-nums; }
      .footer { font-size: 9.5px; fill: var(--subtle); }
    </style>
    <linearGradient id="g-typescript" x1="0" y1="0" x2="0" y2="1"><stop offset="0%" stop-color="#5198E8" stop-opacity="1"/><stop offset="100%" stop-color="#3178C6" stop-opacity="1"/></linearGradient><linearGradient id="g-json" x1="0" y1="0" x2="0" y2="1"><stop offset="0%" stop-color="#2DD4BF" stop-opacity="1"/><stop offset="100%" stop-color="#14B8A6" stop-opacity="1"/></linearGradient><linearGradient id="g-markdown" x1="0" y1="0" x2="0" y2="1"><stop offset="0%" stop-color="#A78BFA" stop-opacity="1"/><stop offset="100%" stop-color="#8B5CF6" stop-opacity="1"/></linearGradient><linearGradient id="g-python" x1="0" y1="0" x2="0" y2="1"><stop offset="0%" stop-color="#5497D4" stop-opacity="1"/><stop offset="100%" stop-color="#3776AB" stop-opacity="1"/></linearGradient><linearGradient id="g-terraform" x1="0" y1="0" x2="0" y2="1"><stop offset="0%" stop-color="#8B8EF7" stop-opacity="1"/><stop offset="100%" stop-color="#6366F1" stop-opacity="1"/></linearGradient><linearGradient id="g-astro" x1="0" y1="0" x2="0" y2="1"><stop offset="0%" stop-color="#FF8338" stop-opacity="1"/><stop offset="100%" stop-color="#FF5D01" stop-opacity="1"/></linearGradient><linearGradient id="g-html" x1="0" y1="0" x2="0" y2="1"><stop offset="0%" stop-color="#F76E4A" stop-opacity="1"/><stop offset="100%" stop-color="#E34C26" stop-opacity="1"/></linearGradient><linearGradient id="g-yaml" x1="0" y1="0" x2="0" y2="1"><stop offset="0%" stop-color="#F472B6" stop-opacity="1"/><stop offset="100%" stop-color="#EC4899" stop-opacity="1"/></linearGradient><linearGradient id="g-bash" x1="0" y1="0" x2="0" y2="1"><stop offset="0%" stop-color="#4ADE80" stop-opacity="1"/><stop offset="100%" stop-color="#22C55E" stop-opacity="1"/></linearGradient><linearGradient id="g-svelte" x1="0" y1="0" x2="0" y2="1"><stop offset="0%" stop-color="#FF6A3D" stop-opacity="1"/><stop offset="100%" stop-color="#FF3E00" stop-opacity="1"/></linearGradient><linearGradient id="g-rust" x1="0" y1="0" x2="0" y2="1"><stop offset="0%" stop-color="#FB9A4A" stop-opacity="1"/><stop offset="100%" stop-color="#F97316" stop-opacity="1"/></linearGradient><linearGradient id="g-css" x1="0" y1="0" x2="0" y2="1"><stop offset="0%" stop-color="#7A58A8" stop-opacity="1"/><stop offset="100%" stop-color="#563D7C" stop-opacity="1"/></linearGradient><linearGradient id="g-jupyter" x1="0" y1="0" x2="0" y2="1"><stop offset="0%" stop-color="#FF7F3F" stop-opacity="1"/><stop offset="100%" stop-color="#DA5B0B" stop-opacity="1"/></linearGradient><linearGradient id="g-svg" x1="0" y1="0" x2="0" y2="1"><stop offset="0%" stop-color="#9CA3AF" stop-opacity="1"/><stop offset="100%" stop-color="#6B7280" stop-opacity="1"/></linearGradient><linearGradient id="g-text" x1="0" y1="0" x2="0" y2="1"><stop offset="0%" stop-color="#CBD5E1" stop-opacity="1"/><stop offset="100%" stop-color="#94A3B8" stop-opacity="1"/></linearGradient><linearGradient id="g-sql" x1="0" y1="0" x2="0" y2="1"><stop offset="0%" stop-color="#FBBF24" stop-opacity="1"/><stop offset="100%" stop-color="#F59E0B" stop-opacity="1"/></linearGradient><linearGradient id="g-dockerfile" x1="0" y1="0" x2="0" y2="1"><stop offset="0%" stop-color="#52B0F2" stop-opacity="1"/><stop offset="100%" stop-color="#2496ED" stop-opacity="1"/></linearGradient><linearGradient id="g-toml" x1="0" y1="0" x2="0" y2="1"><stop offset="0%" stop-color="#BE5D3A" stop-opacity="1"/><stop offset="100%" stop-color="#9C4221" stop-opacity="1"/></linearGradient><linearGradient id="g-go" x1="0" y1="0" x2="0" y2="1"><stop offset="0%" stop-color="#38D3E8" stop-opacity="1"/><stop offset="100%" stop-color="#06B6D4" stop-opacity="1"/></linearGradient><linearGradient id="g-make" x1="0" y1="0" x2="0" y2="1"><stop offset="0%" stop-color="#8FA1A6" stop-opacity="1"/><stop offset="100%" stop-color="#6D8086" stop-opacity="1"/></linearGradient><linearGradient id="card-bg" x1="0" y1="0" x2="0" y2="1"><stop offset="0%" stop-color="var(--card-top)"/><stop offset="100%" stop-color="var(--card-bot)"/></linearGradient>
  </defs>

  <!-- Canvas -->
  <rect width="960" height="752" fill="var(--bg)" rx="12"/>

  <!-- Header: eyebrow with accent dot (left) + period (right) -->
  <circle cx="32" cy="36" r="4" fill="var(--accent)"/>
  <text x="44" y="40" class="eyebrow">DEVELOPER ACTIVITY</text>
  <text x="932" y="40" class="period" text-anchor="end">Last 18 weeks · 2026-W02 → 2026-W19</text>

  <!-- Divider under header -->
  <line x1="28" y1="54" x2="932" y2="54"
        stroke="var(--border)" stroke-width="1"/>

  <!-- KPI cards -->
  <rect x="28.0" y="72" width="215.5" height="96" rx="10" fill="url(#card-bg)" stroke="var(--border)"/><rect x="28.0" y="84" width="3" height="72" rx="1.5" fill="#22C55E"/><text x="44.0" y="96" class="kpi-label">NET LINES</text><text x="44.0" y="132" class="kpi-value">948k</text><text x="44.0" y="154" class="kpi-sub">+1.1M / −137k · 20 langs</text><rect x="257.5" y="72" width="215.5" height="96" rx="10" fill="url(#card-bg)" stroke="var(--border)"/><rect x="257.5" y="84" width="3" height="72" rx="1.5" fill="#3178C6"/><text x="273.5" y="96" class="kpi-label">TOP LANGUAGE</text><text x="273.5" y="132" class="kpi-value">TypeScript</text><text x="273.5" y="154" class="kpi-sub">43.6% of activity</text><rect x="487.0" y="72" width="215.5" height="96" rx="10" fill="url(#card-bg)" stroke="var(--border)"/><rect x="487.0" y="84" width="3" height="72" rx="1.5" fill="#F97316"/><text x="503.0" y="96" class="kpi-label">PEAK WEEK</text><text x="503.0" y="132" class="kpi-value">558k</text><text x="503.0" y="154" class="kpi-sub">week of Apr 20</text><rect x="716.5" y="72" width="215.5" height="96" rx="10" fill="url(#card-bg)" stroke="var(--border)"/><rect x="716.5" y="84" width="3" height="72" rx="1.5" fill="#3178C6"/><text x="732.5" y="96" class="kpi-label">WEEKLY AVG</text><text x="732.5" y="132" class="kpi-value">60k</text><text x="732.5" y="154" class="kpi-sub">over 18 weeks</text>

  <!-- Chart section title -->
  <text x="28" y="196" class="section">WEEKLY ACTIVITY</text>
  <text x="932" y="196" class="period" text-anchor="end">
    lines added per week
  </text>

  <!-- Grid -->
  <line x1="68" y1="384.0" x2="932" y2="384.0" stroke="var(--grid)" stroke-width="1"/><line x1="68" y1="340.0" x2="932" y2="340.0" stroke="var(--grid)" stroke-width="1" stroke-dasharray="2,4"/><text x="60" y="343.5" text-anchor="end" class="axis">25k</text><line x1="68" y1="296.0" x2="932" y2="296.0" stroke="var(--grid)" stroke-width="1" stroke-dasharray="2,4"/><text x="60" y="299.5" text-anchor="end" class="axis">50k</text><line x1="68" y1="252.0" x2="932" y2="252.0" stroke="var(--grid)" stroke-width="1" stroke-dasharray="2,4"/><text x="60" y="255.5" text-anchor="end" class="axis">75k</text><line x1="68" y1="208.0" x2="932" y2="208.0" stroke="var(--grid)" stroke-width="1" stroke-dasharray="2,4"/><text x="60" y="211.5" text-anchor="end" class="axis">100k</text>

  <!-- Bars -->
  <rect x="68.00" y="382.80" width="45.00" height="1.20" fill="url(#g-markdown)"><title>2026-W02 · Markdown: +313</title></rect><path d="M 68.00,382.80 V 382.80 Q 68.00,381.60 69.20,381.60 H 111.80 Q 113.00,381.60 113.00,382.80 V 382.80 Z" fill="url(#g-json)"><title>2026-W02 · JSON: +15</title></path><rect x="116.00" y="382.53" width="45.00" height="1.47" fill="url(#g-markdown)"><title>2026-W03 · Markdown: +838</title></rect><path d="M 116.00,382.53 V 382.53 Q 116.00,380.66 117.86,380.66 H 159.14 Q 161.00,380.66 161.00,382.53 V 382.53 Z" fill="url(#g-json)"><title>2026-W03 · JSON: +1,058</title></path><rect x="164.00" y="380.23" width="45.00" height="3.77" fill="url(#g-jupyter)"><title>2026-W04 · Jupyter: +2,143</title></rect><rect x="164.00" y="378.10" width="45.00" height="2.12" fill="url(#g-python)"><title>2026-W04 · Python: +1,207</title></rect><rect x="164.00" y="376.33" width="45.00" height="1.77" fill="url(#g-markdown)"><title>2026-W04 · Markdown: +1,006</title></rect><path d="M 164.00,376.33 V 376.33 Q 164.00,375.13 165.20,375.13 H 207.80 Q 209.00,375.13 209.00,376.33 V 376.33 Z" fill="url(#g-json)"><title>2026-W04 · JSON: +155</title></path><path d="M 212.00,384.00 V 384.00 Q 212.00,382.80 213.20,382.80 H 255.80 Q 257.00,382.80 257.00,384.00 V 384.00 Z" fill="url(#g-markdown)"><title>2026-W05 · Markdown: +7</title></path><rect x="260.00" y="382.80" width="45.00" height="1.20" fill="url(#g-text)"><title>2026-W06 · Text: +7</title></rect><rect x="260.00" y="381.60" width="45.00" height="1.20" fill="url(#g-markdown)"><title>2026-W06 · Markdown: +7</title></rect><path d="M 260.00,381.60 V 381.60 Q 260.00,380.40 261.20,380.40 H 303.80 Q 305.00,380.40 305.00,381.60 V 381.60 Z" fill="url(#g-json)"><title>2026-W06 · JSON: +153</title></path><rect x="308.00" y="382.80" width="45.00" height="1.20" fill="url(#g-markdown)"><title>2026-W07 · Markdown: +668</title></rect><path d="M 308.00,382.80 V 382.80 Q 308.00,381.60 309.20,381.60 H 351.80 Q 353.00,381.60 353.00,382.80 V 382.80 Z" fill="url(#g-json)"><title>2026-W07 · JSON: +24</title></path><rect x="356.00" y="382.80" width="45.00" height="1.20" fill="url(#g-bash)"><title>2026-W08 · Bash: +149</title></rect><rect x="356.00" y="381.60" width="45.00" height="1.20" fill="url(#g-yaml)"><title>2026-W08 · YAML: +11</title></rect><rect x="356.00" y="380.40" width="45.00" height="1.20" fill="url(#g-astro)"><title>2026-W08 · Astro: +76</title></rect><rect x="356.00" y="379.20" width="45.00" height="1.20" fill="url(#g-terraform)"><title>2026-W08 · Terraform: +278</title></rect><rect x="356.00" y="378.00" width="45.00" height="1.20" fill="url(#g-markdown)"><title>2026-W08 · Markdown: +52</title></rect><rect x="356.00" y="376.80" width="45.00" height="1.20" fill="url(#g-json)"><title>2026-W08 · JSON: +2</title></rect><path d="M 356.00,376.80 V 376.80 Q 356.00,375.60 357.20,375.60 H 399.80 Q 401.00,375.60 401.00,376.80 V 376.80 Z" fill="url(#g-typescript)"><title>2026-W08 · TypeScript: +52</title></path><rect x="404.00" y="382.80" width="45.00" height="1.20" fill="url(#g-text)"><title>2026-W09 · Text: +178</title></rect><rect x="404.00" y="381.60" width="45.00" height="1.20" fill="url(#g-svg)"><title>2026-W09 · SVG: +87</title></rect><rect x="404.00" y="380.40" width="45.00" height="1.20" fill="url(#g-bash)"><title>2026-W09 · Bash: +84</title></rect><rect x="404.00" y="379.20" width="45.00" height="1.20" fill="url(#g-yaml)"><title>2026-W09 · YAML: +480</title></rect><rect x="404.00" y="373.00" width="45.00" height="6.20" fill="url(#g-astro)"><title>2026-W09 · Astro: +3,523</title></rect><rect x="404.00" y="371.40" width="45.00" height="1.60" fill="url(#g-terraform)"><title>2026-W09 · Terraform: +910</title></rect><rect x="404.00" y="365.89" width="45.00" height="5.50" fill="url(#g-markdown)"><title>2026-W09 · Markdown: +3,127</title></rect><rect x="404.00" y="288.49" width="45.00" height="77.40" fill="url(#g-json)"><title>2026-W09 · JSON: +43,978</title></rect><path d="M 404.00,288.49 V 288.49 Q 404.00,286.00 406.50,286.00 H 446.50 Q 449.00,286.00 449.00,288.49 V 288.49 Z" fill="url(#g-typescript)"><title>2026-W09 · TypeScript: +1,418</title></path><rect x="452.00" y="382.80" width="45.00" height="1.20" fill="url(#g-text)"><title>2026-W10 · Text: +4</title></rect><rect x="452.00" y="381.60" width="45.00" height="1.20" fill="url(#g-bash)"><title>2026-W10 · Bash: +10</title></rect><rect x="452.00" y="380.40" width="45.00" height="1.20" fill="url(#g-yaml)"><title>2026-W10 · YAML: +180</title></rect><rect x="452.00" y="375.55" width="45.00" height="4.85" fill="url(#g-astro)"><title>2026-W10 · Astro: +2,758</title></rect><rect x="452.00" y="374.35" width="45.00" height="1.20" fill="url(#g-terraform)"><title>2026-W10 · Terraform: +419</title></rect><rect x="452.00" y="364.49" width="45.00" height="9.85" fill="url(#g-markdown)"><title>2026-W10 · Markdown: +5,598</title></rect><rect x="452.00" y="363.29" width="45.00" height="1.20" fill="url(#g-json)"><title>2026-W10 · JSON: +298</title></rect><path d="M 452.00,363.29 V 361.38 Q 452.00,358.88 454.50,358.88 H 494.50 Q 497.00,358.88 497.00,361.38 V 363.29 Z" fill="url(#g-typescript)"><title>2026-W10 · TypeScript: +2,507</title></path><rect x="500.00" y="382.80" width="45.00" height="1.20" fill="url(#g-svg)"><title>2026-W11 · SVG: +32</title></rect><rect x="500.00" y="379.67" width="45.00" height="3.13" fill="url(#g-svelte)"><title>2026-W11 · Svelte: +1,781</title></rect><rect x="500.00" y="374.05" width="45.00" height="5.61" fill="url(#g-bash)"><title>2026-W11 · Bash: +3,188</title></rect><rect x="500.00" y="372.72" width="45.00" height="1.34" fill="url(#g-yaml)"><title>2026-W11 · YAML: +760</title></rect><rect x="500.00" y="370.60" width="45.00" height="2.12" fill="url(#g-astro)"><title>2026-W11 · Astro: +1,204</title></rect><rect x="500.00" y="369.40" width="45.00" height="1.20" fill="url(#g-terraform)"><title>2026-W11 · Terraform: +630</title></rect><rect x="500.00" y="368.20" width="45.00" height="1.20" fill="url(#g-python)"><title>2026-W11 · Python: +419</title></rect><rect x="500.00" y="357.20" width="45.00" height="10.99" fill="url(#g-markdown)"><title>2026-W11 · Markdown: +6,246</title></rect><rect x="500.00" y="249.11" width="45.00" height="108.10" fill="url(#g-json)"><title>2026-W11 · JSON: +61,419</title></rect><path d="M 500.00,249.11 V 246.05 Q 500.00,243.55 502.50,243.55 H 542.50 Q 545.00,243.55 545.00,246.05 V 249.11 Z" fill="url(#g-typescript)"><title>2026-W11 · TypeScript: +3,159</title></path><rect x="548.00" y="382.80" width="45.00" height="1.20" fill="url(#g-make)"><title>2026-W12 · Make: +13</title></rect><rect x="548.00" y="381.60" width="45.00" height="1.20" fill="url(#g-toml)"><title>2026-W12 · TOML: +109</title></rect><rect x="548.00" y="380.40" width="45.00" height="1.20" fill="url(#g-text)"><title>2026-W12 · Text: +4</title></rect><rect x="548.00" y="379.20" width="45.00" height="1.20" fill="url(#g-css)"><title>2026-W12 · CSS: +179</title></rect><rect x="548.00" y="378.00" width="45.00" height="1.20" fill="url(#g-rust)"><title>2026-W12 · Rust: +40</title></rect><rect x="548.00" y="376.01" width="45.00" height="1.99" fill="url(#g-svelte)"><title>2026-W12 · Svelte: +1,128</title></rect><rect x="548.00" y="372.38" width="45.00" height="3.63" fill="url(#g-bash)"><title>2026-W12 · Bash: +2,065</title></rect><rect x="548.00" y="371.18" width="45.00" height="1.20" fill="url(#g-yaml)"><title>2026-W12 · YAML: +537</title></rect><rect x="548.00" y="369.98" width="45.00" height="1.20" fill="url(#g-html)"><title>2026-W12 · HTML: +159</title></rect><rect x="548.00" y="365.68" width="45.00" height="4.30" fill="url(#g-astro)"><title>2026-W12 · Astro: +2,446</title></rect><rect x="548.00" y="362.12" width="45.00" height="3.55" fill="url(#g-terraform)"><title>2026-W12 · Terraform: +2,018</title></rect><rect x="548.00" y="360.92" width="45.00" height="1.20" fill="url(#g-python)"><title>2026-W12 · Python: +627</title></rect><rect x="548.00" y="312.63" width="45.00" height="48.30" fill="url(#g-markdown)"><title>2026-W12 · Markdown: +27,441</title></rect><rect x="548.00" y="308.03" width="45.00" height="4.59" fill="url(#g-json)"><title>2026-W12 · JSON: +2,610</title></rect><path d="M 548.00,308.03 V 296.59 Q 548.00,294.09 550.50,294.09 H 590.50 Q 593.00,294.09 593.00,296.59 V 308.03 Z" fill="url(#g-typescript)"><title>2026-W12 · TypeScript: +7,925</title></path><rect x="596.00" y="382.80" width="45.00" height="1.20" fill="url(#g-toml)"><title>2026-W13 · TOML: +33</title></rect><rect x="596.00" y="381.60" width="45.00" height="1.20" fill="url(#g-text)"><title>2026-W13 · Text: +20</title></rect><rect x="596.00" y="380.40" width="45.00" height="1.20" fill="url(#g-rust)"><title>2026-W13 · Rust: +103</title></rect><rect x="596.00" y="379.20" width="45.00" height="1.20" fill="url(#g-svelte)"><title>2026-W13 · Svelte: +120</title></rect><rect x="596.00" y="378.00" width="45.00" height="1.20" fill="url(#g-bash)"><title>2026-W13 · Bash: +335</title></rect><rect x="596.00" y="376.80" width="45.00" height="1.20" fill="url(#g-yaml)"><title>2026-W13 · YAML: +399</title></rect><rect x="596.00" y="373.19" width="45.00" height="3.61" fill="url(#g-astro)"><title>2026-W13 · Astro: +2,051</title></rect><rect x="596.00" y="370.83" width="45.00" height="2.36" fill="url(#g-terraform)"><title>2026-W13 · Terraform: +1,340</title></rect><rect x="596.00" y="365.04" width="45.00" height="5.79" fill="url(#g-python)"><title>2026-W13 · Python: +3,288</title></rect><rect x="596.00" y="358.18" width="45.00" height="6.86" fill="url(#g-markdown)"><title>2026-W13 · Markdown: +3,900</title></rect><rect x="596.00" y="356.82" width="45.00" height="1.36" fill="url(#g-json)"><title>2026-W13 · JSON: +772</title></rect><path d="M 596.00,356.82 V 334.08 Q 596.00,331.58 598.50,331.58 H 638.50 Q 641.00,331.58 641.00,334.08 V 356.82 Z" fill="url(#g-typescript)"><title>2026-W13 · TypeScript: +14,343</title></path><rect x="644.00" y="382.80" width="45.00" height="1.20" fill="url(#g-make)"><title>2026-W14 · Make: +36</title></rect><rect x="644.00" y="381.60" width="45.00" height="1.20" fill="url(#g-toml)"><title>2026-W14 · TOML: +100</title></rect><rect x="644.00" y="380.40" width="45.00" height="1.20" fill="url(#g-dockerfile)"><title>2026-W14 · Dockerfile: +198</title></rect><rect x="644.00" y="379.20" width="45.00" height="1.20" fill="url(#g-text)"><title>2026-W14 · Text: +39</title></rect><rect x="644.00" y="378.00" width="45.00" height="1.20" fill="url(#g-svg)"><title>2026-W14 · SVG: +87</title></rect><rect x="644.00" y="376.80" width="45.00" height="1.20" fill="url(#g-css)"><title>2026-W14 · CSS: +154</title></rect><rect x="644.00" y="375.60" width="45.00" height="1.20" fill="url(#g-rust)"><title>2026-W14 · Rust: +396</title></rect><rect x="644.00" y="369.76" width="45.00" height="5.84" fill="url(#g-svelte)"><title>2026-W14 · Svelte: +3,317</title></rect><rect x="644.00" y="368.56" width="45.00" height="1.20" fill="url(#g-bash)"><title>2026-W14 · Bash: +475</title></rect><rect x="644.00" y="367.36" width="45.00" height="1.20" fill="url(#g-yaml)"><title>2026-W14 · YAML: +483</title></rect><rect x="644.00" y="366.16" width="45.00" height="1.20" fill="url(#g-html)"><title>2026-W14 · HTML: +106</title></rect><rect x="644.00" y="361.06" width="45.00" height="5.10" fill="url(#g-astro)"><title>2026-W14 · Astro: +2,899</title></rect><rect x="644.00" y="359.15" width="45.00" height="1.91" fill="url(#g-terraform)"><title>2026-W14 · Terraform: +1,083</title></rect><rect x="644.00" y="349.50" width="45.00" height="9.66" fill="url(#g-python)"><title>2026-W14 · Python: +5,487</title></rect><rect x="644.00" y="334.59" width="45.00" height="14.91" fill="url(#g-markdown)"><title>2026-W14 · Markdown: +8,469</title></rect><rect x="644.00" y="317.56" width="45.00" height="17.03" fill="url(#g-json)"><title>2026-W14 · JSON: +9,674</title></rect><path d="M 644.00,317.56 V 287.61 Q 644.00,285.11 646.50,285.11 H 686.50 Q 689.00,285.11 689.00,287.61 V 317.56 Z" fill="url(#g-typescript)"><title>2026-W14 · TypeScript: +18,438</title></path><rect x="692.00" y="382.80" width="45.00" height="1.20" fill="url(#g-make)"><title>2026-W15 · Make: +190</title></rect><rect x="692.00" y="381.60" width="45.00" height="1.20" fill="url(#g-toml)"><title>2026-W15 · TOML: +21</title></rect><rect x="692.00" y="380.40" width="45.00" height="1.20" fill="url(#g-dockerfile)"><title>2026-W15 · Dockerfile: +132</title></rect><rect x="692.00" y="379.20" width="45.00" height="1.20" fill="url(#g-text)"><title>2026-W15 · Text: +53</title></rect><rect x="692.00" y="378.00" width="45.00" height="1.20" fill="url(#g-svg)"><title>2026-W15 · SVG: +151</title></rect><rect x="692.00" y="376.80" width="45.00" height="1.20" fill="url(#g-css)"><title>2026-W15 · CSS: +290</title></rect><rect x="692.00" y="375.14" width="45.00" height="1.66" fill="url(#g-rust)"><title>2026-W15 · Rust: +943</title></rect><rect x="692.00" y="373.94" width="45.00" height="1.20" fill="url(#g-bash)"><title>2026-W15 · Bash: +271</title></rect><rect x="692.00" y="368.71" width="45.00" height="5.23" fill="url(#g-yaml)"><title>2026-W15 · YAML: +2,970</title></rect><rect x="692.00" y="367.51" width="45.00" height="1.20" fill="url(#g-astro)"><title>2026-W15 · Astro: +214</title></rect><rect x="692.00" y="366.31" width="45.00" height="1.20" fill="url(#g-terraform)"><title>2026-W15 · Terraform: +377</title></rect><rect x="692.00" y="362.96" width="45.00" height="3.35" fill="url(#g-python)"><title>2026-W15 · Python: +1,905</title></rect><rect x="692.00" y="347.24" width="45.00" height="15.72" fill="url(#g-markdown)"><title>2026-W15 · Markdown: +8,934</title></rect><rect x="692.00" y="338.08" width="45.00" height="9.15" fill="url(#g-json)"><title>2026-W15 · JSON: +5,201</title></rect><path d="M 692.00,338.08 V 306.37 Q 692.00,303.87 694.50,303.87 H 734.50 Q 737.00,303.87 737.00,306.37 V 338.08 Z" fill="url(#g-typescript)"><title>2026-W15 · TypeScript: +19,441</title></path><rect x="740.00" y="382.80" width="45.00" height="1.20" fill="url(#g-toml)"><title>2026-W16 · TOML: +159</title></rect><rect x="740.00" y="381.60" width="45.00" height="1.20" fill="url(#g-dockerfile)"><title>2026-W16 · Dockerfile: +35</title></rect><rect x="740.00" y="380.40" width="45.00" height="1.20" fill="url(#g-svg)"><title>2026-W16 · SVG: +608</title></rect><rect x="740.00" y="379.20" width="45.00" height="1.20" fill="url(#g-css)"><title>2026-W16 · CSS: +120</title></rect><rect x="740.00" y="374.26" width="45.00" height="4.94" fill="url(#g-rust)"><title>2026-W16 · Rust: +2,807</title></rect><rect x="740.00" y="371.84" width="45.00" height="2.42" fill="url(#g-svelte)"><title>2026-W16 · Svelte: +1,373</title></rect><rect x="740.00" y="369.95" width="45.00" height="1.89" fill="url(#g-bash)"><title>2026-W16 · Bash: +1,074</title></rect><rect x="740.00" y="368.66" width="45.00" height="1.30" fill="url(#g-yaml)"><title>2026-W16 · YAML: +737</title></rect><rect x="740.00" y="367.08" width="45.00" height="1.58" fill="url(#g-html)"><title>2026-W16 · HTML: +897</title></rect><rect x="740.00" y="364.37" width="45.00" height="2.71" fill="url(#g-astro)"><title>2026-W16 · Astro: +1,539</title></rect><rect x="740.00" y="360.51" width="45.00" height="3.85" fill="url(#g-terraform)"><title>2026-W16 · Terraform: +2,190</title></rect><rect x="740.00" y="348.96" width="45.00" height="11.56" fill="url(#g-python)"><title>2026-W16 · Python: +6,567</title></rect><rect x="740.00" y="330.00" width="45.00" height="18.96" fill="url(#g-markdown)"><title>2026-W16 · Markdown: +10,770</title></rect><rect x="740.00" y="328.80" width="45.00" height="1.20" fill="url(#g-json)"><title>2026-W16 · JSON: +463</title></rect><path d="M 740.00,328.80 V 260.03 Q 740.00,257.53 742.50,257.53 H 782.50 Q 785.00,257.53 785.00,260.03 V 328.80 Z" fill="url(#g-typescript)"><title>2026-W16 · TypeScript: +40,493</title></path><rect x="788.00" y="382.80" width="45.00" height="1.20" fill="url(#g-make)"><title>2026-W17 · Make: +6</title></rect><rect x="788.00" y="381.60" width="45.00" height="1.20" fill="url(#g-go)"><title>2026-W17 · Go: +277</title></rect><rect x="788.00" y="380.40" width="45.00" height="1.20" fill="url(#g-dockerfile)"><title>2026-W17 · Dockerfile: +225</title></rect><rect x="788.00" y="379.20" width="45.00" height="1.20" fill="url(#g-sql)"><title>2026-W17 · SQL: +76</title></rect><rect x="788.00" y="378.00" width="45.00" height="1.20" fill="url(#g-text)"><title>2026-W17 · Text: +989</title></rect><rect x="788.00" y="376.80" width="45.00" height="1.20" fill="url(#g-svg)"><title>2026-W17 · SVG: +1,013</title></rect><rect x="788.00" y="375.60" width="45.00" height="1.20" fill="url(#g-css)"><title>2026-W17 · CSS: +1,561</title></rect><rect x="788.00" y="374.40" width="45.00" height="1.20" fill="url(#g-bash)"><title>2026-W17 · Bash: +537</title></rect><rect x="788.00" y="373.20" width="45.00" height="1.20" fill="url(#g-yaml)"><title>2026-W17 · YAML: +1,828</title></rect><rect x="788.00" y="372.00" width="45.00" height="1.20" fill="url(#g-html)"><title>2026-W17 · HTML: +127</title></rect><rect x="788.00" y="370.80" width="45.00" height="1.20" fill="url(#g-astro)"><title>2026-W17 · Astro: +191</title></rect><rect x="788.00" y="369.51" width="45.00" height="1.29" fill="url(#g-terraform)"><title>2026-W17 · Terraform: +4,346</title></rect><rect x="788.00" y="368.31" width="45.00" height="1.20" fill="url(#g-python)"><title>2026-W17 · Python: +2,497</title></rect><rect x="788.00" y="342.86" width="45.00" height="25.45" fill="url(#g-markdown)"><title>2026-W17 · Markdown: +85,836</title></rect><rect x="788.00" y="304.03" width="45.00" height="38.83" fill="url(#g-json)"><title>2026-W17 · JSON: +130,988</title></rect><path d="M 788.00,304.03 V 209.43 Q 788.00,206.93 790.50,206.93 H 830.50 Q 833.00,206.93 833.00,209.43 V 304.03 Z" fill="url(#g-typescript)"><title>2026-W17 · TypeScript: +327,541</title></path><rect x="836.00" y="382.80" width="45.00" height="1.20" fill="url(#g-make)"><title>2026-W18 · Make: +25</title></rect><rect x="836.00" y="381.60" width="45.00" height="1.20" fill="url(#g-toml)"><title>2026-W18 · TOML: +117</title></rect><rect x="836.00" y="380.40" width="45.00" height="1.20" fill="url(#g-dockerfile)"><title>2026-W18 · Dockerfile: +249</title></rect><rect x="836.00" y="378.76" width="45.00" height="1.64" fill="url(#g-sql)"><title>2026-W18 · SQL: +934</title></rect><rect x="836.00" y="377.56" width="45.00" height="1.20" fill="url(#g-text)"><title>2026-W18 · Text: +284</title></rect><rect x="836.00" y="376.36" width="45.00" height="1.20" fill="url(#g-css)"><title>2026-W18 · CSS: +263</title></rect><rect x="836.00" y="375.16" width="45.00" height="1.20" fill="url(#g-svelte)"><title>2026-W18 · Svelte: +450</title></rect><rect x="836.00" y="372.06" width="45.00" height="3.09" fill="url(#g-bash)"><title>2026-W18 · Bash: +1,758</title></rect><rect x="836.00" y="367.90" width="45.00" height="4.16" fill="url(#g-yaml)"><title>2026-W18 · YAML: +2,362</title></rect><rect x="836.00" y="352.69" width="45.00" height="15.21" fill="url(#g-html)"><title>2026-W18 · HTML: +8,643</title></rect><rect x="836.00" y="351.49" width="45.00" height="1.20" fill="url(#g-astro)"><title>2026-W18 · Astro: +445</title></rect><rect x="836.00" y="348.05" width="45.00" height="3.44" fill="url(#g-terraform)"><title>2026-W18 · Terraform: +1,957</title></rect><rect x="836.00" y="335.57" width="45.00" height="12.48" fill="url(#g-python)"><title>2026-W18 · Python: +7,093</title></rect><rect x="836.00" y="324.23" width="45.00" height="11.33" fill="url(#g-markdown)"><title>2026-W18 · Markdown: +6,438</title></rect><rect x="836.00" y="303.96" width="45.00" height="20.28" fill="url(#g-json)"><title>2026-W18 · JSON: +11,522</title></rect><path d="M 836.00,303.96 V 281.26 Q 836.00,278.76 838.50,278.76 H 878.50 Q 881.00,278.76 881.00,281.26 V 303.96 Z" fill="url(#g-typescript)"><title>2026-W18 · TypeScript: +14,318</title></path><rect x="884.00" y="382.80" width="45.00" height="1.20" fill="url(#g-toml)"><title>2026-W19 · TOML: +70</title></rect><rect x="884.00" y="381.60" width="45.00" height="1.20" fill="url(#g-dockerfile)"><title>2026-W19 · Dockerfile: +1</title></rect><rect x="884.00" y="380.40" width="45.00" height="1.20" fill="url(#g-text)"><title>2026-W19 · Text: +5</title></rect><rect x="884.00" y="379.20" width="45.00" height="1.20" fill="url(#g-svg)"><title>2026-W19 · SVG: +51</title></rect><rect x="884.00" y="373.37" width="45.00" height="5.83" fill="url(#g-css)"><title>2026-W19 · CSS: +3,310</title></rect><rect x="884.00" y="368.49" width="45.00" height="4.89" fill="url(#g-rust)"><title>2026-W19 · Rust: +2,777</title></rect><rect x="884.00" y="365.64" width="45.00" height="2.85" fill="url(#g-svelte)"><title>2026-W19 · Svelte: +1,619</title></rect><rect x="884.00" y="362.40" width="45.00" height="3.24" fill="url(#g-bash)"><title>2026-W19 · Bash: +1,841</title></rect><rect x="884.00" y="360.01" width="45.00" height="2.39" fill="url(#g-yaml)"><title>2026-W19 · YAML: +1,359</title></rect><rect x="884.00" y="356.06" width="45.00" height="3.95" fill="url(#g-html)"><title>2026-W19 · HTML: +2,244</title></rect><rect x="884.00" y="354.86" width="45.00" height="1.20" fill="url(#g-astro)"><title>2026-W19 · Astro: +259</title></rect><rect x="884.00" y="346.99" width="45.00" height="7.87" fill="url(#g-terraform)"><title>2026-W19 · Terraform: +4,470</title></rect><rect x="884.00" y="340.75" width="45.00" height="6.24" fill="url(#g-python)"><title>2026-W19 · Python: +3,546</title></rect><rect x="884.00" y="331.10" width="45.00" height="9.65" fill="url(#g-markdown)"><title>2026-W19 · Markdown: +5,481</title></rect><rect x="884.00" y="276.85" width="45.00" height="54.25" fill="url(#g-json)"><title>2026-W19 · JSON: +30,826</title></rect><path d="M 884.00,276.85 V 237.47 Q 884.00,234.97 886.50,234.97 H 926.50 Q 929.00,234.97 929.00,237.47 V 276.85 Z" fill="url(#g-typescript)"><title>2026-W19 · TypeScript: +23,795</title></path>

  <!-- Clipped-outlier indicators -->
  <path d="M 805.5 214 L 810.5 209 L 815.5 214" stroke="var(--fg)" stroke-width="1.6" stroke-linecap="round" stroke-linejoin="round" fill="none" opacity="0.85"/><text x="810.5" y="204" text-anchor="middle" class="clip-label">+558k</text>

  <!-- X-axis labels -->
  <text x="90.5" y="402.0" text-anchor="middle" class="axis">JAN</text><text x="282.5" y="402.0" text-anchor="middle" class="axis">FEB</text><text x="474.5" y="402.0" text-anchor="middle" class="axis">MAR</text><text x="714.5" y="402.0" text-anchor="middle" class="axis">APR</text><text x="906.5" y="402.0" text-anchor="middle" class="axis">MAY</text>

  <!-- Activity pulse section (commits + repos sparklines) -->
  <text x="28" y="408" class="section">ACTIVITY PULSE</text>
  <text x="932" y="408" class="period" text-anchor="end">weekly cadence</text>
  <rect x="28.0" y="420" width="440.0" height="36" rx="8" fill="url(#card-bg)" stroke="var(--border)"/><circle cx="40.0" cy="438.0" r="3.5" fill="#22C55E"/><text x="52.0" y="441.5" class="kpi-label">COMMITS</text><text x="116.0" y="443.0" class="pulse-val mono">4,151</text><text x="456.0" y="442.0" class="pulse-peak mono" fill="#22C55E" text-anchor="end">↑1,136</text><polygon points="178.0,450.0 178.0,449.8 191.8,449.7 205.5,449.7 219.3,449.9 233.1,449.9 246.8,449.9 260.6,449.7 274.4,448.2 288.1,447.6 301.9,447.5 315.6,447.6 329.4,447.3 343.2,447.0 356.9,440.5 370.7,426.4 384.5,426.0 398.2,446.5 412.0,439.0 412.0,450.0" fill="#22C55E" opacity="0.18"/><polyline points="178.0,449.8 191.8,449.7 205.5,449.7 219.3,449.9 233.1,449.9 246.8,449.9 260.6,449.7 274.4,448.2 288.1,447.6 301.9,447.5 315.6,447.6 329.4,447.3 343.2,447.0 356.9,440.5 370.7,426.4 384.5,426.0 398.2,446.5 412.0,439.0" fill="none" stroke="#22C55E" stroke-width="1.5" stroke-linejoin="round" stroke-linecap="round"/><rect x="492.0" y="420" width="440.0" height="36" rx="8" fill="url(#card-bg)" stroke="var(--border)"/><circle cx="504.0" cy="438.0" r="3.5" fill="#F97316"/><text x="516.0" y="441.5" class="kpi-label">REPOS</text><text x="580.0" y="443.0" class="pulse-val mono">21</text><text x="920.0" y="442.0" class="pulse-peak mono" fill="#F97316" text-anchor="end">↑16</text><polygon points="642.0,450.0 642.0,448.5 655.8,448.5 669.5,447.0 683.3,448.5 697.1,447.0 710.8,448.5 724.6,448.5 738.4,445.5 752.1,444.0 765.9,442.5 779.6,439.5 793.4,436.5 807.2,439.5 820.9,436.5 834.7,438.0 848.5,436.5 862.2,430.5 876.0,426.0 876.0,450.0" fill="#F97316" opacity="0.18"/><polyline points="642.0,448.5 655.8,448.5 669.5,447.0 683.3,448.5 697.1,447.0 710.8,448.5 724.6,448.5 738.4,445.5 752.1,444.0 765.9,442.5 779.6,439.5 793.4,436.5 807.2,439.5 820.9,436.5 834.7,438.0 848.5,436.5 862.2,430.5 876.0,426.0" fill="none" stroke="#F97316" stroke-width="1.5" stroke-linejoin="round" stroke-linecap="round"/>

  <!-- Language breakdown section title -->
  <text x="28" y="480" class="section">LANGUAGE BREAKDOWN</text>
  <text x="932" y="480" class="period" text-anchor="end">
    ranked by lines added
  </text>

  <circle cx="33.0" cy="498" r="4" fill="#3178C6"/><text x="44.0" y="502" class="lb-name">TypeScript</text><rect x="120.0" y="495" width="252.0" height="6" rx="3" fill="var(--track)"/><rect x="120.0" y="495" width="252.0" height="6" rx="3" fill="url(#g-typescript)"/><text x="408.0" y="502" class="lb-val" text-anchor="end">+473k</text><text x="460.0" y="502" class="lb-pct" text-anchor="end">43.6%</text><circle cx="33.0" cy="518" r="4" fill="#14B8A6"/><text x="44.0" y="522" class="lb-name">JSON</text><rect x="120.0" y="515" width="252.0" height="6" rx="3" fill="var(--track)"/><rect x="120.0" y="515" width="159.2" height="6" rx="3" fill="url(#g-json)"/><text x="408.0" y="522" class="lb-val" text-anchor="end">+299k</text><text x="460.0" y="522" class="lb-pct" text-anchor="end">27.6%</text><circle cx="33.0" cy="538" r="4" fill="#8B5CF6"/><text x="44.0" y="542" class="lb-name">Markdown</text><rect x="120.0" y="535" width="252.0" height="6" rx="3" fill="var(--track)"/><rect x="120.0" y="535" width="93.2" height="6" rx="3" fill="url(#g-markdown)"/><text x="408.0" y="542" class="lb-val" text-anchor="end">+175k</text><text x="460.0" y="542" class="lb-pct" text-anchor="end">16.1%</text><circle cx="33.0" cy="558" r="4" fill="#3776AB"/><text x="44.0" y="562" class="lb-name">Python</text><rect x="120.0" y="555" width="252.0" height="6" rx="3" fill="var(--track)"/><rect x="120.0" y="555" width="17.4" height="6" rx="3" fill="url(#g-python)"/><text x="408.0" y="562" class="lb-val" text-anchor="end">+33k</text><text x="460.0" y="562" class="lb-pct" text-anchor="end">3.0%</text><circle cx="33.0" cy="578" r="4" fill="#6366F1"/><text x="44.0" y="582" class="lb-name">Terraform</text><rect x="120.0" y="575" width="252.0" height="6" rx="3" fill="var(--track)"/><rect x="120.0" y="575" width="10.7" height="6" rx="3" fill="url(#g-terraform)"/><text x="408.0" y="582" class="lb-val" text-anchor="end">+20k</text><text x="460.0" y="582" class="lb-pct" text-anchor="end">1.8%</text><circle cx="33.0" cy="598" r="4" fill="#FF5D01"/><text x="44.0" y="602" class="lb-name">Astro</text><rect x="120.0" y="595" width="252.0" height="6" rx="3" fill="var(--track)"/><rect x="120.0" y="595" width="9.4" height="6" rx="3" fill="url(#g-astro)"/><text x="408.0" y="602" class="lb-val" text-anchor="end">+18k</text><text x="460.0" y="602" class="lb-pct" text-anchor="end">1.6%</text><circle cx="33.0" cy="618" r="4" fill="#E34C26"/><text x="44.0" y="622" class="lb-name">HTML</text><rect x="120.0" y="615" width="252.0" height="6" rx="3" fill="var(--track)"/><rect x="120.0" y="615" width="6.5" height="6" rx="3" fill="url(#g-html)"/><text x="408.0" y="622" class="lb-val" text-anchor="end">+12k</text><text x="460.0" y="622" class="lb-pct" text-anchor="end">1.1%</text><circle cx="33.0" cy="638" r="4" fill="#EC4899"/><text x="44.0" y="642" class="lb-name">YAML</text><rect x="120.0" y="635" width="252.0" height="6" rx="3" fill="var(--track)"/><rect x="120.0" y="635" width="6.4" height="6" rx="3" fill="url(#g-yaml)"/><text x="408.0" y="642" class="lb-val" text-anchor="end">+12k</text><text x="460.0" y="642" class="lb-pct" text-anchor="end">1.1%</text><circle cx="33.0" cy="658" r="4" fill="#22C55E"/><text x="44.0" y="662" class="lb-name">Bash</text><rect x="120.0" y="655" width="252.0" height="6" rx="3" fill="var(--track)"/><rect x="120.0" y="655" width="6.3" height="6" rx="3" fill="url(#g-bash)"/><text x="408.0" y="662" class="lb-val" text-anchor="end">+12k</text><text x="460.0" y="662" class="lb-pct" text-anchor="end">1.1%</text><circle cx="33.0" cy="678" r="4" fill="#FF3E00"/><text x="44.0" y="682" class="lb-name">Svelte</text><rect x="120.0" y="675" width="252.0" height="6" rx="3" fill="var(--track)"/><rect x="120.0" y="675" width="5.2" height="6" rx="3" fill="url(#g-svelte)"/><text x="408.0" y="682" class="lb-val" text-anchor="end">+9.8k</text><text x="460.0" y="682" class="lb-pct" text-anchor="end">0.9%</text><circle cx="505.0" cy="498" r="4" fill="#F97316"/><text x="516.0" y="502" class="lb-name">Rust</text><rect x="592.0" y="495" width="252.0" height="6" rx="3" fill="var(--track)"/><rect x="592.0" y="495" width="3.8" height="6" rx="3" fill="url(#g-rust)"/><text x="880.0" y="502" class="lb-val" text-anchor="end">+7.1k</text><text x="932.0" y="502" class="lb-pct" text-anchor="end">0.7%</text><circle cx="505.0" cy="518" r="4" fill="#563D7C"/><text x="516.0" y="522" class="lb-name">CSS</text><rect x="592.0" y="515" width="252.0" height="6" rx="3" fill="var(--track)"/><rect x="592.0" y="515" width="3.1" height="6" rx="3" fill="url(#g-css)"/><text x="880.0" y="522" class="lb-val" text-anchor="end">+5.9k</text><text x="932.0" y="522" class="lb-pct" text-anchor="end">0.5%</text><circle cx="505.0" cy="538" r="4" fill="#DA5B0B"/><text x="516.0" y="542" class="lb-name">Jupyter</text><rect x="592.0" y="535" width="252.0" height="6" rx="3" fill="var(--track)"/><rect x="592.0" y="535" width="1.1" height="6" rx="3" fill="url(#g-jupyter)"/><text x="880.0" y="542" class="lb-val" text-anchor="end">+2.1k</text><text x="932.0" y="542" class="lb-pct" text-anchor="end">0.2%</text><circle cx="505.0" cy="558" r="4" fill="#6B7280"/><text x="516.0" y="562" class="lb-name">SVG</text><rect x="592.0" y="555" width="252.0" height="6" rx="3" fill="var(--track)"/><rect x="592.0" y="555" width="1.1" height="6" rx="3" fill="url(#g-svg)"/><text x="880.0" y="562" class="lb-val" text-anchor="end">+2k</text><text x="932.0" y="562" class="lb-pct" text-anchor="end">0.2%</text><circle cx="505.0" cy="578" r="4" fill="#94A3B8"/><text x="516.0" y="582" class="lb-name">Text</text><rect x="592.0" y="575" width="252.0" height="6" rx="3" fill="var(--track)"/><rect x="592.0" y="575" width="0.8" height="6" rx="3" fill="url(#g-text)"/><text x="880.0" y="582" class="lb-val" text-anchor="end">+1.6k</text><text x="932.0" y="582" class="lb-pct" text-anchor="end">0.1%</text><circle cx="505.0" cy="598" r="4" fill="#F59E0B"/><text x="516.0" y="602" class="lb-name">SQL</text><rect x="592.0" y="595" width="252.0" height="6" rx="3" fill="var(--track)"/><rect x="592.0" y="595" width="0.5" height="6" rx="3" fill="url(#g-sql)"/><text x="880.0" y="602" class="lb-val" text-anchor="end">+1k</text><text x="932.0" y="602" class="lb-pct" text-anchor="end">0.1%</text><circle cx="505.0" cy="618" r="4" fill="#2496ED"/><text x="516.0" y="622" class="lb-name">Dockerfile</text><rect x="592.0" y="615" width="252.0" height="6" rx="3" fill="var(--track)"/><rect x="592.0" y="615" width="0.4" height="6" rx="3" fill="url(#g-dockerfile)"/><text x="880.0" y="622" class="lb-val" text-anchor="end">+840</text><text x="932.0" y="622" class="lb-pct" text-anchor="end">0.1%</text><circle cx="505.0" cy="638" r="4" fill="#9C4221"/><text x="516.0" y="642" class="lb-name">TOML</text><rect x="592.0" y="635" width="252.0" height="6" rx="3" fill="var(--track)"/><rect x="592.0" y="635" width="0.3" height="6" rx="3" fill="url(#g-toml)"/><text x="880.0" y="642" class="lb-val" text-anchor="end">+609</text><text x="932.0" y="642" class="lb-pct" text-anchor="end">0.1%</text><circle cx="505.0" cy="658" r="4" fill="#06B6D4"/><text x="516.0" y="662" class="lb-name">Go</text><rect x="592.0" y="655" width="252.0" height="6" rx="3" fill="var(--track)"/><rect x="592.0" y="655" width="0.1" height="6" rx="3" fill="url(#g-go)"/><text x="880.0" y="662" class="lb-val" text-anchor="end">+277</text><text x="932.0" y="662" class="lb-pct" text-anchor="end">0.0%</text><circle cx="505.0" cy="678" r="4" fill="#6D8086"/><text x="516.0" y="682" class="lb-name">Make</text><rect x="592.0" y="675" width="252.0" height="6" rx="3" fill="var(--track)"/><rect x="592.0" y="675" width="0.1" height="6" rx="3" fill="url(#g-make)"/><text x="880.0" y="682" class="lb-val" text-anchor="end">+270</text><text x="932.0" y="682" class="lb-pct" text-anchor="end">0.0%</text>

  <!-- Footer -->
  <line x1="28" y1="722" x2="932" y2="722"
        stroke="var(--border)" stroke-width="1"/>
  <text x="28" y="738" class="footer">
    Generated 2026-05-10 · git diff-tree --numstat · non-forked, non-archived repos
  </text>
  <text x="932" y="738" class="footer" text-anchor="end">
    github.com · auto-updated
  </text>
</svg>