<svg xmlns="http://www.w3.org/2000/svg"
     viewBox="0 0 860 300"
     width="860" height="300"
     role="img" aria-label="Lines of code written per week by language">

  <defs>
    <style>
      :root {
        --bg:     #ffffff;
        --fg:     #24292f;
        --muted:  #8b949e;
        --border: #d0d7de;
        --grid:   #eaeef2;
      }
      @media (prefers-color-scheme: dark) {
        :root {
          --bg:     #0d1117;
          --fg:     #e6edf3;
          --muted:  #7d8590;
          --border: #30363d;
          --grid:   #21262d;
        }
      }
      text { font-family: -apple-system, BlinkMacSystemFont, "Segoe UI",
                           "Noto Sans", Helvetica, Arial, sans-serif; }
    </style>
  </defs>

  <rect width="860" height="300" fill="var(--bg)" rx="6"/>

  <!-- Title -->
  <text x="52" y="26"
        font-size="13" font-weight="600" fill="var(--fg)">
    Lines written — last 26 weeks
  </text>
  <text x="52" y="40"
        font-size="10" fill="var(--muted)">2025-W50 → 2026-W15</text>

  <!-- Grid -->
  <line x1="52" y1="194.0" x2="680" y2="194.0" stroke="var(--grid)" stroke-width="1" stroke-dasharray="3,3"/><text x="46" y="198.0" text-anchor="end" font-size="10" fill="var(--muted)">225.0k</text><line x1="52" y1="144.0" x2="680" y2="144.0" stroke="var(--grid)" stroke-width="1" stroke-dasharray="3,3"/><text x="46" y="148.0" text-anchor="end" font-size="10" fill="var(--muted)">450.0k</text><line x1="52" y1="94.0" x2="680" y2="94.0" stroke="var(--grid)" stroke-width="1" stroke-dasharray="3,3"/><text x="46" y="98.0" text-anchor="end" font-size="10" fill="var(--muted)">675.0k</text><line x1="52" y1="44.0" x2="680" y2="44.0" stroke="var(--grid)" stroke-width="1" stroke-dasharray="3,3"/><text x="46" y="48.0" text-anchor="end" font-size="10" fill="var(--muted)">900.0k</text>

  <!-- Bars -->
  <rect x="52.0" y="243.0" width="32.9" height="1.0" fill="#8B8B8B" opacity="0.9"><title>2025-W50: CSS +29 lines</title></rect><rect x="52.0" y="242.0" width="32.9" height="1.0" fill="#8B8B8B" opacity="0.9"><title>2025-W50: Text +146 lines</title></rect><rect x="52.0" y="241.0" width="32.9" height="1.0" fill="#844FBA" opacity="0.9"><title>2025-W50: HCL +2,141 lines</title></rect><rect x="52.0" y="240.0" width="32.9" height="1.0" fill="#89E051" opacity="0.9"><title>2025-W50: Shell +828 lines</title></rect><rect x="52.0" y="239.0" width="32.9" height="1.0" fill="#8B8B8B" opacity="0.9"><title>2025-W50: YAML +466 lines</title></rect><rect x="52.0" y="234.6" width="32.9" height="4.4" fill="#3572A5" opacity="0.9"><title>2025-W50: Python +19,732 lines</title></rect><rect x="52.0" y="231.5" width="32.9" height="3.1" fill="#8B8B8B" opacity="0.9"><title>2025-W50: Markdown +13,995 lines</title></rect><rect x="52.0" y="228.6" width="32.9" height="2.9" fill="#8B8B8B" opacity="0.9"><title>2025-W50: JSON +13,156 lines</title></rect><rect x="52.0" y="227.6" width="32.9" height="1.0" fill="#3178C6" opacity="0.9"><title>2025-W50: TypeScript +3,555 lines</title></rect><rect x="86.9" y="243.0" width="32.9" height="1.0" fill="#8B8B8B" opacity="0.9"><title>2025-W51: CSS +1,990 lines</title></rect><rect x="86.9" y="242.0" width="32.9" height="1.0" fill="#8B8B8B" opacity="0.9"><title>2025-W51: HTML +489 lines</title></rect><rect x="86.9" y="241.0" width="32.9" height="1.0" fill="#8B8B8B" opacity="0.9"><title>2025-W51: Text +287 lines</title></rect><rect x="86.9" y="240.0" width="32.9" height="1.0" fill="#89E051" opacity="0.9"><title>2025-W51: Shell +186 lines</title></rect><rect x="86.9" y="239.0" width="32.9" height="1.0" fill="#8B8B8B" opacity="0.9"><title>2025-W51: YAML +685 lines</title></rect><rect x="86.9" y="238.0" width="32.9" height="1.0" fill="#3572A5" opacity="0.9"><title>2025-W51: Python +650 lines</title></rect><rect x="86.9" y="235.3" width="32.9" height="2.7" fill="#8B8B8B" opacity="0.9"><title>2025-W51: Markdown +12,127 lines</title></rect><rect x="86.9" y="226.4" width="32.9" height="8.9" fill="#8B8B8B" opacity="0.9"><title>2025-W51: JSON +40,067 lines</title></rect><rect x="86.9" y="150.5" width="32.9" height="75.9" fill="#3178C6" opacity="0.9"><title>2025-W51: TypeScript +341,759 lines</title></rect><rect x="86.9" y="58.7" width="32.9" height="91.7" fill="#F7DF1E" opacity="0.9"><title>2025-W51: JavaScript +412,730 lines</title></rect><rect x="121.8" y="243.0" width="32.9" height="1.0" fill="#89E051" opacity="0.9"><title>2025-W52: Shell +479 lines</title></rect><rect x="121.8" y="242.0" width="32.9" height="1.0" fill="#8B8B8B" opacity="0.9"><title>2025-W52: Markdown +11 lines</title></rect><rect x="121.8" y="241.0" width="32.9" height="1.0" fill="#8B8B8B" opacity="0.9"><title>2025-W52: JSON +1,539 lines</title></rect><rect x="121.8" y="240.0" width="32.9" height="1.0" fill="#F7DF1E" opacity="0.9"><title>2025-W52: JavaScript +1 lines</title></rect><rect x="156.7" y="243.0" width="32.9" height="1.0" fill="#89E051" opacity="0.9"><title>2026-W01: Shell +1,252 lines</title></rect><rect x="156.7" y="242.0" width="32.9" height="1.0" fill="#8B8B8B" opacity="0.9"><title>2026-W01: YAML +71 lines</title></rect><rect x="156.7" y="241.0" width="32.9" height="1.0" fill="#8B8B8B" opacity="0.9"><title>2026-W01: Markdown +33 lines</title></rect><rect x="156.7" y="240.0" width="32.9" height="1.0" fill="#8B8B8B" opacity="0.9"><title>2026-W01: JSON +154 lines</title></rect><rect x="191.6" y="243.0" width="32.9" height="1.0" fill="#8B8B8B" opacity="0.9"><title>2026-W02: HTML +262 lines</title></rect><rect x="191.6" y="242.0" width="32.9" height="1.0" fill="#844FBA" opacity="0.9"><title>2026-W02: HCL +3,100 lines</title></rect><rect x="191.6" y="241.0" width="32.9" height="1.0" fill="#89E051" opacity="0.9"><title>2026-W02: Shell +1,044 lines</title></rect><rect x="191.6" y="238.6" width="32.9" height="2.4" fill="#8B8B8B" opacity="0.9"><title>2026-W02: YAML +11,024 lines</title></rect><rect x="191.6" y="237.2" width="32.9" height="1.4" fill="#8B8B8B" opacity="0.9"><title>2026-W02: Markdown +6,252 lines</title></rect><rect x="191.6" y="236.2" width="32.9" height="1.0" fill="#8B8B8B" opacity="0.9"><title>2026-W02: JSON +54 lines</title></rect><rect x="191.6" y="235.2" width="32.9" height="1.0" fill="#3178C6" opacity="0.9"><title>2026-W02: TypeScript +2,290 lines</title></rect><rect x="191.6" y="234.2" width="32.9" height="1.0" fill="#F7DF1E" opacity="0.9"><title>2026-W02: JavaScript +258 lines</title></rect><rect x="226.4" y="243.0" width="32.9" height="1.0" fill="#89E051" opacity="0.9"><title>2026-W03: Shell +216 lines</title></rect><rect x="226.4" y="242.0" width="32.9" height="1.0" fill="#8B8B8B" opacity="0.9"><title>2026-W03: YAML +2,906 lines</title></rect><rect x="226.4" y="241.0" width="32.9" height="1.0" fill="#3572A5" opacity="0.9"><title>2026-W03: Python +366 lines</title></rect><rect x="226.4" y="239.8" width="32.9" height="1.2" fill="#8B8B8B" opacity="0.9"><title>2026-W03: Markdown +5,600 lines</title></rect><rect x="226.4" y="238.8" width="32.9" height="1.0" fill="#8B8B8B" opacity="0.9"><title>2026-W03: JSON +1,208 lines</title></rect><rect x="226.4" y="237.8" width="32.9" height="1.0" fill="#3178C6" opacity="0.9"><title>2026-W03: TypeScript +439 lines</title></rect><rect x="226.4" y="236.8" width="32.9" height="1.0" fill="#F7DF1E" opacity="0.9"><title>2026-W03: JavaScript +15 lines</title></rect><rect x="261.3" y="243.0" width="32.9" height="1.0" fill="#8B8B8B" opacity="0.9"><title>2026-W04: CSS +1 lines</title></rect><rect x="261.3" y="242.0" width="32.9" height="1.0" fill="#8B8B8B" opacity="0.9"><title>2026-W04: Text +16 lines</title></rect><rect x="261.3" y="241.0" width="32.9" height="1.0" fill="#8B8B8B" opacity="0.9"><title>2026-W04: YAML +233 lines</title></rect><rect x="261.3" y="240.0" width="32.9" height="1.0" fill="#3572A5" opacity="0.9"><title>2026-W04: Python +2,397 lines</title></rect><rect x="261.3" y="234.8" width="32.9" height="5.2" fill="#8B8B8B" opacity="0.9"><title>2026-W04: Markdown +23,426 lines</title></rect><rect x="261.3" y="233.8" width="32.9" height="1.0" fill="#8B8B8B" opacity="0.9"><title>2026-W04: JSON +1,281 lines</title></rect><rect x="261.3" y="232.8" width="32.9" height="1.0" fill="#F7DF1E" opacity="0.9"><title>2026-W04: JavaScript +22 lines</title></rect><rect x="296.2" y="243.0" width="32.9" height="1.0" fill="#8B8B8B" opacity="0.9"><title>2026-W05: Text +481 lines</title></rect><rect x="296.2" y="242.0" width="32.9" height="1.0" fill="#844FBA" opacity="0.9"><title>2026-W05: HCL +696 lines</title></rect><rect x="296.2" y="241.0" width="32.9" height="1.0" fill="#89E051" opacity="0.9"><title>2026-W05: Shell +77 lines</title></rect><rect x="296.2" y="240.0" width="32.9" height="1.0" fill="#8B8B8B" opacity="0.9"><title>2026-W05: YAML +2,194 lines</title></rect><rect x="296.2" y="236.9" width="32.9" height="3.1" fill="#3572A5" opacity="0.9"><title>2026-W05: Python +13,966 lines</title></rect><rect x="296.2" y="234.3" width="32.9" height="2.6" fill="#8B8B8B" opacity="0.9"><title>2026-W05: Markdown +11,868 lines</title></rect><rect x="296.2" y="233.3" width="32.9" height="1.0" fill="#8B8B8B" opacity="0.9"><title>2026-W05: JSON +494 lines</title></rect><rect x="296.2" y="232.3" width="32.9" height="1.0" fill="#3178C6" opacity="0.9"><title>2026-W05: TypeScript +1,742 lines</title></rect><rect x="296.2" y="231.3" width="32.9" height="1.0" fill="#F7DF1E" opacity="0.9"><title>2026-W05: JavaScript +1 lines</title></rect><rect x="331.1" y="243.0" width="32.9" height="1.0" fill="#8B8B8B" opacity="0.9"><title>2026-W06: Text +14 lines</title></rect><rect x="331.1" y="242.0" width="32.9" height="1.0" fill="#3572A5" opacity="0.9"><title>2026-W06: Python +803 lines</title></rect><rect x="331.1" y="241.0" width="32.9" height="1.0" fill="#8B8B8B" opacity="0.9"><title>2026-W06: Markdown +1,443 lines</title></rect><rect x="331.1" y="240.0" width="32.9" height="1.0" fill="#8B8B8B" opacity="0.9"><title>2026-W06: JSON +202 lines</title></rect><rect x="366.0" y="243.0" width="32.9" height="1.0" fill="#8B8B8B" opacity="0.9"><title>2026-W07: CSS +2 lines</title></rect><rect x="366.0" y="242.0" width="32.9" height="1.0" fill="#8B8B8B" opacity="0.9"><title>2026-W07: Text +31 lines</title></rect><rect x="366.0" y="241.0" width="32.9" height="1.0" fill="#844FBA" opacity="0.9"><title>2026-W07: HCL +699 lines</title></rect><rect x="366.0" y="240.0" width="32.9" height="1.0" fill="#89E051" opacity="0.9"><title>2026-W07: Shell +176 lines</title></rect><rect x="366.0" y="239.0" width="32.9" height="1.0" fill="#8B8B8B" opacity="0.9"><title>2026-W07: YAML +663 lines</title></rect><rect x="366.0" y="237.6" width="32.9" height="1.4" fill="#3572A5" opacity="0.9"><title>2026-W07: Python +6,384 lines</title></rect><rect x="366.0" y="236.6" width="32.9" height="1.0" fill="#8B8B8B" opacity="0.9"><title>2026-W07: Markdown +1,889 lines</title></rect><rect x="366.0" y="235.6" width="32.9" height="1.0" fill="#8B8B8B" opacity="0.9"><title>2026-W07: JSON +378 lines</title></rect><rect x="366.0" y="234.6" width="32.9" height="1.0" fill="#3178C6" opacity="0.9"><title>2026-W07: TypeScript +117 lines</title></rect><rect x="366.0" y="233.6" width="32.9" height="1.0" fill="#F7DF1E" opacity="0.9"><title>2026-W07: JavaScript +15 lines</title></rect><rect x="400.9" y="243.0" width="32.9" height="1.0" fill="#DEA584" opacity="0.9"><title>2026-W08: Rust +118 lines</title></rect><rect x="400.9" y="242.0" width="32.9" height="1.0" fill="#844FBA" opacity="0.9"><title>2026-W08: HCL +941 lines</title></rect><rect x="400.9" y="241.0" width="32.9" height="1.0" fill="#89E051" opacity="0.9"><title>2026-W08: Shell +405 lines</title></rect><rect x="400.9" y="240.0" width="32.9" height="1.0" fill="#8B8B8B" opacity="0.9"><title>2026-W08: YAML +651 lines</title></rect><rect x="400.9" y="239.0" width="32.9" height="1.0" fill="#8B8B8B" opacity="0.9"><title>2026-W08: Markdown +391 lines</title></rect><rect x="400.9" y="238.0" width="32.9" height="1.0" fill="#8B8B8B" opacity="0.9"><title>2026-W08: JSON +6 lines</title></rect><rect x="400.9" y="237.0" width="32.9" height="1.0" fill="#3178C6" opacity="0.9"><title>2026-W08: TypeScript +86 lines</title></rect><rect x="400.9" y="236.0" width="32.9" height="1.0" fill="#F7DF1E" opacity="0.9"><title>2026-W08: JavaScript +7 lines</title></rect><rect x="435.8" y="243.0" width="32.9" height="1.0" fill="#8B8B8B" opacity="0.9"><title>2026-W09: Text +255 lines</title></rect><rect x="435.8" y="242.0" width="32.9" height="1.0" fill="#844FBA" opacity="0.9"><title>2026-W09: HCL +906 lines</title></rect><rect x="435.8" y="241.0" width="32.9" height="1.0" fill="#89E051" opacity="0.9"><title>2026-W09: Shell +2,268 lines</title></rect><rect x="435.8" y="240.0" width="32.9" height="1.0" fill="#8B8B8B" opacity="0.9"><title>2026-W09: YAML +872 lines</title></rect><rect x="435.8" y="237.7" width="32.9" height="2.3" fill="#3572A5" opacity="0.9"><title>2026-W09: Python +10,417 lines</title></rect><rect x="435.8" y="236.0" width="32.9" height="1.7" fill="#8B8B8B" opacity="0.9"><title>2026-W09: Markdown +7,591 lines</title></rect><rect x="435.8" y="226.2" width="32.9" height="9.8" fill="#8B8B8B" opacity="0.9"><title>2026-W09: JSON +44,212 lines</title></rect><rect x="435.8" y="225.2" width="32.9" height="1.0" fill="#3178C6" opacity="0.9"><title>2026-W09: TypeScript +1,882 lines</title></rect><rect x="435.8" y="224.2" width="32.9" height="1.0" fill="#F7DF1E" opacity="0.9"><title>2026-W09: JavaScript +569 lines</title></rect><rect x="470.7" y="243.0" width="32.9" height="1.0" fill="#8B8B8B" opacity="0.9"><title>2026-W10: HTML +1,033 lines</title></rect><rect x="470.7" y="242.0" width="32.9" height="1.0" fill="#DEA584" opacity="0.9"><title>2026-W10: Rust +802 lines</title></rect><rect x="470.7" y="241.0" width="32.9" height="1.0" fill="#8B8B8B" opacity="0.9"><title>2026-W10: Text +59 lines</title></rect><rect x="470.7" y="240.0" width="32.9" height="1.0" fill="#844FBA" opacity="0.9"><title>2026-W10: HCL +1,060 lines</title></rect><rect x="470.7" y="239.0" width="32.9" height="1.0" fill="#89E051" opacity="0.9"><title>2026-W10: Shell +532 lines</title></rect><rect x="470.7" y="238.0" width="32.9" height="1.0" fill="#8B8B8B" opacity="0.9"><title>2026-W10: YAML +1,047 lines</title></rect><rect x="470.7" y="236.6" width="32.9" height="1.4" fill="#3572A5" opacity="0.9"><title>2026-W10: Python +6,327 lines</title></rect><rect x="470.7" y="234.8" width="32.9" height="1.8" fill="#8B8B8B" opacity="0.9"><title>2026-W10: Markdown +8,150 lines</title></rect><rect x="470.7" y="232.3" width="32.9" height="2.5" fill="#8B8B8B" opacity="0.9"><title>2026-W10: JSON +11,033 lines</title></rect><rect x="470.7" y="231.3" width="32.9" height="1.0" fill="#3178C6" opacity="0.9"><title>2026-W10: TypeScript +2,500 lines</title></rect><rect x="470.7" y="230.3" width="32.9" height="1.0" fill="#F7DF1E" opacity="0.9"><title>2026-W10: JavaScript +7 lines</title></rect><rect x="505.6" y="243.0" width="32.9" height="1.0" fill="#8B8B8B" opacity="0.9"><title>2026-W11: CSS +48 lines</title></rect><rect x="505.6" y="242.0" width="32.9" height="1.0" fill="#8B8B8B" opacity="0.9"><title>2026-W11: HTML +1,033 lines</title></rect><rect x="505.6" y="241.0" width="32.9" height="1.0" fill="#8B8B8B" opacity="0.9"><title>2026-W11: Text +564 lines</title></rect><rect x="505.6" y="240.0" width="32.9" height="1.0" fill="#844FBA" opacity="0.9"><title>2026-W11: HCL +656 lines</title></rect><rect x="505.6" y="239.0" width="32.9" height="1.0" fill="#89E051" opacity="0.9"><title>2026-W11: Shell +4,273 lines</title></rect><rect x="505.6" y="237.0" width="32.9" height="2.0" fill="#8B8B8B" opacity="0.9"><title>2026-W11: YAML +9,184 lines</title></rect><rect x="505.6" y="229.1" width="32.9" height="7.8" fill="#3572A5" opacity="0.9"><title>2026-W11: Python +35,191 lines</title></rect><rect x="505.6" y="217.8" width="32.9" height="11.4" fill="#8B8B8B" opacity="0.9"><title>2026-W11: Markdown +51,199 lines</title></rect><rect x="505.6" y="200.8" width="32.9" height="16.9" fill="#8B8B8B" opacity="0.9"><title>2026-W11: JSON +76,176 lines</title></rect><rect x="505.6" y="199.3" width="32.9" height="1.5" fill="#3178C6" opacity="0.9"><title>2026-W11: TypeScript +6,905 lines</title></rect><rect x="505.6" y="198.3" width="32.9" height="1.0" fill="#F7DF1E" opacity="0.9"><title>2026-W11: JavaScript +141 lines</title></rect><rect x="540.4" y="243.0" width="32.9" height="1.0" fill="#8B8B8B" opacity="0.9"><title>2026-W12: CSS +179 lines</title></rect><rect x="540.4" y="242.0" width="32.9" height="1.0" fill="#8B8B8B" opacity="0.9"><title>2026-W12: HTML +159 lines</title></rect><rect x="540.4" y="241.0" width="32.9" height="1.0" fill="#DEA584" opacity="0.9"><title>2026-W12: Rust +40 lines</title></rect><rect x="540.4" y="240.0" width="32.9" height="1.0" fill="#8B8B8B" opacity="0.9"><title>2026-W12: Text +10 lines</title></rect><rect x="540.4" y="239.0" width="32.9" height="1.0" fill="#844FBA" opacity="0.9"><title>2026-W12: HCL +2,018 lines</title></rect><rect x="540.4" y="238.0" width="32.9" height="1.0" fill="#89E051" opacity="0.9"><title>2026-W12: Shell +2,364 lines</title></rect><rect x="540.4" y="237.0" width="32.9" height="1.0" fill="#8B8B8B" opacity="0.9"><title>2026-W12: YAML +1,232 lines</title></rect><rect x="540.4" y="234.5" width="32.9" height="2.5" fill="#3572A5" opacity="0.9"><title>2026-W12: Python +11,292 lines</title></rect><rect x="540.4" y="226.0" width="32.9" height="8.5" fill="#8B8B8B" opacity="0.9"><title>2026-W12: Markdown +38,250 lines</title></rect><rect x="540.4" y="222.5" width="32.9" height="3.5" fill="#8B8B8B" opacity="0.9"><title>2026-W12: JSON +15,853 lines</title></rect><rect x="540.4" y="220.9" width="32.9" height="1.6" fill="#3178C6" opacity="0.9"><title>2026-W12: TypeScript +6,981 lines</title></rect><rect x="540.4" y="219.4" width="32.9" height="1.5" fill="#F7DF1E" opacity="0.9"><title>2026-W12: JavaScript +6,673 lines</title></rect><rect x="575.3" y="243.0" width="32.9" height="1.0" fill="#DEA584" opacity="0.9"><title>2026-W13: Rust +214 lines</title></rect><rect x="575.3" y="242.0" width="32.9" height="1.0" fill="#8B8B8B" opacity="0.9"><title>2026-W13: Text +2,021 lines</title></rect><rect x="575.3" y="241.0" width="32.9" height="1.0" fill="#844FBA" opacity="0.9"><title>2026-W13: HCL +1,440 lines</title></rect><rect x="575.3" y="240.0" width="32.9" height="1.0" fill="#89E051" opacity="0.9"><title>2026-W13: Shell +1,532 lines</title></rect><rect x="575.3" y="239.0" width="32.9" height="1.0" fill="#8B8B8B" opacity="0.9"><title>2026-W13: YAML +636 lines</title></rect><rect x="575.3" y="237.8" width="32.9" height="1.2" fill="#3572A5" opacity="0.9"><title>2026-W13: Python +5,548 lines</title></rect><rect x="575.3" y="236.8" width="32.9" height="1.0" fill="#8B8B8B" opacity="0.9"><title>2026-W13: Markdown +4,400 lines</title></rect><rect x="575.3" y="235.8" width="32.9" height="1.0" fill="#8B8B8B" opacity="0.9"><title>2026-W13: JSON +860 lines</title></rect><rect x="575.3" y="232.9" width="32.9" height="2.9" fill="#3178C6" opacity="0.9"><title>2026-W13: TypeScript +13,052 lines</title></rect><rect x="575.3" y="231.9" width="32.9" height="1.0" fill="#F7DF1E" opacity="0.9"><title>2026-W13: JavaScript +3,068 lines</title></rect><rect x="610.2" y="243.0" width="32.9" height="1.0" fill="#8B8B8B" opacity="0.9"><title>2026-W14: CSS +154 lines</title></rect><rect x="610.2" y="242.0" width="32.9" height="1.0" fill="#8B8B8B" opacity="0.9"><title>2026-W14: HTML +106 lines</title></rect><rect x="610.2" y="241.0" width="32.9" height="1.0" fill="#DEA584" opacity="0.9"><title>2026-W14: Rust +1,781 lines</title></rect><rect x="610.2" y="240.0" width="32.9" height="1.0" fill="#8B8B8B" opacity="0.9"><title>2026-W14: Text +39 lines</title></rect><rect x="610.2" y="239.0" width="32.9" height="1.0" fill="#844FBA" opacity="0.9"><title>2026-W14: HCL +1,318 lines</title></rect><rect x="610.2" y="238.0" width="32.9" height="1.0" fill="#89E051" opacity="0.9"><title>2026-W14: Shell +988 lines</title></rect><rect x="610.2" y="237.0" width="32.9" height="1.0" fill="#8B8B8B" opacity="0.9"><title>2026-W14: YAML +881 lines</title></rect><rect x="610.2" y="235.7" width="32.9" height="1.3" fill="#3572A5" opacity="0.9"><title>2026-W14: Python +5,853 lines</title></rect><rect x="610.2" y="233.7" width="32.9" height="2.0" fill="#8B8B8B" opacity="0.9"><title>2026-W14: Markdown +8,812 lines</title></rect><rect x="610.2" y="231.6" width="32.9" height="2.2" fill="#8B8B8B" opacity="0.9"><title>2026-W14: JSON +9,693 lines</title></rect><rect x="610.2" y="227.7" width="32.9" height="3.9" fill="#3178C6" opacity="0.9"><title>2026-W14: TypeScript +17,512 lines</title></rect><rect x="610.2" y="226.7" width="32.9" height="1.0" fill="#F7DF1E" opacity="0.9"><title>2026-W14: JavaScript +1,267 lines</title></rect><rect x="645.1" y="243.0" width="32.9" height="1.0" fill="#8B8B8B" opacity="0.9"><title>2026-W15: CSS +291 lines</title></rect><rect x="645.1" y="242.0" width="32.9" height="1.0" fill="#8B8B8B" opacity="0.9"><title>2026-W15: HTML +13 lines</title></rect><rect x="645.1" y="241.0" width="32.9" height="1.0" fill="#DEA584" opacity="0.9"><title>2026-W15: Rust +943 lines</title></rect><rect x="645.1" y="240.0" width="32.9" height="1.0" fill="#8B8B8B" opacity="0.9"><title>2026-W15: Text +53 lines</title></rect><rect x="645.1" y="239.0" width="32.9" height="1.0" fill="#844FBA" opacity="0.9"><title>2026-W15: HCL +99 lines</title></rect><rect x="645.1" y="238.0" width="32.9" height="1.0" fill="#89E051" opacity="0.9"><title>2026-W15: Shell +95 lines</title></rect><rect x="645.1" y="237.0" width="32.9" height="1.0" fill="#8B8B8B" opacity="0.9"><title>2026-W15: YAML +456 lines</title></rect><rect x="645.1" y="236.0" width="32.9" height="1.0" fill="#3572A5" opacity="0.9"><title>2026-W15: Python +2,025 lines</title></rect><rect x="645.1" y="234.7" width="32.9" height="1.3" fill="#8B8B8B" opacity="0.9"><title>2026-W15: Markdown +5,659 lines</title></rect><rect x="645.1" y="231.8" width="32.9" height="2.9" fill="#8B8B8B" opacity="0.9"><title>2026-W15: JSON +13,180 lines</title></rect><rect x="645.1" y="228.0" width="32.9" height="3.8" fill="#3178C6" opacity="0.9"><title>2026-W15: TypeScript +17,136 lines</title></rect><rect x="645.1" y="227.0" width="32.9" height="1.0" fill="#F7DF1E" opacity="0.9"><title>2026-W15: JavaScript +307 lines</title></rect>

  <!-- Axes -->
  <line x1="52" y1="44" x2="52" y2="244" stroke="var(--border)" stroke-width="1"/><line x1="52" y1="244" x2="680" y2="244" stroke="var(--border)" stroke-width="1"/>

  <!-- X labels -->
  <text x="68.4" y="260" text-anchor="middle" font-size="10" fill="var(--muted)">W50</text><text x="208.0" y="260" text-anchor="middle" font-size="10" fill="var(--muted)">Jan</text><text x="347.6" y="260" text-anchor="middle" font-size="10" fill="var(--muted)">Feb</text><text x="487.1" y="260" text-anchor="middle" font-size="10" fill="var(--muted)">Mar</text><text x="626.7" y="260" text-anchor="middle" font-size="10" fill="var(--muted)">W14</text><text x="661.6" y="260" text-anchor="middle" font-size="10" fill="var(--muted)">Apr</text>

  <!-- Legend -->
  <rect x="696" y="52" width="10" height="10" fill="#F7DF1E" rx="2"/><text x="710" y="61" font-size="11" fill="var(--fg)">JavaScript</text><text x="836" y="61" font-size="10" fill="var(--muted)" text-anchor="end">+425.1k</text><rect x="696" y="70" width="10" height="10" fill="#3178C6" rx="2"/><text x="710" y="79" font-size="11" fill="var(--fg)">TypeScript</text><text x="836" y="79" font-size="10" fill="var(--muted)" text-anchor="end">+416.0k</text><rect x="696" y="88" width="10" height="10" fill="#8B8B8B" rx="2"/><text x="710" y="97" font-size="11" fill="var(--fg)">JSON</text><text x="836" y="97" font-size="10" fill="var(--muted)" text-anchor="end">+229.9k</text><rect x="696" y="106" width="10" height="10" fill="#8B8B8B" rx="2"/><text x="710" y="115" font-size="11" fill="var(--fg)">Markdown</text><text x="836" y="115" font-size="10" fill="var(--muted)" text-anchor="end">+207.3k</text><rect x="696" y="124" width="10" height="10" fill="#3572A5" rx="2"/><text x="710" y="133" font-size="11" fill="var(--fg)">Python</text><text x="836" y="133" font-size="10" fill="var(--muted)" text-anchor="end">+122.4k</text><rect x="696" y="142" width="10" height="10" fill="#8B8B8B" rx="2"/><text x="710" y="151" font-size="11" fill="var(--fg)">YAML</text><text x="836" y="151" font-size="10" fill="var(--muted)" text-anchor="end">+33.9k</text><rect x="696" y="160" width="10" height="10" fill="#89E051" rx="2"/><text x="710" y="169" font-size="11" fill="var(--fg)">Shell</text><text x="836" y="169" font-size="10" fill="var(--muted)" text-anchor="end">+17.3k</text><rect x="696" y="178" width="10" height="10" fill="#844FBA" rx="2"/><text x="710" y="187" font-size="11" fill="var(--fg)">HCL</text><text x="836" y="187" font-size="10" fill="var(--muted)" text-anchor="end">+15.1k</text><rect x="696" y="196" width="10" height="10" fill="#8B8B8B" rx="2"/><text x="710" y="205" font-size="11" fill="var(--fg)">Text</text><text x="836" y="205" font-size="10" fill="var(--muted)" text-anchor="end">+4.0k</text><rect x="696" y="214" width="10" height="10" fill="#DEA584" rx="2"/><text x="710" y="223" font-size="11" fill="var(--fg)">Rust</text><text x="836" y="223" font-size="10" fill="var(--muted)" text-anchor="end">+3.9k</text><rect x="696" y="232" width="10" height="10" fill="#8B8B8B" rx="2"/><text x="710" y="241" font-size="11" fill="var(--fg)">HTML</text><text x="836" y="241" font-size="10" fill="var(--muted)" text-anchor="end">+3.1k</text><rect x="696" y="250" width="10" height="10" fill="#8B8B8B" rx="2"/><text x="710" y="259" font-size="11" fill="var(--fg)">CSS</text><text x="836" y="259" font-size="10" fill="var(--muted)" text-anchor="end">+2.7k</text><text x="696" y="280" font-size="10" fill="var(--muted)">Total: +1,480,544 lines</text>

  <!-- Footer -->
  <text x="52" y="294"
        font-size="9" fill="var(--muted)">
    Generated 2026-04-12 · git diff-tree --numstat · GHE private repos
  </text>
</svg>