<svg xmlns="http://www.w3.org/2000/svg"
     viewBox="0 0 960 580"
     width="960" height="580"
     role="img" aria-label="Developer activity — weekly lines of code by language">

  <defs>
    <style>
      svg {
        --bg:        #FFFFFF;
        --fg:        #0F172A;
        --muted:     #64748B;
        --subtle:    #94A3B8;
        --border:    #E2E8F0;
        --grid:      #EEF2F6;
        --track:     #EEF2F6;
        --card-top:  #FFFFFF;
        --card-bot:  #F8FAFC;
        --accent:    #3178C6;
      }
      @media (prefers-color-scheme: dark) {
        svg {
          --bg:        #0D1117;
          --fg:        #E6EDF3;
          --muted:     #8B949E;
          --subtle:    #6E7681;
          --border:    #21262D;
          --grid:      #161B22;
          --track:     #1C2128;
          --card-top:  #161B22;
          --card-bot:  #0D1117;
          --accent:    #58A6FF;
        }
      }
      text {
        font-family: -apple-system, BlinkMacSystemFont, "Segoe UI",
                     "SF Pro Text", "Helvetica Neue", Arial, sans-serif;
        fill: var(--fg);
      }
      .mono {
        font-family: ui-monospace, SFMono-Regular, "SF Mono", Menlo,
                     Consolas, "Liberation Mono", monospace;
        font-variant-numeric: tabular-nums;
      }
      .eyebrow {
        font-size: 11px; font-weight: 600; letter-spacing: 2px;
        fill: var(--muted);
      }
      .period {
        font-size: 11px; fill: var(--muted);
        font-variant-numeric: tabular-nums;
      }
      .section {
        font-size: 10.5px; font-weight: 600; letter-spacing: 1.8px;
        fill: var(--muted);
      }
      .kpi-label {
        font-size: 9.5px; font-weight: 600; letter-spacing: 1.5px;
        fill: var(--muted);
      }
      .kpi-value {
        font-size: 26px; font-weight: 700; fill: var(--fg);
        font-variant-numeric: tabular-nums;
      }
      .kpi-sub {
        font-size: 10.5px; fill: var(--muted);
      }
      .axis {
        font-size: 9.5px; fill: var(--subtle);
        font-variant-numeric: tabular-nums;
      }
      .lb-name { font-size: 11px; font-weight: 500; fill: var(--fg); }
      .lb-val  { font-size: 10.5px; fill: var(--muted);
                  font-variant-numeric: tabular-nums; }
      .lb-pct  { font-size: 10.5px; font-weight: 600; fill: var(--fg);
                  font-variant-numeric: tabular-nums; }
      .clip-label { font-size: 9.5px; font-weight: 600; fill: var(--fg);
                     font-variant-numeric: tabular-nums; }
      .footer { font-size: 9.5px; fill: var(--subtle); }
    </style>
    <linearGradient id="g-typescript" x1="0" y1="0" x2="0" y2="1"><stop offset="0%" stop-color="#5198E8" stop-opacity="1"/><stop offset="100%" stop-color="#3178C6" stop-opacity="1"/></linearGradient><linearGradient id="g-javascript" x1="0" y1="0" x2="0" y2="1"><stop offset="0%" stop-color="#F7DF1E" stop-opacity="1"/><stop offset="100%" stop-color="#E9B824" stop-opacity="1"/></linearGradient><linearGradient id="g-json" x1="0" y1="0" x2="0" y2="1"><stop offset="0%" stop-color="#2DD4BF" stop-opacity="1"/><stop offset="100%" stop-color="#14B8A6" stop-opacity="1"/></linearGradient><linearGradient id="g-markdown" x1="0" y1="0" x2="0" y2="1"><stop offset="0%" stop-color="#A78BFA" stop-opacity="1"/><stop offset="100%" stop-color="#8B5CF6" stop-opacity="1"/></linearGradient><linearGradient id="g-python" x1="0" y1="0" x2="0" y2="1"><stop offset="0%" stop-color="#5497D4" stop-opacity="1"/><stop offset="100%" stop-color="#3776AB" stop-opacity="1"/></linearGradient><linearGradient id="g-yaml" x1="0" y1="0" x2="0" y2="1"><stop offset="0%" stop-color="#F472B6" stop-opacity="1"/><stop offset="100%" stop-color="#EC4899" stop-opacity="1"/></linearGradient><linearGradient id="g-shell" x1="0" y1="0" x2="0" y2="1"><stop offset="0%" stop-color="#4ADE80" stop-opacity="1"/><stop offset="100%" stop-color="#22C55E" stop-opacity="1"/></linearGradient><linearGradient id="g-hcl" x1="0" y1="0" x2="0" y2="1"><stop offset="0%" stop-color="#8B8EF7" stop-opacity="1"/><stop offset="100%" stop-color="#6366F1" stop-opacity="1"/></linearGradient><linearGradient id="g-rust" x1="0" y1="0" x2="0" y2="1"><stop offset="0%" stop-color="#FB9A4A" stop-opacity="1"/><stop offset="100%" stop-color="#F97316" stop-opacity="1"/></linearGradient><linearGradient id="g-html" x1="0" y1="0" x2="0" y2="1"><stop offset="0%" stop-color="#F76E4A" stop-opacity="1"/><stop offset="100%" stop-color="#E34C26" stop-opacity="1"/></linearGradient><linearGradient id="card-bg" x1="0" y1="0" x2="0" y2="1"><stop offset="0%" stop-color="var(--card-top)"/><stop offset="100%" stop-color="var(--card-bot)"/></linearGradient>
  </defs>

  <!-- Canvas -->
  <rect width="960" height="580" fill="var(--bg)" rx="12"/>

  <!-- Header: eyebrow with accent dot (left) + period (right) -->
  <circle cx="32" cy="36" r="4" fill="var(--accent)"/>
  <text x="44" y="40" class="eyebrow">DEVELOPER ACTIVITY</text>
  <text x="932" y="40" class="period" text-anchor="end">Last 18 weeks · 2025-W51 → 2026-W16</text>

  <!-- Divider under header -->
  <line x1="28" y1="54" x2="932" y2="54"
        stroke="var(--border)" stroke-width="1"/>

  <!-- KPI cards -->
  <rect x="28.0" y="72" width="215.5" height="96" rx="10" fill="url(#card-bg)" stroke="var(--border)"/><rect x="28.0" y="84" width="3" height="72" rx="1.5" fill="#22C55E"/><text x="44.0" y="96" class="kpi-label">TOTAL LINES</text><text x="44.0" y="132" class="kpi-value">1.5M</text><text x="44.0" y="154" class="kpi-sub">across 10 languages</text><rect x="257.5" y="72" width="215.5" height="96" rx="10" fill="url(#card-bg)" stroke="var(--border)"/><rect x="257.5" y="84" width="3" height="72" rx="1.5" fill="#3178C6"/><text x="273.5" y="96" class="kpi-label">TOP LANGUAGE</text><text x="273.5" y="132" class="kpi-value">TypeScript</text><text x="273.5" y="154" class="kpi-sub">30.2% of activity</text><rect x="487.0" y="72" width="215.5" height="96" rx="10" fill="url(#card-bg)" stroke="var(--border)"/><rect x="487.0" y="84" width="3" height="72" rx="1.5" fill="#F97316"/><text x="503.0" y="96" class="kpi-label">PEAK WEEK</text><text x="503.0" y="132" class="kpi-value">809k</text><text x="503.0" y="154" class="kpi-sub">week of Dec 15</text><rect x="716.5" y="72" width="215.5" height="96" rx="10" fill="url(#card-bg)" stroke="var(--border)"/><rect x="716.5" y="84" width="3" height="72" rx="1.5" fill="#3178C6"/><text x="732.5" y="96" class="kpi-label">WEEKLY AVG</text><text x="732.5" y="132" class="kpi-value">82k</text><text x="732.5" y="154" class="kpi-sub">over 18 weeks</text>

  <!-- Chart section title -->
  <text x="28" y="196" class="section">WEEKLY ACTIVITY</text>
  <text x="932" y="196" class="period" text-anchor="end">
    lines added per ISO week
  </text>

  <!-- Grid -->
  <line x1="68" y1="384.0" x2="932" y2="384.0" stroke="var(--grid)" stroke-width="1"/><line x1="68" y1="340.0" x2="932" y2="340.0" stroke="var(--grid)" stroke-width="1" stroke-dasharray="2,4"/><text x="60" y="343.5" text-anchor="end" class="axis">75k</text><line x1="68" y1="296.0" x2="932" y2="296.0" stroke="var(--grid)" stroke-width="1" stroke-dasharray="2,4"/><text x="60" y="299.5" text-anchor="end" class="axis">150k</text><line x1="68" y1="252.0" x2="932" y2="252.0" stroke="var(--grid)" stroke-width="1" stroke-dasharray="2,4"/><text x="60" y="255.5" text-anchor="end" class="axis">225k</text><line x1="68" y1="208.0" x2="932" y2="208.0" stroke="var(--grid)" stroke-width="1" stroke-dasharray="2,4"/><text x="60" y="211.5" text-anchor="end" class="axis">300k</text>

  <!-- Bars -->
  <rect x="68.00" y="382.80" width="45.00" height="1.20" fill="url(#g-html)"><title>2025-W51 · HTML: +489</title></rect><rect x="68.00" y="381.60" width="45.00" height="1.20" fill="url(#g-shell)"><title>2025-W51 · Shell: +186</title></rect><rect x="68.00" y="380.40" width="45.00" height="1.20" fill="url(#g-yaml)"><title>2025-W51 · YAML: +685</title></rect><rect x="68.00" y="379.20" width="45.00" height="1.20" fill="url(#g-python)"><title>2025-W51 · Python: +650</title></rect><rect x="68.00" y="376.72" width="45.00" height="2.48" fill="url(#g-markdown)"><title>2025-W51 · Markdown: +12,127</title></rect><rect x="68.00" y="368.52" width="45.00" height="8.20" fill="url(#g-json)"><title>2025-W51 · JSON: +40,067</title></rect><rect x="68.00" y="284.09" width="45.00" height="84.44" fill="url(#g-javascript)"><title>2025-W51 · JavaScript: +412,730</title></rect><path d="M 68.00,284.09 V 216.67 Q 68.00,214.17 70.50,214.17 H 110.50 Q 113.00,214.17 113.00,216.67 V 284.09 Z" fill="url(#g-typescript)"><title>2025-W51 · TypeScript: +341,759</title></path><rect x="116.00" y="382.80" width="45.00" height="1.20" fill="url(#g-shell)"><title>2025-W52 · Shell: +479</title></rect><rect x="116.00" y="381.60" width="45.00" height="1.20" fill="url(#g-markdown)"><title>2025-W52 · Markdown: +11</title></rect><rect x="116.00" y="380.40" width="45.00" height="1.20" fill="url(#g-json)"><title>2025-W52 · JSON: +1,539</title></rect><path d="M 116.00,380.40 V 380.40 Q 116.00,379.20 117.20,379.20 H 159.80 Q 161.00,379.20 161.00,380.40 V 380.40 Z" fill="url(#g-javascript)"><title>2025-W52 · JavaScript: +1</title></path><rect x="164.00" y="382.80" width="45.00" height="1.20" fill="url(#g-shell)"><title>2026-W01 · Shell: +1,252</title></rect><rect x="164.00" y="381.60" width="45.00" height="1.20" fill="url(#g-yaml)"><title>2026-W01 · YAML: +71</title></rect><rect x="164.00" y="380.40" width="45.00" height="1.20" fill="url(#g-markdown)"><title>2026-W01 · Markdown: +33</title></rect><path d="M 164.00,380.40 V 380.40 Q 164.00,379.20 165.20,379.20 H 207.80 Q 209.00,379.20 209.00,380.40 V 380.40 Z" fill="url(#g-json)"><title>2026-W01 · JSON: +154</title></path><rect x="212.00" y="382.80" width="45.00" height="1.20" fill="url(#g-html)"><title>2026-W02 · HTML: +262</title></rect><rect x="212.00" y="380.98" width="45.00" height="1.82" fill="url(#g-hcl)"><title>2026-W02 · HCL: +3,100</title></rect><rect x="212.00" y="379.78" width="45.00" height="1.20" fill="url(#g-shell)"><title>2026-W02 · Shell: +1,044</title></rect><rect x="212.00" y="373.31" width="45.00" height="6.47" fill="url(#g-yaml)"><title>2026-W02 · YAML: +11,024</title></rect><rect x="212.00" y="369.65" width="45.00" height="3.67" fill="url(#g-markdown)"><title>2026-W02 · Markdown: +6,252</title></rect><rect x="212.00" y="368.45" width="45.00" height="1.20" fill="url(#g-json)"><title>2026-W02 · JSON: +54</title></rect><rect x="212.00" y="367.25" width="45.00" height="1.20" fill="url(#g-javascript)"><title>2026-W02 · JavaScript: +258</title></rect><path d="M 212.00,367.25 V 367.25 Q 212.00,365.90 213.34,365.90 H 255.66 Q 257.00,365.90 257.00,367.25 V 367.25 Z" fill="url(#g-typescript)"><title>2026-W02 · TypeScript: +2,290</title></path><rect x="260.00" y="382.80" width="45.00" height="1.20" fill="url(#g-shell)"><title>2026-W03 · Shell: +216</title></rect><rect x="260.00" y="381.10" width="45.00" height="1.70" fill="url(#g-yaml)"><title>2026-W03 · YAML: +2,906</title></rect><rect x="260.00" y="379.90" width="45.00" height="1.20" fill="url(#g-python)"><title>2026-W03 · Python: +366</title></rect><rect x="260.00" y="376.61" width="45.00" height="3.29" fill="url(#g-markdown)"><title>2026-W03 · Markdown: +5,600</title></rect><rect x="260.00" y="375.41" width="45.00" height="1.20" fill="url(#g-json)"><title>2026-W03 · JSON: +1,208</title></rect><rect x="260.00" y="374.21" width="45.00" height="1.20" fill="url(#g-javascript)"><title>2026-W03 · JavaScript: +15</title></rect><path d="M 260.00,374.21 V 374.21 Q 260.00,373.01 261.20,373.01 H 303.80 Q 305.00,373.01 305.00,374.21 V 374.21 Z" fill="url(#g-typescript)"><title>2026-W03 · TypeScript: +439</title></path><rect x="308.00" y="382.80" width="45.00" height="1.20" fill="url(#g-yaml)"><title>2026-W04 · YAML: +233</title></rect><rect x="308.00" y="381.39" width="45.00" height="1.41" fill="url(#g-python)"><title>2026-W04 · Python: +2,397</title></rect><rect x="308.00" y="367.65" width="45.00" height="13.74" fill="url(#g-markdown)"><title>2026-W04 · Markdown: +23,426</title></rect><rect x="308.00" y="366.45" width="45.00" height="1.20" fill="url(#g-json)"><title>2026-W04 · JSON: +1,281</title></rect><path d="M 308.00,366.45 V 366.45 Q 308.00,365.25 309.20,365.25 H 351.80 Q 353.00,365.25 353.00,366.45 V 366.45 Z" fill="url(#g-javascript)"><title>2026-W04 · JavaScript: +22</title></path><rect x="356.00" y="382.80" width="45.00" height="1.20" fill="url(#g-hcl)"><title>2026-W05 · HCL: +696</title></rect><rect x="356.00" y="381.60" width="45.00" height="1.20" fill="url(#g-shell)"><title>2026-W05 · Shell: +77</title></rect><rect x="356.00" y="380.31" width="45.00" height="1.29" fill="url(#g-yaml)"><title>2026-W05 · YAML: +2,194</title></rect><rect x="356.00" y="372.12" width="45.00" height="8.19" fill="url(#g-python)"><title>2026-W05 · Python: +13,966</title></rect><rect x="356.00" y="365.16" width="45.00" height="6.96" fill="url(#g-markdown)"><title>2026-W05 · Markdown: +11,868</title></rect><rect x="356.00" y="363.96" width="45.00" height="1.20" fill="url(#g-json)"><title>2026-W05 · JSON: +494</title></rect><rect x="356.00" y="362.76" width="45.00" height="1.20" fill="url(#g-javascript)"><title>2026-W05 · JavaScript: +1</title></rect><path d="M 356.00,362.76 V 362.76 Q 356.00,361.56 357.20,361.56 H 399.80 Q 401.00,361.56 401.00,362.76 V 362.76 Z" fill="url(#g-typescript)"><title>2026-W05 · TypeScript: +1,742</title></path><rect x="404.00" y="382.80" width="45.00" height="1.20" fill="url(#g-python)"><title>2026-W06 · Python: +803</title></rect><rect x="404.00" y="381.60" width="45.00" height="1.20" fill="url(#g-markdown)"><title>2026-W06 · Markdown: +1,443</title></rect><path d="M 404.00,381.60 V 381.60 Q 404.00,380.40 405.20,380.40 H 447.80 Q 449.00,380.40 449.00,381.60 V 381.60 Z" fill="url(#g-json)"><title>2026-W06 · JSON: +202</title></path><rect x="452.00" y="382.80" width="45.00" height="1.20" fill="url(#g-hcl)"><title>2026-W07 · HCL: +699</title></rect><rect x="452.00" y="381.60" width="45.00" height="1.20" fill="url(#g-shell)"><title>2026-W07 · Shell: +176</title></rect><rect x="452.00" y="380.40" width="45.00" height="1.20" fill="url(#g-yaml)"><title>2026-W07 · YAML: +663</title></rect><rect x="452.00" y="376.65" width="45.00" height="3.75" fill="url(#g-python)"><title>2026-W07 · Python: +6,384</title></rect><rect x="452.00" y="375.45" width="45.00" height="1.20" fill="url(#g-markdown)"><title>2026-W07 · Markdown: +1,889</title></rect><rect x="452.00" y="374.25" width="45.00" height="1.20" fill="url(#g-json)"><title>2026-W07 · JSON: +378</title></rect><rect x="452.00" y="373.05" width="45.00" height="1.20" fill="url(#g-javascript)"><title>2026-W07 · JavaScript: +15</title></rect><path d="M 452.00,373.05 V 373.05 Q 452.00,371.85 453.20,371.85 H 495.80 Q 497.00,371.85 497.00,373.05 V 373.05 Z" fill="url(#g-typescript)"><title>2026-W07 · TypeScript: +117</title></path><rect x="500.00" y="382.80" width="45.00" height="1.20" fill="url(#g-rust)"><title>2026-W08 · Rust: +118</title></rect><rect x="500.00" y="381.60" width="45.00" height="1.20" fill="url(#g-hcl)"><title>2026-W08 · HCL: +941</title></rect><rect x="500.00" y="380.40" width="45.00" height="1.20" fill="url(#g-shell)"><title>2026-W08 · Shell: +405</title></rect><rect x="500.00" y="379.20" width="45.00" height="1.20" fill="url(#g-yaml)"><title>2026-W08 · YAML: +651</title></rect><rect x="500.00" y="378.00" width="45.00" height="1.20" fill="url(#g-markdown)"><title>2026-W08 · Markdown: +391</title></rect><rect x="500.00" y="376.80" width="45.00" height="1.20" fill="url(#g-json)"><title>2026-W08 · JSON: +6</title></rect><rect x="500.00" y="375.60" width="45.00" height="1.20" fill="url(#g-javascript)"><title>2026-W08 · JavaScript: +7</title></rect><path d="M 500.00,375.60 V 375.60 Q 500.00,374.40 501.20,374.40 H 543.80 Q 545.00,374.40 545.00,375.60 V 375.60 Z" fill="url(#g-typescript)"><title>2026-W08 · TypeScript: +86</title></path><rect x="548.00" y="382.80" width="45.00" height="1.20" fill="url(#g-hcl)"><title>2026-W09 · HCL: +906</title></rect><rect x="548.00" y="381.47" width="45.00" height="1.33" fill="url(#g-shell)"><title>2026-W09 · Shell: +2,268</title></rect><rect x="548.00" y="380.27" width="45.00" height="1.20" fill="url(#g-yaml)"><title>2026-W09 · YAML: +872</title></rect><rect x="548.00" y="374.16" width="45.00" height="6.11" fill="url(#g-python)"><title>2026-W09 · Python: +10,417</title></rect><rect x="548.00" y="369.70" width="45.00" height="4.45" fill="url(#g-markdown)"><title>2026-W09 · Markdown: +7,591</title></rect><rect x="548.00" y="343.77" width="45.00" height="25.94" fill="url(#g-json)"><title>2026-W09 · JSON: +44,212</title></rect><rect x="548.00" y="342.57" width="45.00" height="1.20" fill="url(#g-javascript)"><title>2026-W09 · JavaScript: +569</title></rect><path d="M 548.00,342.57 V 342.57 Q 548.00,341.37 549.20,341.37 H 591.80 Q 593.00,341.37 593.00,342.57 V 342.57 Z" fill="url(#g-typescript)"><title>2026-W09 · TypeScript: +1,882</title></path><rect x="596.00" y="382.80" width="45.00" height="1.20" fill="url(#g-html)"><title>2026-W10 · HTML: +1,033</title></rect><rect x="596.00" y="381.60" width="45.00" height="1.20" fill="url(#g-rust)"><title>2026-W10 · Rust: +802</title></rect><rect x="596.00" y="380.40" width="45.00" height="1.20" fill="url(#g-hcl)"><title>2026-W10 · HCL: +1,060</title></rect><rect x="596.00" y="379.20" width="45.00" height="1.20" fill="url(#g-shell)"><title>2026-W10 · Shell: +532</title></rect><rect x="596.00" y="378.00" width="45.00" height="1.20" fill="url(#g-yaml)"><title>2026-W10 · YAML: +1,047</title></rect><rect x="596.00" y="374.29" width="45.00" height="3.71" fill="url(#g-python)"><title>2026-W10 · Python: +6,327</title></rect><rect x="596.00" y="369.51" width="45.00" height="4.78" fill="url(#g-markdown)"><title>2026-W10 · Markdown: +8,150</title></rect><rect x="596.00" y="363.03" width="45.00" height="6.47" fill="url(#g-json)"><title>2026-W10 · JSON: +11,033</title></rect><rect x="596.00" y="361.83" width="45.00" height="1.20" fill="url(#g-javascript)"><title>2026-W10 · JavaScript: +7</title></rect><path d="M 596.00,361.83 V 361.83 Q 596.00,360.37 597.47,360.37 H 639.53 Q 641.00,360.37 641.00,361.83 V 361.83 Z" fill="url(#g-typescript)"><title>2026-W10 · TypeScript: +2,500</title></path><rect x="644.00" y="382.80" width="45.00" height="1.20" fill="url(#g-html)"><title>2026-W11 · HTML: +1,033</title></rect><rect x="644.00" y="381.60" width="45.00" height="1.20" fill="url(#g-hcl)"><title>2026-W11 · HCL: +656</title></rect><rect x="644.00" y="379.09" width="45.00" height="2.51" fill="url(#g-shell)"><title>2026-W11 · Shell: +4,273</title></rect><rect x="644.00" y="373.71" width="45.00" height="5.39" fill="url(#g-yaml)"><title>2026-W11 · YAML: +9,184</title></rect><rect x="644.00" y="353.06" width="45.00" height="20.65" fill="url(#g-python)"><title>2026-W11 · Python: +35,191</title></rect><rect x="644.00" y="323.02" width="45.00" height="30.04" fill="url(#g-markdown)"><title>2026-W11 · Markdown: +51,199</title></rect><rect x="644.00" y="278.33" width="45.00" height="44.69" fill="url(#g-json)"><title>2026-W11 · JSON: +76,176</title></rect><rect x="644.00" y="277.13" width="45.00" height="1.20" fill="url(#g-javascript)"><title>2026-W11 · JavaScript: +141</title></rect><path d="M 644.00,277.13 V 275.58 Q 644.00,273.08 646.50,273.08 H 686.50 Q 689.00,273.08 689.00,275.58 V 277.13 Z" fill="url(#g-typescript)"><title>2026-W11 · TypeScript: +6,905</title></path><rect x="692.00" y="382.80" width="45.00" height="1.20" fill="url(#g-html)"><title>2026-W12 · HTML: +159</title></rect><rect x="692.00" y="381.60" width="45.00" height="1.20" fill="url(#g-rust)"><title>2026-W12 · Rust: +40</title></rect><rect x="692.00" y="380.40" width="45.00" height="1.20" fill="url(#g-hcl)"><title>2026-W12 · HCL: +2,018</title></rect><rect x="692.00" y="379.01" width="45.00" height="1.39" fill="url(#g-shell)"><title>2026-W12 · Shell: +2,364</title></rect><rect x="692.00" y="377.81" width="45.00" height="1.20" fill="url(#g-yaml)"><title>2026-W12 · YAML: +1,232</title></rect><rect x="692.00" y="371.19" width="45.00" height="6.62" fill="url(#g-python)"><title>2026-W12 · Python: +11,292</title></rect><rect x="692.00" y="348.75" width="45.00" height="22.44" fill="url(#g-markdown)"><title>2026-W12 · Markdown: +38,250</title></rect><rect x="692.00" y="339.45" width="45.00" height="9.30" fill="url(#g-json)"><title>2026-W12 · JSON: +15,853</title></rect><rect x="692.00" y="335.53" width="45.00" height="3.91" fill="url(#g-javascript)"><title>2026-W12 · JavaScript: +6,673</title></rect><path d="M 692.00,335.53 V 333.94 Q 692.00,331.44 694.50,331.44 H 734.50 Q 737.00,331.44 737.00,333.94 V 335.53 Z" fill="url(#g-typescript)"><title>2026-W12 · TypeScript: +6,981</title></path><rect x="740.00" y="382.80" width="45.00" height="1.20" fill="url(#g-rust)"><title>2026-W13 · Rust: +214</title></rect><rect x="740.00" y="381.60" width="45.00" height="1.20" fill="url(#g-hcl)"><title>2026-W13 · HCL: +1,440</title></rect><rect x="740.00" y="380.40" width="45.00" height="1.20" fill="url(#g-shell)"><title>2026-W13 · Shell: +1,532</title></rect><rect x="740.00" y="379.20" width="45.00" height="1.20" fill="url(#g-yaml)"><title>2026-W13 · YAML: +636</title></rect><rect x="740.00" y="375.95" width="45.00" height="3.25" fill="url(#g-python)"><title>2026-W13 · Python: +5,548</title></rect><rect x="740.00" y="373.36" width="45.00" height="2.58" fill="url(#g-markdown)"><title>2026-W13 · Markdown: +4,400</title></rect><rect x="740.00" y="372.16" width="45.00" height="1.20" fill="url(#g-json)"><title>2026-W13 · JSON: +860</title></rect><rect x="740.00" y="370.36" width="45.00" height="1.80" fill="url(#g-javascript)"><title>2026-W13 · JavaScript: +3,068</title></rect><path d="M 740.00,370.36 V 365.21 Q 740.00,362.71 742.50,362.71 H 782.50 Q 785.00,362.71 785.00,365.21 V 370.36 Z" fill="url(#g-typescript)"><title>2026-W13 · TypeScript: +13,052</title></path><rect x="788.00" y="382.80" width="45.00" height="1.20" fill="url(#g-html)"><title>2026-W14 · HTML: +106</title></rect><rect x="788.00" y="381.60" width="45.00" height="1.20" fill="url(#g-rust)"><title>2026-W14 · Rust: +1,781</title></rect><rect x="788.00" y="380.40" width="45.00" height="1.20" fill="url(#g-hcl)"><title>2026-W14 · HCL: +1,318</title></rect><rect x="788.00" y="379.20" width="45.00" height="1.20" fill="url(#g-shell)"><title>2026-W14 · Shell: +988</title></rect><rect x="788.00" y="378.00" width="45.00" height="1.20" fill="url(#g-yaml)"><title>2026-W14 · YAML: +881</title></rect><rect x="788.00" y="374.57" width="45.00" height="3.43" fill="url(#g-python)"><title>2026-W14 · Python: +5,853</title></rect><rect x="788.00" y="369.40" width="45.00" height="5.17" fill="url(#g-markdown)"><title>2026-W14 · Markdown: +8,812</title></rect><rect x="788.00" y="363.71" width="45.00" height="5.69" fill="url(#g-json)"><title>2026-W14 · JSON: +9,693</title></rect><rect x="788.00" y="362.51" width="45.00" height="1.20" fill="url(#g-javascript)"><title>2026-W14 · JavaScript: +1,267</title></rect><path d="M 788.00,362.51 V 354.74 Q 788.00,352.24 790.50,352.24 H 830.50 Q 833.00,352.24 833.00,354.74 V 362.51 Z" fill="url(#g-typescript)"><title>2026-W14 · TypeScript: +17,512</title></path><rect x="836.00" y="382.80" width="45.00" height="1.20" fill="url(#g-html)"><title>2026-W15 · HTML: +13</title></rect><rect x="836.00" y="381.60" width="45.00" height="1.20" fill="url(#g-rust)"><title>2026-W15 · Rust: +1,262</title></rect><rect x="836.00" y="380.40" width="45.00" height="1.20" fill="url(#g-hcl)"><title>2026-W15 · HCL: +289</title></rect><rect x="836.00" y="379.20" width="45.00" height="1.20" fill="url(#g-shell)"><title>2026-W15 · Shell: +95</title></rect><rect x="836.00" y="378.00" width="45.00" height="1.20" fill="url(#g-yaml)"><title>2026-W15 · YAML: +472</title></rect><rect x="836.00" y="376.80" width="45.00" height="1.20" fill="url(#g-python)"><title>2026-W15 · Python: +2,033</title></rect><rect x="836.00" y="371.89" width="45.00" height="4.91" fill="url(#g-markdown)"><title>2026-W15 · Markdown: +8,362</title></rect><rect x="836.00" y="364.05" width="45.00" height="7.84" fill="url(#g-json)"><title>2026-W15 · JSON: +13,365</title></rect><rect x="836.00" y="361.61" width="45.00" height="2.44" fill="url(#g-javascript)"><title>2026-W15 · JavaScript: +4,166</title></rect><path d="M 836.00,361.61 V 350.70 Q 836.00,348.20 838.50,348.20 H 878.50 Q 881.00,348.20 881.00,350.70 V 361.61 Z" fill="url(#g-typescript)"><title>2026-W15 · TypeScript: +22,853</title></path><rect x="884.00" y="382.80" width="45.00" height="1.20" fill="url(#g-html)"><title>2026-W16 · HTML: +897</title></rect><rect x="884.00" y="380.94" width="45.00" height="1.86" fill="url(#g-rust)"><title>2026-W16 · Rust: +3,177</title></rect><rect x="884.00" y="379.63" width="45.00" height="1.30" fill="url(#g-hcl)"><title>2026-W16 · HCL: +2,219</title></rect><rect x="884.00" y="378.43" width="45.00" height="1.20" fill="url(#g-shell)"><title>2026-W16 · Shell: +1,013</title></rect><rect x="884.00" y="377.23" width="45.00" height="1.20" fill="url(#g-yaml)"><title>2026-W16 · YAML: +549</title></rect><rect x="884.00" y="374.12" width="45.00" height="3.11" fill="url(#g-python)"><title>2026-W16 · Python: +5,302</title></rect><rect x="884.00" y="368.35" width="45.00" height="5.78" fill="url(#g-markdown)"><title>2026-W16 · Markdown: +9,844</title></rect><rect x="884.00" y="367.15" width="45.00" height="1.20" fill="url(#g-json)"><title>2026-W16 · JSON: +461</title></rect><rect x="884.00" y="363.88" width="45.00" height="3.27" fill="url(#g-javascript)"><title>2026-W16 · JavaScript: +5,572</title></rect><path d="M 884.00,363.88 V 348.86 Q 884.00,346.36 886.50,346.36 H 926.50 Q 929.00,346.36 929.00,348.86 V 363.88 Z" fill="url(#g-typescript)"><title>2026-W16 · TypeScript: +29,858</title></path>

  <!-- Clipped-outlier indicators -->
  <path d="M 85.5 214 L 90.5 209 L 95.5 214" stroke="var(--fg)" stroke-width="1.6" stroke-linecap="round" stroke-linejoin="round" fill="none" opacity="0.85"/><text x="90.5" y="204" text-anchor="middle" class="clip-label">+809k</text>

  <!-- X-axis labels -->
  <text x="234.5" y="402.0" text-anchor="middle" class="axis">JAN</text><text x="426.5" y="402.0" text-anchor="middle" class="axis">FEB</text><text x="618.5" y="402.0" text-anchor="middle" class="axis">MAR</text><text x="858.5" y="402.0" text-anchor="middle" class="axis">APR</text>

  <!-- Language breakdown section title -->
  <text x="28" y="420" class="section">LANGUAGE BREAKDOWN</text>
  <text x="932" y="420" class="period" text-anchor="end">
    ranked by lines added
  </text>

  <circle cx="33.0" cy="438" r="4" fill="#3178C6"/><text x="44.0" y="442" class="lb-name">TypeScript</text><rect x="120.0" y="435" width="252.0" height="6" rx="3" fill="var(--track)"/><rect x="120.0" y="435" width="252.0" height="6" rx="3" fill="url(#g-typescript)"/><text x="408.0" y="442" class="lb-val" text-anchor="end">+448k</text><text x="460.0" y="442" class="lb-pct" text-anchor="end">30.2%</text><circle cx="33.0" cy="458" r="4" fill="#E9B824"/><text x="44.0" y="462" class="lb-name">JavaScript</text><rect x="120.0" y="455" width="252.0" height="6" rx="3" fill="var(--track)"/><rect x="120.0" y="455" width="244.4" height="6" rx="3" fill="url(#g-javascript)"/><text x="408.0" y="462" class="lb-val" text-anchor="end">+435k</text><text x="460.0" y="462" class="lb-pct" text-anchor="end">29.3%</text><circle cx="33.0" cy="478" r="4" fill="#14B8A6"/><text x="44.0" y="482" class="lb-name">JSON</text><rect x="120.0" y="475" width="252.0" height="6" rx="3" fill="var(--track)"/><rect x="120.0" y="475" width="122.1" height="6" rx="3" fill="url(#g-json)"/><text x="408.0" y="482" class="lb-val" text-anchor="end">+217k</text><text x="460.0" y="482" class="lb-pct" text-anchor="end">14.6%</text><circle cx="33.0" cy="498" r="4" fill="#8B5CF6"/><text x="44.0" y="502" class="lb-name">Markdown</text><rect x="120.0" y="495" width="252.0" height="6" rx="3" fill="var(--track)"/><rect x="120.0" y="495" width="112.3" height="6" rx="3" fill="url(#g-markdown)"/><text x="408.0" y="502" class="lb-val" text-anchor="end">+200k</text><text x="460.0" y="502" class="lb-pct" text-anchor="end">13.5%</text><circle cx="33.0" cy="518" r="4" fill="#3776AB"/><text x="44.0" y="522" class="lb-name">Python</text><rect x="120.0" y="515" width="252.0" height="6" rx="3" fill="var(--track)"/><rect x="120.0" y="515" width="59.9" height="6" rx="3" fill="url(#g-python)"/><text x="408.0" y="522" class="lb-val" text-anchor="end">+107k</text><text x="460.0" y="522" class="lb-pct" text-anchor="end">7.2%</text><circle cx="505.0" cy="438" r="4" fill="#EC4899"/><text x="516.0" y="442" class="lb-name">YAML</text><rect x="592.0" y="435" width="252.0" height="6" rx="3" fill="var(--track)"/><rect x="592.0" y="435" width="18.7" height="6" rx="3" fill="url(#g-yaml)"/><text x="880.0" y="442" class="lb-val" text-anchor="end">+33k</text><text x="932.0" y="442" class="lb-pct" text-anchor="end">2.2%</text><circle cx="505.0" cy="458" r="4" fill="#22C55E"/><text x="516.0" y="462" class="lb-name">Shell</text><rect x="592.0" y="455" width="252.0" height="6" rx="3" fill="var(--track)"/><rect x="592.0" y="455" width="9.5" height="6" rx="3" fill="url(#g-shell)"/><text x="880.0" y="462" class="lb-val" text-anchor="end">+17k</text><text x="932.0" y="462" class="lb-pct" text-anchor="end">1.1%</text><circle cx="505.0" cy="478" r="4" fill="#6366F1"/><text x="516.0" y="482" class="lb-name">HCL</text><rect x="592.0" y="475" width="252.0" height="6" rx="3" fill="var(--track)"/><rect x="592.0" y="475" width="8.6" height="6" rx="3" fill="url(#g-hcl)"/><text x="880.0" y="482" class="lb-val" text-anchor="end">+15k</text><text x="932.0" y="482" class="lb-pct" text-anchor="end">1.0%</text><circle cx="505.0" cy="498" r="4" fill="#F97316"/><text x="516.0" y="502" class="lb-name">Rust</text><rect x="592.0" y="495" width="252.0" height="6" rx="3" fill="var(--track)"/><rect x="592.0" y="495" width="4.2" height="6" rx="3" fill="url(#g-rust)"/><text x="880.0" y="502" class="lb-val" text-anchor="end">+7.4k</text><text x="932.0" y="502" class="lb-pct" text-anchor="end">0.5%</text><circle cx="505.0" cy="518" r="4" fill="#E34C26"/><text x="516.0" y="522" class="lb-name">HTML</text><rect x="592.0" y="515" width="252.0" height="6" rx="3" fill="var(--track)"/><rect x="592.0" y="515" width="2.2" height="6" rx="3" fill="url(#g-html)"/><text x="880.0" y="522" class="lb-val" text-anchor="end">+4k</text><text x="932.0" y="522" class="lb-pct" text-anchor="end">0.3%</text>

  <!-- Footer -->
  <line x1="28" y1="550" x2="932" y2="550"
        stroke="var(--border)" stroke-width="1"/>
  <text x="28" y="566" class="footer">
    Generated 2026-04-20 · git diff-tree --numstat · non-forked, non-archived repos
  </text>
  <text x="932" y="566" class="footer" text-anchor="end">
    github.com · auto-updated
  </text>
</svg>