<svg xmlns="http://www.w3.org/2000/svg"
     viewBox="0 0 960 752"
     width="960" height="752"
     role="img" aria-label="Developer activity — weekly lines of code by language">

  <defs>
    <style>
      svg {
        --bg:        #FFFFFF;
        --fg:        #0F172A;
        --muted:     #64748B;
        --subtle:    #94A3B8;
        --border:    #E2E8F0;
        --grid:      #EEF2F6;
        --track:     #EEF2F6;
        --card-top:  #FFFFFF;
        --card-bot:  #F8FAFC;
        --accent:    #3178C6;
      }
      @media (prefers-color-scheme: dark) {
        svg {
          --bg:        #0D1117;
          --fg:        #E6EDF3;
          --muted:     #8B949E;
          --subtle:    #6E7681;
          --border:    #21262D;
          --grid:      #161B22;
          --track:     #1C2128;
          --card-top:  #161B22;
          --card-bot:  #0D1117;
          --accent:    #58A6FF;
        }
      }
      text {
        font-family: -apple-system, BlinkMacSystemFont, "Segoe UI",
                     "SF Pro Text", "Helvetica Neue", Arial, sans-serif;
        fill: var(--fg);
      }
      .mono {
        font-family: ui-monospace, SFMono-Regular, "SF Mono", Menlo,
                     Consolas, "Liberation Mono", monospace;
        font-variant-numeric: tabular-nums;
      }
      .eyebrow {
        font-size: 11px; font-weight: 600; letter-spacing: 2px;
        fill: var(--muted);
      }
      .period {
        font-size: 11px; fill: var(--muted);
        font-variant-numeric: tabular-nums;
      }
      .section {
        font-size: 10.5px; font-weight: 600; letter-spacing: 1.8px;
        fill: var(--muted);
      }
      .kpi-label {
        font-size: 9.5px; font-weight: 600; letter-spacing: 1.5px;
        fill: var(--muted);
      }
      .kpi-value {
        font-size: 26px; font-weight: 700; fill: var(--fg);
        font-variant-numeric: tabular-nums;
      }
      .kpi-sub {
        font-size: 10.5px; fill: var(--muted);
      }
      .axis {
        font-size: 9.5px; fill: var(--subtle);
        font-variant-numeric: tabular-nums;
      }
      .pulse-val {
        font-size: 18px; font-weight: 700; fill: var(--fg);
        font-variant-numeric: tabular-nums;
      }
      .pulse-peak {
        font-size: 11px; font-weight: 600;
        font-variant-numeric: tabular-nums;
      }
      .lb-name { font-size: 11px; font-weight: 500; fill: var(--fg); }
      .lb-val  { font-size: 10.5px; fill: var(--muted);
                  font-variant-numeric: tabular-nums; }
      .lb-pct  { font-size: 10.5px; font-weight: 600; fill: var(--fg);
                  font-variant-numeric: tabular-nums; }
      .clip-label { font-size: 9.5px; font-weight: 600; fill: var(--fg);
                     font-variant-numeric: tabular-nums; }
      .footer { font-size: 9.5px; fill: var(--subtle); }
    </style>
    <linearGradient id="g-typescript" x1="0" y1="0" x2="0" y2="1"><stop offset="0%" stop-color="#5198E8" stop-opacity="1"/><stop offset="100%" stop-color="#3178C6" stop-opacity="1"/></linearGradient><linearGradient id="g-json" x1="0" y1="0" x2="0" y2="1"><stop offset="0%" stop-color="#2DD4BF" stop-opacity="1"/><stop offset="100%" stop-color="#14B8A6" stop-opacity="1"/></linearGradient><linearGradient id="g-markdown" x1="0" y1="0" x2="0" y2="1"><stop offset="0%" stop-color="#A78BFA" stop-opacity="1"/><stop offset="100%" stop-color="#8B5CF6" stop-opacity="1"/></linearGradient><linearGradient id="g-python" x1="0" y1="0" x2="0" y2="1"><stop offset="0%" stop-color="#5497D4" stop-opacity="1"/><stop offset="100%" stop-color="#3776AB" stop-opacity="1"/></linearGradient><linearGradient id="g-dart" x1="0" y1="0" x2="0" y2="1"><stop offset="0%" stop-color="#2DCFC7" stop-opacity="1"/><stop offset="100%" stop-color="#00B4AB" stop-opacity="1"/></linearGradient><linearGradient id="g-terraform" x1="0" y1="0" x2="0" y2="1"><stop offset="0%" stop-color="#8B8EF7" stop-opacity="1"/><stop offset="100%" stop-color="#6366F1" stop-opacity="1"/></linearGradient><linearGradient id="g-rust" x1="0" y1="0" x2="0" y2="1"><stop offset="0%" stop-color="#FB9A4A" stop-opacity="1"/><stop offset="100%" stop-color="#F97316" stop-opacity="1"/></linearGradient><linearGradient id="g-html" x1="0" y1="0" x2="0" y2="1"><stop offset="0%" stop-color="#F76E4A" stop-opacity="1"/><stop offset="100%" stop-color="#E34C26" stop-opacity="1"/></linearGradient><linearGradient id="g-bash" x1="0" y1="0" x2="0" y2="1"><stop offset="0%" stop-color="#4ADE80" stop-opacity="1"/><stop offset="100%" stop-color="#22C55E" stop-opacity="1"/></linearGradient><linearGradient id="g-yaml" x1="0" y1="0" x2="0" y2="1"><stop offset="0%" stop-color="#F472B6" stop-opacity="1"/><stop offset="100%" stop-color="#EC4899" stop-opacity="1"/></linearGradient><linearGradient id="g-css" x1="0" y1="0" x2="0" y2="1"><stop offset="0%" stop-color="#7A58A8" stop-opacity="1"/><stop offset="100%" stop-color="#563D7C" stop-opacity="1"/></linearGradient><linearGradient id="g-astro" x1="0" y1="0" x2="0" y2="1"><stop offset="0%" stop-color="#FF8338" stop-opacity="1"/><stop offset="100%" stop-color="#FF5D01" stop-opacity="1"/></linearGradient><linearGradient id="g-svelte" x1="0" y1="0" x2="0" y2="1"><stop offset="0%" stop-color="#FF6A3D" stop-opacity="1"/><stop offset="100%" stop-color="#FF3E00" stop-opacity="1"/></linearGradient><linearGradient id="g-svg" x1="0" y1="0" x2="0" y2="1"><stop offset="0%" stop-color="#9CA3AF" stop-opacity="1"/><stop offset="100%" stop-color="#6B7280" stop-opacity="1"/></linearGradient><linearGradient id="g-text" x1="0" y1="0" x2="0" y2="1"><stop offset="0%" stop-color="#CBD5E1" stop-opacity="1"/><stop offset="100%" stop-color="#94A3B8" stop-opacity="1"/></linearGradient><linearGradient id="g-toml" x1="0" y1="0" x2="0" y2="1"><stop offset="0%" stop-color="#BE5D3A" stop-opacity="1"/><stop offset="100%" stop-color="#9C4221" stop-opacity="1"/></linearGradient><linearGradient id="g-dockerfile" x1="0" y1="0" x2="0" y2="1"><stop offset="0%" stop-color="#52B0F2" stop-opacity="1"/><stop offset="100%" stop-color="#2496ED" stop-opacity="1"/></linearGradient><linearGradient id="g-c" x1="0" y1="0" x2="0" y2="1"><stop offset="0%" stop-color="#94A3B8" stop-opacity="1"/><stop offset="100%" stop-color="#64748B" stop-opacity="1"/></linearGradient><linearGradient id="g-go" x1="0" y1="0" x2="0" y2="1"><stop offset="0%" stop-color="#38D3E8" stop-opacity="1"/><stop offset="100%" stop-color="#06B6D4" stop-opacity="1"/></linearGradient><linearGradient id="g-other" x1="0" y1="0" x2="0" y2="1"><stop offset="0%" stop-color="#9CA3AF" stop-opacity="1"/><stop offset="100%" stop-color="#6B7280" stop-opacity="1"/></linearGradient><linearGradient id="card-bg" x1="0" y1="0" x2="0" y2="1"><stop offset="0%" stop-color="var(--card-top)"/><stop offset="100%" stop-color="var(--card-bot)"/></linearGradient>
  </defs>

  <!-- Canvas -->
  <rect width="960" height="752" fill="var(--bg)" rx="12"/>

  <!-- Header: eyebrow with accent dot (left) + period (right) -->
  <circle cx="32" cy="36" r="4" fill="var(--accent)"/>
  <text x="44" y="40" class="eyebrow">DEVELOPER ACTIVITY</text>
  <text x="932" y="40" class="period" text-anchor="end">Last 12 weeks · 2026-W14 → 2026-W25</text>

  <!-- Divider under header -->
  <line x1="28" y1="54" x2="932" y2="54"
        stroke="var(--border)" stroke-width="1"/>

  <!-- KPI cards -->
  <rect x="28.0" y="72" width="215.5" height="96" rx="10" fill="url(#card-bg)" stroke="var(--border)"/><rect x="28.0" y="84" width="3" height="72" rx="1.5" fill="#22C55E"/><text x="44.0" y="96" class="kpi-label">NET LINES</text><text x="44.0" y="132" class="kpi-value">2M</text><text x="44.0" y="154" class="kpi-sub">+2.2M / −191k · 20 langs</text><rect x="257.5" y="72" width="215.5" height="96" rx="10" fill="url(#card-bg)" stroke="var(--border)"/><rect x="257.5" y="84" width="3" height="72" rx="1.5" fill="#3178C6"/><text x="273.5" y="96" class="kpi-label">TOP LANGUAGE</text><text x="273.5" y="132" class="kpi-value">TypeScript</text><text x="273.5" y="154" class="kpi-sub">25.6% of activity</text><rect x="487.0" y="72" width="215.5" height="96" rx="10" fill="url(#card-bg)" stroke="var(--border)"/><rect x="487.0" y="84" width="3" height="72" rx="1.5" fill="#F97316"/><text x="503.0" y="96" class="kpi-label">PEAK WEEK</text><text x="503.0" y="132" class="kpi-value">1.6M</text><text x="503.0" y="154" class="kpi-sub">week of Apr 20</text><rect x="716.5" y="72" width="215.5" height="96" rx="10" fill="url(#card-bg)" stroke="var(--border)"/><rect x="716.5" y="84" width="3" height="72" rx="1.5" fill="#3178C6"/><text x="732.5" y="96" class="kpi-label">WEEKLY AVG</text><text x="732.5" y="132" class="kpi-value">182k</text><text x="732.5" y="154" class="kpi-sub">over 12 weeks</text>

  <!-- Chart section title -->
  <text x="28" y="196" class="section">WEEKLY ACTIVITY</text>
  <text x="932" y="196" class="period" text-anchor="end">
    lines added per week
  </text>

  <!-- Grid -->
  <line x1="68" y1="384.0" x2="932" y2="384.0" stroke="var(--grid)" stroke-width="1"/><line x1="68" y1="340.0" x2="932" y2="340.0" stroke="var(--grid)" stroke-width="1" stroke-dasharray="2,4"/><text x="60" y="343.5" text-anchor="end" class="axis">50k</text><line x1="68" y1="296.0" x2="932" y2="296.0" stroke="var(--grid)" stroke-width="1" stroke-dasharray="2,4"/><text x="60" y="299.5" text-anchor="end" class="axis">100k</text><line x1="68" y1="252.0" x2="932" y2="252.0" stroke="var(--grid)" stroke-width="1" stroke-dasharray="2,4"/><text x="60" y="255.5" text-anchor="end" class="axis">150k</text><line x1="68" y1="208.0" x2="932" y2="208.0" stroke="var(--grid)" stroke-width="1" stroke-dasharray="2,4"/><text x="60" y="211.5" text-anchor="end" class="axis">200k</text>

  <!-- Bars -->
  <rect x="68.00" y="381.76" width="69.00" height="2.24" fill="url(#g-other)"><title>2026-W14 · Other: +2,546</title></rect><rect x="68.00" y="380.56" width="69.00" height="1.20" fill="url(#g-dockerfile)"><title>2026-W14 · Dockerfile: +198</title></rect><rect x="68.00" y="379.36" width="69.00" height="1.20" fill="url(#g-toml)"><title>2026-W14 · TOML: +100</title></rect><rect x="68.00" y="378.16" width="69.00" height="1.20" fill="url(#g-text)"><title>2026-W14 · Text: +39</title></rect><rect x="68.00" y="376.96" width="69.00" height="1.20" fill="url(#g-svg)"><title>2026-W14 · SVG: +87</title></rect><rect x="68.00" y="374.04" width="69.00" height="2.92" fill="url(#g-svelte)"><title>2026-W14 · Svelte: +3,317</title></rect><rect x="68.00" y="371.49" width="69.00" height="2.55" fill="url(#g-astro)"><title>2026-W14 · Astro: +2,899</title></rect><rect x="68.00" y="370.29" width="69.00" height="1.20" fill="url(#g-css)"><title>2026-W14 · CSS: +154</title></rect><rect x="68.00" y="369.09" width="69.00" height="1.20" fill="url(#g-yaml)"><title>2026-W14 · YAML: +483</title></rect><rect x="68.00" y="367.89" width="69.00" height="1.20" fill="url(#g-bash)"><title>2026-W14 · Bash: +475</title></rect><rect x="68.00" y="366.69" width="69.00" height="1.20" fill="url(#g-html)"><title>2026-W14 · HTML: +106</title></rect><rect x="68.00" y="365.49" width="69.00" height="1.20" fill="url(#g-rust)"><title>2026-W14 · Rust: +396</title></rect><rect x="68.00" y="364.29" width="69.00" height="1.20" fill="url(#g-terraform)"><title>2026-W14 · Terraform: +1,083</title></rect><rect x="68.00" y="359.46" width="69.00" height="4.83" fill="url(#g-python)"><title>2026-W14 · Python: +5,487</title></rect><rect x="68.00" y="352.01" width="69.00" height="7.45" fill="url(#g-markdown)"><title>2026-W14 · Markdown: +8,469</title></rect><rect x="68.00" y="343.50" width="69.00" height="8.51" fill="url(#g-json)"><title>2026-W14 · JSON: +9,674</title></rect><path d="M 68.00,343.50 V 329.77 Q 68.00,327.27 70.50,327.27 H 134.50 Q 137.00,327.27 137.00,329.77 V 343.50 Z" fill="url(#g-typescript)"><title>2026-W14 · TypeScript: +18,438</title></path><rect x="140.00" y="380.36" width="69.00" height="3.64" fill="url(#g-other)"><title>2026-W15 · Other: +4,140</title></rect><rect x="140.00" y="379.16" width="69.00" height="1.20" fill="url(#g-dockerfile)"><title>2026-W15 · Dockerfile: +132</title></rect><rect x="140.00" y="377.96" width="69.00" height="1.20" fill="url(#g-toml)"><title>2026-W15 · TOML: +21</title></rect><rect x="140.00" y="376.76" width="69.00" height="1.20" fill="url(#g-text)"><title>2026-W15 · Text: +53</title></rect><rect x="140.00" y="375.56" width="69.00" height="1.20" fill="url(#g-svg)"><title>2026-W15 · SVG: +151</title></rect><rect x="140.00" y="374.36" width="69.00" height="1.20" fill="url(#g-astro)"><title>2026-W15 · Astro: +214</title></rect><rect x="140.00" y="373.16" width="69.00" height="1.20" fill="url(#g-css)"><title>2026-W15 · CSS: +290</title></rect><rect x="140.00" y="371.96" width="69.00" height="1.20" fill="url(#g-yaml)"><title>2026-W15 · YAML: +467</title></rect><rect x="140.00" y="370.76" width="69.00" height="1.20" fill="url(#g-bash)"><title>2026-W15 · Bash: +174</title></rect><rect x="140.00" y="369.56" width="69.00" height="1.20" fill="url(#g-rust)"><title>2026-W15 · Rust: +943</title></rect><rect x="140.00" y="368.36" width="69.00" height="1.20" fill="url(#g-terraform)"><title>2026-W15 · Terraform: +215</title></rect><rect x="140.00" y="366.68" width="69.00" height="1.68" fill="url(#g-python)"><title>2026-W15 · Python: +1,905</title></rect><rect x="140.00" y="359.62" width="69.00" height="7.06" fill="url(#g-markdown)"><title>2026-W15 · Markdown: +8,027</title></rect><rect x="140.00" y="355.04" width="69.00" height="4.58" fill="url(#g-json)"><title>2026-W15 · JSON: +5,201</title></rect><path d="M 140.00,355.04 V 340.43 Q 140.00,337.93 142.50,337.93 H 206.50 Q 209.00,337.93 209.00,340.43 V 355.04 Z" fill="url(#g-typescript)"><title>2026-W15 · TypeScript: +19,441</title></path><rect x="212.00" y="381.88" width="69.00" height="2.12" fill="url(#g-other)"><title>2026-W16 · Other: +2,407</title></rect><rect x="212.00" y="380.68" width="69.00" height="1.20" fill="url(#g-dockerfile)"><title>2026-W16 · Dockerfile: +23</title></rect><rect x="212.00" y="379.48" width="69.00" height="1.20" fill="url(#g-toml)"><title>2026-W16 · TOML: +124</title></rect><rect x="212.00" y="378.28" width="69.00" height="1.20" fill="url(#g-svg)"><title>2026-W16 · SVG: +608</title></rect><rect x="212.00" y="377.07" width="69.00" height="1.21" fill="url(#g-svelte)"><title>2026-W16 · Svelte: +1,373</title></rect><rect x="212.00" y="375.72" width="69.00" height="1.35" fill="url(#g-astro)"><title>2026-W16 · Astro: +1,539</title></rect><rect x="212.00" y="374.52" width="69.00" height="1.20" fill="url(#g-css)"><title>2026-W16 · CSS: +120</title></rect><rect x="212.00" y="373.32" width="69.00" height="1.20" fill="url(#g-yaml)"><title>2026-W16 · YAML: +624</title></rect><rect x="212.00" y="372.12" width="69.00" height="1.20" fill="url(#g-bash)"><title>2026-W16 · Bash: +1,074</title></rect><rect x="212.00" y="370.92" width="69.00" height="1.20" fill="url(#g-html)"><title>2026-W16 · HTML: +897</title></rect><rect x="212.00" y="368.45" width="69.00" height="2.47" fill="url(#g-rust)"><title>2026-W16 · Rust: +2,807</title></rect><rect x="212.00" y="366.54" width="69.00" height="1.91" fill="url(#g-terraform)"><title>2026-W16 · Terraform: +2,173</title></rect><rect x="212.00" y="361.71" width="69.00" height="4.83" fill="url(#g-python)"><title>2026-W16 · Python: +5,487</title></rect><rect x="212.00" y="352.57" width="69.00" height="9.14" fill="url(#g-markdown)"><title>2026-W16 · Markdown: +10,388</title></rect><rect x="212.00" y="351.37" width="69.00" height="1.20" fill="url(#g-json)"><title>2026-W16 · JSON: +463</title></rect><path d="M 212.00,351.37 V 318.23 Q 212.00,315.73 214.50,315.73 H 278.50 Q 281.00,315.73 281.00,318.23 V 351.37 Z" fill="url(#g-typescript)"><title>2026-W16 · TypeScript: +40,493</title></path><rect x="284.00" y="275.23" width="69.00" height="108.77" fill="url(#g-other)"><title>2026-W17 · Other: +1,071,036</title></rect><rect x="284.00" y="274.03" width="69.00" height="1.20" fill="url(#g-go)"><title>2026-W17 · Go: +277</title></rect><rect x="284.00" y="272.83" width="69.00" height="1.20" fill="url(#g-dockerfile)"><title>2026-W17 · Dockerfile: +225</title></rect><rect x="284.00" y="271.63" width="69.00" height="1.20" fill="url(#g-text)"><title>2026-W17 · Text: +989</title></rect><rect x="284.00" y="270.43" width="69.00" height="1.20" fill="url(#g-svg)"><title>2026-W17 · SVG: +1,013</title></rect><rect x="284.00" y="269.23" width="69.00" height="1.20" fill="url(#g-astro)"><title>2026-W17 · Astro: +191</title></rect><rect x="284.00" y="268.03" width="69.00" height="1.20" fill="url(#g-css)"><title>2026-W17 · CSS: +1,561</title></rect><rect x="284.00" y="266.83" width="69.00" height="1.20" fill="url(#g-yaml)"><title>2026-W17 · YAML: +1,828</title></rect><rect x="284.00" y="265.63" width="69.00" height="1.20" fill="url(#g-bash)"><title>2026-W17 · Bash: +537</title></rect><rect x="284.00" y="264.43" width="69.00" height="1.20" fill="url(#g-html)"><title>2026-W17 · HTML: +127</title></rect><rect x="284.00" y="263.23" width="69.00" height="1.20" fill="url(#g-terraform)"><title>2026-W17 · Terraform: +4,346</title></rect><rect x="284.00" y="262.03" width="69.00" height="1.20" fill="url(#g-python)"><title>2026-W17 · Python: +2,497</title></rect><rect x="284.00" y="253.31" width="69.00" height="8.72" fill="url(#g-markdown)"><title>2026-W17 · Markdown: +85,836</title></rect><rect x="284.00" y="240.01" width="69.00" height="13.30" fill="url(#g-json)"><title>2026-W17 · JSON: +130,988</title></rect><path d="M 284.00,240.01 V 209.24 Q 284.00,206.74 286.50,206.74 H 350.50 Q 353.00,206.74 353.00,209.24 V 240.01 Z" fill="url(#g-typescript)"><title>2026-W17 · TypeScript: +327,541</title></path><rect x="356.00" y="382.80" width="69.00" height="1.20" fill="url(#g-other)"><title>2026-W18 · Other: +343</title></rect><rect x="356.00" y="381.60" width="69.00" height="1.20" fill="url(#g-dockerfile)"><title>2026-W18 · Dockerfile: +235</title></rect><rect x="356.00" y="380.40" width="69.00" height="1.20" fill="url(#g-text)"><title>2026-W18 · Text: +65</title></rect><rect x="356.00" y="379.20" width="69.00" height="1.20" fill="url(#g-svelte)"><title>2026-W18 · Svelte: +450</title></rect><rect x="356.00" y="378.00" width="69.00" height="1.20" fill="url(#g-astro)"><title>2026-W18 · Astro: +445</title></rect><rect x="356.00" y="376.80" width="69.00" height="1.20" fill="url(#g-css)"><title>2026-W18 · CSS: +263</title></rect><rect x="356.00" y="375.60" width="69.00" height="1.20" fill="url(#g-yaml)"><title>2026-W18 · YAML: +571</title></rect><rect x="356.00" y="374.05" width="69.00" height="1.55" fill="url(#g-bash)"><title>2026-W18 · Bash: +1,758</title></rect><rect x="356.00" y="366.45" width="69.00" height="7.61" fill="url(#g-html)"><title>2026-W18 · HTML: +8,643</title></rect><rect x="356.00" y="365.25" width="69.00" height="1.20" fill="url(#g-terraform)"><title>2026-W18 · Terraform: +1,112</title></rect><rect x="356.00" y="364.05" width="69.00" height="1.20" fill="url(#g-python)"><title>2026-W18 · Python: +746</title></rect><rect x="356.00" y="360.50" width="69.00" height="3.55" fill="url(#g-markdown)"><title>2026-W18 · Markdown: +4,033</title></rect><rect x="356.00" y="350.36" width="69.00" height="10.14" fill="url(#g-json)"><title>2026-W18 · JSON: +11,522</title></rect><path d="M 356.00,350.36 V 340.26 Q 356.00,337.76 358.50,337.76 H 422.50 Q 425.00,337.76 425.00,340.26 V 350.36 Z" fill="url(#g-typescript)"><title>2026-W18 · TypeScript: +14,318</title></path><rect x="428.00" y="380.84" width="69.00" height="3.16" fill="url(#g-other)"><title>2026-W19 · Other: +3,595</title></rect><rect x="428.00" y="379.64" width="69.00" height="1.20" fill="url(#g-dockerfile)"><title>2026-W19 · Dockerfile: +2</title></rect><rect x="428.00" y="378.44" width="69.00" height="1.20" fill="url(#g-toml)"><title>2026-W19 · TOML: +106</title></rect><rect x="428.00" y="377.24" width="69.00" height="1.20" fill="url(#g-text)"><title>2026-W19 · Text: +6</title></rect><rect x="428.00" y="376.04" width="69.00" height="1.20" fill="url(#g-svg)"><title>2026-W19 · SVG: +51</title></rect><rect x="428.00" y="374.61" width="69.00" height="1.42" fill="url(#g-svelte)"><title>2026-W19 · Svelte: +1,619</title></rect><rect x="428.00" y="373.41" width="69.00" height="1.20" fill="url(#g-astro)"><title>2026-W19 · Astro: +259</title></rect><rect x="428.00" y="370.39" width="69.00" height="3.03" fill="url(#g-css)"><title>2026-W19 · CSS: +3,438</title></rect><rect x="428.00" y="369.19" width="69.00" height="1.20" fill="url(#g-yaml)"><title>2026-W19 · YAML: +1,315</title></rect><rect x="428.00" y="367.44" width="69.00" height="1.74" fill="url(#g-bash)"><title>2026-W19 · Bash: +1,980</title></rect><rect x="428.00" y="365.52" width="69.00" height="1.92" fill="url(#g-html)"><title>2026-W19 · HTML: +2,186</title></rect><rect x="428.00" y="363.07" width="69.00" height="2.45" fill="url(#g-rust)"><title>2026-W19 · Rust: +2,780</title></rect><rect x="428.00" y="358.93" width="69.00" height="4.14" fill="url(#g-terraform)"><title>2026-W19 · Terraform: +4,709</title></rect><rect x="428.00" y="357.73" width="69.00" height="1.20" fill="url(#g-dart)"><title>2026-W19 · Dart: +400</title></rect><rect x="428.00" y="355.95" width="69.00" height="1.78" fill="url(#g-python)"><title>2026-W19 · Python: +2,021</title></rect><rect x="428.00" y="344.68" width="69.00" height="11.27" fill="url(#g-markdown)"><title>2026-W19 · Markdown: +12,806</title></rect><rect x="428.00" y="317.48" width="69.00" height="27.21" fill="url(#g-json)"><title>2026-W19 · JSON: +30,917</title></rect><path d="M 428.00,317.48 V 297.91 Q 428.00,295.41 430.50,295.41 H 494.50 Q 497.00,295.41 497.00,297.91 V 317.48 Z" fill="url(#g-typescript)"><title>2026-W19 · TypeScript: +25,075</title></path><rect x="500.00" y="382.80" width="69.00" height="1.20" fill="url(#g-other)"><title>2026-W20 · Other: +786</title></rect><rect x="500.00" y="381.60" width="69.00" height="1.20" fill="url(#g-toml)"><title>2026-W20 · TOML: +127</title></rect><rect x="500.00" y="380.40" width="69.00" height="1.20" fill="url(#g-svg)"><title>2026-W20 · SVG: +49</title></rect><rect x="500.00" y="379.20" width="69.00" height="1.20" fill="url(#g-astro)"><title>2026-W20 · Astro: +7</title></rect><rect x="500.00" y="378.00" width="69.00" height="1.20" fill="url(#g-css)"><title>2026-W20 · CSS: +186</title></rect><rect x="500.00" y="376.80" width="69.00" height="1.20" fill="url(#g-yaml)"><title>2026-W20 · YAML: +490</title></rect><rect x="500.00" y="374.07" width="69.00" height="2.73" fill="url(#g-bash)"><title>2026-W20 · Bash: +3,103</title></rect><rect x="500.00" y="372.87" width="69.00" height="1.20" fill="url(#g-html)"><title>2026-W20 · HTML: +8</title></rect><rect x="500.00" y="371.33" width="69.00" height="1.53" fill="url(#g-rust)"><title>2026-W20 · Rust: +1,744</title></rect><rect x="500.00" y="370.13" width="69.00" height="1.21" fill="url(#g-terraform)"><title>2026-W20 · Terraform: +1,371</title></rect><rect x="500.00" y="364.11" width="69.00" height="6.02" fill="url(#g-dart)"><title>2026-W20 · Dart: +6,843</title></rect><rect x="500.00" y="362.91" width="69.00" height="1.20" fill="url(#g-python)"><title>2026-W20 · Python: +546</title></rect><rect x="500.00" y="354.81" width="69.00" height="8.09" fill="url(#g-markdown)"><title>2026-W20 · Markdown: +9,195</title></rect><rect x="500.00" y="350.05" width="69.00" height="4.76" fill="url(#g-json)"><title>2026-W20 · JSON: +5,414</title></rect><path d="M 500.00,350.05 V 347.95 Q 500.00,345.45 502.50,345.45 H 566.50 Q 569.00,345.45 569.00,347.95 V 350.05 Z" fill="url(#g-typescript)"><title>2026-W20 · TypeScript: +5,230</title></path><rect x="572.00" y="382.80" width="69.00" height="1.20" fill="url(#g-other)"><title>2026-W21 · Other: +39</title></rect><rect x="572.00" y="381.60" width="69.00" height="1.20" fill="url(#g-toml)"><title>2026-W21 · TOML: +49</title></rect><rect x="572.00" y="380.40" width="69.00" height="1.20" fill="url(#g-css)"><title>2026-W21 · CSS: +12</title></rect><rect x="572.00" y="379.20" width="69.00" height="1.20" fill="url(#g-yaml)"><title>2026-W21 · YAML: +20</title></rect><rect x="572.00" y="378.00" width="69.00" height="1.20" fill="url(#g-bash)"><title>2026-W21 · Bash: +597</title></rect><rect x="572.00" y="376.80" width="69.00" height="1.20" fill="url(#g-rust)"><title>2026-W21 · Rust: +819</title></rect><rect x="572.00" y="375.60" width="69.00" height="1.20" fill="url(#g-terraform)"><title>2026-W21 · Terraform: +223</title></rect><rect x="572.00" y="374.40" width="69.00" height="1.20" fill="url(#g-python)"><title>2026-W21 · Python: +194</title></rect><rect x="572.00" y="373.20" width="69.00" height="1.20" fill="url(#g-markdown)"><title>2026-W21 · Markdown: +1,244</title></rect><rect x="572.00" y="372.00" width="69.00" height="1.20" fill="url(#g-json)"><title>2026-W21 · JSON: +123</title></rect><path d="M 572.00,372.00 V 372.00 Q 572.00,370.39 573.61,370.39 H 639.39 Q 641.00,370.39 641.00,372.00 V 372.00 Z" fill="url(#g-typescript)"><title>2026-W21 · TypeScript: +1,835</title></path><rect x="644.00" y="379.50" width="69.00" height="4.50" fill="url(#g-other)"><title>2026-W22 · Other: +5,109</title></rect><rect x="644.00" y="378.30" width="69.00" height="1.20" fill="url(#g-c)"><title>2026-W22 · C: +574</title></rect><rect x="644.00" y="377.10" width="69.00" height="1.20" fill="url(#g-dockerfile)"><title>2026-W22 · Dockerfile: +46</title></rect><rect x="644.00" y="375.90" width="69.00" height="1.20" fill="url(#g-toml)"><title>2026-W22 · TOML: +335</title></rect><rect x="644.00" y="374.70" width="69.00" height="1.20" fill="url(#g-text)"><title>2026-W22 · Text: +658</title></rect><rect x="644.00" y="373.50" width="69.00" height="1.20" fill="url(#g-css)"><title>2026-W22 · CSS: +752</title></rect><rect x="644.00" y="372.30" width="69.00" height="1.20" fill="url(#g-yaml)"><title>2026-W22 · YAML: +421</title></rect><rect x="644.00" y="370.76" width="69.00" height="1.54" fill="url(#g-bash)"><title>2026-W22 · Bash: +1,750</title></rect><rect x="644.00" y="369.56" width="69.00" height="1.20" fill="url(#g-html)"><title>2026-W22 · HTML: +921</title></rect><rect x="644.00" y="368.36" width="69.00" height="1.20" fill="url(#g-rust)"><title>2026-W22 · Rust: +973</title></rect><rect x="644.00" y="367.16" width="69.00" height="1.20" fill="url(#g-terraform)"><title>2026-W22 · Terraform: +271</title></rect><rect x="644.00" y="353.31" width="69.00" height="13.85" fill="url(#g-dart)"><title>2026-W22 · Dart: +15,738</title></rect><rect x="644.00" y="341.47" width="69.00" height="11.85" fill="url(#g-python)"><title>2026-W22 · Python: +13,465</title></rect><rect x="644.00" y="334.47" width="69.00" height="6.99" fill="url(#g-markdown)"><title>2026-W22 · Markdown: +7,946</title></rect><rect x="644.00" y="333.27" width="69.00" height="1.20" fill="url(#g-json)"><title>2026-W22 · JSON: +157</title></rect><path d="M 644.00,333.27 V 298.44 Q 644.00,295.94 646.50,295.94 H 710.50 Q 713.00,295.94 713.00,298.44 V 333.27 Z" fill="url(#g-typescript)"><title>2026-W22 · TypeScript: +42,421</title></path><rect x="716.00" y="381.58" width="69.00" height="2.42" fill="url(#g-other)"><title>2026-W23 · Other: +2,745</title></rect><rect x="716.00" y="380.38" width="69.00" height="1.20" fill="url(#g-c)"><title>2026-W23 · C: +206</title></rect><rect x="716.00" y="379.18" width="69.00" height="1.20" fill="url(#g-dockerfile)"><title>2026-W23 · Dockerfile: +5</title></rect><rect x="716.00" y="377.98" width="69.00" height="1.20" fill="url(#g-toml)"><title>2026-W23 · TOML: +226</title></rect><rect x="716.00" y="376.78" width="69.00" height="1.20" fill="url(#g-css)"><title>2026-W23 · CSS: +534</title></rect><rect x="716.00" y="375.58" width="69.00" height="1.20" fill="url(#g-yaml)"><title>2026-W23 · YAML: +1,276</title></rect><rect x="716.00" y="374.38" width="69.00" height="1.20" fill="url(#g-bash)"><title>2026-W23 · Bash: +453</title></rect><rect x="716.00" y="373.18" width="69.00" height="1.20" fill="url(#g-html)"><title>2026-W23 · HTML: +586</title></rect><rect x="716.00" y="366.04" width="69.00" height="7.15" fill="url(#g-rust)"><title>2026-W23 · Rust: +8,124</title></rect><rect x="716.00" y="364.53" width="69.00" height="1.50" fill="url(#g-terraform)"><title>2026-W23 · Terraform: +1,710</title></rect><rect x="716.00" y="363.33" width="69.00" height="1.20" fill="url(#g-python)"><title>2026-W23 · Python: +210</title></rect><rect x="716.00" y="355.78" width="69.00" height="7.55" fill="url(#g-markdown)"><title>2026-W23 · Markdown: +8,578</title></rect><rect x="716.00" y="349.90" width="69.00" height="5.88" fill="url(#g-json)"><title>2026-W23 · JSON: +6,683</title></rect><path d="M 716.00,349.90 V 317.97 Q 716.00,315.47 718.50,315.47 H 782.50 Q 785.00,315.47 785.00,317.97 V 349.90 Z" fill="url(#g-typescript)"><title>2026-W23 · TypeScript: +39,129</title></path><rect x="788.00" y="382.70" width="69.00" height="1.30" fill="url(#g-other)"><title>2026-W24 · Other: +1,478</title></rect><rect x="788.00" y="381.50" width="69.00" height="1.20" fill="url(#g-c)"><title>2026-W24 · C: +84</title></rect><rect x="788.00" y="380.30" width="69.00" height="1.20" fill="url(#g-svg)"><title>2026-W24 · SVG: +55</title></rect><rect x="788.00" y="379.10" width="69.00" height="1.20" fill="url(#g-svelte)"><title>2026-W24 · Svelte: +39</title></rect><rect x="788.00" y="377.90" width="69.00" height="1.20" fill="url(#g-astro)"><title>2026-W24 · Astro: +3</title></rect><rect x="788.00" y="376.70" width="69.00" height="1.20" fill="url(#g-css)"><title>2026-W24 · CSS: +316</title></rect><rect x="788.00" y="375.50" width="69.00" height="1.20" fill="url(#g-yaml)"><title>2026-W24 · YAML: +200</title></rect><rect x="788.00" y="374.30" width="69.00" height="1.20" fill="url(#g-bash)"><title>2026-W24 · Bash: +26</title></rect><rect x="788.00" y="373.10" width="69.00" height="1.20" fill="url(#g-html)"><title>2026-W24 · HTML: +203</title></rect><rect x="788.00" y="371.90" width="69.00" height="1.20" fill="url(#g-terraform)"><title>2026-W24 · Terraform: +620</title></rect><rect x="788.00" y="370.70" width="69.00" height="1.20" fill="url(#g-python)"><title>2026-W24 · Python: +291</title></rect><rect x="788.00" y="365.29" width="69.00" height="5.41" fill="url(#g-markdown)"><title>2026-W24 · Markdown: +6,145</title></rect><rect x="788.00" y="364.04" width="69.00" height="1.25" fill="url(#g-json)"><title>2026-W24 · JSON: +1,424</title></rect><path d="M 788.00,364.04 V 356.65 Q 788.00,354.15 790.50,354.15 H 854.50 Q 857.00,354.15 857.00,356.65 V 364.04 Z" fill="url(#g-typescript)"><title>2026-W24 · TypeScript: +11,235</title></path>

  <!-- Clipped-outlier indicators -->
  <path d="M 313.5 214 L 318.5 209 L 323.5 214" stroke="var(--fg)" stroke-width="1.6" stroke-linecap="round" stroke-linejoin="round" fill="none" opacity="0.85"/><text x="318.5" y="204" text-anchor="middle" class="clip-label">+1.6M</text>

  <!-- X-axis labels -->
  <text x="174.5" y="402.0" text-anchor="middle" class="axis">APR</text><text x="462.5" y="402.0" text-anchor="middle" class="axis">MAY</text><text x="750.5" y="402.0" text-anchor="middle" class="axis">JUN</text>

  <!-- Activity pulse section (commits + repos sparklines) -->
  <text x="28" y="408" class="section">ACTIVITY PULSE</text>
  <text x="932" y="408" class="period" text-anchor="end">weekly cadence</text>
  <rect x="28.0" y="420" width="440.0" height="36" rx="8" fill="url(#card-bg)" stroke="var(--border)"/><circle cx="40.0" cy="438.0" r="3.5" fill="#22C55E"/><text x="52.0" y="441.5" class="kpi-label">COMMITS</text><text x="116.0" y="443.0" class="pulse-val mono">4,061</text><text x="456.0" y="442.0" class="pulse-peak mono" fill="#22C55E" text-anchor="end">↑1,136</text><polygon points="178.0,450.0 178.0,447.0 199.3,441.5 220.5,426.6 241.8,426.0 263.1,447.2 284.4,438.7 305.6,448.1 326.9,449.3 348.2,445.6 369.5,446.3 390.7,447.9 412.0,450.0 412.0,450.0" fill="#22C55E" opacity="0.18"/><polyline points="178.0,447.0 199.3,441.5 220.5,426.6 241.8,426.0 263.1,447.2 284.4,438.7 305.6,448.1 326.9,449.3 348.2,445.6 369.5,446.3 390.7,447.9 412.0,450.0" fill="none" stroke="#22C55E" stroke-width="1.5" stroke-linejoin="round" stroke-linecap="round"/><rect x="492.0" y="420" width="440.0" height="36" rx="8" fill="url(#card-bg)" stroke="var(--border)"/><circle cx="504.0" cy="438.0" r="3.5" fill="#F97316"/><text x="516.0" y="441.5" class="kpi-label">REPOS</text><text x="580.0" y="443.0" class="pulse-val mono">25</text><text x="920.0" y="442.0" class="pulse-peak mono" fill="#F97316" text-anchor="end">↑13</text><polygon points="642.0,450.0 642.0,437.1 663.3,435.2 684.5,437.1 705.8,433.4 727.1,433.4 748.4,426.0 769.6,426.0 790.9,442.6 812.2,433.4 833.5,435.2 854.7,433.4 876.0,450.0 876.0,450.0" fill="#F97316" opacity="0.18"/><polyline points="642.0,437.1 663.3,435.2 684.5,437.1 705.8,433.4 727.1,433.4 748.4,426.0 769.6,426.0 790.9,442.6 812.2,433.4 833.5,435.2 854.7,433.4 876.0,450.0" fill="none" stroke="#F97316" stroke-width="1.5" stroke-linejoin="round" stroke-linecap="round"/>

  <!-- Language breakdown section title -->
  <text x="28" y="480" class="section">LANGUAGE BREAKDOWN</text>
  <text x="932" y="480" class="period" text-anchor="end">
    ranked by lines added
  </text>

  <circle cx="33.0" cy="498" r="4" fill="#3178C6"/><text x="44.0" y="502" class="lb-name">TypeScript</text><rect x="120.0" y="495" width="252.0" height="6" rx="3" fill="var(--track)"/><rect x="120.0" y="495" width="128.5" height="6" rx="3" fill="url(#g-typescript)"/><text x="408.0" y="502" class="lb-val" text-anchor="end">+559k</text><text x="460.0" y="502" class="lb-pct" text-anchor="end">25.6%</text><circle cx="33.0" cy="518" r="4" fill="#14B8A6"/><text x="44.0" y="522" class="lb-name">JSON</text><rect x="120.0" y="515" width="252.0" height="6" rx="3" fill="var(--track)"/><rect x="120.0" y="515" width="46.7" height="6" rx="3" fill="url(#g-json)"/><text x="408.0" y="522" class="lb-val" text-anchor="end">+203k</text><text x="460.0" y="522" class="lb-pct" text-anchor="end">9.3%</text><circle cx="33.0" cy="538" r="4" fill="#8B5CF6"/><text x="44.0" y="542" class="lb-name">Markdown</text><rect x="120.0" y="535" width="252.0" height="6" rx="3" fill="var(--track)"/><rect x="120.0" y="535" width="38.3" height="6" rx="3" fill="url(#g-markdown)"/><text x="408.0" y="542" class="lb-val" text-anchor="end">+167k</text><text x="460.0" y="542" class="lb-pct" text-anchor="end">7.6%</text><circle cx="33.0" cy="558" r="4" fill="#3776AB"/><text x="44.0" y="562" class="lb-name">Python</text><rect x="120.0" y="555" width="252.0" height="6" rx="3" fill="var(--track)"/><rect x="120.0" y="555" width="8.3" height="6" rx="3" fill="url(#g-python)"/><text x="408.0" y="562" class="lb-val" text-anchor="end">+36k</text><text x="460.0" y="562" class="lb-pct" text-anchor="end">1.7%</text><circle cx="33.0" cy="578" r="4" fill="#00B4AB"/><text x="44.0" y="582" class="lb-name">Dart</text><rect x="120.0" y="575" width="252.0" height="6" rx="3" fill="var(--track)"/><rect x="120.0" y="575" width="5.3" height="6" rx="3" fill="url(#g-dart)"/><text x="408.0" y="582" class="lb-val" text-anchor="end">+23k</text><text x="460.0" y="582" class="lb-pct" text-anchor="end">1.1%</text><circle cx="33.0" cy="598" r="4" fill="#6366F1"/><text x="44.0" y="602" class="lb-name">Terraform</text><rect x="120.0" y="595" width="252.0" height="6" rx="3" fill="var(--track)"/><rect x="120.0" y="595" width="4.4" height="6" rx="3" fill="url(#g-terraform)"/><text x="408.0" y="602" class="lb-val" text-anchor="end">+19k</text><text x="460.0" y="602" class="lb-pct" text-anchor="end">0.9%</text><circle cx="33.0" cy="618" r="4" fill="#F97316"/><text x="44.0" y="622" class="lb-name">Rust</text><rect x="120.0" y="615" width="252.0" height="6" rx="3" fill="var(--track)"/><rect x="120.0" y="615" width="4.3" height="6" rx="3" fill="url(#g-rust)"/><text x="408.0" y="622" class="lb-val" text-anchor="end">+19k</text><text x="460.0" y="622" class="lb-pct" text-anchor="end">0.9%</text><circle cx="33.0" cy="638" r="4" fill="#E34C26"/><text x="44.0" y="642" class="lb-name">HTML</text><rect x="120.0" y="635" width="252.0" height="6" rx="3" fill="var(--track)"/><rect x="120.0" y="635" width="3.1" height="6" rx="3" fill="url(#g-html)"/><text x="408.0" y="642" class="lb-val" text-anchor="end">+14k</text><text x="460.0" y="642" class="lb-pct" text-anchor="end">0.6%</text><circle cx="33.0" cy="658" r="4" fill="#22C55E"/><text x="44.0" y="662" class="lb-name">Bash</text><rect x="120.0" y="655" width="252.0" height="6" rx="3" fill="var(--track)"/><rect x="120.0" y="655" width="2.8" height="6" rx="3" fill="url(#g-bash)"/><text x="408.0" y="662" class="lb-val" text-anchor="end">+12k</text><text x="460.0" y="662" class="lb-pct" text-anchor="end">0.6%</text><circle cx="33.0" cy="678" r="4" fill="#EC4899"/><text x="44.0" y="682" class="lb-name">YAML</text><rect x="120.0" y="675" width="252.0" height="6" rx="3" fill="var(--track)"/><rect x="120.0" y="675" width="1.9" height="6" rx="3" fill="url(#g-yaml)"/><text x="408.0" y="682" class="lb-val" text-anchor="end">+8.1k</text><text x="460.0" y="682" class="lb-pct" text-anchor="end">0.4%</text><circle cx="505.0" cy="498" r="4" fill="#563D7C"/><text x="516.0" y="502" class="lb-name">CSS</text><rect x="592.0" y="495" width="252.0" height="6" rx="3" fill="var(--track)"/><rect x="592.0" y="495" width="1.8" height="6" rx="3" fill="url(#g-css)"/><text x="880.0" y="502" class="lb-val" text-anchor="end">+7.6k</text><text x="932.0" y="502" class="lb-pct" text-anchor="end">0.3%</text><circle cx="505.0" cy="518" r="4" fill="#FF5D01"/><text x="516.0" y="522" class="lb-name">Astro</text><rect x="592.0" y="515" width="252.0" height="6" rx="3" fill="var(--track)"/><rect x="592.0" y="515" width="1.7" height="6" rx="3" fill="url(#g-astro)"/><text x="880.0" y="522" class="lb-val" text-anchor="end">+7.6k</text><text x="932.0" y="522" class="lb-pct" text-anchor="end">0.3%</text><circle cx="505.0" cy="538" r="4" fill="#FF3E00"/><text x="516.0" y="542" class="lb-name">Svelte</text><rect x="592.0" y="535" width="252.0" height="6" rx="3" fill="var(--track)"/><rect x="592.0" y="535" width="1.6" height="6" rx="3" fill="url(#g-svelte)"/><text x="880.0" y="542" class="lb-val" text-anchor="end">+6.9k</text><text x="932.0" y="542" class="lb-pct" text-anchor="end">0.3%</text><circle cx="505.0" cy="558" r="4" fill="#6B7280"/><text x="516.0" y="562" class="lb-name">SVG</text><rect x="592.0" y="555" width="252.0" height="6" rx="3" fill="var(--track)"/><rect x="592.0" y="555" width="0.5" height="6" rx="3" fill="url(#g-svg)"/><text x="880.0" y="562" class="lb-val" text-anchor="end">+2k</text><text x="932.0" y="562" class="lb-pct" text-anchor="end">0.1%</text><circle cx="505.0" cy="578" r="4" fill="#94A3B8"/><text x="516.0" y="582" class="lb-name">Text</text><rect x="592.0" y="575" width="252.0" height="6" rx="3" fill="var(--track)"/><rect x="592.0" y="575" width="0.4" height="6" rx="3" fill="url(#g-text)"/><text x="880.0" y="582" class="lb-val" text-anchor="end">+1.8k</text><text x="932.0" y="582" class="lb-pct" text-anchor="end">0.1%</text><circle cx="505.0" cy="598" r="4" fill="#9C4221"/><text x="516.0" y="602" class="lb-name">TOML</text><rect x="592.0" y="595" width="252.0" height="6" rx="3" fill="var(--track)"/><rect x="592.0" y="595" width="0.3" height="6" rx="3" fill="url(#g-toml)"/><text x="880.0" y="602" class="lb-val" text-anchor="end">+1.1k</text><text x="932.0" y="602" class="lb-pct" text-anchor="end">0.1%</text><circle cx="505.0" cy="618" r="4" fill="#2496ED"/><text x="516.0" y="622" class="lb-name">Dockerfile</text><rect x="592.0" y="615" width="252.0" height="6" rx="3" fill="var(--track)"/><rect x="592.0" y="615" width="0.2" height="6" rx="3" fill="url(#g-dockerfile)"/><text x="880.0" y="622" class="lb-val" text-anchor="end">+866</text><text x="932.0" y="622" class="lb-pct" text-anchor="end">0.0%</text><circle cx="505.0" cy="638" r="4" fill="#64748B"/><text x="516.0" y="642" class="lb-name">C</text><rect x="592.0" y="635" width="252.0" height="6" rx="3" fill="var(--track)"/><rect x="592.0" y="635" width="0.2" height="6" rx="3" fill="url(#g-c)"/><text x="880.0" y="642" class="lb-val" text-anchor="end">+864</text><text x="932.0" y="642" class="lb-pct" text-anchor="end">0.0%</text><circle cx="505.0" cy="658" r="4" fill="#06B6D4"/><text x="516.0" y="662" class="lb-name">Go</text><rect x="592.0" y="655" width="252.0" height="6" rx="3" fill="var(--track)"/><rect x="592.0" y="655" width="0.1" height="6" rx="3" fill="url(#g-go)"/><text x="880.0" y="662" class="lb-val" text-anchor="end">+277</text><text x="932.0" y="662" class="lb-pct" text-anchor="end">0.0%</text><circle cx="505.0" cy="678" r="4" fill="#6B7280"/><text x="516.0" y="682" class="lb-name">Other</text><rect x="592.0" y="675" width="252.0" height="6" rx="3" fill="var(--track)"/><rect x="592.0" y="675" width="252.0" height="6" rx="3" fill="url(#g-other)"/><text x="880.0" y="682" class="lb-val" text-anchor="end">+1.1M</text><text x="932.0" y="682" class="lb-pct" text-anchor="end">50.2%</text>

  <!-- Footer -->
  <line x1="28" y1="722" x2="932" y2="722"
        stroke="var(--border)" stroke-width="1"/>
  <text x="28" y="738" class="footer">
    Generated 2026-06-15 · git diff-tree --numstat · non-forked, non-archived repos
  </text>
  <text x="932" y="738" class="footer" text-anchor="end">
    github.com · auto-updated
  </text>
</svg>