<svg xmlns="http://www.w3.org/2000/svg"
     viewBox="0 0 960 580"
     width="960" height="580"
     role="img" aria-label="Developer activity — weekly lines of code by language">

  <defs>
    <style>
      svg {
        --bg:        #FFFFFF;
        --fg:        #0F172A;
        --muted:     #64748B;
        --subtle:    #94A3B8;
        --border:    #E2E8F0;
        --grid:      #EEF2F6;
        --track:     #EEF2F6;
        --card-top:  #FFFFFF;
        --card-bot:  #F8FAFC;
        --accent:    #3178C6;
      }
      @media (prefers-color-scheme: dark) {
        svg {
          --bg:        #0D1117;
          --fg:        #E6EDF3;
          --muted:     #8B949E;
          --subtle:    #6E7681;
          --border:    #21262D;
          --grid:      #161B22;
          --track:     #1C2128;
          --card-top:  #161B22;
          --card-bot:  #0D1117;
          --accent:    #58A6FF;
        }
      }
      text {
        font-family: -apple-system, BlinkMacSystemFont, "Segoe UI",
                     "SF Pro Text", "Helvetica Neue", Arial, sans-serif;
        fill: var(--fg);
      }
      .mono {
        font-family: ui-monospace, SFMono-Regular, "SF Mono", Menlo,
                     Consolas, "Liberation Mono", monospace;
        font-variant-numeric: tabular-nums;
      }
      .eyebrow {
        font-size: 11px; font-weight: 600; letter-spacing: 2px;
        fill: var(--muted);
      }
      .period {
        font-size: 11px; fill: var(--muted);
        font-variant-numeric: tabular-nums;
      }
      .section {
        font-size: 10.5px; font-weight: 600; letter-spacing: 1.8px;
        fill: var(--muted);
      }
      .kpi-label {
        font-size: 9.5px; font-weight: 600; letter-spacing: 1.5px;
        fill: var(--muted);
      }
      .kpi-value {
        font-size: 26px; font-weight: 700; fill: var(--fg);
        font-variant-numeric: tabular-nums;
      }
      .kpi-sub {
        font-size: 10.5px; fill: var(--muted);
      }
      .axis {
        font-size: 9.5px; fill: var(--subtle);
        font-variant-numeric: tabular-nums;
      }
      .lb-name { font-size: 11px; font-weight: 500; fill: var(--fg); }
      .lb-val  { font-size: 10.5px; fill: var(--muted);
                  font-variant-numeric: tabular-nums; }
      .lb-pct  { font-size: 10.5px; font-weight: 600; fill: var(--fg);
                  font-variant-numeric: tabular-nums; }
      .clip-label { font-size: 9.5px; font-weight: 600; fill: var(--fg);
                     font-variant-numeric: tabular-nums; }
      .footer { font-size: 9.5px; fill: var(--subtle); }
    </style>
    <linearGradient id="g-typescript" x1="0" y1="0" x2="0" y2="1"><stop offset="0%" stop-color="#5198E8" stop-opacity="1"/><stop offset="100%" stop-color="#3178C6" stop-opacity="1"/></linearGradient><linearGradient id="g-json" x1="0" y1="0" x2="0" y2="1"><stop offset="0%" stop-color="#2DD4BF" stop-opacity="1"/><stop offset="100%" stop-color="#14B8A6" stop-opacity="1"/></linearGradient><linearGradient id="g-markdown" x1="0" y1="0" x2="0" y2="1"><stop offset="0%" stop-color="#A78BFA" stop-opacity="1"/><stop offset="100%" stop-color="#8B5CF6" stop-opacity="1"/></linearGradient><linearGradient id="g-python" x1="0" y1="0" x2="0" y2="1"><stop offset="0%" stop-color="#5497D4" stop-opacity="1"/><stop offset="100%" stop-color="#3776AB" stop-opacity="1"/></linearGradient><linearGradient id="g-yaml" x1="0" y1="0" x2="0" y2="1"><stop offset="0%" stop-color="#F472B6" stop-opacity="1"/><stop offset="100%" stop-color="#EC4899" stop-opacity="1"/></linearGradient><linearGradient id="g-hcl" x1="0" y1="0" x2="0" y2="1"><stop offset="0%" stop-color="#8B8EF7" stop-opacity="1"/><stop offset="100%" stop-color="#6366F1" stop-opacity="1"/></linearGradient><linearGradient id="g-bash" x1="0" y1="0" x2="0" y2="1"><stop offset="0%" stop-color="#9CA3AF" stop-opacity="1"/><stop offset="100%" stop-color="#6B7280" stop-opacity="1"/></linearGradient><linearGradient id="g-html" x1="0" y1="0" x2="0" y2="1"><stop offset="0%" stop-color="#F76E4A" stop-opacity="1"/><stop offset="100%" stop-color="#E34C26" stop-opacity="1"/></linearGradient><linearGradient id="g-rust" x1="0" y1="0" x2="0" y2="1"><stop offset="0%" stop-color="#FB9A4A" stop-opacity="1"/><stop offset="100%" stop-color="#F97316" stop-opacity="1"/></linearGradient><linearGradient id="g-css" x1="0" y1="0" x2="0" y2="1"><stop offset="0%" stop-color="#7A58A8" stop-opacity="1"/><stop offset="100%" stop-color="#563D7C" stop-opacity="1"/></linearGradient><linearGradient id="card-bg" x1="0" y1="0" x2="0" y2="1"><stop offset="0%" stop-color="var(--card-top)"/><stop offset="100%" stop-color="var(--card-bot)"/></linearGradient>
  </defs>

  <!-- Canvas -->
  <rect width="960" height="580" fill="var(--bg)" rx="12"/>

  <!-- Header: eyebrow with accent dot (left) + period (right) -->
  <circle cx="32" cy="36" r="4" fill="var(--accent)"/>
  <text x="44" y="40" class="eyebrow">DEVELOPER ACTIVITY</text>
  <text x="932" y="40" class="period" text-anchor="end">Last 18 weeks · 2026-W02 → 2026-W19</text>

  <!-- Divider under header -->
  <line x1="28" y1="54" x2="932" y2="54"
        stroke="var(--border)" stroke-width="1"/>

  <!-- KPI cards -->
  <rect x="28.0" y="72" width="215.5" height="96" rx="10" fill="url(#card-bg)" stroke="var(--border)"/><rect x="28.0" y="84" width="3" height="72" rx="1.5" fill="#22C55E"/><text x="44.0" y="96" class="kpi-label">TOTAL LINES</text><text x="44.0" y="132" class="kpi-value">1.3M</text><text x="44.0" y="154" class="kpi-sub">across 10 languages</text><rect x="257.5" y="72" width="215.5" height="96" rx="10" fill="url(#card-bg)" stroke="var(--border)"/><rect x="257.5" y="84" width="3" height="72" rx="1.5" fill="#3178C6"/><text x="273.5" y="96" class="kpi-label">TOP LANGUAGE</text><text x="273.5" y="132" class="kpi-value">TypeScript</text><text x="273.5" y="154" class="kpi-sub">33.9% of activity</text><rect x="487.0" y="72" width="215.5" height="96" rx="10" fill="url(#card-bg)" stroke="var(--border)"/><rect x="487.0" y="84" width="3" height="72" rx="1.5" fill="#F97316"/><text x="503.0" y="96" class="kpi-label">PEAK WEEK</text><text x="503.0" y="132" class="kpi-value">534k</text><text x="503.0" y="154" class="kpi-sub">week of Apr 20</text><rect x="716.5" y="72" width="215.5" height="96" rx="10" fill="url(#card-bg)" stroke="var(--border)"/><rect x="716.5" y="84" width="3" height="72" rx="1.5" fill="#3178C6"/><text x="732.5" y="96" class="kpi-label">WEEKLY AVG</text><text x="732.5" y="132" class="kpi-value">73k</text><text x="732.5" y="154" class="kpi-sub">over 18 weeks</text>

  <!-- Chart section title -->
  <text x="28" y="196" class="section">WEEKLY ACTIVITY</text>
  <text x="932" y="196" class="period" text-anchor="end">
    lines added per ISO week
  </text>

  <!-- Grid -->
  <line x1="68" y1="384.0" x2="932" y2="384.0" stroke="var(--grid)" stroke-width="1"/><line x1="68" y1="340.0" x2="932" y2="340.0" stroke="var(--grid)" stroke-width="1" stroke-dasharray="2,4"/><text x="60" y="343.5" text-anchor="end" class="axis">75k</text><line x1="68" y1="296.0" x2="932" y2="296.0" stroke="var(--grid)" stroke-width="1" stroke-dasharray="2,4"/><text x="60" y="299.5" text-anchor="end" class="axis">150k</text><line x1="68" y1="252.0" x2="932" y2="252.0" stroke="var(--grid)" stroke-width="1" stroke-dasharray="2,4"/><text x="60" y="255.5" text-anchor="end" class="axis">225k</text><line x1="68" y1="208.0" x2="932" y2="208.0" stroke="var(--grid)" stroke-width="1" stroke-dasharray="2,4"/><text x="60" y="211.5" text-anchor="end" class="axis">300k</text>

  <!-- Bars -->
  <rect x="68.00" y="382.80" width="45.00" height="1.20" fill="url(#g-html)"><title>2026-W02 · HTML: +262</title></rect><rect x="68.00" y="381.60" width="45.00" height="1.20" fill="url(#g-bash)"><title>2026-W02 · Bash: +1,044</title></rect><rect x="68.00" y="379.78" width="45.00" height="1.82" fill="url(#g-hcl)"><title>2026-W02 · HCL: +3,100</title></rect><rect x="68.00" y="373.31" width="45.00" height="6.47" fill="url(#g-yaml)"><title>2026-W02 · YAML: +11,024</title></rect><rect x="68.00" y="369.65" width="45.00" height="3.67" fill="url(#g-markdown)"><title>2026-W02 · Markdown: +6,252</title></rect><rect x="68.00" y="368.45" width="45.00" height="1.20" fill="url(#g-json)"><title>2026-W02 · JSON: +54</title></rect><path d="M 68.00,368.45 V 368.45 Q 68.00,367.10 69.34,367.10 H 111.66 Q 113.00,367.10 113.00,368.45 V 368.45 Z" fill="url(#g-typescript)"><title>2026-W02 · TypeScript: +2,290</title></path><rect x="116.00" y="382.80" width="45.00" height="1.20" fill="url(#g-bash)"><title>2026-W03 · Bash: +216</title></rect><rect x="116.00" y="381.10" width="45.00" height="1.70" fill="url(#g-yaml)"><title>2026-W03 · YAML: +2,906</title></rect><rect x="116.00" y="379.90" width="45.00" height="1.20" fill="url(#g-python)"><title>2026-W03 · Python: +366</title></rect><rect x="116.00" y="376.61" width="45.00" height="3.29" fill="url(#g-markdown)"><title>2026-W03 · Markdown: +5,600</title></rect><rect x="116.00" y="375.41" width="45.00" height="1.20" fill="url(#g-json)"><title>2026-W03 · JSON: +1,208</title></rect><path d="M 116.00,375.41 V 375.41 Q 116.00,374.21 117.20,374.21 H 159.80 Q 161.00,374.21 161.00,375.41 V 375.41 Z" fill="url(#g-typescript)"><title>2026-W03 · TypeScript: +439</title></path><rect x="164.00" y="382.80" width="45.00" height="1.20" fill="url(#g-css)"><title>2026-W04 · CSS: +1</title></rect><rect x="164.00" y="381.60" width="45.00" height="1.20" fill="url(#g-yaml)"><title>2026-W04 · YAML: +233</title></rect><rect x="164.00" y="380.19" width="45.00" height="1.41" fill="url(#g-python)"><title>2026-W04 · Python: +2,397</title></rect><rect x="164.00" y="366.45" width="45.00" height="13.74" fill="url(#g-markdown)"><title>2026-W04 · Markdown: +23,426</title></rect><path d="M 164.00,366.45 V 366.45 Q 164.00,365.25 165.20,365.25 H 207.80 Q 209.00,365.25 209.00,366.45 V 366.45 Z" fill="url(#g-json)"><title>2026-W04 · JSON: +1,281</title></path><rect x="212.00" y="382.80" width="45.00" height="1.20" fill="url(#g-bash)"><title>2026-W05 · Bash: +13</title></rect><rect x="212.00" y="381.60" width="45.00" height="1.20" fill="url(#g-yaml)"><title>2026-W05 · YAML: +1,894</title></rect><rect x="212.00" y="373.41" width="45.00" height="8.19" fill="url(#g-python)"><title>2026-W05 · Python: +13,966</title></rect><rect x="212.00" y="366.54" width="45.00" height="6.87" fill="url(#g-markdown)"><title>2026-W05 · Markdown: +11,708</title></rect><rect x="212.00" y="365.34" width="45.00" height="1.20" fill="url(#g-json)"><title>2026-W05 · JSON: +367</title></rect><path d="M 212.00,365.34 V 365.34 Q 212.00,364.14 213.20,364.14 H 255.80 Q 257.00,364.14 257.00,365.34 V 365.34 Z" fill="url(#g-typescript)"><title>2026-W05 · TypeScript: +1,695</title></path><rect x="260.00" y="382.80" width="45.00" height="1.20" fill="url(#g-python)"><title>2026-W06 · Python: +803</title></rect><rect x="260.00" y="381.60" width="45.00" height="1.20" fill="url(#g-markdown)"><title>2026-W06 · Markdown: +1,443</title></rect><path d="M 260.00,381.60 V 381.60 Q 260.00,380.40 261.20,380.40 H 303.80 Q 305.00,380.40 305.00,381.60 V 381.60 Z" fill="url(#g-json)"><title>2026-W06 · JSON: +202</title></path><rect x="308.00" y="382.80" width="45.00" height="1.20" fill="url(#g-css)"><title>2026-W07 · CSS: +2</title></rect><rect x="308.00" y="381.60" width="45.00" height="1.20" fill="url(#g-bash)"><title>2026-W07 · Bash: +113</title></rect><rect x="308.00" y="380.40" width="45.00" height="1.20" fill="url(#g-hcl)"><title>2026-W07 · HCL: +662</title></rect><rect x="308.00" y="379.20" width="45.00" height="1.20" fill="url(#g-yaml)"><title>2026-W07 · YAML: +661</title></rect><rect x="308.00" y="375.45" width="45.00" height="3.75" fill="url(#g-python)"><title>2026-W07 · Python: +6,384</title></rect><rect x="308.00" y="374.25" width="45.00" height="1.20" fill="url(#g-markdown)"><title>2026-W07 · Markdown: +1,335</title></rect><rect x="308.00" y="373.05" width="45.00" height="1.20" fill="url(#g-json)"><title>2026-W07 · JSON: +354</title></rect><path d="M 308.00,373.05 V 373.05 Q 308.00,371.85 309.20,371.85 H 351.80 Q 353.00,371.85 353.00,373.05 V 373.05 Z" fill="url(#g-typescript)"><title>2026-W07 · TypeScript: +56</title></path><rect x="356.00" y="382.80" width="45.00" height="1.20" fill="url(#g-rust)"><title>2026-W08 · Rust: +118</title></rect><rect x="356.00" y="381.60" width="45.00" height="1.20" fill="url(#g-bash)"><title>2026-W08 · Bash: +430</title></rect><rect x="356.00" y="380.40" width="45.00" height="1.20" fill="url(#g-hcl)"><title>2026-W08 · HCL: +895</title></rect><rect x="356.00" y="379.20" width="45.00" height="1.20" fill="url(#g-yaml)"><title>2026-W08 · YAML: +651</title></rect><rect x="356.00" y="378.00" width="45.00" height="1.20" fill="url(#g-markdown)"><title>2026-W08 · Markdown: +259</title></rect><rect x="356.00" y="376.80" width="45.00" height="1.20" fill="url(#g-json)"><title>2026-W08 · JSON: +6</title></rect><path d="M 356.00,376.80 V 376.80 Q 356.00,375.60 357.20,375.60 H 399.80 Q 401.00,375.60 401.00,376.80 V 376.80 Z" fill="url(#g-typescript)"><title>2026-W08 · TypeScript: +74</title></path><rect x="404.00" y="382.61" width="45.00" height="1.39" fill="url(#g-bash)"><title>2026-W09 · Bash: +2,368</title></rect><rect x="404.00" y="381.41" width="45.00" height="1.20" fill="url(#g-hcl)"><title>2026-W09 · HCL: +906</title></rect><rect x="404.00" y="380.21" width="45.00" height="1.20" fill="url(#g-yaml)"><title>2026-W09 · YAML: +872</title></rect><rect x="404.00" y="374.10" width="45.00" height="6.11" fill="url(#g-python)"><title>2026-W09 · Python: +10,417</title></rect><rect x="404.00" y="369.65" width="45.00" height="4.45" fill="url(#g-markdown)"><title>2026-W09 · Markdown: +7,591</title></rect><rect x="404.00" y="343.71" width="45.00" height="25.94" fill="url(#g-json)"><title>2026-W09 · JSON: +44,212</title></rect><path d="M 404.00,343.71 V 343.71 Q 404.00,342.51 405.20,342.51 H 447.80 Q 449.00,342.51 449.00,343.71 V 343.71 Z" fill="url(#g-typescript)"><title>2026-W09 · TypeScript: +1,882</title></path><rect x="452.00" y="382.80" width="45.00" height="1.20" fill="url(#g-rust)"><title>2026-W10 · Rust: +802</title></rect><rect x="452.00" y="381.60" width="45.00" height="1.20" fill="url(#g-html)"><title>2026-W10 · HTML: +1,033</title></rect><rect x="452.00" y="380.40" width="45.00" height="1.20" fill="url(#g-bash)"><title>2026-W10 · Bash: +532</title></rect><rect x="452.00" y="379.20" width="45.00" height="1.20" fill="url(#g-hcl)"><title>2026-W10 · HCL: +1,060</title></rect><rect x="452.00" y="378.00" width="45.00" height="1.20" fill="url(#g-yaml)"><title>2026-W10 · YAML: +1,047</title></rect><rect x="452.00" y="374.29" width="45.00" height="3.71" fill="url(#g-python)"><title>2026-W10 · Python: +6,327</title></rect><rect x="452.00" y="369.51" width="45.00" height="4.78" fill="url(#g-markdown)"><title>2026-W10 · Markdown: +8,150</title></rect><rect x="452.00" y="363.03" width="45.00" height="6.47" fill="url(#g-json)"><title>2026-W10 · JSON: +11,033</title></rect><path d="M 452.00,363.03 V 363.03 Q 452.00,361.57 453.47,361.57 H 495.53 Q 497.00,361.57 497.00,363.03 V 363.03 Z" fill="url(#g-typescript)"><title>2026-W10 · TypeScript: +2,500</title></path><rect x="500.00" y="382.80" width="45.00" height="1.20" fill="url(#g-css)"><title>2026-W11 · CSS: +48</title></rect><rect x="500.00" y="381.60" width="45.00" height="1.20" fill="url(#g-html)"><title>2026-W11 · HTML: +1,033</title></rect><rect x="500.00" y="379.08" width="45.00" height="2.52" fill="url(#g-bash)"><title>2026-W11 · Bash: +4,288</title></rect><rect x="500.00" y="377.88" width="45.00" height="1.20" fill="url(#g-hcl)"><title>2026-W11 · HCL: +656</title></rect><rect x="500.00" y="372.50" width="45.00" height="5.39" fill="url(#g-yaml)"><title>2026-W11 · YAML: +9,184</title></rect><rect x="500.00" y="351.85" width="45.00" height="20.65" fill="url(#g-python)"><title>2026-W11 · Python: +35,191</title></rect><rect x="500.00" y="321.81" width="45.00" height="30.04" fill="url(#g-markdown)"><title>2026-W11 · Markdown: +51,199</title></rect><rect x="500.00" y="277.12" width="45.00" height="44.69" fill="url(#g-json)"><title>2026-W11 · JSON: +76,176</title></rect><path d="M 500.00,277.12 V 275.57 Q 500.00,273.07 502.50,273.07 H 542.50 Q 545.00,273.07 545.00,275.57 V 277.12 Z" fill="url(#g-typescript)"><title>2026-W11 · TypeScript: +6,905</title></path><rect x="548.00" y="382.80" width="45.00" height="1.20" fill="url(#g-css)"><title>2026-W12 · CSS: +179</title></rect><rect x="548.00" y="381.60" width="45.00" height="1.20" fill="url(#g-rust)"><title>2026-W12 · Rust: +40</title></rect><rect x="548.00" y="380.40" width="45.00" height="1.20" fill="url(#g-html)"><title>2026-W12 · HTML: +159</title></rect><rect x="548.00" y="378.83" width="45.00" height="1.57" fill="url(#g-bash)"><title>2026-W12 · Bash: +2,682</title></rect><rect x="548.00" y="377.63" width="45.00" height="1.20" fill="url(#g-hcl)"><title>2026-W12 · HCL: +2,018</title></rect><rect x="548.00" y="376.43" width="45.00" height="1.20" fill="url(#g-yaml)"><title>2026-W12 · YAML: +1,232</title></rect><rect x="548.00" y="369.80" width="45.00" height="6.62" fill="url(#g-python)"><title>2026-W12 · Python: +11,292</title></rect><rect x="548.00" y="347.36" width="45.00" height="22.44" fill="url(#g-markdown)"><title>2026-W12 · Markdown: +38,250</title></rect><rect x="548.00" y="338.06" width="45.00" height="9.30" fill="url(#g-json)"><title>2026-W12 · JSON: +15,853</title></rect><path d="M 548.00,338.06 V 336.47 Q 548.00,333.97 550.50,333.97 H 590.50 Q 593.00,333.97 593.00,336.47 V 338.06 Z" fill="url(#g-typescript)"><title>2026-W12 · TypeScript: +6,981</title></path><rect x="596.00" y="382.80" width="45.00" height="1.20" fill="url(#g-rust)"><title>2026-W13 · Rust: +214</title></rect><rect x="596.00" y="381.60" width="45.00" height="1.20" fill="url(#g-bash)"><title>2026-W13 · Bash: +1,539</title></rect><rect x="596.00" y="380.40" width="45.00" height="1.20" fill="url(#g-hcl)"><title>2026-W13 · HCL: +1,440</title></rect><rect x="596.00" y="379.20" width="45.00" height="1.20" fill="url(#g-yaml)"><title>2026-W13 · YAML: +636</title></rect><rect x="596.00" y="375.95" width="45.00" height="3.25" fill="url(#g-python)"><title>2026-W13 · Python: +5,548</title></rect><rect x="596.00" y="373.36" width="45.00" height="2.58" fill="url(#g-markdown)"><title>2026-W13 · Markdown: +4,400</title></rect><rect x="596.00" y="372.16" width="45.00" height="1.20" fill="url(#g-json)"><title>2026-W13 · JSON: +860</title></rect><path d="M 596.00,372.16 V 367.01 Q 596.00,364.51 598.50,364.51 H 638.50 Q 641.00,364.51 641.00,367.01 V 372.16 Z" fill="url(#g-typescript)"><title>2026-W13 · TypeScript: +13,052</title></path><rect x="644.00" y="382.80" width="45.00" height="1.20" fill="url(#g-css)"><title>2026-W14 · CSS: +154</title></rect><rect x="644.00" y="381.60" width="45.00" height="1.20" fill="url(#g-rust)"><title>2026-W14 · Rust: +1,781</title></rect><rect x="644.00" y="380.40" width="45.00" height="1.20" fill="url(#g-html)"><title>2026-W14 · HTML: +106</title></rect><rect x="644.00" y="379.20" width="45.00" height="1.20" fill="url(#g-bash)"><title>2026-W14 · Bash: +988</title></rect><rect x="644.00" y="378.00" width="45.00" height="1.20" fill="url(#g-hcl)"><title>2026-W14 · HCL: +1,318</title></rect><rect x="644.00" y="376.80" width="45.00" height="1.20" fill="url(#g-yaml)"><title>2026-W14 · YAML: +881</title></rect><rect x="644.00" y="373.37" width="45.00" height="3.43" fill="url(#g-python)"><title>2026-W14 · Python: +5,853</title></rect><rect x="644.00" y="368.20" width="45.00" height="5.17" fill="url(#g-markdown)"><title>2026-W14 · Markdown: +8,812</title></rect><rect x="644.00" y="362.51" width="45.00" height="5.69" fill="url(#g-json)"><title>2026-W14 · JSON: +9,693</title></rect><path d="M 644.00,362.51 V 354.74 Q 644.00,352.24 646.50,352.24 H 686.50 Q 689.00,352.24 689.00,354.74 V 362.51 Z" fill="url(#g-typescript)"><title>2026-W14 · TypeScript: +17,512</title></path><rect x="692.00" y="382.80" width="45.00" height="1.20" fill="url(#g-css)"><title>2026-W15 · CSS: +291</title></rect><rect x="692.00" y="381.60" width="45.00" height="1.20" fill="url(#g-rust)"><title>2026-W15 · Rust: +1,262</title></rect><rect x="692.00" y="380.40" width="45.00" height="1.20" fill="url(#g-html)"><title>2026-W15 · HTML: +13</title></rect><rect x="692.00" y="379.20" width="45.00" height="1.20" fill="url(#g-bash)"><title>2026-W15 · Bash: +271</title></rect><rect x="692.00" y="378.00" width="45.00" height="1.20" fill="url(#g-hcl)"><title>2026-W15 · HCL: +451</title></rect><rect x="692.00" y="376.25" width="45.00" height="1.75" fill="url(#g-yaml)"><title>2026-W15 · YAML: +2,975</title></rect><rect x="692.00" y="375.05" width="45.00" height="1.20" fill="url(#g-python)"><title>2026-W15 · Python: +1,905</title></rect><rect x="692.00" y="369.75" width="45.00" height="5.31" fill="url(#g-markdown)"><title>2026-W15 · Markdown: +9,049</title></rect><rect x="692.00" y="361.91" width="45.00" height="7.84" fill="url(#g-json)"><title>2026-W15 · JSON: +13,365</title></rect><path d="M 692.00,361.91 V 351.00 Q 692.00,348.50 694.50,348.50 H 734.50 Q 737.00,348.50 737.00,351.00 V 361.91 Z" fill="url(#g-typescript)"><title>2026-W15 · TypeScript: +22,853</title></path><rect x="740.00" y="382.80" width="45.00" height="1.20" fill="url(#g-css)"><title>2026-W16 · CSS: +120</title></rect><rect x="740.00" y="380.94" width="45.00" height="1.86" fill="url(#g-rust)"><title>2026-W16 · Rust: +3,177</title></rect><rect x="740.00" y="379.74" width="45.00" height="1.20" fill="url(#g-html)"><title>2026-W16 · HTML: +897</title></rect><rect x="740.00" y="378.54" width="45.00" height="1.20" fill="url(#g-bash)"><title>2026-W16 · Bash: +1,074</title></rect><rect x="740.00" y="377.22" width="45.00" height="1.31" fill="url(#g-hcl)"><title>2026-W16 · HCL: +2,236</title></rect><rect x="740.00" y="376.02" width="45.00" height="1.20" fill="url(#g-yaml)"><title>2026-W16 · YAML: +737</title></rect><rect x="740.00" y="372.17" width="45.00" height="3.85" fill="url(#g-python)"><title>2026-W16 · Python: +6,567</title></rect><rect x="740.00" y="365.85" width="45.00" height="6.32" fill="url(#g-markdown)"><title>2026-W16 · Markdown: +10,770</title></rect><rect x="740.00" y="364.65" width="45.00" height="1.20" fill="url(#g-json)"><title>2026-W16 · JSON: +466</title></rect><path d="M 740.00,364.65 V 347.00 Q 740.00,344.50 742.50,344.50 H 782.50 Q 785.00,344.50 785.00,347.00 V 364.65 Z" fill="url(#g-typescript)"><title>2026-W16 · TypeScript: +34,353</title></path><rect x="788.00" y="382.80" width="45.00" height="1.20" fill="url(#g-css)"><title>2026-W17 · CSS: +1,561</title></rect><rect x="788.00" y="381.60" width="45.00" height="1.20" fill="url(#g-rust)"><title>2026-W17 · Rust: +498</title></rect><rect x="788.00" y="380.40" width="45.00" height="1.20" fill="url(#g-html)"><title>2026-W17 · HTML: +127</title></rect><rect x="788.00" y="379.20" width="45.00" height="1.20" fill="url(#g-bash)"><title>2026-W17 · Bash: +878</title></rect><rect x="788.00" y="377.84" width="45.00" height="1.36" fill="url(#g-hcl)"><title>2026-W17 · HCL: +4,389</title></rect><rect x="788.00" y="376.64" width="45.00" height="1.20" fill="url(#g-yaml)"><title>2026-W17 · YAML: +2,587</title></rect><rect x="788.00" y="375.44" width="45.00" height="1.20" fill="url(#g-python)"><title>2026-W17 · Python: +2,701</title></rect><rect x="788.00" y="348.58" width="45.00" height="26.86" fill="url(#g-markdown)"><title>2026-W17 · Markdown: +86,757</title></rect><rect x="788.00" y="308.02" width="45.00" height="40.56" fill="url(#g-json)"><title>2026-W17 · JSON: +131,007</title></rect><path d="M 788.00,308.02 V 216.45 Q 788.00,213.95 790.50,213.95 H 830.50 Q 833.00,213.95 833.00,216.45 V 308.02 Z" fill="url(#g-typescript)"><title>2026-W17 · TypeScript: +303,876</title></path><rect x="836.00" y="382.80" width="45.00" height="1.20" fill="url(#g-css)"><title>2026-W18 · CSS: +263</title></rect><rect x="836.00" y="377.73" width="45.00" height="5.07" fill="url(#g-html)"><title>2026-W18 · HTML: +8,643</title></rect><rect x="836.00" y="376.53" width="45.00" height="1.20" fill="url(#g-bash)"><title>2026-W18 · Bash: +1,758</title></rect><rect x="836.00" y="375.33" width="45.00" height="1.20" fill="url(#g-hcl)"><title>2026-W18 · HCL: +1,652</title></rect><rect x="836.00" y="373.94" width="45.00" height="1.39" fill="url(#g-yaml)"><title>2026-W18 · YAML: +2,362</title></rect><rect x="836.00" y="369.78" width="45.00" height="4.16" fill="url(#g-python)"><title>2026-W18 · Python: +7,093</title></rect><rect x="836.00" y="366.01" width="45.00" height="3.78" fill="url(#g-markdown)"><title>2026-W18 · Markdown: +6,438</title></rect><rect x="836.00" y="359.25" width="45.00" height="6.76" fill="url(#g-json)"><title>2026-W18 · JSON: +11,522</title></rect><path d="M 836.00,359.25 V 353.83 Q 836.00,351.33 838.50,351.33 H 878.50 Q 881.00,351.33 881.00,353.83 V 359.25 Z" fill="url(#g-typescript)"><title>2026-W18 · TypeScript: +13,487</title></path><rect x="884.00" y="382.32" width="45.00" height="1.68" fill="url(#g-css)"><title>2026-W19 · CSS: +2,861</title></rect><rect x="884.00" y="380.69" width="45.00" height="1.63" fill="url(#g-rust)"><title>2026-W19 · Rust: +2,777</title></rect><rect x="884.00" y="379.38" width="45.00" height="1.32" fill="url(#g-html)"><title>2026-W19 · HTML: +2,244</title></rect><rect x="884.00" y="378.18" width="45.00" height="1.20" fill="url(#g-bash)"><title>2026-W19 · Bash: +1,727</title></rect><rect x="884.00" y="376.17" width="45.00" height="2.00" fill="url(#g-hcl)"><title>2026-W19 · HCL: +3,416</title></rect><rect x="884.00" y="374.97" width="45.00" height="1.20" fill="url(#g-yaml)"><title>2026-W19 · YAML: +1,293</title></rect><rect x="884.00" y="373.08" width="45.00" height="1.89" fill="url(#g-python)"><title>2026-W19 · Python: +3,224</title></rect><rect x="884.00" y="370.24" width="45.00" height="2.84" fill="url(#g-markdown)"><title>2026-W19 · Markdown: +4,836</title></rect><rect x="884.00" y="354.49" width="45.00" height="15.76" fill="url(#g-json)"><title>2026-W19 · JSON: +26,858</title></rect><path d="M 884.00,354.49 V 347.54 Q 884.00,345.04 886.50,345.04 H 926.50 Q 929.00,345.04 929.00,347.54 V 354.49 Z" fill="url(#g-typescript)"><title>2026-W19 · TypeScript: +16,109</title></path>

  <!-- Clipped-outlier indicators -->
  <path d="M 805.5 214 L 810.5 209 L 815.5 214" stroke="var(--fg)" stroke-width="1.6" stroke-linecap="round" stroke-linejoin="round" fill="none" opacity="0.85"/><text x="810.5" y="204" text-anchor="middle" class="clip-label">+534k</text>

  <!-- X-axis labels -->
  <text x="90.5" y="402.0" text-anchor="middle" class="axis">JAN</text><text x="282.5" y="402.0" text-anchor="middle" class="axis">FEB</text><text x="474.5" y="402.0" text-anchor="middle" class="axis">MAR</text><text x="714.5" y="402.0" text-anchor="middle" class="axis">APR</text><text x="906.5" y="402.0" text-anchor="middle" class="axis">MAY</text>

  <!-- Language breakdown section title -->
  <text x="28" y="420" class="section">LANGUAGE BREAKDOWN</text>
  <text x="932" y="420" class="period" text-anchor="end">
    ranked by lines added
  </text>

  <circle cx="33.0" cy="438" r="4" fill="#3178C6"/><text x="44.0" y="442" class="lb-name">TypeScript</text><rect x="120.0" y="435" width="252.0" height="6" rx="3" fill="var(--track)"/><rect x="120.0" y="435" width="252.0" height="6" rx="3" fill="url(#g-typescript)"/><text x="408.0" y="442" class="lb-val" text-anchor="end">+444k</text><text x="460.0" y="442" class="lb-pct" text-anchor="end">33.9%</text><circle cx="33.0" cy="458" r="4" fill="#14B8A6"/><text x="44.0" y="462" class="lb-name">JSON</text><rect x="120.0" y="455" width="252.0" height="6" rx="3" fill="var(--track)"/><rect x="120.0" y="455" width="195.5" height="6" rx="3" fill="url(#g-json)"/><text x="408.0" y="462" class="lb-val" text-anchor="end">+345k</text><text x="460.0" y="462" class="lb-pct" text-anchor="end">26.3%</text><circle cx="33.0" cy="478" r="4" fill="#8B5CF6"/><text x="44.0" y="482" class="lb-name">Markdown</text><rect x="120.0" y="475" width="252.0" height="6" rx="3" fill="var(--track)"/><rect x="120.0" y="475" width="162.5" height="6" rx="3" fill="url(#g-markdown)"/><text x="408.0" y="482" class="lb-val" text-anchor="end">+286k</text><text x="460.0" y="482" class="lb-pct" text-anchor="end">21.8%</text><circle cx="33.0" cy="498" r="4" fill="#3776AB"/><text x="44.0" y="502" class="lb-name">Python</text><rect x="120.0" y="495" width="252.0" height="6" rx="3" fill="var(--track)"/><rect x="120.0" y="495" width="68.1" height="6" rx="3" fill="url(#g-python)"/><text x="408.0" y="502" class="lb-val" text-anchor="end">+120k</text><text x="460.0" y="502" class="lb-pct" text-anchor="end">9.2%</text><circle cx="33.0" cy="518" r="4" fill="#EC4899"/><text x="44.0" y="522" class="lb-name">YAML</text><rect x="120.0" y="515" width="252.0" height="6" rx="3" fill="var(--track)"/><rect x="120.0" y="515" width="23.4" height="6" rx="3" fill="url(#g-yaml)"/><text x="408.0" y="522" class="lb-val" text-anchor="end">+41k</text><text x="460.0" y="522" class="lb-pct" text-anchor="end">3.1%</text><circle cx="505.0" cy="438" r="4" fill="#6366F1"/><text x="516.0" y="442" class="lb-name">HCL</text><rect x="592.0" y="435" width="252.0" height="6" rx="3" fill="var(--track)"/><rect x="592.0" y="435" width="13.7" height="6" rx="3" fill="url(#g-hcl)"/><text x="880.0" y="442" class="lb-val" text-anchor="end">+24k</text><text x="932.0" y="442" class="lb-pct" text-anchor="end">1.8%</text><circle cx="505.0" cy="458" r="4" fill="#6B7280"/><text x="516.0" y="462" class="lb-name">Bash</text><rect x="592.0" y="455" width="252.0" height="6" rx="3" fill="var(--track)"/><rect x="592.0" y="455" width="11.3" height="6" rx="3" fill="url(#g-bash)"/><text x="880.0" y="462" class="lb-val" text-anchor="end">+20k</text><text x="932.0" y="462" class="lb-pct" text-anchor="end">1.5%</text><circle cx="505.0" cy="478" r="4" fill="#E34C26"/><text x="516.0" y="482" class="lb-name">HTML</text><rect x="592.0" y="475" width="252.0" height="6" rx="3" fill="var(--track)"/><rect x="592.0" y="475" width="8.2" height="6" rx="3" fill="url(#g-html)"/><text x="880.0" y="482" class="lb-val" text-anchor="end">+15k</text><text x="932.0" y="482" class="lb-pct" text-anchor="end">1.1%</text><circle cx="505.0" cy="498" r="4" fill="#F97316"/><text x="516.0" y="502" class="lb-name">Rust</text><rect x="592.0" y="495" width="252.0" height="6" rx="3" fill="var(--track)"/><rect x="592.0" y="495" width="6.1" height="6" rx="3" fill="url(#g-rust)"/><text x="880.0" y="502" class="lb-val" text-anchor="end">+11k</text><text x="932.0" y="502" class="lb-pct" text-anchor="end">0.8%</text><circle cx="505.0" cy="518" r="4" fill="#563D7C"/><text x="516.0" y="522" class="lb-name">CSS</text><rect x="592.0" y="515" width="252.0" height="6" rx="3" fill="var(--track)"/><rect x="592.0" y="515" width="3.1" height="6" rx="3" fill="url(#g-css)"/><text x="880.0" y="522" class="lb-val" text-anchor="end">+5.5k</text><text x="932.0" y="522" class="lb-pct" text-anchor="end">0.4%</text>

  <!-- Footer -->
  <line x1="28" y1="550" x2="932" y2="550"
        stroke="var(--border)" stroke-width="1"/>
  <text x="28" y="566" class="footer">
    Generated 2026-05-09 · git diff-tree --numstat · non-forked, non-archived repos
  </text>
  <text x="932" y="566" class="footer" text-anchor="end">
    github.com · auto-updated
  </text>
</svg>