<svg xmlns="http://www.w3.org/2000/svg"
     viewBox="0 0 960 752"
     width="960" height="752"
     role="img" aria-label="Developer activity — weekly lines of code by language">

  <defs>
    <style>
      svg {
        --bg:        #FFFFFF;
        --fg:        #0F172A;
        --muted:     #64748B;
        --subtle:    #94A3B8;
        --border:    #E2E8F0;
        --grid:      #EEF2F6;
        --track:     #EEF2F6;
        --card-top:  #FFFFFF;
        --card-bot:  #F8FAFC;
        --accent:    #3178C6;
      }
      @media (prefers-color-scheme: dark) {
        svg {
          --bg:        #0D1117;
          --fg:        #E6EDF3;
          --muted:     #8B949E;
          --subtle:    #6E7681;
          --border:    #21262D;
          --grid:      #161B22;
          --track:     #1C2128;
          --card-top:  #161B22;
          --card-bot:  #0D1117;
          --accent:    #58A6FF;
        }
      }
      text {
        font-family: -apple-system, BlinkMacSystemFont, "Segoe UI",
                     "SF Pro Text", "Helvetica Neue", Arial, sans-serif;
        fill: var(--fg);
      }
      .mono {
        font-family: ui-monospace, SFMono-Regular, "SF Mono", Menlo,
                     Consolas, "Liberation Mono", monospace;
        font-variant-numeric: tabular-nums;
      }
      .eyebrow {
        font-size: 11px; font-weight: 600; letter-spacing: 2px;
        fill: var(--muted);
      }
      .period {
        font-size: 11px; fill: var(--muted);
        font-variant-numeric: tabular-nums;
      }
      .section {
        font-size: 10.5px; font-weight: 600; letter-spacing: 1.8px;
        fill: var(--muted);
      }
      .kpi-label {
        font-size: 9.5px; font-weight: 600; letter-spacing: 1.5px;
        fill: var(--muted);
      }
      .kpi-value {
        font-size: 26px; font-weight: 700; fill: var(--fg);
        font-variant-numeric: tabular-nums;
      }
      .kpi-sub {
        font-size: 10.5px; fill: var(--muted);
      }
      .axis {
        font-size: 9.5px; fill: var(--subtle);
        font-variant-numeric: tabular-nums;
      }
      .pulse-val {
        font-size: 18px; font-weight: 700; fill: var(--fg);
        font-variant-numeric: tabular-nums;
      }
      .pulse-peak {
        font-size: 11px; font-weight: 600;
        font-variant-numeric: tabular-nums;
      }
      .lb-name { font-size: 11px; font-weight: 500; fill: var(--fg); }
      .lb-val  { font-size: 10.5px; fill: var(--muted);
                  font-variant-numeric: tabular-nums; }
      .lb-pct  { font-size: 10.5px; font-weight: 600; fill: var(--fg);
                  font-variant-numeric: tabular-nums; }
      .clip-label { font-size: 9.5px; font-weight: 600; fill: var(--fg);
                     font-variant-numeric: tabular-nums; }
      .footer { font-size: 9.5px; fill: var(--subtle); }
    </style>
    <linearGradient id="g-typescript" x1="0" y1="0" x2="0" y2="1"><stop offset="0%" stop-color="#5198E8" stop-opacity="1"/><stop offset="100%" stop-color="#3178C6" stop-opacity="1"/></linearGradient><linearGradient id="g-markdown" x1="0" y1="0" x2="0" y2="1"><stop offset="0%" stop-color="#A78BFA" stop-opacity="1"/><stop offset="100%" stop-color="#8B5CF6" stop-opacity="1"/></linearGradient><linearGradient id="g-html" x1="0" y1="0" x2="0" y2="1"><stop offset="0%" stop-color="#F76E4A" stop-opacity="1"/><stop offset="100%" stop-color="#E34C26" stop-opacity="1"/></linearGradient><linearGradient id="g-rust" x1="0" y1="0" x2="0" y2="1"><stop offset="0%" stop-color="#FB9A4A" stop-opacity="1"/><stop offset="100%" stop-color="#F97316" stop-opacity="1"/></linearGradient><linearGradient id="g-dart" x1="0" y1="0" x2="0" y2="1"><stop offset="0%" stop-color="#2DCFC7" stop-opacity="1"/><stop offset="100%" stop-color="#00B4AB" stop-opacity="1"/></linearGradient><linearGradient id="g-json" x1="0" y1="0" x2="0" y2="1"><stop offset="0%" stop-color="#2DD4BF" stop-opacity="1"/><stop offset="100%" stop-color="#14B8A6" stop-opacity="1"/></linearGradient><linearGradient id="g-cpp" x1="0" y1="0" x2="0" y2="1"><stop offset="0%" stop-color="#FF75A1" stop-opacity="1"/><stop offset="100%" stop-color="#F34B7D" stop-opacity="1"/></linearGradient><linearGradient id="g-python" x1="0" y1="0" x2="0" y2="1"><stop offset="0%" stop-color="#5497D4" stop-opacity="1"/><stop offset="100%" stop-color="#3776AB" stop-opacity="1"/></linearGradient><linearGradient id="g-css" x1="0" y1="0" x2="0" y2="1"><stop offset="0%" stop-color="#7A58A8" stop-opacity="1"/><stop offset="100%" stop-color="#563D7C" stop-opacity="1"/></linearGradient><linearGradient id="g-c" x1="0" y1="0" x2="0" y2="1"><stop offset="0%" stop-color="#94A3B8" stop-opacity="1"/><stop offset="100%" stop-color="#64748B" stop-opacity="1"/></linearGradient><linearGradient id="g-bash" x1="0" y1="0" x2="0" y2="1"><stop offset="0%" stop-color="#4ADE80" stop-opacity="1"/><stop offset="100%" stop-color="#22C55E" stop-opacity="1"/></linearGradient><linearGradient id="g-terraform" x1="0" y1="0" x2="0" y2="1"><stop offset="0%" stop-color="#8B8EF7" stop-opacity="1"/><stop offset="100%" stop-color="#6366F1" stop-opacity="1"/></linearGradient><linearGradient id="g-yaml" x1="0" y1="0" x2="0" y2="1"><stop offset="0%" stop-color="#F472B6" stop-opacity="1"/><stop offset="100%" stop-color="#EC4899" stop-opacity="1"/></linearGradient><linearGradient id="g-kotlin" x1="0" y1="0" x2="0" y2="1"><stop offset="0%" stop-color="#C084FC" stop-opacity="1"/><stop offset="100%" stop-color="#A855F7" stop-opacity="1"/></linearGradient><linearGradient id="g-svg" x1="0" y1="0" x2="0" y2="1"><stop offset="0%" stop-color="#9CA3AF" stop-opacity="1"/><stop offset="100%" stop-color="#6B7280" stop-opacity="1"/></linearGradient><linearGradient id="g-astro" x1="0" y1="0" x2="0" y2="1"><stop offset="0%" stop-color="#FF8338" stop-opacity="1"/><stop offset="100%" stop-color="#FF5D01" stop-opacity="1"/></linearGradient><linearGradient id="g-svelte" x1="0" y1="0" x2="0" y2="1"><stop offset="0%" stop-color="#FF6A3D" stop-opacity="1"/><stop offset="100%" stop-color="#FF3E00" stop-opacity="1"/></linearGradient><linearGradient id="g-toml" x1="0" y1="0" x2="0" y2="1"><stop offset="0%" stop-color="#BE5D3A" stop-opacity="1"/><stop offset="100%" stop-color="#9C4221" stop-opacity="1"/></linearGradient><linearGradient id="g-text" x1="0" y1="0" x2="0" y2="1"><stop offset="0%" stop-color="#CBD5E1" stop-opacity="1"/><stop offset="100%" stop-color="#94A3B8" stop-opacity="1"/></linearGradient><linearGradient id="g-other" x1="0" y1="0" x2="0" y2="1"><stop offset="0%" stop-color="#9CA3AF" stop-opacity="1"/><stop offset="100%" stop-color="#6B7280" stop-opacity="1"/></linearGradient><linearGradient id="card-bg" x1="0" y1="0" x2="0" y2="1"><stop offset="0%" stop-color="var(--card-top)"/><stop offset="100%" stop-color="var(--card-bot)"/></linearGradient>
  </defs>

  <!-- Canvas -->
  <rect width="960" height="752" fill="var(--bg)" rx="12"/>

  <!-- Header: eyebrow with accent dot (left) + period (right) -->
  <circle cx="32" cy="36" r="4" fill="var(--accent)"/>
  <text x="44" y="40" class="eyebrow">DEVELOPER ACTIVITY</text>
  <text x="932" y="40" class="period" text-anchor="end">Last 12 weeks · 2026-W23 → 2026-W34</text>

  <!-- Divider under header -->
  <line x1="28" y1="54" x2="932" y2="54"
        stroke="var(--border)" stroke-width="1"/>

  <!-- KPI cards -->
  <rect x="28.0" y="72" width="215.5" height="96" rx="10" fill="url(#card-bg)" stroke="var(--border)"/><rect x="28.0" y="84" width="3" height="72" rx="1.5" fill="#22C55E"/><text x="44.0" y="96" class="kpi-label">NET LINES</text><text x="44.0" y="132" class="kpi-value">329k</text><text x="44.0" y="154" class="kpi-sub">+380k / −52k · 20 langs</text><rect x="257.5" y="72" width="215.5" height="96" rx="10" fill="url(#card-bg)" stroke="var(--border)"/><rect x="257.5" y="84" width="3" height="72" rx="1.5" fill="#3178C6"/><text x="273.5" y="96" class="kpi-label">TOP LANGUAGE</text><text x="273.5" y="132" class="kpi-value">TypeScript</text><text x="273.5" y="154" class="kpi-sub">23.6% of activity</text><rect x="487.0" y="72" width="215.5" height="96" rx="10" fill="url(#card-bg)" stroke="var(--border)"/><rect x="487.0" y="84" width="3" height="72" rx="1.5" fill="#F97316"/><text x="503.0" y="96" class="kpi-label">PEAK WEEK</text><text x="503.0" y="132" class="kpi-value">101k</text><text x="503.0" y="154" class="kpi-sub">week of Aug 17</text><rect x="716.5" y="72" width="215.5" height="96" rx="10" fill="url(#card-bg)" stroke="var(--border)"/><rect x="716.5" y="84" width="3" height="72" rx="1.5" fill="#3178C6"/><text x="732.5" y="96" class="kpi-label">WEEKLY AVG</text><text x="732.5" y="132" class="kpi-value">32k</text><text x="732.5" y="154" class="kpi-sub">over 12 weeks</text>

  <!-- Chart section title -->
  <text x="28" y="196" class="section">WEEKLY ACTIVITY</text>
  <text x="932" y="196" class="period" text-anchor="end">
    lines added per week
  </text>

  <!-- Grid -->
  <line x1="68" y1="384.0" x2="932" y2="384.0" stroke="var(--grid)" stroke-width="1"/><line x1="68" y1="340.0" x2="932" y2="340.0" stroke="var(--grid)" stroke-width="1" stroke-dasharray="2,4"/><text x="60" y="343.5" text-anchor="end" class="axis">50k</text><line x1="68" y1="296.0" x2="932" y2="296.0" stroke="var(--grid)" stroke-width="1" stroke-dasharray="2,4"/><text x="60" y="299.5" text-anchor="end" class="axis">100k</text><line x1="68" y1="252.0" x2="932" y2="252.0" stroke="var(--grid)" stroke-width="1" stroke-dasharray="2,4"/><text x="60" y="255.5" text-anchor="end" class="axis">150k</text><line x1="68" y1="208.0" x2="932" y2="208.0" stroke="var(--grid)" stroke-width="1" stroke-dasharray="2,4"/><text x="60" y="211.5" text-anchor="end" class="axis">200k</text>

  <!-- Bars -->
  <rect x="68.00" y="382.80" width="69.00" height="1.20" fill="url(#g-other)"><title>2026-W23 · Other: +22</title></rect><rect x="68.00" y="381.60" width="69.00" height="1.20" fill="url(#g-toml)"><title>2026-W23 · TOML: +7</title></rect><rect x="68.00" y="380.40" width="69.00" height="1.20" fill="url(#g-yaml)"><title>2026-W23 · YAML: +41</title></rect><rect x="68.00" y="379.20" width="69.00" height="1.20" fill="url(#g-bash)"><title>2026-W23 · Bash: +276</title></rect><rect x="68.00" y="378.00" width="69.00" height="1.20" fill="url(#g-python)"><title>2026-W23 · Python: +29</title></rect><rect x="68.00" y="376.80" width="69.00" height="1.20" fill="url(#g-json)"><title>2026-W23 · JSON: +7</title></rect><rect x="68.00" y="375.60" width="69.00" height="1.20" fill="url(#g-markdown)"><title>2026-W23 · Markdown: +267</title></rect><path d="M 68.00,375.60 V 375.12 Q 68.00,372.62 70.50,372.62 H 134.50 Q 137.00,372.62 137.00,375.12 V 375.60 Z" fill="url(#g-typescript)"><title>2026-W23 · TypeScript: +3,389</title></path><rect x="140.00" y="382.79" width="69.00" height="1.21" fill="url(#g-other)"><title>2026-W24 · Other: +1,375</title></rect><rect x="140.00" y="381.59" width="69.00" height="1.20" fill="url(#g-svelte)"><title>2026-W24 · Svelte: +39</title></rect><rect x="140.00" y="380.39" width="69.00" height="1.20" fill="url(#g-astro)"><title>2026-W24 · Astro: +3</title></rect><rect x="140.00" y="379.19" width="69.00" height="1.20" fill="url(#g-svg)"><title>2026-W24 · SVG: +55</title></rect><rect x="140.00" y="377.99" width="69.00" height="1.20" fill="url(#g-yaml)"><title>2026-W24 · YAML: +200</title></rect><rect x="140.00" y="376.79" width="69.00" height="1.20" fill="url(#g-terraform)"><title>2026-W24 · Terraform: +620</title></rect><rect x="140.00" y="375.59" width="69.00" height="1.20" fill="url(#g-bash)"><title>2026-W24 · Bash: +26</title></rect><rect x="140.00" y="374.39" width="69.00" height="1.20" fill="url(#g-c)"><title>2026-W24 · C: +84</title></rect><rect x="140.00" y="373.19" width="69.00" height="1.20" fill="url(#g-css)"><title>2026-W24 · CSS: +300</title></rect><rect x="140.00" y="371.99" width="69.00" height="1.20" fill="url(#g-python)"><title>2026-W24 · Python: +291</title></rect><rect x="140.00" y="370.79" width="69.00" height="1.20" fill="url(#g-cpp)"><title>2026-W24 · C++: +100</title></rect><rect x="140.00" y="369.54" width="69.00" height="1.25" fill="url(#g-json)"><title>2026-W24 · JSON: +1,424</title></rect><rect x="140.00" y="368.34" width="69.00" height="1.20" fill="url(#g-html)"><title>2026-W24 · HTML: +183</title></rect><rect x="140.00" y="363.07" width="69.00" height="5.27" fill="url(#g-markdown)"><title>2026-W24 · Markdown: +5,988</title></rect><path d="M 140.00,363.07 V 356.16 Q 140.00,353.66 142.50,353.66 H 206.50 Q 209.00,353.66 209.00,356.16 V 363.07 Z" fill="url(#g-typescript)"><title>2026-W24 · TypeScript: +10,690</title></path><rect x="212.00" y="380.54" width="69.00" height="3.46" fill="url(#g-other)"><title>2026-W25 · Other: +3,928</title></rect><rect x="212.00" y="379.34" width="69.00" height="1.20" fill="url(#g-text)"><title>2026-W25 · Text: +47</title></rect><rect x="212.00" y="378.14" width="69.00" height="1.20" fill="url(#g-svg)"><title>2026-W25 · SVG: +565</title></rect><rect x="212.00" y="376.94" width="69.00" height="1.20" fill="url(#g-yaml)"><title>2026-W25 · YAML: +220</title></rect><rect x="212.00" y="375.74" width="69.00" height="1.20" fill="url(#g-terraform)"><title>2026-W25 · Terraform: +239</title></rect><rect x="212.00" y="374.54" width="69.00" height="1.20" fill="url(#g-bash)"><title>2026-W25 · Bash: +64</title></rect><rect x="212.00" y="373.34" width="69.00" height="1.20" fill="url(#g-c)"><title>2026-W25 · C: +364</title></rect><rect x="212.00" y="372.14" width="69.00" height="1.20" fill="url(#g-css)"><title>2026-W25 · CSS: +135</title></rect><rect x="212.00" y="370.94" width="69.00" height="1.20" fill="url(#g-python)"><title>2026-W25 · Python: +124</title></rect><rect x="212.00" y="369.74" width="69.00" height="1.20" fill="url(#g-cpp)"><title>2026-W25 · C++: +430</title></rect><rect x="212.00" y="368.54" width="69.00" height="1.20" fill="url(#g-json)"><title>2026-W25 · JSON: +293</title></rect><rect x="212.00" y="367.34" width="69.00" height="1.20" fill="url(#g-html)"><title>2026-W25 · HTML: +234</title></rect><rect x="212.00" y="365.21" width="69.00" height="2.14" fill="url(#g-markdown)"><title>2026-W25 · Markdown: +2,428</title></rect><path d="M 212.00,365.21 V 362.52 Q 212.00,360.02 214.50,360.02 H 278.50 Q 281.00,360.02 281.00,362.52 V 365.21 Z" fill="url(#g-typescript)"><title>2026-W25 · TypeScript: +5,896</title></path><rect x="284.00" y="382.80" width="69.00" height="1.20" fill="url(#g-other)"><title>2026-W26 · Other: +511</title></rect><rect x="284.00" y="381.60" width="69.00" height="1.20" fill="url(#g-astro)"><title>2026-W26 · Astro: +79</title></rect><rect x="284.00" y="380.40" width="69.00" height="1.20" fill="url(#g-yaml)"><title>2026-W26 · YAML: +60</title></rect><rect x="284.00" y="379.20" width="69.00" height="1.20" fill="url(#g-terraform)"><title>2026-W26 · Terraform: +15</title></rect><rect x="284.00" y="378.00" width="69.00" height="1.20" fill="url(#g-bash)"><title>2026-W26 · Bash: +11</title></rect><rect x="284.00" y="376.80" width="69.00" height="1.20" fill="url(#g-css)"><title>2026-W26 · CSS: +30</title></rect><rect x="284.00" y="375.60" width="69.00" height="1.20" fill="url(#g-python)"><title>2026-W26 · Python: +1,237</title></rect><rect x="284.00" y="374.40" width="69.00" height="1.20" fill="url(#g-json)"><title>2026-W26 · JSON: +1</title></rect><rect x="284.00" y="373.20" width="69.00" height="1.20" fill="url(#g-html)"><title>2026-W26 · HTML: +11</title></rect><rect x="284.00" y="372.00" width="69.00" height="1.20" fill="url(#g-markdown)"><title>2026-W26 · Markdown: +365</title></rect><path d="M 284.00,372.00 V 372.00 Q 284.00,369.88 286.12,369.88 H 350.88 Q 353.00,369.88 353.00,372.00 V 372.00 Z" fill="url(#g-typescript)"><title>2026-W26 · TypeScript: +2,408</title></path><rect x="356.00" y="382.80" width="69.00" height="1.20" fill="url(#g-other)"><title>2026-W27 · Other: +51</title></rect><rect x="356.00" y="381.60" width="69.00" height="1.20" fill="url(#g-svg)"><title>2026-W27 · SVG: +273</title></rect><rect x="356.00" y="380.40" width="69.00" height="1.20" fill="url(#g-yaml)"><title>2026-W27 · YAML: +24</title></rect><rect x="356.00" y="379.20" width="69.00" height="1.20" fill="url(#g-css)"><title>2026-W27 · CSS: +20</title></rect><rect x="356.00" y="378.00" width="69.00" height="1.20" fill="url(#g-html)"><title>2026-W27 · HTML: +11</title></rect><rect x="356.00" y="376.80" width="69.00" height="1.20" fill="url(#g-markdown)"><title>2026-W27 · Markdown: +84</title></rect><path d="M 356.00,376.80 V 376.80 Q 356.00,374.42 358.38,374.42 H 422.62 Q 425.00,374.42 425.00,376.80 V 376.80 Z" fill="url(#g-typescript)"><title>2026-W27 · TypeScript: +2,699</title></path><rect x="428.00" y="382.80" width="69.00" height="1.20" fill="url(#g-other)"><title>2026-W28 · Other: +580</title></rect><rect x="428.00" y="381.60" width="69.00" height="1.20" fill="url(#g-svelte)"><title>2026-W28 · Svelte: +716</title></rect><rect x="428.00" y="380.40" width="69.00" height="1.20" fill="url(#g-astro)"><title>2026-W28 · Astro: +701</title></rect><rect x="428.00" y="379.20" width="69.00" height="1.20" fill="url(#g-yaml)"><title>2026-W28 · YAML: +5</title></rect><rect x="428.00" y="378.00" width="69.00" height="1.20" fill="url(#g-terraform)"><title>2026-W28 · Terraform: +96</title></rect><rect x="428.00" y="376.80" width="69.00" height="1.20" fill="url(#g-bash)"><title>2026-W28 · Bash: +10</title></rect><rect x="428.00" y="375.60" width="69.00" height="1.20" fill="url(#g-json)"><title>2026-W28 · JSON: +25</title></rect><rect x="428.00" y="374.40" width="69.00" height="1.20" fill="url(#g-markdown)"><title>2026-W28 · Markdown: +89</title></rect><path d="M 428.00,374.40 V 374.40 Q 428.00,373.09 429.31,373.09 H 495.69 Q 497.00,373.09 497.00,374.40 V 374.40 Z" fill="url(#g-typescript)"><title>2026-W28 · TypeScript: +1,492</title></path><rect x="500.00" y="382.80" width="69.00" height="1.20" fill="url(#g-other)"><title>2026-W29 · Other: +179</title></rect><rect x="500.00" y="381.60" width="69.00" height="1.20" fill="url(#g-yaml)"><title>2026-W29 · YAML: +41</title></rect><rect x="500.00" y="380.40" width="69.00" height="1.20" fill="url(#g-python)"><title>2026-W29 · Python: +301</title></rect><rect x="500.00" y="379.20" width="69.00" height="1.20" fill="url(#g-json)"><title>2026-W29 · JSON: +8</title></rect><rect x="500.00" y="378.00" width="69.00" height="1.20" fill="url(#g-markdown)"><title>2026-W29 · Markdown: +186</title></rect><path d="M 500.00,378.00 V 378.00 Q 500.00,376.80 501.20,376.80 H 567.80 Q 569.00,376.80 569.00,378.00 V 378.00 Z" fill="url(#g-typescript)"><title>2026-W29 · TypeScript: +500</title></path><rect x="572.00" y="380.23" width="69.00" height="3.77" fill="url(#g-other)"><title>2026-W30 · Other: +4,285</title></rect><rect x="572.00" y="379.03" width="69.00" height="1.20" fill="url(#g-text)"><title>2026-W30 · Text: +8</title></rect><rect x="572.00" y="377.83" width="69.00" height="1.20" fill="url(#g-toml)"><title>2026-W30 · TOML: +98</title></rect><rect x="572.00" y="376.63" width="69.00" height="1.20" fill="url(#g-svg)"><title>2026-W30 · SVG: +337</title></rect><rect x="572.00" y="375.43" width="69.00" height="1.20" fill="url(#g-yaml)"><title>2026-W30 · YAML: +419</title></rect><rect x="572.00" y="374.23" width="69.00" height="1.20" fill="url(#g-terraform)"><title>2026-W30 · Terraform: +1,045</title></rect><rect x="572.00" y="373.03" width="69.00" height="1.20" fill="url(#g-bash)"><title>2026-W30 · Bash: +595</title></rect><rect x="572.00" y="371.83" width="69.00" height="1.20" fill="url(#g-c)"><title>2026-W30 · C: +42</title></rect><rect x="572.00" y="369.17" width="69.00" height="2.66" fill="url(#g-css)"><title>2026-W30 · CSS: +3,023</title></rect><rect x="572.00" y="366.72" width="69.00" height="2.45" fill="url(#g-python)"><title>2026-W30 · Python: +2,780</title></rect><rect x="572.00" y="365.52" width="69.00" height="1.20" fill="url(#g-cpp)"><title>2026-W30 · C++: +144</title></rect><rect x="572.00" y="364.32" width="69.00" height="1.20" fill="url(#g-json)"><title>2026-W30 · JSON: +645</title></rect><rect x="572.00" y="357.69" width="69.00" height="6.64" fill="url(#g-rust)"><title>2026-W30 · Rust: +7,542</title></rect><rect x="572.00" y="356.49" width="69.00" height="1.20" fill="url(#g-html)"><title>2026-W30 · HTML: +512</title></rect><rect x="572.00" y="349.23" width="69.00" height="7.25" fill="url(#g-markdown)"><title>2026-W30 · Markdown: +8,240</title></rect><path d="M 572.00,349.23 V 333.43 Q 572.00,330.93 574.50,330.93 H 638.50 Q 641.00,330.93 641.00,333.43 V 349.23 Z" fill="url(#g-typescript)"><title>2026-W30 · TypeScript: +20,804</title></path><rect x="644.00" y="376.96" width="69.00" height="7.04" fill="url(#g-other)"><title>2026-W31 · Other: +8,005</title></rect><rect x="644.00" y="375.76" width="69.00" height="1.20" fill="url(#g-text)"><title>2026-W31 · Text: +22</title></rect><rect x="644.00" y="374.56" width="69.00" height="1.20" fill="url(#g-toml)"><title>2026-W31 · TOML: +27</title></rect><rect x="644.00" y="373.36" width="69.00" height="1.20" fill="url(#g-yaml)"><title>2026-W31 · YAML: +125</title></rect><rect x="644.00" y="372.16" width="69.00" height="1.20" fill="url(#g-bash)"><title>2026-W31 · Bash: +405</title></rect><rect x="644.00" y="370.96" width="69.00" height="1.20" fill="url(#g-c)"><title>2026-W31 · C: +210</title></rect><rect x="644.00" y="369.76" width="69.00" height="1.20" fill="url(#g-css)"><title>2026-W31 · CSS: +663</title></rect><rect x="644.00" y="368.56" width="69.00" height="1.20" fill="url(#g-python)"><title>2026-W31 · Python: +619</title></rect><rect x="644.00" y="367.36" width="69.00" height="1.20" fill="url(#g-cpp)"><title>2026-W31 · C++: +418</title></rect><rect x="644.00" y="366.16" width="69.00" height="1.20" fill="url(#g-json)"><title>2026-W31 · JSON: +909</title></rect><rect x="644.00" y="360.08" width="69.00" height="6.08" fill="url(#g-rust)"><title>2026-W31 · Rust: +6,908</title></rect><rect x="644.00" y="326.03" width="69.00" height="34.05" fill="url(#g-html)"><title>2026-W31 · HTML: +38,689</title></rect><rect x="644.00" y="319.72" width="69.00" height="6.31" fill="url(#g-markdown)"><title>2026-W31 · Markdown: +7,172</title></rect><path d="M 644.00,319.72 V 316.55 Q 644.00,314.05 646.50,314.05 H 710.50 Q 713.00,314.05 713.00,316.55 V 319.72 Z" fill="url(#g-typescript)"><title>2026-W31 · TypeScript: +6,441</title></path><rect x="716.00" y="382.80" width="69.00" height="1.20" fill="url(#g-other)"><title>2026-W32 · Other: +137</title></rect><rect x="716.00" y="381.60" width="69.00" height="1.20" fill="url(#g-toml)"><title>2026-W32 · TOML: +6</title></rect><rect x="716.00" y="380.40" width="69.00" height="1.20" fill="url(#g-svg)"><title>2026-W32 · SVG: +63</title></rect><rect x="716.00" y="379.20" width="69.00" height="1.20" fill="url(#g-yaml)"><title>2026-W32 · YAML: +6</title></rect><rect x="716.00" y="378.00" width="69.00" height="1.20" fill="url(#g-terraform)"><title>2026-W32 · Terraform: +62</title></rect><rect x="716.00" y="376.80" width="69.00" height="1.20" fill="url(#g-bash)"><title>2026-W32 · Bash: +6</title></rect><rect x="716.00" y="375.60" width="69.00" height="1.20" fill="url(#g-css)"><title>2026-W32 · CSS: +659</title></rect><rect x="716.00" y="373.07" width="69.00" height="2.53" fill="url(#g-python)"><title>2026-W32 · Python: +2,878</title></rect><rect x="716.00" y="371.68" width="69.00" height="1.38" fill="url(#g-json)"><title>2026-W32 · JSON: +1,572</title></rect><rect x="716.00" y="366.65" width="69.00" height="5.03" fill="url(#g-rust)"><title>2026-W32 · Rust: +5,715</title></rect><rect x="716.00" y="365.45" width="69.00" height="1.20" fill="url(#g-html)"><title>2026-W32 · HTML: +1</title></rect><rect x="716.00" y="350.92" width="69.00" height="14.53" fill="url(#g-markdown)"><title>2026-W32 · Markdown: +16,512</title></rect><path d="M 716.00,350.92 V 342.76 Q 716.00,340.26 718.50,340.26 H 782.50 Q 785.00,340.26 785.00,342.76 V 350.92 Z" fill="url(#g-typescript)"><title>2026-W32 · TypeScript: +12,119</title></path><rect x="788.00" y="380.07" width="69.00" height="3.93" fill="url(#g-other)"><title>2026-W33 · Other: +4,469</title></rect><rect x="788.00" y="378.87" width="69.00" height="1.20" fill="url(#g-toml)"><title>2026-W33 · TOML: +117</title></rect><rect x="788.00" y="377.67" width="69.00" height="1.20" fill="url(#g-kotlin)"><title>2026-W33 · Kotlin: +163</title></rect><rect x="788.00" y="376.47" width="69.00" height="1.20" fill="url(#g-yaml)"><title>2026-W33 · YAML: +336</title></rect><rect x="788.00" y="375.27" width="69.00" height="1.20" fill="url(#g-terraform)"><title>2026-W33 · Terraform: +119</title></rect><rect x="788.00" y="374.07" width="69.00" height="1.20" fill="url(#g-bash)"><title>2026-W33 · Bash: +1,170</title></rect><rect x="788.00" y="370.07" width="69.00" height="4.00" fill="url(#g-c)"><title>2026-W33 · C: +4,541</title></rect><rect x="788.00" y="368.87" width="69.00" height="1.20" fill="url(#g-css)"><title>2026-W33 · CSS: +360</title></rect><rect x="788.00" y="366.69" width="69.00" height="2.19" fill="url(#g-python)"><title>2026-W33 · Python: +2,484</title></rect><rect x="788.00" y="357.13" width="69.00" height="9.56" fill="url(#g-cpp)"><title>2026-W33 · C++: +10,858</title></rect><rect x="788.00" y="353.13" width="69.00" height="4.00" fill="url(#g-json)"><title>2026-W33 · JSON: +4,541</title></rect><rect x="788.00" y="344.05" width="69.00" height="9.09" fill="url(#g-dart)"><title>2026-W33 · Dart: +10,327</title></rect><rect x="788.00" y="340.21" width="69.00" height="3.84" fill="url(#g-rust)"><title>2026-W33 · Rust: +4,365</title></rect><rect x="788.00" y="339.01" width="69.00" height="1.20" fill="url(#g-html)"><title>2026-W33 · HTML: +74</title></rect><rect x="788.00" y="329.98" width="69.00" height="9.03" fill="url(#g-markdown)"><title>2026-W33 · Markdown: +10,259</title></rect><path d="M 788.00,329.98 V 327.07 Q 788.00,324.57 790.50,324.57 H 854.50 Q 857.00,324.57 857.00,327.07 V 329.98 Z" fill="url(#g-typescript)"><title>2026-W33 · TypeScript: +6,148</title></path><rect x="860.00" y="378.08" width="69.00" height="5.92" fill="url(#g-other)"><title>2026-W34 · Other: +6,730</title></rect><rect x="860.00" y="376.88" width="69.00" height="1.20" fill="url(#g-text)"><title>2026-W34 · Text: +186</title></rect><rect x="860.00" y="375.68" width="69.00" height="1.20" fill="url(#g-toml)"><title>2026-W34 · TOML: +68</title></rect><rect x="860.00" y="374.48" width="69.00" height="1.20" fill="url(#g-svg)"><title>2026-W34 · SVG: +38</title></rect><rect x="860.00" y="373.16" width="69.00" height="1.31" fill="url(#g-kotlin)"><title>2026-W34 · Kotlin: +1,494</title></rect><rect x="860.00" y="371.96" width="69.00" height="1.20" fill="url(#g-yaml)"><title>2026-W34 · YAML: +281</title></rect><rect x="860.00" y="370.76" width="69.00" height="1.20" fill="url(#g-bash)"><title>2026-W34 · Bash: +514</title></rect><rect x="860.00" y="369.56" width="69.00" height="1.20" fill="url(#g-c)"><title>2026-W34 · C: +952</title></rect><rect x="860.00" y="368.36" width="69.00" height="1.20" fill="url(#g-css)"><title>2026-W34 · CSS: +1,065</title></rect><rect x="860.00" y="367.16" width="69.00" height="1.20" fill="url(#g-python)"><title>2026-W34 · Python: +1,056</title></rect><rect x="860.00" y="365.95" width="69.00" height="1.22" fill="url(#g-cpp)"><title>2026-W34 · C++: +1,381</title></rect><rect x="860.00" y="358.70" width="69.00" height="7.24" fill="url(#g-json)"><title>2026-W34 · JSON: +8,231</title></rect><rect x="860.00" y="340.64" width="69.00" height="18.06" fill="url(#g-dart)"><title>2026-W34 · Dart: +20,523</title></rect><rect x="860.00" y="328.07" width="69.00" height="12.58" fill="url(#g-rust)"><title>2026-W34 · Rust: +14,293</title></rect><rect x="860.00" y="326.87" width="69.00" height="1.20" fill="url(#g-html)"><title>2026-W34 · HTML: +12</title></rect><rect x="860.00" y="300.40" width="69.00" height="26.47" fill="url(#g-markdown)"><title>2026-W34 · Markdown: +30,075</title></rect><path d="M 860.00,300.40 V 290.28 Q 860.00,287.78 862.50,287.78 H 926.50 Q 929.00,287.78 929.00,290.28 V 300.40 Z" fill="url(#g-typescript)"><title>2026-W34 · TypeScript: +14,338</title></path>

  <!-- Clipped-outlier indicators -->
  

  <!-- X-axis labels -->
  <text x="102.5" y="402.0" text-anchor="middle" class="axis">JUN</text><text x="462.5" y="402.0" text-anchor="middle" class="axis">JUL</text><text x="750.5" y="402.0" text-anchor="middle" class="axis">AUG</text>

  <!-- Activity pulse section (commits + repos sparklines) -->
  <text x="28" y="408" class="section">ACTIVITY PULSE</text>
  <text x="932" y="408" class="period" text-anchor="end">weekly cadence</text>
  <rect x="28.0" y="420" width="440.0" height="36" rx="8" fill="url(#card-bg)" stroke="var(--border)"/><circle cx="40.0" cy="438.0" r="3.5" fill="#22C55E"/><text x="52.0" y="441.5" class="kpi-label">COMMITS</text><text x="116.0" y="443.0" class="pulse-val mono">995</text><text x="456.0" y="442.0" class="pulse-peak mono" fill="#22C55E" text-anchor="end">↑221</text><polygon points="178.0,450.0 178.0,447.7 199.3,439.6 220.5,443.7 241.8,447.7 263.1,449.0 284.4,447.9 305.6,448.6 326.9,440.7 348.2,437.3 369.5,434.7 390.7,429.0 412.0,426.0 412.0,450.0" fill="#22C55E" opacity="0.18"/><polyline points="178.0,447.7 199.3,439.6 220.5,443.7 241.8,447.7 263.1,449.0 284.4,447.9 305.6,448.6 326.9,440.7 348.2,437.3 369.5,434.7 390.7,429.0 412.0,426.0" fill="none" stroke="#22C55E" stroke-width="1.5" stroke-linejoin="round" stroke-linecap="round"/><rect x="492.0" y="420" width="440.0" height="36" rx="8" fill="url(#card-bg)" stroke="var(--border)"/><circle cx="504.0" cy="438.0" r="3.5" fill="#F97316"/><text x="516.0" y="441.5" class="kpi-label">REPOS</text><text x="580.0" y="443.0" class="pulse-val mono">24</text><text x="920.0" y="442.0" class="pulse-peak mono" fill="#F97316" text-anchor="end">↑19</text><polygon points="642.0,450.0 642.0,444.9 663.3,438.6 684.5,438.6 705.8,443.7 727.1,444.9 748.4,444.9 769.6,446.2 790.9,438.6 812.2,438.6 833.5,443.7 854.7,426.0 876.0,437.4 876.0,450.0" fill="#F97316" opacity="0.18"/><polyline points="642.0,444.9 663.3,438.6 684.5,438.6 705.8,443.7 727.1,444.9 748.4,444.9 769.6,446.2 790.9,438.6 812.2,438.6 833.5,443.7 854.7,426.0 876.0,437.4" fill="none" stroke="#F97316" stroke-width="1.5" stroke-linejoin="round" stroke-linecap="round"/>

  <!-- Language breakdown section title -->
  <text x="28" y="480" class="section">LANGUAGE BREAKDOWN</text>
  <text x="932" y="480" class="period" text-anchor="end">
    ranked by lines added
  </text>

  <circle cx="33.0" cy="498" r="4" fill="#3178C6"/><text x="44.0" y="502" class="lb-name">TypeScript</text><rect x="120.0" y="495" width="252.0" height="6" rx="3" fill="var(--track)"/><rect x="120.0" y="495" width="252.0" height="6" rx="3" fill="url(#g-typescript)"/><text x="408.0" y="502" class="lb-val" text-anchor="end">+90k</text><text x="460.0" y="502" class="lb-pct" text-anchor="end">23.6%</text><circle cx="33.0" cy="518" r="4" fill="#8B5CF6"/><text x="44.0" y="522" class="lb-name">Markdown</text><rect x="120.0" y="515" width="252.0" height="6" rx="3" fill="var(--track)"/><rect x="120.0" y="515" width="230.0" height="6" rx="3" fill="url(#g-markdown)"/><text x="408.0" y="522" class="lb-val" text-anchor="end">+82k</text><text x="460.0" y="522" class="lb-pct" text-anchor="end">21.6%</text><circle cx="33.0" cy="538" r="4" fill="#E34C26"/><text x="44.0" y="542" class="lb-name">HTML</text><rect x="120.0" y="535" width="252.0" height="6" rx="3" fill="var(--track)"/><rect x="120.0" y="535" width="111.3" height="6" rx="3" fill="url(#g-html)"/><text x="408.0" y="542" class="lb-val" text-anchor="end">+40k</text><text x="460.0" y="542" class="lb-pct" text-anchor="end">10.4%</text><circle cx="33.0" cy="558" r="4" fill="#F97316"/><text x="44.0" y="562" class="lb-name">Rust</text><rect x="120.0" y="555" width="252.0" height="6" rx="3" fill="var(--track)"/><rect x="120.0" y="555" width="108.8" height="6" rx="3" fill="url(#g-rust)"/><text x="408.0" y="562" class="lb-val" text-anchor="end">+39k</text><text x="460.0" y="562" class="lb-pct" text-anchor="end">10.2%</text><circle cx="33.0" cy="578" r="4" fill="#00B4AB"/><text x="44.0" y="582" class="lb-name">Dart</text><rect x="120.0" y="575" width="252.0" height="6" rx="3" fill="var(--track)"/><rect x="120.0" y="575" width="86.5" height="6" rx="3" fill="url(#g-dart)"/><text x="408.0" y="582" class="lb-val" text-anchor="end">+31k</text><text x="460.0" y="582" class="lb-pct" text-anchor="end">8.1%</text><circle cx="33.0" cy="598" r="4" fill="#14B8A6"/><text x="44.0" y="602" class="lb-name">JSON</text><rect x="120.0" y="595" width="252.0" height="6" rx="3" fill="var(--track)"/><rect x="120.0" y="595" width="49.7" height="6" rx="3" fill="url(#g-json)"/><text x="408.0" y="602" class="lb-val" text-anchor="end">+18k</text><text x="460.0" y="602" class="lb-pct" text-anchor="end">4.7%</text><circle cx="33.0" cy="618" r="4" fill="#F34B7D"/><text x="44.0" y="622" class="lb-name">C++</text><rect x="120.0" y="615" width="252.0" height="6" rx="3" fill="var(--track)"/><rect x="120.0" y="615" width="37.4" height="6" rx="3" fill="url(#g-cpp)"/><text x="408.0" y="622" class="lb-val" text-anchor="end">+13k</text><text x="460.0" y="622" class="lb-pct" text-anchor="end">3.5%</text><circle cx="33.0" cy="638" r="4" fill="#3776AB"/><text x="44.0" y="642" class="lb-name">Python</text><rect x="120.0" y="635" width="252.0" height="6" rx="3" fill="var(--track)"/><rect x="120.0" y="635" width="36.4" height="6" rx="3" fill="url(#g-python)"/><text x="408.0" y="642" class="lb-val" text-anchor="end">+13k</text><text x="460.0" y="642" class="lb-pct" text-anchor="end">3.4%</text><circle cx="33.0" cy="658" r="4" fill="#563D7C"/><text x="44.0" y="662" class="lb-name">CSS</text><rect x="120.0" y="655" width="252.0" height="6" rx="3" fill="var(--track)"/><rect x="120.0" y="655" width="17.6" height="6" rx="3" fill="url(#g-css)"/><text x="408.0" y="662" class="lb-val" text-anchor="end">+6.3k</text><text x="460.0" y="662" class="lb-pct" text-anchor="end">1.7%</text><circle cx="33.0" cy="678" r="4" fill="#64748B"/><text x="44.0" y="682" class="lb-name">C</text><rect x="120.0" y="675" width="252.0" height="6" rx="3" fill="var(--track)"/><rect x="120.0" y="675" width="17.4" height="6" rx="3" fill="url(#g-c)"/><text x="408.0" y="682" class="lb-val" text-anchor="end">+6.2k</text><text x="460.0" y="682" class="lb-pct" text-anchor="end">1.6%</text><circle cx="505.0" cy="498" r="4" fill="#22C55E"/><text x="516.0" y="502" class="lb-name">Bash</text><rect x="592.0" y="495" width="252.0" height="6" rx="3" fill="var(--track)"/><rect x="592.0" y="495" width="8.6" height="6" rx="3" fill="url(#g-bash)"/><text x="880.0" y="502" class="lb-val" text-anchor="end">+3.1k</text><text x="932.0" y="502" class="lb-pct" text-anchor="end">0.8%</text><circle cx="505.0" cy="518" r="4" fill="#6366F1"/><text x="516.0" y="522" class="lb-name">Terraform</text><rect x="592.0" y="515" width="252.0" height="6" rx="3" fill="var(--track)"/><rect x="592.0" y="515" width="6.2" height="6" rx="3" fill="url(#g-terraform)"/><text x="880.0" y="522" class="lb-val" text-anchor="end">+2.2k</text><text x="932.0" y="522" class="lb-pct" text-anchor="end">0.6%</text><circle cx="505.0" cy="538" r="4" fill="#EC4899"/><text x="516.0" y="542" class="lb-name">YAML</text><rect x="592.0" y="535" width="252.0" height="6" rx="3" fill="var(--track)"/><rect x="592.0" y="535" width="5.1" height="6" rx="3" fill="url(#g-yaml)"/><text x="880.0" y="542" class="lb-val" text-anchor="end">+1.8k</text><text x="932.0" y="542" class="lb-pct" text-anchor="end">0.5%</text><circle cx="505.0" cy="558" r="4" fill="#A855F7"/><text x="516.0" y="562" class="lb-name">Kotlin</text><rect x="592.0" y="555" width="252.0" height="6" rx="3" fill="var(--track)"/><rect x="592.0" y="555" width="4.6" height="6" rx="3" fill="url(#g-kotlin)"/><text x="880.0" y="562" class="lb-val" text-anchor="end">+1.7k</text><text x="932.0" y="562" class="lb-pct" text-anchor="end">0.4%</text><circle cx="505.0" cy="578" r="4" fill="#6B7280"/><text x="516.0" y="582" class="lb-name">SVG</text><rect x="592.0" y="575" width="252.0" height="6" rx="3" fill="var(--track)"/><rect x="592.0" y="575" width="3.7" height="6" rx="3" fill="url(#g-svg)"/><text x="880.0" y="582" class="lb-val" text-anchor="end">+1.3k</text><text x="932.0" y="582" class="lb-pct" text-anchor="end">0.3%</text><circle cx="505.0" cy="598" r="4" fill="#FF5D01"/><text x="516.0" y="602" class="lb-name">Astro</text><rect x="592.0" y="595" width="252.0" height="6" rx="3" fill="var(--track)"/><rect x="592.0" y="595" width="2.2" height="6" rx="3" fill="url(#g-astro)"/><text x="880.0" y="602" class="lb-val" text-anchor="end">+783</text><text x="932.0" y="602" class="lb-pct" text-anchor="end">0.2%</text><circle cx="505.0" cy="618" r="4" fill="#FF3E00"/><text x="516.0" y="622" class="lb-name">Svelte</text><rect x="592.0" y="615" width="252.0" height="6" rx="3" fill="var(--track)"/><rect x="592.0" y="615" width="2.1" height="6" rx="3" fill="url(#g-svelte)"/><text x="880.0" y="622" class="lb-val" text-anchor="end">+755</text><text x="932.0" y="622" class="lb-pct" text-anchor="end">0.2%</text><circle cx="505.0" cy="638" r="4" fill="#9C4221"/><text x="516.0" y="642" class="lb-name">TOML</text><rect x="592.0" y="635" width="252.0" height="6" rx="3" fill="var(--track)"/><rect x="592.0" y="635" width="0.9" height="6" rx="3" fill="url(#g-toml)"/><text x="880.0" y="642" class="lb-val" text-anchor="end">+326</text><text x="932.0" y="642" class="lb-pct" text-anchor="end">0.1%</text><circle cx="505.0" cy="658" r="4" fill="#94A3B8"/><text x="516.0" y="662" class="lb-name">Text</text><rect x="592.0" y="655" width="252.0" height="6" rx="3" fill="var(--track)"/><rect x="592.0" y="655" width="0.7" height="6" rx="3" fill="url(#g-text)"/><text x="880.0" y="662" class="lb-val" text-anchor="end">+263</text><text x="932.0" y="662" class="lb-pct" text-anchor="end">0.1%</text><circle cx="505.0" cy="678" r="4" fill="#6B7280"/><text x="516.0" y="682" class="lb-name">Other</text><rect x="592.0" y="675" width="252.0" height="6" rx="3" fill="var(--track)"/><rect x="592.0" y="675" width="85.1" height="6" rx="3" fill="url(#g-other)"/><text x="880.0" y="682" class="lb-val" text-anchor="end">+30k</text><text x="932.0" y="682" class="lb-pct" text-anchor="end">8.0%</text>

  <!-- Footer -->
  <line x1="28" y1="722" x2="932" y2="722"
        stroke="var(--border)" stroke-width="1"/>
  <text x="28" y="738" class="footer">
    Generated 2026-08-23 · git diff-tree --numstat · non-forked, non-archived repos
  </text>
  <text x="932" y="738" class="footer" text-anchor="end">
    github.com · auto-updated
  </text>
</svg>