<svg xmlns="http://www.w3.org/2000/svg"
     viewBox="0 0 960 652"
     width="960" height="652"
     role="img" aria-label="Developer activity — weekly lines of code by language">

  <defs>
    <style>
      svg {
        --bg:        #FFFFFF;
        --fg:        #0F172A;
        --muted:     #64748B;
        --subtle:    #94A3B8;
        --border:    #E2E8F0;
        --grid:      #EEF2F6;
        --track:     #EEF2F6;
        --card-top:  #FFFFFF;
        --card-bot:  #F8FAFC;
        --accent:    #3178C6;
      }
      @media (prefers-color-scheme: dark) {
        svg {
          --bg:        #0D1117;
          --fg:        #E6EDF3;
          --muted:     #8B949E;
          --subtle:    #6E7681;
          --border:    #21262D;
          --grid:      #161B22;
          --track:     #1C2128;
          --card-top:  #161B22;
          --card-bot:  #0D1117;
          --accent:    #58A6FF;
        }
      }
      text {
        font-family: -apple-system, BlinkMacSystemFont, "Segoe UI",
                     "SF Pro Text", "Helvetica Neue", Arial, sans-serif;
        fill: var(--fg);
      }
      .mono {
        font-family: ui-monospace, SFMono-Regular, "SF Mono", Menlo,
                     Consolas, "Liberation Mono", monospace;
        font-variant-numeric: tabular-nums;
      }
      .eyebrow {
        font-size: 11px; font-weight: 600; letter-spacing: 2px;
        fill: var(--muted);
      }
      .period {
        font-size: 11px; fill: var(--muted);
        font-variant-numeric: tabular-nums;
      }
      .section {
        font-size: 10.5px; font-weight: 600; letter-spacing: 1.8px;
        fill: var(--muted);
      }
      .kpi-label {
        font-size: 9.5px; font-weight: 600; letter-spacing: 1.5px;
        fill: var(--muted);
      }
      .kpi-value {
        font-size: 26px; font-weight: 700; fill: var(--fg);
        font-variant-numeric: tabular-nums;
      }
      .kpi-sub {
        font-size: 10.5px; fill: var(--muted);
      }
      .axis {
        font-size: 9.5px; fill: var(--subtle);
        font-variant-numeric: tabular-nums;
      }
      .pulse-val {
        font-size: 18px; font-weight: 700; fill: var(--fg);
        font-variant-numeric: tabular-nums;
      }
      .pulse-peak {
        font-size: 11px; font-weight: 600;
        font-variant-numeric: tabular-nums;
      }
      .lb-name { font-size: 11px; font-weight: 500; fill: var(--fg); }
      .lb-val  { font-size: 10.5px; fill: var(--muted);
                  font-variant-numeric: tabular-nums; }
      .lb-pct  { font-size: 10.5px; font-weight: 600; fill: var(--fg);
                  font-variant-numeric: tabular-nums; }
      .clip-label { font-size: 9.5px; font-weight: 600; fill: var(--fg);
                     font-variant-numeric: tabular-nums; }
      .footer { font-size: 9.5px; fill: var(--subtle); }
    </style>
    <linearGradient id="g-typescript" x1="0" y1="0" x2="0" y2="1"><stop offset="0%" stop-color="#5198E8" stop-opacity="1"/><stop offset="100%" stop-color="#3178C6" stop-opacity="1"/></linearGradient><linearGradient id="g-json" x1="0" y1="0" x2="0" y2="1"><stop offset="0%" stop-color="#2DD4BF" stop-opacity="1"/><stop offset="100%" stop-color="#14B8A6" stop-opacity="1"/></linearGradient><linearGradient id="g-markdown" x1="0" y1="0" x2="0" y2="1"><stop offset="0%" stop-color="#A78BFA" stop-opacity="1"/><stop offset="100%" stop-color="#8B5CF6" stop-opacity="1"/></linearGradient><linearGradient id="g-python" x1="0" y1="0" x2="0" y2="1"><stop offset="0%" stop-color="#5497D4" stop-opacity="1"/><stop offset="100%" stop-color="#3776AB" stop-opacity="1"/></linearGradient><linearGradient id="g-terraform" x1="0" y1="0" x2="0" y2="1"><stop offset="0%" stop-color="#8B8EF7" stop-opacity="1"/><stop offset="100%" stop-color="#6366F1" stop-opacity="1"/></linearGradient><linearGradient id="g-astro" x1="0" y1="0" x2="0" y2="1"><stop offset="0%" stop-color="#FF8338" stop-opacity="1"/><stop offset="100%" stop-color="#FF5D01" stop-opacity="1"/></linearGradient><linearGradient id="g-html" x1="0" y1="0" x2="0" y2="1"><stop offset="0%" stop-color="#F76E4A" stop-opacity="1"/><stop offset="100%" stop-color="#E34C26" stop-opacity="1"/></linearGradient><linearGradient id="g-yaml" x1="0" y1="0" x2="0" y2="1"><stop offset="0%" stop-color="#F472B6" stop-opacity="1"/><stop offset="100%" stop-color="#EC4899" stop-opacity="1"/></linearGradient><linearGradient id="g-bash" x1="0" y1="0" x2="0" y2="1"><stop offset="0%" stop-color="#4ADE80" stop-opacity="1"/><stop offset="100%" stop-color="#22C55E" stop-opacity="1"/></linearGradient><linearGradient id="g-svelte" x1="0" y1="0" x2="0" y2="1"><stop offset="0%" stop-color="#FF6A3D" stop-opacity="1"/><stop offset="100%" stop-color="#FF3E00" stop-opacity="1"/></linearGradient><linearGradient id="card-bg" x1="0" y1="0" x2="0" y2="1"><stop offset="0%" stop-color="var(--card-top)"/><stop offset="100%" stop-color="var(--card-bot)"/></linearGradient>
  </defs>

  <!-- Canvas -->
  <rect width="960" height="652" fill="var(--bg)" rx="12"/>

  <!-- Header: eyebrow with accent dot (left) + period (right) -->
  <circle cx="32" cy="36" r="4" fill="var(--accent)"/>
  <text x="44" y="40" class="eyebrow">DEVELOPER ACTIVITY</text>
  <text x="932" y="40" class="period" text-anchor="end">Last 18 weeks · 2026-W02 → 2026-W19</text>

  <!-- Divider under header -->
  <line x1="28" y1="54" x2="932" y2="54"
        stroke="var(--border)" stroke-width="1"/>

  <!-- KPI cards -->
  <rect x="28.0" y="72" width="215.5" height="96" rx="10" fill="url(#card-bg)" stroke="var(--border)"/><rect x="28.0" y="84" width="3" height="72" rx="1.5" fill="#22C55E"/><text x="44.0" y="96" class="kpi-label">NET LINES</text><text x="44.0" y="132" class="kpi-value">895k</text><text x="44.0" y="154" class="kpi-sub">+1M / −126k · 10 langs</text><rect x="257.5" y="72" width="215.5" height="96" rx="10" fill="url(#card-bg)" stroke="var(--border)"/><rect x="257.5" y="84" width="3" height="72" rx="1.5" fill="#3178C6"/><text x="273.5" y="96" class="kpi-label">TOP LANGUAGE</text><text x="273.5" y="132" class="kpi-value">TypeScript</text><text x="273.5" y="154" class="kpi-sub">42.5% of activity</text><rect x="487.0" y="72" width="215.5" height="96" rx="10" fill="url(#card-bg)" stroke="var(--border)"/><rect x="487.0" y="84" width="3" height="72" rx="1.5" fill="#F97316"/><text x="503.0" y="96" class="kpi-label">PEAK WEEK</text><text x="503.0" y="132" class="kpi-value">530k</text><text x="503.0" y="154" class="kpi-sub">week of Apr 20</text><rect x="716.5" y="72" width="215.5" height="96" rx="10" fill="url(#card-bg)" stroke="var(--border)"/><rect x="716.5" y="84" width="3" height="72" rx="1.5" fill="#3178C6"/><text x="732.5" y="96" class="kpi-label">WEEKLY AVG</text><text x="732.5" y="132" class="kpi-value">57k</text><text x="732.5" y="154" class="kpi-sub">over 18 weeks</text>

  <!-- Chart section title -->
  <text x="28" y="196" class="section">WEEKLY ACTIVITY</text>
  <text x="932" y="196" class="period" text-anchor="end">
    lines added per week
  </text>

  <!-- Grid -->
  <line x1="68" y1="384.0" x2="932" y2="384.0" stroke="var(--grid)" stroke-width="1"/><line x1="68" y1="340.0" x2="932" y2="340.0" stroke="var(--grid)" stroke-width="1" stroke-dasharray="2,4"/><text x="60" y="343.5" text-anchor="end" class="axis">25k</text><line x1="68" y1="296.0" x2="932" y2="296.0" stroke="var(--grid)" stroke-width="1" stroke-dasharray="2,4"/><text x="60" y="299.5" text-anchor="end" class="axis">50k</text><line x1="68" y1="252.0" x2="932" y2="252.0" stroke="var(--grid)" stroke-width="1" stroke-dasharray="2,4"/><text x="60" y="255.5" text-anchor="end" class="axis">75k</text><line x1="68" y1="208.0" x2="932" y2="208.0" stroke="var(--grid)" stroke-width="1" stroke-dasharray="2,4"/><text x="60" y="211.5" text-anchor="end" class="axis">100k</text>

  <!-- Bars -->
  <rect x="68.00" y="382.80" width="45.00" height="1.20" fill="url(#g-markdown)"><title>2026-W02 · Markdown: +313</title></rect><path d="M 68.00,382.80 V 382.80 Q 68.00,381.60 69.20,381.60 H 111.80 Q 113.00,381.60 113.00,382.80 V 382.80 Z" fill="url(#g-json)"><title>2026-W02 · JSON: +15</title></path><rect x="116.00" y="382.53" width="45.00" height="1.47" fill="url(#g-markdown)"><title>2026-W03 · Markdown: +838</title></rect><path d="M 116.00,382.53 V 382.53 Q 116.00,380.66 117.86,380.66 H 159.14 Q 161.00,380.66 161.00,382.53 V 382.53 Z" fill="url(#g-json)"><title>2026-W03 · JSON: +1,058</title></path><rect x="164.00" y="381.88" width="45.00" height="2.12" fill="url(#g-python)"><title>2026-W04 · Python: +1,207</title></rect><rect x="164.00" y="380.11" width="45.00" height="1.77" fill="url(#g-markdown)"><title>2026-W04 · Markdown: +1,006</title></rect><path d="M 164.00,380.11 V 380.11 Q 164.00,378.91 165.20,378.91 H 207.80 Q 209.00,378.91 209.00,380.11 V 380.11 Z" fill="url(#g-json)"><title>2026-W04 · JSON: +155</title></path><path d="M 212.00,384.00 V 384.00 Q 212.00,382.80 213.20,382.80 H 255.80 Q 257.00,382.80 257.00,384.00 V 384.00 Z" fill="url(#g-markdown)"><title>2026-W05 · Markdown: +7</title></path><rect x="260.00" y="382.80" width="45.00" height="1.20" fill="url(#g-markdown)"><title>2026-W06 · Markdown: +7</title></rect><path d="M 260.00,382.80 V 382.80 Q 260.00,381.60 261.20,381.60 H 303.80 Q 305.00,381.60 305.00,382.80 V 382.80 Z" fill="url(#g-json)"><title>2026-W06 · JSON: +153</title></path><rect x="308.00" y="382.80" width="45.00" height="1.20" fill="url(#g-markdown)"><title>2026-W07 · Markdown: +668</title></rect><path d="M 308.00,382.80 V 382.80 Q 308.00,381.60 309.20,381.60 H 351.80 Q 353.00,381.60 353.00,382.80 V 382.80 Z" fill="url(#g-json)"><title>2026-W07 · JSON: +24</title></path><rect x="356.00" y="382.80" width="45.00" height="1.20" fill="url(#g-bash)"><title>2026-W08 · Bash: +149</title></rect><rect x="356.00" y="381.60" width="45.00" height="1.20" fill="url(#g-yaml)"><title>2026-W08 · YAML: +11</title></rect><rect x="356.00" y="380.40" width="45.00" height="1.20" fill="url(#g-astro)"><title>2026-W08 · Astro: +76</title></rect><rect x="356.00" y="379.20" width="45.00" height="1.20" fill="url(#g-terraform)"><title>2026-W08 · Terraform: +278</title></rect><rect x="356.00" y="378.00" width="45.00" height="1.20" fill="url(#g-markdown)"><title>2026-W08 · Markdown: +52</title></rect><rect x="356.00" y="376.80" width="45.00" height="1.20" fill="url(#g-json)"><title>2026-W08 · JSON: +2</title></rect><path d="M 356.00,376.80 V 376.80 Q 356.00,375.60 357.20,375.60 H 399.80 Q 401.00,375.60 401.00,376.80 V 376.80 Z" fill="url(#g-typescript)"><title>2026-W08 · TypeScript: +46</title></path><rect x="404.00" y="382.80" width="45.00" height="1.20" fill="url(#g-bash)"><title>2026-W09 · Bash: +84</title></rect><rect x="404.00" y="381.60" width="45.00" height="1.20" fill="url(#g-yaml)"><title>2026-W09 · YAML: +480</title></rect><rect x="404.00" y="375.40" width="45.00" height="6.20" fill="url(#g-astro)"><title>2026-W09 · Astro: +3,523</title></rect><rect x="404.00" y="373.80" width="45.00" height="1.59" fill="url(#g-terraform)"><title>2026-W09 · Terraform: +906</title></rect><rect x="404.00" y="368.30" width="45.00" height="5.50" fill="url(#g-markdown)"><title>2026-W09 · Markdown: +3,127</title></rect><rect x="404.00" y="290.90" width="45.00" height="77.40" fill="url(#g-json)"><title>2026-W09 · JSON: +43,978</title></rect><path d="M 404.00,290.90 V 290.90 Q 404.00,288.42 406.48,288.42 H 446.52 Q 449.00,288.42 449.00,290.90 V 290.90 Z" fill="url(#g-typescript)"><title>2026-W09 · TypeScript: +1,410</title></path><rect x="452.00" y="382.80" width="45.00" height="1.20" fill="url(#g-bash)"><title>2026-W10 · Bash: +10</title></rect><rect x="452.00" y="381.60" width="45.00" height="1.20" fill="url(#g-yaml)"><title>2026-W10 · YAML: +180</title></rect><rect x="452.00" y="376.75" width="45.00" height="4.85" fill="url(#g-astro)"><title>2026-W10 · Astro: +2,758</title></rect><rect x="452.00" y="375.55" width="45.00" height="1.20" fill="url(#g-terraform)"><title>2026-W10 · Terraform: +419</title></rect><rect x="452.00" y="365.69" width="45.00" height="9.85" fill="url(#g-markdown)"><title>2026-W10 · Markdown: +5,598</title></rect><rect x="452.00" y="364.49" width="45.00" height="1.20" fill="url(#g-json)"><title>2026-W10 · JSON: +298</title></rect><path d="M 452.00,364.49 V 362.59 Q 452.00,360.09 454.50,360.09 H 494.50 Q 497.00,360.09 497.00,362.59 V 364.49 Z" fill="url(#g-typescript)"><title>2026-W10 · TypeScript: +2,500</title></path><rect x="500.00" y="380.87" width="45.00" height="3.13" fill="url(#g-svelte)"><title>2026-W11 · Svelte: +1,781</title></rect><rect x="500.00" y="375.25" width="45.00" height="5.61" fill="url(#g-bash)"><title>2026-W11 · Bash: +3,188</title></rect><rect x="500.00" y="373.92" width="45.00" height="1.34" fill="url(#g-yaml)"><title>2026-W11 · YAML: +760</title></rect><rect x="500.00" y="371.80" width="45.00" height="2.12" fill="url(#g-astro)"><title>2026-W11 · Astro: +1,204</title></rect><rect x="500.00" y="370.60" width="45.00" height="1.20" fill="url(#g-terraform)"><title>2026-W11 · Terraform: +630</title></rect><rect x="500.00" y="369.40" width="45.00" height="1.20" fill="url(#g-python)"><title>2026-W11 · Python: +419</title></rect><rect x="500.00" y="358.40" width="45.00" height="10.99" fill="url(#g-markdown)"><title>2026-W11 · Markdown: +6,246</title></rect><rect x="500.00" y="250.31" width="45.00" height="108.10" fill="url(#g-json)"><title>2026-W11 · JSON: +61,419</title></rect><path d="M 500.00,250.31 V 247.38 Q 500.00,244.88 502.50,244.88 H 542.50 Q 545.00,244.88 545.00,247.38 V 250.31 Z" fill="url(#g-typescript)"><title>2026-W11 · TypeScript: +3,081</title></path><rect x="548.00" y="382.01" width="45.00" height="1.99" fill="url(#g-svelte)"><title>2026-W12 · Svelte: +1,128</title></rect><rect x="548.00" y="378.38" width="45.00" height="3.63" fill="url(#g-bash)"><title>2026-W12 · Bash: +2,065</title></rect><rect x="548.00" y="377.18" width="45.00" height="1.20" fill="url(#g-yaml)"><title>2026-W12 · YAML: +537</title></rect><rect x="548.00" y="375.98" width="45.00" height="1.20" fill="url(#g-html)"><title>2026-W12 · HTML: +159</title></rect><rect x="548.00" y="371.68" width="45.00" height="4.30" fill="url(#g-astro)"><title>2026-W12 · Astro: +2,446</title></rect><rect x="548.00" y="368.12" width="45.00" height="3.55" fill="url(#g-terraform)"><title>2026-W12 · Terraform: +2,018</title></rect><rect x="548.00" y="366.92" width="45.00" height="1.20" fill="url(#g-python)"><title>2026-W12 · Python: +627</title></rect><rect x="548.00" y="318.63" width="45.00" height="48.30" fill="url(#g-markdown)"><title>2026-W12 · Markdown: +27,441</title></rect><rect x="548.00" y="314.03" width="45.00" height="4.59" fill="url(#g-json)"><title>2026-W12 · JSON: +2,610</title></rect><path d="M 548.00,314.03 V 304.25 Q 548.00,301.75 550.50,301.75 H 590.50 Q 593.00,301.75 593.00,304.25 V 314.03 Z" fill="url(#g-typescript)"><title>2026-W12 · TypeScript: +6,981</title></path><rect x="596.00" y="382.80" width="45.00" height="1.20" fill="url(#g-svelte)"><title>2026-W13 · Svelte: +120</title></rect><rect x="596.00" y="381.60" width="45.00" height="1.20" fill="url(#g-bash)"><title>2026-W13 · Bash: +335</title></rect><rect x="596.00" y="380.40" width="45.00" height="1.20" fill="url(#g-yaml)"><title>2026-W13 · YAML: +399</title></rect><rect x="596.00" y="376.79" width="45.00" height="3.61" fill="url(#g-astro)"><title>2026-W13 · Astro: +2,051</title></rect><rect x="596.00" y="374.43" width="45.00" height="2.36" fill="url(#g-terraform)"><title>2026-W13 · Terraform: +1,340</title></rect><rect x="596.00" y="368.64" width="45.00" height="5.79" fill="url(#g-python)"><title>2026-W13 · Python: +3,288</title></rect><rect x="596.00" y="361.78" width="45.00" height="6.86" fill="url(#g-markdown)"><title>2026-W13 · Markdown: +3,900</title></rect><rect x="596.00" y="360.42" width="45.00" height="1.36" fill="url(#g-json)"><title>2026-W13 · JSON: +772</title></rect><path d="M 596.00,360.42 V 339.95 Q 596.00,337.45 598.50,337.45 H 638.50 Q 641.00,337.45 641.00,339.95 V 360.42 Z" fill="url(#g-typescript)"><title>2026-W13 · TypeScript: +13,052</title></path><rect x="644.00" y="378.16" width="45.00" height="5.84" fill="url(#g-svelte)"><title>2026-W14 · Svelte: +3,317</title></rect><rect x="644.00" y="376.96" width="45.00" height="1.20" fill="url(#g-bash)"><title>2026-W14 · Bash: +475</title></rect><rect x="644.00" y="375.76" width="45.00" height="1.20" fill="url(#g-yaml)"><title>2026-W14 · YAML: +483</title></rect><rect x="644.00" y="374.56" width="45.00" height="1.20" fill="url(#g-html)"><title>2026-W14 · HTML: +106</title></rect><rect x="644.00" y="369.46" width="45.00" height="5.10" fill="url(#g-astro)"><title>2026-W14 · Astro: +2,899</title></rect><rect x="644.00" y="367.55" width="45.00" height="1.91" fill="url(#g-terraform)"><title>2026-W14 · Terraform: +1,083</title></rect><rect x="644.00" y="357.90" width="45.00" height="9.66" fill="url(#g-python)"><title>2026-W14 · Python: +5,487</title></rect><rect x="644.00" y="342.99" width="45.00" height="14.91" fill="url(#g-markdown)"><title>2026-W14 · Markdown: +8,469</title></rect><rect x="644.00" y="325.96" width="45.00" height="17.03" fill="url(#g-json)"><title>2026-W14 · JSON: +9,674</title></rect><path d="M 644.00,325.96 V 297.97 Q 644.00,295.47 646.50,295.47 H 686.50 Q 689.00,295.47 689.00,297.97 V 325.96 Z" fill="url(#g-typescript)"><title>2026-W14 · TypeScript: +17,326</title></path><rect x="692.00" y="382.80" width="45.00" height="1.20" fill="url(#g-bash)"><title>2026-W15 · Bash: +271</title></rect><rect x="692.00" y="377.57" width="45.00" height="5.23" fill="url(#g-yaml)"><title>2026-W15 · YAML: +2,970</title></rect><rect x="692.00" y="376.37" width="45.00" height="1.20" fill="url(#g-astro)"><title>2026-W15 · Astro: +214</title></rect><rect x="692.00" y="375.17" width="45.00" height="1.20" fill="url(#g-terraform)"><title>2026-W15 · Terraform: +377</title></rect><rect x="692.00" y="371.82" width="45.00" height="3.35" fill="url(#g-python)"><title>2026-W15 · Python: +1,905</title></rect><rect x="692.00" y="356.10" width="45.00" height="15.72" fill="url(#g-markdown)"><title>2026-W15 · Markdown: +8,934</title></rect><rect x="692.00" y="346.94" width="45.00" height="9.15" fill="url(#g-json)"><title>2026-W15 · JSON: +5,201</title></rect><path d="M 692.00,346.94 V 315.98 Q 692.00,313.48 694.50,313.48 H 734.50 Q 737.00,313.48 737.00,315.98 V 346.94 Z" fill="url(#g-typescript)"><title>2026-W15 · TypeScript: +19,012</title></path><rect x="740.00" y="381.58" width="45.00" height="2.42" fill="url(#g-svelte)"><title>2026-W16 · Svelte: +1,373</title></rect><rect x="740.00" y="379.69" width="45.00" height="1.89" fill="url(#g-bash)"><title>2026-W16 · Bash: +1,074</title></rect><rect x="740.00" y="378.40" width="45.00" height="1.30" fill="url(#g-yaml)"><title>2026-W16 · YAML: +737</title></rect><rect x="740.00" y="376.82" width="45.00" height="1.58" fill="url(#g-html)"><title>2026-W16 · HTML: +897</title></rect><rect x="740.00" y="374.11" width="45.00" height="2.71" fill="url(#g-astro)"><title>2026-W16 · Astro: +1,539</title></rect><rect x="740.00" y="370.26" width="45.00" height="3.84" fill="url(#g-terraform)"><title>2026-W16 · Terraform: +2,184</title></rect><rect x="740.00" y="358.71" width="45.00" height="11.56" fill="url(#g-python)"><title>2026-W16 · Python: +6,567</title></rect><rect x="740.00" y="339.75" width="45.00" height="18.96" fill="url(#g-markdown)"><title>2026-W16 · Markdown: +10,770</title></rect><rect x="740.00" y="338.55" width="45.00" height="1.20" fill="url(#g-json)"><title>2026-W16 · JSON: +463</title></rect><path d="M 740.00,338.55 V 280.93 Q 740.00,278.43 742.50,278.43 H 782.50 Q 785.00,278.43 785.00,280.93 V 338.55 Z" fill="url(#g-typescript)"><title>2026-W16 · TypeScript: +34,160</title></path><rect x="788.00" y="382.80" width="45.00" height="1.20" fill="url(#g-bash)"><title>2026-W17 · Bash: +537</title></rect><rect x="788.00" y="381.60" width="45.00" height="1.20" fill="url(#g-yaml)"><title>2026-W17 · YAML: +1,828</title></rect><rect x="788.00" y="380.40" width="45.00" height="1.20" fill="url(#g-html)"><title>2026-W17 · HTML: +127</title></rect><rect x="788.00" y="379.20" width="45.00" height="1.20" fill="url(#g-astro)"><title>2026-W17 · Astro: +191</title></rect><rect x="788.00" y="377.84" width="45.00" height="1.36" fill="url(#g-terraform)"><title>2026-W17 · Terraform: +4,346</title></rect><rect x="788.00" y="376.64" width="45.00" height="1.20" fill="url(#g-python)"><title>2026-W17 · Python: +2,497</title></rect><rect x="788.00" y="349.85" width="45.00" height="26.80" fill="url(#g-markdown)"><title>2026-W17 · Markdown: +85,836</title></rect><rect x="788.00" y="308.95" width="45.00" height="40.89" fill="url(#g-json)"><title>2026-W17 · JSON: +130,988</title></rect><path d="M 788.00,308.95 V 216.68 Q 788.00,214.18 790.50,214.18 H 830.50 Q 833.00,214.18 833.00,216.68 V 308.95 Z" fill="url(#g-typescript)"><title>2026-W17 · TypeScript: +303,596</title></path><rect x="836.00" y="382.80" width="45.00" height="1.20" fill="url(#g-svelte)"><title>2026-W18 · Svelte: +450</title></rect><rect x="836.00" y="379.71" width="45.00" height="3.09" fill="url(#g-bash)"><title>2026-W18 · Bash: +1,758</title></rect><rect x="836.00" y="375.55" width="45.00" height="4.16" fill="url(#g-yaml)"><title>2026-W18 · YAML: +2,362</title></rect><rect x="836.00" y="360.34" width="45.00" height="15.21" fill="url(#g-html)"><title>2026-W18 · HTML: +8,643</title></rect><rect x="836.00" y="359.14" width="45.00" height="1.20" fill="url(#g-astro)"><title>2026-W18 · Astro: +445</title></rect><rect x="836.00" y="356.23" width="45.00" height="2.91" fill="url(#g-terraform)"><title>2026-W18 · Terraform: +1,652</title></rect><rect x="836.00" y="343.75" width="45.00" height="12.48" fill="url(#g-python)"><title>2026-W18 · Python: +7,093</title></rect><rect x="836.00" y="332.42" width="45.00" height="11.33" fill="url(#g-markdown)"><title>2026-W18 · Markdown: +6,438</title></rect><rect x="836.00" y="312.14" width="45.00" height="20.28" fill="url(#g-json)"><title>2026-W18 · JSON: +11,522</title></rect><path d="M 836.00,312.14 V 290.90 Q 836.00,288.40 838.50,288.40 H 878.50 Q 881.00,288.40 881.00,290.90 V 312.14 Z" fill="url(#g-typescript)"><title>2026-W18 · TypeScript: +13,487</title></path><rect x="884.00" y="382.80" width="45.00" height="1.20" fill="url(#g-svelte)"><title>2026-W19 · Svelte: +122</title></rect><rect x="884.00" y="379.64" width="45.00" height="3.16" fill="url(#g-bash)"><title>2026-W19 · Bash: +1,796</title></rect><rect x="884.00" y="377.25" width="45.00" height="2.39" fill="url(#g-yaml)"><title>2026-W19 · YAML: +1,359</title></rect><rect x="884.00" y="373.30" width="45.00" height="3.95" fill="url(#g-html)"><title>2026-W19 · HTML: +2,244</title></rect><rect x="884.00" y="372.10" width="45.00" height="1.20" fill="url(#g-astro)"><title>2026-W19 · Astro: +3</title></rect><rect x="884.00" y="365.57" width="45.00" height="6.53" fill="url(#g-terraform)"><title>2026-W19 · Terraform: +3,708</title></rect><rect x="884.00" y="359.34" width="45.00" height="6.23" fill="url(#g-python)"><title>2026-W19 · Python: +3,539</title></rect><rect x="884.00" y="350.18" width="45.00" height="9.16" fill="url(#g-markdown)"><title>2026-W19 · Markdown: +5,205</title></rect><rect x="884.00" y="296.14" width="45.00" height="54.05" fill="url(#g-json)"><title>2026-W19 · JSON: +30,708</title></rect><path d="M 884.00,296.14 V 264.03 Q 884.00,261.53 886.50,261.53 H 926.50 Q 929.00,261.53 929.00,264.03 V 296.14 Z" fill="url(#g-typescript)"><title>2026-W19 · TypeScript: +19,660</title></path>

  <!-- Clipped-outlier indicators -->
  <path d="M 805.5 214 L 810.5 209 L 815.5 214" stroke="var(--fg)" stroke-width="1.6" stroke-linecap="round" stroke-linejoin="round" fill="none" opacity="0.85"/><text x="810.5" y="204" text-anchor="middle" class="clip-label">+530k</text>

  <!-- X-axis labels -->
  <text x="90.5" y="402.0" text-anchor="middle" class="axis">JAN</text><text x="282.5" y="402.0" text-anchor="middle" class="axis">FEB</text><text x="474.5" y="402.0" text-anchor="middle" class="axis">MAR</text><text x="714.5" y="402.0" text-anchor="middle" class="axis">APR</text><text x="906.5" y="402.0" text-anchor="middle" class="axis">MAY</text>

  <!-- Activity pulse section (commits + repos sparklines) -->
  <text x="28" y="408" class="section">ACTIVITY PULSE</text>
  <text x="932" y="408" class="period" text-anchor="end">weekly cadence</text>
  <rect x="28.0" y="420" width="440.0" height="36" rx="8" fill="url(#card-bg)" stroke="var(--border)"/><circle cx="40.0" cy="438.0" r="3.5" fill="#22C55E"/><text x="52.0" y="441.5" class="kpi-label">COMMITS</text><text x="116.0" y="443.0" class="pulse-val mono">4,141</text><text x="456.0" y="442.0" class="pulse-peak mono" fill="#22C55E" text-anchor="end">↑1,136</text><polygon points="178.0,450.0 178.0,449.8 191.8,449.7 205.5,449.7 219.3,449.9 233.1,449.9 246.8,449.9 260.6,449.7 274.4,448.2 288.1,447.6 301.9,447.5 315.6,447.6 329.4,447.3 343.2,447.0 356.9,440.5 370.7,426.4 384.5,426.0 398.2,446.5 412.0,439.2 412.0,450.0" fill="#22C55E" opacity="0.18"/><polyline points="178.0,449.8 191.8,449.7 205.5,449.7 219.3,449.9 233.1,449.9 246.8,449.9 260.6,449.7 274.4,448.2 288.1,447.6 301.9,447.5 315.6,447.6 329.4,447.3 343.2,447.0 356.9,440.5 370.7,426.4 384.5,426.0 398.2,446.5 412.0,439.2" fill="none" stroke="#22C55E" stroke-width="1.5" stroke-linejoin="round" stroke-linecap="round"/><rect x="492.0" y="420" width="440.0" height="36" rx="8" fill="url(#card-bg)" stroke="var(--border)"/><circle cx="504.0" cy="438.0" r="3.5" fill="#F97316"/><text x="516.0" y="441.5" class="kpi-label">REPOS</text><text x="580.0" y="443.0" class="pulse-val mono">20</text><text x="920.0" y="442.0" class="pulse-peak mono" fill="#F97316" text-anchor="end">↑15</text><polygon points="642.0,450.0 642.0,448.4 655.8,448.4 669.5,446.8 683.3,448.4 697.1,446.8 710.8,448.4 724.6,448.4 738.4,445.2 752.1,443.6 765.9,442.0 779.6,438.8 793.4,435.6 807.2,438.8 820.9,435.6 834.7,437.2 848.5,435.6 862.2,429.2 876.0,426.0 876.0,450.0" fill="#F97316" opacity="0.18"/><polyline points="642.0,448.4 655.8,448.4 669.5,446.8 683.3,448.4 697.1,446.8 710.8,448.4 724.6,448.4 738.4,445.2 752.1,443.6 765.9,442.0 779.6,438.8 793.4,435.6 807.2,438.8 820.9,435.6 834.7,437.2 848.5,435.6 862.2,429.2 876.0,426.0" fill="none" stroke="#F97316" stroke-width="1.5" stroke-linejoin="round" stroke-linecap="round"/>

  <!-- Language breakdown section title -->
  <text x="28" y="480" class="section">LANGUAGE BREAKDOWN</text>
  <text x="932" y="480" class="period" text-anchor="end">
    ranked by lines added
  </text>

  <circle cx="33.0" cy="498" r="4" fill="#3178C6"/><text x="44.0" y="502" class="lb-name">TypeScript</text><rect x="120.0" y="495" width="252.0" height="6" rx="3" fill="var(--track)"/><rect x="120.0" y="495" width="252.0" height="6" rx="3" fill="url(#g-typescript)"/><text x="408.0" y="502" class="lb-val" text-anchor="end">+434k</text><text x="460.0" y="502" class="lb-pct" text-anchor="end">42.5%</text><circle cx="33.0" cy="518" r="4" fill="#14B8A6"/><text x="44.0" y="522" class="lb-name">JSON</text><rect x="120.0" y="515" width="252.0" height="6" rx="3" fill="var(--track)"/><rect x="120.0" y="515" width="173.5" height="6" rx="3" fill="url(#g-json)"/><text x="408.0" y="522" class="lb-val" text-anchor="end">+299k</text><text x="460.0" y="522" class="lb-pct" text-anchor="end">29.3%</text><circle cx="33.0" cy="538" r="4" fill="#8B5CF6"/><text x="44.0" y="542" class="lb-name">Markdown</text><rect x="120.0" y="535" width="252.0" height="6" rx="3" fill="var(--track)"/><rect x="120.0" y="535" width="101.5" height="6" rx="3" fill="url(#g-markdown)"/><text x="408.0" y="542" class="lb-val" text-anchor="end">+175k</text><text x="460.0" y="542" class="lb-pct" text-anchor="end">17.1%</text><circle cx="33.0" cy="558" r="4" fill="#3776AB"/><text x="44.0" y="562" class="lb-name">Python</text><rect x="120.0" y="555" width="252.0" height="6" rx="3" fill="var(--track)"/><rect x="120.0" y="555" width="18.9" height="6" rx="3" fill="url(#g-python)"/><text x="408.0" y="562" class="lb-val" text-anchor="end">+33k</text><text x="460.0" y="562" class="lb-pct" text-anchor="end">3.2%</text><circle cx="33.0" cy="578" r="4" fill="#6366F1"/><text x="44.0" y="582" class="lb-name">Terraform</text><rect x="120.0" y="575" width="252.0" height="6" rx="3" fill="var(--track)"/><rect x="120.0" y="575" width="11.0" height="6" rx="3" fill="url(#g-terraform)"/><text x="408.0" y="582" class="lb-val" text-anchor="end">+19k</text><text x="460.0" y="582" class="lb-pct" text-anchor="end">1.9%</text><circle cx="505.0" cy="498" r="4" fill="#FF5D01"/><text x="516.0" y="502" class="lb-name">Astro</text><rect x="592.0" y="495" width="252.0" height="6" rx="3" fill="var(--track)"/><rect x="592.0" y="495" width="10.1" height="6" rx="3" fill="url(#g-astro)"/><text x="880.0" y="502" class="lb-val" text-anchor="end">+17k</text><text x="932.0" y="502" class="lb-pct" text-anchor="end">1.7%</text><circle cx="505.0" cy="518" r="4" fill="#E34C26"/><text x="516.0" y="522" class="lb-name">HTML</text><rect x="592.0" y="515" width="252.0" height="6" rx="3" fill="var(--track)"/><rect x="592.0" y="515" width="7.1" height="6" rx="3" fill="url(#g-html)"/><text x="880.0" y="522" class="lb-val" text-anchor="end">+12k</text><text x="932.0" y="522" class="lb-pct" text-anchor="end">1.2%</text><circle cx="505.0" cy="538" r="4" fill="#EC4899"/><text x="516.0" y="542" class="lb-name">YAML</text><rect x="592.0" y="535" width="252.0" height="6" rx="3" fill="var(--track)"/><rect x="592.0" y="535" width="7.0" height="6" rx="3" fill="url(#g-yaml)"/><text x="880.0" y="542" class="lb-val" text-anchor="end">+12k</text><text x="932.0" y="542" class="lb-pct" text-anchor="end">1.2%</text><circle cx="505.0" cy="558" r="4" fill="#22C55E"/><text x="516.0" y="562" class="lb-name">Bash</text><rect x="592.0" y="555" width="252.0" height="6" rx="3" fill="var(--track)"/><rect x="592.0" y="555" width="6.8" height="6" rx="3" fill="url(#g-bash)"/><text x="880.0" y="562" class="lb-val" text-anchor="end">+12k</text><text x="932.0" y="562" class="lb-pct" text-anchor="end">1.1%</text><circle cx="505.0" cy="578" r="4" fill="#FF3E00"/><text x="516.0" y="582" class="lb-name">Svelte</text><rect x="592.0" y="575" width="252.0" height="6" rx="3" fill="var(--track)"/><rect x="592.0" y="575" width="4.8" height="6" rx="3" fill="url(#g-svelte)"/><text x="880.0" y="582" class="lb-val" text-anchor="end">+8.3k</text><text x="932.0" y="582" class="lb-pct" text-anchor="end">0.8%</text>

  <!-- Footer -->
  <line x1="28" y1="622" x2="932" y2="622"
        stroke="var(--border)" stroke-width="1"/>
  <text x="28" y="638" class="footer">
    Generated 2026-05-10 · git diff-tree --numstat · non-forked, non-archived repos
  </text>
  <text x="932" y="638" class="footer" text-anchor="end">
    github.com · auto-updated
  </text>
</svg>