<svg xmlns="http://www.w3.org/2000/svg"
     viewBox="0 0 960 752"
     width="960" height="752"
     role="img" aria-label="Developer activity — weekly lines of code by language">

  <defs>
    <style>
      svg {
        --bg:        #FFFFFF;
        --fg:        #0F172A;
        --muted:     #64748B;
        --subtle:    #94A3B8;
        --border:    #E2E8F0;
        --grid:      #EEF2F6;
        --track:     #EEF2F6;
        --card-top:  #FFFFFF;
        --card-bot:  #F8FAFC;
        --accent:    #3178C6;
      }
      @media (prefers-color-scheme: dark) {
        svg {
          --bg:        #0D1117;
          --fg:        #E6EDF3;
          --muted:     #8B949E;
          --subtle:    #6E7681;
          --border:    #21262D;
          --grid:      #161B22;
          --track:     #1C2128;
          --card-top:  #161B22;
          --card-bot:  #0D1117;
          --accent:    #58A6FF;
        }
      }
      text {
        font-family: -apple-system, BlinkMacSystemFont, "Segoe UI",
                     "SF Pro Text", "Helvetica Neue", Arial, sans-serif;
        fill: var(--fg);
      }
      .mono {
        font-family: ui-monospace, SFMono-Regular, "SF Mono", Menlo,
                     Consolas, "Liberation Mono", monospace;
        font-variant-numeric: tabular-nums;
      }
      .eyebrow {
        font-size: 11px; font-weight: 600; letter-spacing: 2px;
        fill: var(--muted);
      }
      .period {
        font-size: 11px; fill: var(--muted);
        font-variant-numeric: tabular-nums;
      }
      .section {
        font-size: 10.5px; font-weight: 600; letter-spacing: 1.8px;
        fill: var(--muted);
      }
      .kpi-label {
        font-size: 9.5px; font-weight: 600; letter-spacing: 1.5px;
        fill: var(--muted);
      }
      .kpi-value {
        font-size: 26px; font-weight: 700; fill: var(--fg);
        font-variant-numeric: tabular-nums;
      }
      .kpi-sub {
        font-size: 10.5px; fill: var(--muted);
      }
      .axis {
        font-size: 9.5px; fill: var(--subtle);
        font-variant-numeric: tabular-nums;
      }
      .pulse-val {
        font-size: 18px; font-weight: 700; fill: var(--fg);
        font-variant-numeric: tabular-nums;
      }
      .pulse-peak {
        font-size: 11px; font-weight: 600;
        font-variant-numeric: tabular-nums;
      }
      .lb-name { font-size: 11px; font-weight: 500; fill: var(--fg); }
      .lb-val  { font-size: 10.5px; fill: var(--muted);
                  font-variant-numeric: tabular-nums; }
      .lb-pct  { font-size: 10.5px; font-weight: 600; fill: var(--fg);
                  font-variant-numeric: tabular-nums; }
      .clip-label { font-size: 9.5px; font-weight: 600; fill: var(--fg);
                     font-variant-numeric: tabular-nums; }
      .footer { font-size: 9.5px; fill: var(--subtle); }
    </style>
    <linearGradient id="g-typescript" x1="0" y1="0" x2="0" y2="1"><stop offset="0%" stop-color="#5198E8" stop-opacity="1"/><stop offset="100%" stop-color="#3178C6" stop-opacity="1"/></linearGradient><linearGradient id="g-json" x1="0" y1="0" x2="0" y2="1"><stop offset="0%" stop-color="#2DD4BF" stop-opacity="1"/><stop offset="100%" stop-color="#14B8A6" stop-opacity="1"/></linearGradient><linearGradient id="g-markdown" x1="0" y1="0" x2="0" y2="1"><stop offset="0%" stop-color="#A78BFA" stop-opacity="1"/><stop offset="100%" stop-color="#8B5CF6" stop-opacity="1"/></linearGradient><linearGradient id="g-python" x1="0" y1="0" x2="0" y2="1"><stop offset="0%" stop-color="#5497D4" stop-opacity="1"/><stop offset="100%" stop-color="#3776AB" stop-opacity="1"/></linearGradient><linearGradient id="g-terraform" x1="0" y1="0" x2="0" y2="1"><stop offset="0%" stop-color="#8B8EF7" stop-opacity="1"/><stop offset="100%" stop-color="#6366F1" stop-opacity="1"/></linearGradient><linearGradient id="g-astro" x1="0" y1="0" x2="0" y2="1"><stop offset="0%" stop-color="#FF8338" stop-opacity="1"/><stop offset="100%" stop-color="#FF5D01" stop-opacity="1"/></linearGradient><linearGradient id="g-yaml" x1="0" y1="0" x2="0" y2="1"><stop offset="0%" stop-color="#F472B6" stop-opacity="1"/><stop offset="100%" stop-color="#EC4899" stop-opacity="1"/></linearGradient><linearGradient id="g-bash" x1="0" y1="0" x2="0" y2="1"><stop offset="0%" stop-color="#4ADE80" stop-opacity="1"/><stop offset="100%" stop-color="#22C55E" stop-opacity="1"/></linearGradient><linearGradient id="g-html" x1="0" y1="0" x2="0" y2="1"><stop offset="0%" stop-color="#F76E4A" stop-opacity="1"/><stop offset="100%" stop-color="#E34C26" stop-opacity="1"/></linearGradient><linearGradient id="g-svelte" x1="0" y1="0" x2="0" y2="1"><stop offset="0%" stop-color="#FF6A3D" stop-opacity="1"/><stop offset="100%" stop-color="#FF3E00" stop-opacity="1"/></linearGradient><linearGradient id="g-rust" x1="0" y1="0" x2="0" y2="1"><stop offset="0%" stop-color="#FB9A4A" stop-opacity="1"/><stop offset="100%" stop-color="#F97316" stop-opacity="1"/></linearGradient><linearGradient id="g-css" x1="0" y1="0" x2="0" y2="1"><stop offset="0%" stop-color="#7A58A8" stop-opacity="1"/><stop offset="100%" stop-color="#563D7C" stop-opacity="1"/></linearGradient><linearGradient id="g-svg" x1="0" y1="0" x2="0" y2="1"><stop offset="0%" stop-color="#9CA3AF" stop-opacity="1"/><stop offset="100%" stop-color="#6B7280" stop-opacity="1"/></linearGradient><linearGradient id="g-text" x1="0" y1="0" x2="0" y2="1"><stop offset="0%" stop-color="#CBD5E1" stop-opacity="1"/><stop offset="100%" stop-color="#94A3B8" stop-opacity="1"/></linearGradient><linearGradient id="g-sql" x1="0" y1="0" x2="0" y2="1"><stop offset="0%" stop-color="#FBBF24" stop-opacity="1"/><stop offset="100%" stop-color="#F59E0B" stop-opacity="1"/></linearGradient><linearGradient id="g-dockerfile" x1="0" y1="0" x2="0" y2="1"><stop offset="0%" stop-color="#52B0F2" stop-opacity="1"/><stop offset="100%" stop-color="#2496ED" stop-opacity="1"/></linearGradient><linearGradient id="g-toml" x1="0" y1="0" x2="0" y2="1"><stop offset="0%" stop-color="#BE5D3A" stop-opacity="1"/><stop offset="100%" stop-color="#9C4221" stop-opacity="1"/></linearGradient><linearGradient id="g-go" x1="0" y1="0" x2="0" y2="1"><stop offset="0%" stop-color="#38D3E8" stop-opacity="1"/><stop offset="100%" stop-color="#06B6D4" stop-opacity="1"/></linearGradient><linearGradient id="g-make" x1="0" y1="0" x2="0" y2="1"><stop offset="0%" stop-color="#8FA1A6" stop-opacity="1"/><stop offset="100%" stop-color="#6D8086" stop-opacity="1"/></linearGradient><linearGradient id="g-php" x1="0" y1="0" x2="0" y2="1"><stop offset="0%" stop-color="#9498C8" stop-opacity="1"/><stop offset="100%" stop-color="#777BB4" stop-opacity="1"/></linearGradient><linearGradient id="card-bg" x1="0" y1="0" x2="0" y2="1"><stop offset="0%" stop-color="var(--card-top)"/><stop offset="100%" stop-color="var(--card-bot)"/></linearGradient>
  </defs>

  <!-- Canvas -->
  <rect width="960" height="752" fill="var(--bg)" rx="12"/>

  <!-- Header: eyebrow with accent dot (left) + period (right) -->
  <circle cx="32" cy="36" r="4" fill="var(--accent)"/>
  <text x="44" y="40" class="eyebrow">DEVELOPER ACTIVITY</text>
  <text x="932" y="40" class="period" text-anchor="end">Last 12 weeks · 2026-W08 → 2026-W19</text>

  <!-- Divider under header -->
  <line x1="28" y1="54" x2="932" y2="54"
        stroke="var(--border)" stroke-width="1"/>

  <!-- KPI cards -->
  <rect x="28.0" y="72" width="215.5" height="96" rx="10" fill="url(#card-bg)" stroke="var(--border)"/><rect x="28.0" y="84" width="3" height="72" rx="1.5" fill="#22C55E"/><text x="44.0" y="96" class="kpi-label">NET LINES</text><text x="44.0" y="132" class="kpi-value">951k</text><text x="44.0" y="154" class="kpi-sub">+1.1M / −141k · 20 langs</text><rect x="257.5" y="72" width="215.5" height="96" rx="10" fill="url(#card-bg)" stroke="var(--border)"/><rect x="257.5" y="84" width="3" height="72" rx="1.5" fill="#3178C6"/><text x="273.5" y="96" class="kpi-label">TOP LANGUAGE</text><text x="273.5" y="132" class="kpi-value">TypeScript</text><text x="273.5" y="154" class="kpi-sub">43.4% of activity</text><rect x="487.0" y="72" width="215.5" height="96" rx="10" fill="url(#card-bg)" stroke="var(--border)"/><rect x="487.0" y="84" width="3" height="72" rx="1.5" fill="#F97316"/><text x="503.0" y="96" class="kpi-label">PEAK WEEK</text><text x="503.0" y="132" class="kpi-value">561k</text><text x="503.0" y="154" class="kpi-sub">week of Apr 20</text><rect x="716.5" y="72" width="215.5" height="96" rx="10" fill="url(#card-bg)" stroke="var(--border)"/><rect x="716.5" y="84" width="3" height="72" rx="1.5" fill="#3178C6"/><text x="732.5" y="96" class="kpi-label">WEEKLY AVG</text><text x="732.5" y="132" class="kpi-value">91k</text><text x="732.5" y="154" class="kpi-sub">over 12 weeks</text>

  <!-- Chart section title -->
  <text x="28" y="196" class="section">WEEKLY ACTIVITY</text>
  <text x="932" y="196" class="period" text-anchor="end">
    lines added per week
  </text>

  <!-- Grid -->
  <line x1="68" y1="384.0" x2="932" y2="384.0" stroke="var(--grid)" stroke-width="1"/><line x1="68" y1="340.0" x2="932" y2="340.0" stroke="var(--grid)" stroke-width="1" stroke-dasharray="2,4"/><text x="60" y="343.5" text-anchor="end" class="axis">50k</text><line x1="68" y1="296.0" x2="932" y2="296.0" stroke="var(--grid)" stroke-width="1" stroke-dasharray="2,4"/><text x="60" y="299.5" text-anchor="end" class="axis">100k</text><line x1="68" y1="252.0" x2="932" y2="252.0" stroke="var(--grid)" stroke-width="1" stroke-dasharray="2,4"/><text x="60" y="255.5" text-anchor="end" class="axis">150k</text><line x1="68" y1="208.0" x2="932" y2="208.0" stroke="var(--grid)" stroke-width="1" stroke-dasharray="2,4"/><text x="60" y="211.5" text-anchor="end" class="axis">200k</text>

  <!-- Bars -->
  <rect x="68.00" y="382.80" width="69.00" height="1.20" fill="url(#g-bash)"><title>2026-W08 · Bash: +149</title></rect><rect x="68.00" y="381.60" width="69.00" height="1.20" fill="url(#g-yaml)"><title>2026-W08 · YAML: +11</title></rect><rect x="68.00" y="380.40" width="69.00" height="1.20" fill="url(#g-astro)"><title>2026-W08 · Astro: +76</title></rect><rect x="68.00" y="379.20" width="69.00" height="1.20" fill="url(#g-terraform)"><title>2026-W08 · Terraform: +278</title></rect><rect x="68.00" y="378.00" width="69.00" height="1.20" fill="url(#g-markdown)"><title>2026-W08 · Markdown: +52</title></rect><rect x="68.00" y="376.80" width="69.00" height="1.20" fill="url(#g-json)"><title>2026-W08 · JSON: +2</title></rect><path d="M 68.00,376.80 V 376.80 Q 68.00,375.60 69.20,375.60 H 135.80 Q 137.00,375.60 137.00,376.80 V 376.80 Z" fill="url(#g-typescript)"><title>2026-W08 · TypeScript: +52</title></path><rect x="140.00" y="382.80" width="69.00" height="1.20" fill="url(#g-text)"><title>2026-W09 · Text: +178</title></rect><rect x="140.00" y="381.60" width="69.00" height="1.20" fill="url(#g-svg)"><title>2026-W09 · SVG: +87</title></rect><rect x="140.00" y="380.40" width="69.00" height="1.20" fill="url(#g-bash)"><title>2026-W09 · Bash: +84</title></rect><rect x="140.00" y="379.20" width="69.00" height="1.20" fill="url(#g-yaml)"><title>2026-W09 · YAML: +480</title></rect><rect x="140.00" y="376.10" width="69.00" height="3.10" fill="url(#g-astro)"><title>2026-W09 · Astro: +3,523</title></rect><rect x="140.00" y="374.90" width="69.00" height="1.20" fill="url(#g-terraform)"><title>2026-W09 · Terraform: +910</title></rect><rect x="140.00" y="372.15" width="69.00" height="2.75" fill="url(#g-markdown)"><title>2026-W09 · Markdown: +3,127</title></rect><rect x="140.00" y="333.45" width="69.00" height="38.70" fill="url(#g-json)"><title>2026-W09 · JSON: +43,978</title></rect><path d="M 140.00,333.45 V 333.45 Q 140.00,332.20 141.25,332.20 H 207.75 Q 209.00,332.20 209.00,333.45 V 333.45 Z" fill="url(#g-typescript)"><title>2026-W09 · TypeScript: +1,418</title></path><rect x="212.00" y="382.80" width="69.00" height="1.20" fill="url(#g-text)"><title>2026-W10 · Text: +4</title></rect><rect x="212.00" y="381.60" width="69.00" height="1.20" fill="url(#g-bash)"><title>2026-W10 · Bash: +10</title></rect><rect x="212.00" y="380.40" width="69.00" height="1.20" fill="url(#g-yaml)"><title>2026-W10 · YAML: +180</title></rect><rect x="212.00" y="377.97" width="69.00" height="2.43" fill="url(#g-astro)"><title>2026-W10 · Astro: +2,758</title></rect><rect x="212.00" y="376.77" width="69.00" height="1.20" fill="url(#g-terraform)"><title>2026-W10 · Terraform: +419</title></rect><rect x="212.00" y="371.85" width="69.00" height="4.93" fill="url(#g-markdown)"><title>2026-W10 · Markdown: +5,598</title></rect><rect x="212.00" y="370.65" width="69.00" height="1.20" fill="url(#g-json)"><title>2026-W10 · JSON: +298</title></rect><path d="M 212.00,370.65 V 370.65 Q 212.00,368.44 214.21,368.44 H 278.79 Q 281.00,368.44 281.00,370.65 V 370.65 Z" fill="url(#g-typescript)"><title>2026-W10 · TypeScript: +2,507</title></path><rect x="284.00" y="382.80" width="69.00" height="1.20" fill="url(#g-svg)"><title>2026-W11 · SVG: +32</title></rect><rect x="284.00" y="381.23" width="69.00" height="1.57" fill="url(#g-svelte)"><title>2026-W11 · Svelte: +1,781</title></rect><rect x="284.00" y="378.43" width="69.00" height="2.81" fill="url(#g-bash)"><title>2026-W11 · Bash: +3,188</title></rect><rect x="284.00" y="377.23" width="69.00" height="1.20" fill="url(#g-yaml)"><title>2026-W11 · YAML: +760</title></rect><rect x="284.00" y="376.03" width="69.00" height="1.20" fill="url(#g-astro)"><title>2026-W11 · Astro: +1,204</title></rect><rect x="284.00" y="374.83" width="69.00" height="1.20" fill="url(#g-terraform)"><title>2026-W11 · Terraform: +630</title></rect><rect x="284.00" y="373.63" width="69.00" height="1.20" fill="url(#g-python)"><title>2026-W11 · Python: +419</title></rect><rect x="284.00" y="368.13" width="69.00" height="5.50" fill="url(#g-markdown)"><title>2026-W11 · Markdown: +6,246</title></rect><rect x="284.00" y="314.08" width="69.00" height="54.05" fill="url(#g-json)"><title>2026-W11 · JSON: +61,419</title></rect><path d="M 284.00,314.08 V 313.80 Q 284.00,311.30 286.50,311.30 H 350.50 Q 353.00,311.30 353.00,313.80 V 314.08 Z" fill="url(#g-typescript)"><title>2026-W11 · TypeScript: +3,159</title></path><rect x="356.00" y="382.80" width="69.00" height="1.20" fill="url(#g-make)"><title>2026-W12 · Make: +13</title></rect><rect x="356.00" y="381.60" width="69.00" height="1.20" fill="url(#g-toml)"><title>2026-W12 · TOML: +109</title></rect><rect x="356.00" y="380.40" width="69.00" height="1.20" fill="url(#g-text)"><title>2026-W12 · Text: +4</title></rect><rect x="356.00" y="379.20" width="69.00" height="1.20" fill="url(#g-css)"><title>2026-W12 · CSS: +179</title></rect><rect x="356.00" y="378.00" width="69.00" height="1.20" fill="url(#g-rust)"><title>2026-W12 · Rust: +40</title></rect><rect x="356.00" y="376.80" width="69.00" height="1.20" fill="url(#g-svelte)"><title>2026-W12 · Svelte: +1,128</title></rect><rect x="356.00" y="375.60" width="69.00" height="1.20" fill="url(#g-html)"><title>2026-W12 · HTML: +159</title></rect><rect x="356.00" y="373.78" width="69.00" height="1.82" fill="url(#g-bash)"><title>2026-W12 · Bash: +2,065</title></rect><rect x="356.00" y="372.58" width="69.00" height="1.20" fill="url(#g-yaml)"><title>2026-W12 · YAML: +537</title></rect><rect x="356.00" y="370.43" width="69.00" height="2.15" fill="url(#g-astro)"><title>2026-W12 · Astro: +2,446</title></rect><rect x="356.00" y="368.65" width="69.00" height="1.78" fill="url(#g-terraform)"><title>2026-W12 · Terraform: +2,018</title></rect><rect x="356.00" y="367.45" width="69.00" height="1.20" fill="url(#g-python)"><title>2026-W12 · Python: +627</title></rect><rect x="356.00" y="343.31" width="69.00" height="24.15" fill="url(#g-markdown)"><title>2026-W12 · Markdown: +27,441</title></rect><rect x="356.00" y="341.01" width="69.00" height="2.30" fill="url(#g-json)"><title>2026-W12 · JSON: +2,610</title></rect><path d="M 356.00,341.01 V 336.54 Q 356.00,334.04 358.50,334.04 H 422.50 Q 425.00,334.04 425.00,336.54 V 341.01 Z" fill="url(#g-typescript)"><title>2026-W12 · TypeScript: +7,925</title></path><rect x="428.00" y="382.80" width="69.00" height="1.20" fill="url(#g-toml)"><title>2026-W13 · TOML: +36</title></rect><rect x="428.00" y="381.60" width="69.00" height="1.20" fill="url(#g-dockerfile)"><title>2026-W13 · Dockerfile: +15</title></rect><rect x="428.00" y="380.40" width="69.00" height="1.20" fill="url(#g-sql)"><title>2026-W13 · SQL: +2</title></rect><rect x="428.00" y="379.20" width="69.00" height="1.20" fill="url(#g-text)"><title>2026-W13 · Text: +20</title></rect><rect x="428.00" y="378.00" width="69.00" height="1.20" fill="url(#g-rust)"><title>2026-W13 · Rust: +214</title></rect><rect x="428.00" y="376.80" width="69.00" height="1.20" fill="url(#g-svelte)"><title>2026-W13 · Svelte: +120</title></rect><rect x="428.00" y="375.60" width="69.00" height="1.20" fill="url(#g-bash)"><title>2026-W13 · Bash: +424</title></rect><rect x="428.00" y="374.40" width="69.00" height="1.20" fill="url(#g-yaml)"><title>2026-W13 · YAML: +399</title></rect><rect x="428.00" y="372.60" width="69.00" height="1.80" fill="url(#g-astro)"><title>2026-W13 · Astro: +2,051</title></rect><rect x="428.00" y="371.33" width="69.00" height="1.27" fill="url(#g-terraform)"><title>2026-W13 · Terraform: +1,440</title></rect><rect x="428.00" y="368.43" width="69.00" height="2.89" fill="url(#g-python)"><title>2026-W13 · Python: +3,288</title></rect><rect x="428.00" y="364.83" width="69.00" height="3.61" fill="url(#g-markdown)"><title>2026-W13 · Markdown: +4,097</title></rect><rect x="428.00" y="363.63" width="69.00" height="1.20" fill="url(#g-json)"><title>2026-W13 · JSON: +772</title></rect><path d="M 428.00,363.63 V 353.51 Q 428.00,351.01 430.50,351.01 H 494.50 Q 497.00,351.01 497.00,353.51 V 363.63 Z" fill="url(#g-typescript)"><title>2026-W13 · TypeScript: +14,343</title></path><rect x="500.00" y="382.80" width="69.00" height="1.20" fill="url(#g-make)"><title>2026-W14 · Make: +36</title></rect><rect x="500.00" y="381.60" width="69.00" height="1.20" fill="url(#g-toml)"><title>2026-W14 · TOML: +103</title></rect><rect x="500.00" y="380.40" width="69.00" height="1.20" fill="url(#g-dockerfile)"><title>2026-W14 · Dockerfile: +201</title></rect><rect x="500.00" y="379.20" width="69.00" height="1.20" fill="url(#g-sql)"><title>2026-W14 · SQL: +2</title></rect><rect x="500.00" y="378.00" width="69.00" height="1.20" fill="url(#g-text)"><title>2026-W14 · Text: +39</title></rect><rect x="500.00" y="376.80" width="69.00" height="1.20" fill="url(#g-svg)"><title>2026-W14 · SVG: +87</title></rect><rect x="500.00" y="375.60" width="69.00" height="1.20" fill="url(#g-css)"><title>2026-W14 · CSS: +154</title></rect><rect x="500.00" y="374.03" width="69.00" height="1.57" fill="url(#g-rust)"><title>2026-W14 · Rust: +1,781</title></rect><rect x="500.00" y="371.11" width="69.00" height="2.92" fill="url(#g-svelte)"><title>2026-W14 · Svelte: +3,317</title></rect><rect x="500.00" y="369.91" width="69.00" height="1.20" fill="url(#g-html)"><title>2026-W14 · HTML: +106</title></rect><rect x="500.00" y="368.71" width="69.00" height="1.20" fill="url(#g-bash)"><title>2026-W14 · Bash: +988</title></rect><rect x="500.00" y="367.51" width="69.00" height="1.20" fill="url(#g-yaml)"><title>2026-W14 · YAML: +818</title></rect><rect x="500.00" y="364.96" width="69.00" height="2.55" fill="url(#g-astro)"><title>2026-W14 · Astro: +2,899</title></rect><rect x="500.00" y="363.76" width="69.00" height="1.20" fill="url(#g-terraform)"><title>2026-W14 · Terraform: +1,318</title></rect><rect x="500.00" y="358.93" width="69.00" height="4.83" fill="url(#g-python)"><title>2026-W14 · Python: +5,487</title></rect><rect x="500.00" y="351.18" width="69.00" height="7.75" fill="url(#g-markdown)"><title>2026-W14 · Markdown: +8,812</title></rect><rect x="500.00" y="342.67" width="69.00" height="8.51" fill="url(#g-json)"><title>2026-W14 · JSON: +9,674</title></rect><path d="M 500.00,342.67 V 328.78 Q 500.00,326.28 502.50,326.28 H 566.50 Q 569.00,326.28 569.00,328.78 V 342.67 Z" fill="url(#g-typescript)"><title>2026-W14 · TypeScript: +18,624</title></path><rect x="572.00" y="382.80" width="69.00" height="1.20" fill="url(#g-make)"><title>2026-W15 · Make: +190</title></rect><rect x="572.00" y="381.60" width="69.00" height="1.20" fill="url(#g-toml)"><title>2026-W15 · TOML: +21</title></rect><rect x="572.00" y="380.40" width="69.00" height="1.20" fill="url(#g-dockerfile)"><title>2026-W15 · Dockerfile: +132</title></rect><rect x="572.00" y="379.20" width="69.00" height="1.20" fill="url(#g-sql)"><title>2026-W15 · SQL: +30</title></rect><rect x="572.00" y="378.00" width="69.00" height="1.20" fill="url(#g-text)"><title>2026-W15 · Text: +53</title></rect><rect x="572.00" y="376.80" width="69.00" height="1.20" fill="url(#g-svg)"><title>2026-W15 · SVG: +151</title></rect><rect x="572.00" y="375.60" width="69.00" height="1.20" fill="url(#g-css)"><title>2026-W15 · CSS: +290</title></rect><rect x="572.00" y="374.40" width="69.00" height="1.20" fill="url(#g-rust)"><title>2026-W15 · Rust: +1,262</title></rect><rect x="572.00" y="373.20" width="69.00" height="1.20" fill="url(#g-bash)"><title>2026-W15 · Bash: +271</title></rect><rect x="572.00" y="370.58" width="69.00" height="2.62" fill="url(#g-yaml)"><title>2026-W15 · YAML: +2,975</title></rect><rect x="572.00" y="369.38" width="69.00" height="1.20" fill="url(#g-astro)"><title>2026-W15 · Astro: +214</title></rect><rect x="572.00" y="368.18" width="69.00" height="1.20" fill="url(#g-terraform)"><title>2026-W15 · Terraform: +451</title></rect><rect x="572.00" y="366.51" width="69.00" height="1.68" fill="url(#g-python)"><title>2026-W15 · Python: +1,905</title></rect><rect x="572.00" y="358.64" width="69.00" height="7.86" fill="url(#g-markdown)"><title>2026-W15 · Markdown: +8,934</title></rect><rect x="572.00" y="354.07" width="69.00" height="4.58" fill="url(#g-json)"><title>2026-W15 · JSON: +5,201</title></rect><path d="M 572.00,354.07 V 339.16 Q 572.00,336.66 574.50,336.66 H 638.50 Q 641.00,336.66 641.00,339.16 V 354.07 Z" fill="url(#g-typescript)"><title>2026-W15 · TypeScript: +19,783</title></path><rect x="644.00" y="382.80" width="69.00" height="1.20" fill="url(#g-toml)"><title>2026-W16 · TOML: +159</title></rect><rect x="644.00" y="381.60" width="69.00" height="1.20" fill="url(#g-dockerfile)"><title>2026-W16 · Dockerfile: +35</title></rect><rect x="644.00" y="380.40" width="69.00" height="1.20" fill="url(#g-svg)"><title>2026-W16 · SVG: +608</title></rect><rect x="644.00" y="379.20" width="69.00" height="1.20" fill="url(#g-css)"><title>2026-W16 · CSS: +120</title></rect><rect x="644.00" y="376.40" width="69.00" height="2.80" fill="url(#g-rust)"><title>2026-W16 · Rust: +3,177</title></rect><rect x="644.00" y="375.20" width="69.00" height="1.21" fill="url(#g-svelte)"><title>2026-W16 · Svelte: +1,373</title></rect><rect x="644.00" y="374.00" width="69.00" height="1.20" fill="url(#g-html)"><title>2026-W16 · HTML: +897</title></rect><rect x="644.00" y="372.80" width="69.00" height="1.20" fill="url(#g-bash)"><title>2026-W16 · Bash: +1,074</title></rect><rect x="644.00" y="371.60" width="69.00" height="1.20" fill="url(#g-yaml)"><title>2026-W16 · YAML: +737</title></rect><rect x="644.00" y="370.24" width="69.00" height="1.35" fill="url(#g-astro)"><title>2026-W16 · Astro: +1,539</title></rect><rect x="644.00" y="368.27" width="69.00" height="1.97" fill="url(#g-terraform)"><title>2026-W16 · Terraform: +2,242</title></rect><rect x="644.00" y="362.49" width="69.00" height="5.78" fill="url(#g-python)"><title>2026-W16 · Python: +6,567</title></rect><rect x="644.00" y="353.01" width="69.00" height="9.48" fill="url(#g-markdown)"><title>2026-W16 · Markdown: +10,770</title></rect><rect x="644.00" y="351.81" width="69.00" height="1.20" fill="url(#g-json)"><title>2026-W16 · JSON: +463</title></rect><path d="M 644.00,351.81 V 318.68 Q 644.00,316.18 646.50,316.18 H 710.50 Q 713.00,316.18 713.00,318.68 V 351.81 Z" fill="url(#g-typescript)"><title>2026-W16 · TypeScript: +40,493</title></path><rect x="716.00" y="382.80" width="69.00" height="1.20" fill="url(#g-php)"><title>2026-W17 · PHP: +156</title></rect><rect x="716.00" y="381.60" width="69.00" height="1.20" fill="url(#g-make)"><title>2026-W17 · Make: +6</title></rect><rect x="716.00" y="380.40" width="69.00" height="1.20" fill="url(#g-go)"><title>2026-W17 · Go: +277</title></rect><rect x="716.00" y="379.20" width="69.00" height="1.20" fill="url(#g-toml)"><title>2026-W17 · TOML: +75</title></rect><rect x="716.00" y="378.00" width="69.00" height="1.20" fill="url(#g-dockerfile)"><title>2026-W17 · Dockerfile: +260</title></rect><rect x="716.00" y="376.80" width="69.00" height="1.20" fill="url(#g-sql)"><title>2026-W17 · SQL: +94</title></rect><rect x="716.00" y="375.60" width="69.00" height="1.20" fill="url(#g-text)"><title>2026-W17 · Text: +989</title></rect><rect x="716.00" y="374.40" width="69.00" height="1.20" fill="url(#g-svg)"><title>2026-W17 · SVG: +1,013</title></rect><rect x="716.00" y="373.20" width="69.00" height="1.20" fill="url(#g-css)"><title>2026-W17 · CSS: +1,561</title></rect><rect x="716.00" y="372.00" width="69.00" height="1.20" fill="url(#g-rust)"><title>2026-W17 · Rust: +498</title></rect><rect x="716.00" y="370.80" width="69.00" height="1.20" fill="url(#g-html)"><title>2026-W17 · HTML: +127</title></rect><rect x="716.00" y="369.60" width="69.00" height="1.20" fill="url(#g-bash)"><title>2026-W17 · Bash: +878</title></rect><rect x="716.00" y="368.40" width="69.00" height="1.20" fill="url(#g-yaml)"><title>2026-W17 · YAML: +2,587</title></rect><rect x="716.00" y="367.20" width="69.00" height="1.20" fill="url(#g-astro)"><title>2026-W17 · Astro: +191</title></rect><rect x="716.00" y="365.91" width="69.00" height="1.29" fill="url(#g-terraform)"><title>2026-W17 · Terraform: +4,389</title></rect><rect x="716.00" y="364.71" width="69.00" height="1.20" fill="url(#g-python)"><title>2026-W17 · Python: +2,701</title></rect><rect x="716.00" y="339.13" width="69.00" height="25.58" fill="url(#g-markdown)"><title>2026-W17 · Markdown: +86,757</title></rect><rect x="716.00" y="300.51" width="69.00" height="38.62" fill="url(#g-json)"><title>2026-W17 · JSON: +131,007</title></rect><path d="M 716.00,300.51 V 206.42 Q 716.00,203.92 718.50,203.92 H 782.50 Q 785.00,203.92 785.00,206.42 V 300.51 Z" fill="url(#g-typescript)"><title>2026-W17 · TypeScript: +327,601</title></path><rect x="788.00" y="382.80" width="69.00" height="1.20" fill="url(#g-make)"><title>2026-W18 · Make: +25</title></rect><rect x="788.00" y="381.60" width="69.00" height="1.20" fill="url(#g-toml)"><title>2026-W18 · TOML: +117</title></rect><rect x="788.00" y="380.40" width="69.00" height="1.20" fill="url(#g-dockerfile)"><title>2026-W18 · Dockerfile: +249</title></rect><rect x="788.00" y="379.20" width="69.00" height="1.20" fill="url(#g-sql)"><title>2026-W18 · SQL: +934</title></rect><rect x="788.00" y="378.00" width="69.00" height="1.20" fill="url(#g-text)"><title>2026-W18 · Text: +284</title></rect><rect x="788.00" y="376.80" width="69.00" height="1.20" fill="url(#g-css)"><title>2026-W18 · CSS: +263</title></rect><rect x="788.00" y="375.60" width="69.00" height="1.20" fill="url(#g-svelte)"><title>2026-W18 · Svelte: +450</title></rect><rect x="788.00" y="367.99" width="69.00" height="7.61" fill="url(#g-html)"><title>2026-W18 · HTML: +8,643</title></rect><rect x="788.00" y="366.45" width="69.00" height="1.55" fill="url(#g-bash)"><title>2026-W18 · Bash: +1,758</title></rect><rect x="788.00" y="364.37" width="69.00" height="2.08" fill="url(#g-yaml)"><title>2026-W18 · YAML: +2,362</title></rect><rect x="788.00" y="363.17" width="69.00" height="1.20" fill="url(#g-astro)"><title>2026-W18 · Astro: +445</title></rect><rect x="788.00" y="361.45" width="69.00" height="1.72" fill="url(#g-terraform)"><title>2026-W18 · Terraform: +1,957</title></rect><rect x="788.00" y="355.20" width="69.00" height="6.24" fill="url(#g-python)"><title>2026-W18 · Python: +7,093</title></rect><rect x="788.00" y="349.54" width="69.00" height="5.67" fill="url(#g-markdown)"><title>2026-W18 · Markdown: +6,438</title></rect><rect x="788.00" y="339.40" width="69.00" height="10.14" fill="url(#g-json)"><title>2026-W18 · JSON: +11,522</title></rect><path d="M 788.00,339.40 V 329.30 Q 788.00,326.80 790.50,326.80 H 854.50 Q 857.00,326.80 857.00,329.30 V 339.40 Z" fill="url(#g-typescript)"><title>2026-W18 · TypeScript: +14,318</title></path><rect x="860.00" y="382.80" width="69.00" height="1.20" fill="url(#g-toml)"><title>2026-W19 · TOML: +70</title></rect><rect x="860.00" y="381.60" width="69.00" height="1.20" fill="url(#g-dockerfile)"><title>2026-W19 · Dockerfile: +1</title></rect><rect x="860.00" y="380.40" width="69.00" height="1.20" fill="url(#g-sql)"><title>2026-W19 · SQL: +31</title></rect><rect x="860.00" y="379.20" width="69.00" height="1.20" fill="url(#g-text)"><title>2026-W19 · Text: +5</title></rect><rect x="860.00" y="378.00" width="69.00" height="1.20" fill="url(#g-svg)"><title>2026-W19 · SVG: +51</title></rect><rect x="860.00" y="375.09" width="69.00" height="2.91" fill="url(#g-css)"><title>2026-W19 · CSS: +3,310</title></rect><rect x="860.00" y="372.64" width="69.00" height="2.44" fill="url(#g-rust)"><title>2026-W19 · Rust: +2,777</title></rect><rect x="860.00" y="371.22" width="69.00" height="1.42" fill="url(#g-svelte)"><title>2026-W19 · Svelte: +1,619</title></rect><rect x="860.00" y="369.24" width="69.00" height="1.97" fill="url(#g-html)"><title>2026-W19 · HTML: +2,244</title></rect><rect x="860.00" y="367.62" width="69.00" height="1.62" fill="url(#g-bash)"><title>2026-W19 · Bash: +1,841</title></rect><rect x="860.00" y="366.42" width="69.00" height="1.20" fill="url(#g-yaml)"><title>2026-W19 · YAML: +1,362</title></rect><rect x="860.00" y="365.22" width="69.00" height="1.20" fill="url(#g-astro)"><title>2026-W19 · Astro: +259</title></rect><rect x="860.00" y="361.28" width="69.00" height="3.95" fill="url(#g-terraform)"><title>2026-W19 · Terraform: +4,483</title></rect><rect x="860.00" y="358.16" width="69.00" height="3.12" fill="url(#g-python)"><title>2026-W19 · Python: +3,546</title></rect><rect x="860.00" y="348.73" width="69.00" height="9.43" fill="url(#g-markdown)"><title>2026-W19 · Markdown: +10,717</title></rect><rect x="860.00" y="321.52" width="69.00" height="27.20" fill="url(#g-json)"><title>2026-W19 · JSON: +30,912</title></rect><path d="M 860.00,321.52 V 303.09 Q 860.00,300.59 862.50,300.59 H 926.50 Q 929.00,300.59 929.00,303.09 V 321.52 Z" fill="url(#g-typescript)"><title>2026-W19 · TypeScript: +23,795</title></path>

  <!-- Clipped-outlier indicators -->
  <path d="M 745.5 214 L 750.5 209 L 755.5 214" stroke="var(--fg)" stroke-width="1.6" stroke-linecap="round" stroke-linejoin="round" fill="none" opacity="0.85"/><text x="750.5" y="204" text-anchor="middle" class="clip-label">+561k</text>

  <!-- X-axis labels -->
  <text x="246.5" y="402.0" text-anchor="middle" class="axis">MAR</text><text x="606.5" y="402.0" text-anchor="middle" class="axis">APR</text><text x="894.5" y="402.0" text-anchor="middle" class="axis">MAY</text>

  <!-- Activity pulse section (commits + repos sparklines) -->
  <text x="28" y="408" class="section">ACTIVITY PULSE</text>
  <text x="932" y="408" class="period" text-anchor="end">weekly cadence</text>
  <rect x="28.0" y="420" width="440.0" height="36" rx="8" fill="url(#card-bg)" stroke="var(--border)"/><circle cx="40.0" cy="438.0" r="3.5" fill="#22C55E"/><text x="52.0" y="441.5" class="kpi-label">COMMITS</text><text x="116.0" y="443.0" class="pulse-val mono">4,137</text><text x="456.0" y="442.0" class="pulse-peak mono" fill="#22C55E" text-anchor="end">↑1,152</text><polygon points="178.0,450.0 178.0,449.7 199.3,448.2 220.5,447.7 241.8,447.6 263.1,447.7 284.4,447.2 305.6,446.9 326.9,440.6 348.2,426.6 369.5,426.0 390.7,446.5 412.0,439.1 412.0,450.0" fill="#22C55E" opacity="0.18"/><polyline points="178.0,449.7 199.3,448.2 220.5,447.7 241.8,447.6 263.1,447.7 284.4,447.2 305.6,446.9 326.9,440.6 348.2,426.6 369.5,426.0 390.7,446.5 412.0,439.1" fill="none" stroke="#22C55E" stroke-width="1.5" stroke-linejoin="round" stroke-linecap="round"/><rect x="492.0" y="420" width="440.0" height="36" rx="8" fill="url(#card-bg)" stroke="var(--border)"/><circle cx="504.0" cy="438.0" r="3.5" fill="#F97316"/><text x="516.0" y="441.5" class="kpi-label">REPOS</text><text x="580.0" y="443.0" class="pulse-val mono">24</text><text x="920.0" y="442.0" class="pulse-peak mono" fill="#F97316" text-anchor="end">↑16</text><polygon points="642.0,450.0 642.0,448.5 663.3,445.5 684.5,444.0 705.8,442.5 727.1,439.5 748.4,435.0 769.6,438.0 790.9,435.0 812.2,436.5 833.5,432.0 854.7,430.5 876.0,426.0 876.0,450.0" fill="#F97316" opacity="0.18"/><polyline points="642.0,448.5 663.3,445.5 684.5,444.0 705.8,442.5 727.1,439.5 748.4,435.0 769.6,438.0 790.9,435.0 812.2,436.5 833.5,432.0 854.7,430.5 876.0,426.0" fill="none" stroke="#F97316" stroke-width="1.5" stroke-linejoin="round" stroke-linecap="round"/>

  <!-- Language breakdown section title -->
  <text x="28" y="480" class="section">LANGUAGE BREAKDOWN</text>
  <text x="932" y="480" class="period" text-anchor="end">
    ranked by lines added
  </text>

  <circle cx="33.0" cy="498" r="4" fill="#3178C6"/><text x="44.0" y="502" class="lb-name">TypeScript</text><rect x="120.0" y="495" width="252.0" height="6" rx="3" fill="var(--track)"/><rect x="120.0" y="495" width="252.0" height="6" rx="3" fill="url(#g-typescript)"/><text x="408.0" y="502" class="lb-val" text-anchor="end">+474k</text><text x="460.0" y="502" class="lb-pct" text-anchor="end">43.4%</text><circle cx="33.0" cy="518" r="4" fill="#14B8A6"/><text x="44.0" y="522" class="lb-name">JSON</text><rect x="120.0" y="515" width="252.0" height="6" rx="3" fill="var(--track)"/><rect x="120.0" y="515" width="158.3" height="6" rx="3" fill="url(#g-json)"/><text x="408.0" y="522" class="lb-val" text-anchor="end">+298k</text><text x="460.0" y="522" class="lb-pct" text-anchor="end">27.3%</text><circle cx="33.0" cy="538" r="4" fill="#8B5CF6"/><text x="44.0" y="542" class="lb-name">Markdown</text><rect x="120.0" y="535" width="252.0" height="6" rx="3" fill="var(--track)"/><rect x="120.0" y="535" width="95.2" height="6" rx="3" fill="url(#g-markdown)"/><text x="408.0" y="542" class="lb-val" text-anchor="end">+179k</text><text x="460.0" y="542" class="lb-pct" text-anchor="end">16.4%</text><circle cx="33.0" cy="558" r="4" fill="#3776AB"/><text x="44.0" y="562" class="lb-name">Python</text><rect x="120.0" y="555" width="252.0" height="6" rx="3" fill="var(--track)"/><rect x="120.0" y="555" width="16.8" height="6" rx="3" fill="url(#g-python)"/><text x="408.0" y="562" class="lb-val" text-anchor="end">+32k</text><text x="460.0" y="562" class="lb-pct" text-anchor="end">2.9%</text><circle cx="33.0" cy="578" r="4" fill="#6366F1"/><text x="44.0" y="582" class="lb-name">Terraform</text><rect x="120.0" y="575" width="252.0" height="6" rx="3" fill="var(--track)"/><rect x="120.0" y="575" width="10.9" height="6" rx="3" fill="url(#g-terraform)"/><text x="408.0" y="582" class="lb-val" text-anchor="end">+21k</text><text x="460.0" y="582" class="lb-pct" text-anchor="end">1.9%</text><circle cx="33.0" cy="598" r="4" fill="#FF5D01"/><text x="44.0" y="602" class="lb-name">Astro</text><rect x="120.0" y="595" width="252.0" height="6" rx="3" fill="var(--track)"/><rect x="120.0" y="595" width="9.4" height="6" rx="3" fill="url(#g-astro)"/><text x="408.0" y="602" class="lb-val" text-anchor="end">+18k</text><text x="460.0" y="602" class="lb-pct" text-anchor="end">1.6%</text><circle cx="33.0" cy="618" r="4" fill="#EC4899"/><text x="44.0" y="622" class="lb-name">YAML</text><rect x="120.0" y="615" width="252.0" height="6" rx="3" fill="var(--track)"/><rect x="120.0" y="615" width="7.0" height="6" rx="3" fill="url(#g-yaml)"/><text x="408.0" y="622" class="lb-val" text-anchor="end">+13k</text><text x="460.0" y="622" class="lb-pct" text-anchor="end">1.2%</text><circle cx="33.0" cy="638" r="4" fill="#22C55E"/><text x="44.0" y="642" class="lb-name">Bash</text><rect x="120.0" y="635" width="252.0" height="6" rx="3" fill="var(--track)"/><rect x="120.0" y="635" width="6.8" height="6" rx="3" fill="url(#g-bash)"/><text x="408.0" y="642" class="lb-val" text-anchor="end">+13k</text><text x="460.0" y="642" class="lb-pct" text-anchor="end">1.2%</text><circle cx="33.0" cy="658" r="4" fill="#E34C26"/><text x="44.0" y="662" class="lb-name">HTML</text><rect x="120.0" y="655" width="252.0" height="6" rx="3" fill="var(--track)"/><rect x="120.0" y="655" width="6.5" height="6" rx="3" fill="url(#g-html)"/><text x="408.0" y="662" class="lb-val" text-anchor="end">+12k</text><text x="460.0" y="662" class="lb-pct" text-anchor="end">1.1%</text><circle cx="33.0" cy="678" r="4" fill="#FF3E00"/><text x="44.0" y="682" class="lb-name">Svelte</text><rect x="120.0" y="675" width="252.0" height="6" rx="3" fill="var(--track)"/><rect x="120.0" y="675" width="5.2" height="6" rx="3" fill="url(#g-svelte)"/><text x="408.0" y="682" class="lb-val" text-anchor="end">+9.8k</text><text x="460.0" y="682" class="lb-pct" text-anchor="end">0.9%</text><circle cx="505.0" cy="498" r="4" fill="#F97316"/><text x="516.0" y="502" class="lb-name">Rust</text><rect x="592.0" y="495" width="252.0" height="6" rx="3" fill="var(--track)"/><rect x="592.0" y="495" width="5.2" height="6" rx="3" fill="url(#g-rust)"/><text x="880.0" y="502" class="lb-val" text-anchor="end">+9.7k</text><text x="932.0" y="502" class="lb-pct" text-anchor="end">0.9%</text><circle cx="505.0" cy="518" r="4" fill="#563D7C"/><text x="516.0" y="522" class="lb-name">CSS</text><rect x="592.0" y="515" width="252.0" height="6" rx="3" fill="var(--track)"/><rect x="592.0" y="515" width="3.1" height="6" rx="3" fill="url(#g-css)"/><text x="880.0" y="522" class="lb-val" text-anchor="end">+5.9k</text><text x="932.0" y="522" class="lb-pct" text-anchor="end">0.5%</text><circle cx="505.0" cy="538" r="4" fill="#6B7280"/><text x="516.0" y="542" class="lb-name">SVG</text><rect x="592.0" y="535" width="252.0" height="6" rx="3" fill="var(--track)"/><rect x="592.0" y="535" width="1.1" height="6" rx="3" fill="url(#g-svg)"/><text x="880.0" y="542" class="lb-val" text-anchor="end">+2k</text><text x="932.0" y="542" class="lb-pct" text-anchor="end">0.2%</text><circle cx="505.0" cy="558" r="4" fill="#94A3B8"/><text x="516.0" y="562" class="lb-name">Text</text><rect x="592.0" y="555" width="252.0" height="6" rx="3" fill="var(--track)"/><rect x="592.0" y="555" width="0.8" height="6" rx="3" fill="url(#g-text)"/><text x="880.0" y="562" class="lb-val" text-anchor="end">+1.6k</text><text x="932.0" y="562" class="lb-pct" text-anchor="end">0.1%</text><circle cx="505.0" cy="578" r="4" fill="#F59E0B"/><text x="516.0" y="582" class="lb-name">SQL</text><rect x="592.0" y="575" width="252.0" height="6" rx="3" fill="var(--track)"/><rect x="592.0" y="575" width="0.6" height="6" rx="3" fill="url(#g-sql)"/><text x="880.0" y="582" class="lb-val" text-anchor="end">+1.1k</text><text x="932.0" y="582" class="lb-pct" text-anchor="end">0.1%</text><circle cx="505.0" cy="598" r="4" fill="#2496ED"/><text x="516.0" y="602" class="lb-name">Dockerfile</text><rect x="592.0" y="595" width="252.0" height="6" rx="3" fill="var(--track)"/><rect x="592.0" y="595" width="0.5" height="6" rx="3" fill="url(#g-dockerfile)"/><text x="880.0" y="602" class="lb-val" text-anchor="end">+893</text><text x="932.0" y="602" class="lb-pct" text-anchor="end">0.1%</text><circle cx="505.0" cy="618" r="4" fill="#9C4221"/><text x="516.0" y="622" class="lb-name">TOML</text><rect x="592.0" y="615" width="252.0" height="6" rx="3" fill="var(--track)"/><rect x="592.0" y="615" width="0.4" height="6" rx="3" fill="url(#g-toml)"/><text x="880.0" y="622" class="lb-val" text-anchor="end">+690</text><text x="932.0" y="622" class="lb-pct" text-anchor="end">0.1%</text><circle cx="505.0" cy="638" r="4" fill="#06B6D4"/><text x="516.0" y="642" class="lb-name">Go</text><rect x="592.0" y="635" width="252.0" height="6" rx="3" fill="var(--track)"/><rect x="592.0" y="635" width="0.1" height="6" rx="3" fill="url(#g-go)"/><text x="880.0" y="642" class="lb-val" text-anchor="end">+277</text><text x="932.0" y="642" class="lb-pct" text-anchor="end">0.0%</text><circle cx="505.0" cy="658" r="4" fill="#6D8086"/><text x="516.0" y="662" class="lb-name">Make</text><rect x="592.0" y="655" width="252.0" height="6" rx="3" fill="var(--track)"/><rect x="592.0" y="655" width="0.1" height="6" rx="3" fill="url(#g-make)"/><text x="880.0" y="662" class="lb-val" text-anchor="end">+270</text><text x="932.0" y="662" class="lb-pct" text-anchor="end">0.0%</text><circle cx="505.0" cy="678" r="4" fill="#777BB4"/><text x="516.0" y="682" class="lb-name">PHP</text><rect x="592.0" y="675" width="252.0" height="6" rx="3" fill="var(--track)"/><rect x="592.0" y="675" width="0.1" height="6" rx="3" fill="url(#g-php)"/><text x="880.0" y="682" class="lb-val" text-anchor="end">+156</text><text x="932.0" y="682" class="lb-pct" text-anchor="end">0.0%</text>

  <!-- Footer -->
  <line x1="28" y1="722" x2="932" y2="722"
        stroke="var(--border)" stroke-width="1"/>
  <text x="28" y="738" class="footer">
    Generated 2026-05-10 · git diff-tree --numstat · non-forked, non-archived repos
  </text>
  <text x="932" y="738" class="footer" text-anchor="end">
    github.com · auto-updated
  </text>
</svg>