<svg xmlns="http://www.w3.org/2000/svg"
     viewBox="0 0 960 580"
     width="960" height="580"
     role="img" aria-label="Developer activity — weekly lines of code by language">

  <defs>
    <style>
      svg {
        --bg:        #FFFFFF;
        --fg:        #0F172A;
        --muted:     #64748B;
        --subtle:    #94A3B8;
        --border:    #E2E8F0;
        --grid:      #EEF2F6;
        --track:     #EEF2F6;
        --card-top:  #FFFFFF;
        --card-bot:  #F8FAFC;
        --accent:    #3178C6;
      }
      @media (prefers-color-scheme: dark) {
        svg {
          --bg:        #0D1117;
          --fg:        #E6EDF3;
          --muted:     #8B949E;
          --subtle:    #6E7681;
          --border:    #21262D;
          --grid:      #161B22;
          --track:     #1C2128;
          --card-top:  #161B22;
          --card-bot:  #0D1117;
          --accent:    #58A6FF;
        }
      }
      text {
        font-family: -apple-system, BlinkMacSystemFont, "Segoe UI",
                     "SF Pro Text", "Helvetica Neue", Arial, sans-serif;
        fill: var(--fg);
      }
      .mono {
        font-family: ui-monospace, SFMono-Regular, "SF Mono", Menlo,
                     Consolas, "Liberation Mono", monospace;
        font-variant-numeric: tabular-nums;
      }
      .eyebrow {
        font-size: 11px; font-weight: 600; letter-spacing: 2px;
        fill: var(--muted);
      }
      .period {
        font-size: 11px; fill: var(--muted);
        font-variant-numeric: tabular-nums;
      }
      .section {
        font-size: 10.5px; font-weight: 600; letter-spacing: 1.8px;
        fill: var(--muted);
      }
      .kpi-label {
        font-size: 9.5px; font-weight: 600; letter-spacing: 1.5px;
        fill: var(--muted);
      }
      .kpi-value {
        font-size: 26px; font-weight: 700; fill: var(--fg);
        font-variant-numeric: tabular-nums;
      }
      .kpi-sub {
        font-size: 10.5px; fill: var(--muted);
      }
      .axis {
        font-size: 9.5px; fill: var(--subtle);
        font-variant-numeric: tabular-nums;
      }
      .lb-name { font-size: 11px; font-weight: 500; fill: var(--fg); }
      .lb-val  { font-size: 10.5px; fill: var(--muted);
                  font-variant-numeric: tabular-nums; }
      .lb-pct  { font-size: 10.5px; font-weight: 600; fill: var(--fg);
                  font-variant-numeric: tabular-nums; }
      .clip-label { font-size: 9.5px; font-weight: 600; fill: var(--fg);
                     font-variant-numeric: tabular-nums; }
      .footer { font-size: 9.5px; fill: var(--subtle); }
    </style>
    <linearGradient id="g-javascript" x1="0" y1="0" x2="0" y2="1"><stop offset="0%" stop-color="#F7DF1E" stop-opacity="1"/><stop offset="100%" stop-color="#E9B824" stop-opacity="1"/></linearGradient><linearGradient id="g-typescript" x1="0" y1="0" x2="0" y2="1"><stop offset="0%" stop-color="#5198E8" stop-opacity="1"/><stop offset="100%" stop-color="#3178C6" stop-opacity="1"/></linearGradient><linearGradient id="g-json" x1="0" y1="0" x2="0" y2="1"><stop offset="0%" stop-color="#2DD4BF" stop-opacity="1"/><stop offset="100%" stop-color="#14B8A6" stop-opacity="1"/></linearGradient><linearGradient id="g-markdown" x1="0" y1="0" x2="0" y2="1"><stop offset="0%" stop-color="#A78BFA" stop-opacity="1"/><stop offset="100%" stop-color="#8B5CF6" stop-opacity="1"/></linearGradient><linearGradient id="g-python" x1="0" y1="0" x2="0" y2="1"><stop offset="0%" stop-color="#5497D4" stop-opacity="1"/><stop offset="100%" stop-color="#3776AB" stop-opacity="1"/></linearGradient><linearGradient id="g-yaml" x1="0" y1="0" x2="0" y2="1"><stop offset="0%" stop-color="#F472B6" stop-opacity="1"/><stop offset="100%" stop-color="#EC4899" stop-opacity="1"/></linearGradient><linearGradient id="g-hcl" x1="0" y1="0" x2="0" y2="1"><stop offset="0%" stop-color="#8B8EF7" stop-opacity="1"/><stop offset="100%" stop-color="#6366F1" stop-opacity="1"/></linearGradient><linearGradient id="g-shell" x1="0" y1="0" x2="0" y2="1"><stop offset="0%" stop-color="#4ADE80" stop-opacity="1"/><stop offset="100%" stop-color="#22C55E" stop-opacity="1"/></linearGradient><linearGradient id="g-rust" x1="0" y1="0" x2="0" y2="1"><stop offset="0%" stop-color="#FB9A4A" stop-opacity="1"/><stop offset="100%" stop-color="#F97316" stop-opacity="1"/></linearGradient><linearGradient id="g-css" x1="0" y1="0" x2="0" y2="1"><stop offset="0%" stop-color="#7A58A8" stop-opacity="1"/><stop offset="100%" stop-color="#563D7C" stop-opacity="1"/></linearGradient><linearGradient id="card-bg" x1="0" y1="0" x2="0" y2="1"><stop offset="0%" stop-color="var(--card-top)"/><stop offset="100%" stop-color="var(--card-bot)"/></linearGradient>
  </defs>

  <!-- Canvas -->
  <rect width="960" height="580" fill="var(--bg)" rx="12"/>

  <!-- Header: eyebrow with accent dot (left) + period (right) -->
  <circle cx="32" cy="36" r="4" fill="var(--accent)"/>
  <text x="44" y="40" class="eyebrow">DEVELOPER ACTIVITY</text>
  <text x="932" y="40" class="period" text-anchor="end">Last 18 weeks · 2025-W52 → 2026-W17</text>

  <!-- Divider under header -->
  <line x1="28" y1="54" x2="932" y2="54"
        stroke="var(--border)" stroke-width="1"/>

  <!-- KPI cards -->
  <rect x="28.0" y="72" width="215.5" height="96" rx="10" fill="url(#card-bg)" stroke="var(--border)"/><rect x="28.0" y="84" width="3" height="72" rx="1.5" fill="#22C55E"/><text x="44.0" y="96" class="kpi-label">TOTAL LINES</text><text x="44.0" y="132" class="kpi-value">2.9M</text><text x="44.0" y="154" class="kpi-sub">across 10 languages</text><rect x="257.5" y="72" width="215.5" height="96" rx="10" fill="url(#card-bg)" stroke="var(--border)"/><rect x="257.5" y="84" width="3" height="72" rx="1.5" fill="#E9B824"/><text x="273.5" y="96" class="kpi-label">TOP LANGUAGE</text><text x="273.5" y="132" class="kpi-value">JavaScript</text><text x="273.5" y="154" class="kpi-sub">51.2% of activity</text><rect x="487.0" y="72" width="215.5" height="96" rx="10" fill="url(#card-bg)" stroke="var(--border)"/><rect x="487.0" y="84" width="3" height="72" rx="1.5" fill="#F97316"/><text x="503.0" y="96" class="kpi-label">PEAK WEEK</text><text x="503.0" y="132" class="kpi-value">1.6M</text><text x="503.0" y="154" class="kpi-sub">week of Apr 20</text><rect x="716.5" y="72" width="215.5" height="96" rx="10" fill="url(#card-bg)" stroke="var(--border)"/><rect x="716.5" y="84" width="3" height="72" rx="1.5" fill="#3178C6"/><text x="732.5" y="96" class="kpi-label">WEEKLY AVG</text><text x="732.5" y="132" class="kpi-value">162k</text><text x="732.5" y="154" class="kpi-sub">over 18 weeks</text>

  <!-- Chart section title -->
  <text x="28" y="196" class="section">WEEKLY ACTIVITY</text>
  <text x="932" y="196" class="period" text-anchor="end">
    lines added per ISO week
  </text>

  <!-- Grid -->
  <line x1="68" y1="384.0" x2="932" y2="384.0" stroke="var(--grid)" stroke-width="1"/><line x1="68" y1="340.0" x2="932" y2="340.0" stroke="var(--grid)" stroke-width="1" stroke-dasharray="2,4"/><text x="60" y="343.5" text-anchor="end" class="axis">50k</text><line x1="68" y1="296.0" x2="932" y2="296.0" stroke="var(--grid)" stroke-width="1" stroke-dasharray="2,4"/><text x="60" y="299.5" text-anchor="end" class="axis">100k</text><line x1="68" y1="252.0" x2="932" y2="252.0" stroke="var(--grid)" stroke-width="1" stroke-dasharray="2,4"/><text x="60" y="255.5" text-anchor="end" class="axis">150k</text><line x1="68" y1="208.0" x2="932" y2="208.0" stroke="var(--grid)" stroke-width="1" stroke-dasharray="2,4"/><text x="60" y="211.5" text-anchor="end" class="axis">200k</text>

  <!-- Bars -->
  <rect x="68.00" y="382.80" width="45.00" height="1.20" fill="url(#g-shell)"><title>2025-W52 · Shell: +479</title></rect><rect x="68.00" y="381.60" width="45.00" height="1.20" fill="url(#g-markdown)"><title>2025-W52 · Markdown: +11</title></rect><rect x="68.00" y="380.25" width="45.00" height="1.35" fill="url(#g-json)"><title>2025-W52 · JSON: +1,539</title></rect><path d="M 68.00,380.25 V 380.25 Q 68.00,379.05 69.20,379.05 H 111.80 Q 113.00,379.05 113.00,380.25 V 380.25 Z" fill="url(#g-javascript)"><title>2025-W52 · JavaScript: +1</title></path><rect x="116.00" y="382.80" width="45.00" height="1.20" fill="url(#g-shell)"><title>2026-W01 · Shell: +1,252</title></rect><rect x="116.00" y="381.60" width="45.00" height="1.20" fill="url(#g-yaml)"><title>2026-W01 · YAML: +71</title></rect><rect x="116.00" y="380.40" width="45.00" height="1.20" fill="url(#g-markdown)"><title>2026-W01 · Markdown: +33</title></rect><path d="M 116.00,380.40 V 380.40 Q 116.00,379.20 117.20,379.20 H 159.80 Q 161.00,379.20 161.00,380.40 V 380.40 Z" fill="url(#g-json)"><title>2026-W01 · JSON: +154</title></path><rect x="164.00" y="382.80" width="45.00" height="1.20" fill="url(#g-shell)"><title>2026-W02 · Shell: +1,044</title></rect><rect x="164.00" y="380.07" width="45.00" height="2.73" fill="url(#g-hcl)"><title>2026-W02 · HCL: +3,100</title></rect><rect x="164.00" y="370.37" width="45.00" height="9.70" fill="url(#g-yaml)"><title>2026-W02 · YAML: +11,024</title></rect><rect x="164.00" y="364.87" width="45.00" height="5.50" fill="url(#g-markdown)"><title>2026-W02 · Markdown: +6,252</title></rect><rect x="164.00" y="363.67" width="45.00" height="1.20" fill="url(#g-json)"><title>2026-W02 · JSON: +54</title></rect><rect x="164.00" y="361.65" width="45.00" height="2.02" fill="url(#g-typescript)"><title>2026-W02 · TypeScript: +2,290</title></rect><path d="M 164.00,361.65 V 361.65 Q 164.00,360.45 165.20,360.45 H 207.80 Q 209.00,360.45 209.00,361.65 V 361.65 Z" fill="url(#g-javascript)"><title>2026-W02 · JavaScript: +258</title></path><rect x="212.00" y="382.80" width="45.00" height="1.20" fill="url(#g-shell)"><title>2026-W03 · Shell: +216</title></rect><rect x="212.00" y="381.60" width="45.00" height="1.20" fill="url(#g-python)"><title>2026-W03 · Python: +183</title></rect><rect x="212.00" y="378.30" width="45.00" height="3.30" fill="url(#g-markdown)"><title>2026-W03 · Markdown: +3,745</title></rect><rect x="212.00" y="377.10" width="45.00" height="1.20" fill="url(#g-json)"><title>2026-W03 · JSON: +1,058</title></rect><path d="M 212.00,377.10 V 377.10 Q 212.00,375.90 213.20,375.90 H 255.80 Q 257.00,375.90 257.00,377.10 V 377.10 Z" fill="url(#g-typescript)"><title>2026-W03 · TypeScript: +104</title></path><rect x="260.00" y="382.80" width="45.00" height="1.20" fill="url(#g-css)"><title>2026-W04 · CSS: +1</title></rect><rect x="260.00" y="381.60" width="45.00" height="1.20" fill="url(#g-yaml)"><title>2026-W04 · YAML: +233</title></rect><rect x="260.00" y="379.49" width="45.00" height="2.11" fill="url(#g-python)"><title>2026-W04 · Python: +2,397</title></rect><rect x="260.00" y="358.88" width="45.00" height="20.61" fill="url(#g-markdown)"><title>2026-W04 · Markdown: +23,426</title></rect><rect x="260.00" y="357.68" width="45.00" height="1.20" fill="url(#g-json)"><title>2026-W04 · JSON: +1,281</title></rect><path d="M 260.00,357.68 V 357.68 Q 260.00,356.48 261.20,356.48 H 303.80 Q 305.00,356.48 305.00,357.68 V 357.68 Z" fill="url(#g-javascript)"><title>2026-W04 · JavaScript: +22</title></path><rect x="308.00" y="382.80" width="45.00" height="1.20" fill="url(#g-shell)"><title>2026-W05 · Shell: +77</title></rect><rect x="308.00" y="381.60" width="45.00" height="1.20" fill="url(#g-hcl)"><title>2026-W05 · HCL: +696</title></rect><rect x="308.00" y="379.67" width="45.00" height="1.93" fill="url(#g-yaml)"><title>2026-W05 · YAML: +2,194</title></rect><rect x="308.00" y="367.38" width="45.00" height="12.29" fill="url(#g-python)"><title>2026-W05 · Python: +13,966</title></rect><rect x="308.00" y="356.94" width="45.00" height="10.44" fill="url(#g-markdown)"><title>2026-W05 · Markdown: +11,868</title></rect><rect x="308.00" y="355.74" width="45.00" height="1.20" fill="url(#g-json)"><title>2026-W05 · JSON: +494</title></rect><rect x="308.00" y="354.20" width="45.00" height="1.53" fill="url(#g-typescript)"><title>2026-W05 · TypeScript: +1,742</title></rect><path d="M 308.00,354.20 V 354.20 Q 308.00,353.00 309.20,353.00 H 351.80 Q 353.00,353.00 353.00,354.20 V 354.20 Z" fill="url(#g-javascript)"><title>2026-W05 · JavaScript: +1</title></path><rect x="356.00" y="382.80" width="45.00" height="1.20" fill="url(#g-python)"><title>2026-W06 · Python: +803</title></rect><rect x="356.00" y="381.53" width="45.00" height="1.27" fill="url(#g-markdown)"><title>2026-W06 · Markdown: +1,443</title></rect><path d="M 356.00,381.53 V 381.53 Q 356.00,380.33 357.20,380.33 H 399.80 Q 401.00,380.33 401.00,381.53 V 381.53 Z" fill="url(#g-json)"><title>2026-W06 · JSON: +202</title></path><rect x="404.00" y="382.80" width="45.00" height="1.20" fill="url(#g-shell)"><title>2026-W07 · Shell: +63</title></rect><rect x="404.00" y="381.60" width="45.00" height="1.20" fill="url(#g-hcl)"><title>2026-W07 · HCL: +37</title></rect><rect x="404.00" y="380.40" width="45.00" height="1.20" fill="url(#g-yaml)"><title>2026-W07 · YAML: +2</title></rect><rect x="404.00" y="374.78" width="45.00" height="5.62" fill="url(#g-python)"><title>2026-W07 · Python: +6,384</title></rect><rect x="404.00" y="373.34" width="45.00" height="1.45" fill="url(#g-markdown)"><title>2026-W07 · Markdown: +1,643</title></rect><rect x="404.00" y="372.14" width="45.00" height="1.20" fill="url(#g-json)"><title>2026-W07 · JSON: +267</title></rect><rect x="404.00" y="370.94" width="45.00" height="1.20" fill="url(#g-typescript)"><title>2026-W07 · TypeScript: +61</title></rect><path d="M 404.00,370.94 V 370.94 Q 404.00,369.74 405.20,369.74 H 447.80 Q 449.00,369.74 449.00,370.94 V 370.94 Z" fill="url(#g-javascript)"><title>2026-W07 · JavaScript: +7</title></path><rect x="452.00" y="382.80" width="45.00" height="1.20" fill="url(#g-rust)"><title>2026-W08 · Rust: +118</title></rect><rect x="452.00" y="381.60" width="45.00" height="1.20" fill="url(#g-shell)"><title>2026-W08 · Shell: +405</title></rect><rect x="452.00" y="380.40" width="45.00" height="1.20" fill="url(#g-hcl)"><title>2026-W08 · HCL: +941</title></rect><rect x="452.00" y="379.20" width="45.00" height="1.20" fill="url(#g-yaml)"><title>2026-W08 · YAML: +651</title></rect><rect x="452.00" y="378.00" width="45.00" height="1.20" fill="url(#g-markdown)"><title>2026-W08 · Markdown: +391</title></rect><rect x="452.00" y="376.80" width="45.00" height="1.20" fill="url(#g-json)"><title>2026-W08 · JSON: +6</title></rect><rect x="452.00" y="375.60" width="45.00" height="1.20" fill="url(#g-typescript)"><title>2026-W08 · TypeScript: +86</title></rect><path d="M 452.00,375.60 V 375.60 Q 452.00,374.40 453.20,374.40 H 495.80 Q 497.00,374.40 497.00,375.60 V 375.60 Z" fill="url(#g-javascript)"><title>2026-W08 · JavaScript: +7</title></path><rect x="500.00" y="382.00" width="45.00" height="2.00" fill="url(#g-shell)"><title>2026-W09 · Shell: +2,268</title></rect><rect x="500.00" y="380.80" width="45.00" height="1.20" fill="url(#g-hcl)"><title>2026-W09 · HCL: +906</title></rect><rect x="500.00" y="379.60" width="45.00" height="1.20" fill="url(#g-yaml)"><title>2026-W09 · YAML: +872</title></rect><rect x="500.00" y="370.44" width="45.00" height="9.17" fill="url(#g-python)"><title>2026-W09 · Python: +10,417</title></rect><rect x="500.00" y="363.76" width="45.00" height="6.68" fill="url(#g-markdown)"><title>2026-W09 · Markdown: +7,591</title></rect><rect x="500.00" y="324.85" width="45.00" height="38.91" fill="url(#g-json)"><title>2026-W09 · JSON: +44,212</title></rect><rect x="500.00" y="323.19" width="45.00" height="1.66" fill="url(#g-typescript)"><title>2026-W09 · TypeScript: +1,882</title></rect><path d="M 500.00,323.19 V 323.19 Q 500.00,321.99 501.20,321.99 H 543.80 Q 545.00,321.99 545.00,323.19 V 323.19 Z" fill="url(#g-javascript)"><title>2026-W09 · JavaScript: +569</title></path><rect x="548.00" y="382.80" width="45.00" height="1.20" fill="url(#g-rust)"><title>2026-W10 · Rust: +802</title></rect><rect x="548.00" y="381.60" width="45.00" height="1.20" fill="url(#g-shell)"><title>2026-W10 · Shell: +532</title></rect><rect x="548.00" y="380.40" width="45.00" height="1.20" fill="url(#g-hcl)"><title>2026-W10 · HCL: +1,060</title></rect><rect x="548.00" y="379.20" width="45.00" height="1.20" fill="url(#g-yaml)"><title>2026-W10 · YAML: +1,047</title></rect><rect x="548.00" y="373.63" width="45.00" height="5.57" fill="url(#g-python)"><title>2026-W10 · Python: +6,327</title></rect><rect x="548.00" y="366.46" width="45.00" height="7.17" fill="url(#g-markdown)"><title>2026-W10 · Markdown: +8,150</title></rect><rect x="548.00" y="356.75" width="45.00" height="9.71" fill="url(#g-json)"><title>2026-W10 · JSON: +11,033</title></rect><rect x="548.00" y="354.55" width="45.00" height="2.20" fill="url(#g-typescript)"><title>2026-W10 · TypeScript: +2,500</title></rect><path d="M 548.00,354.55 V 354.55 Q 548.00,353.35 549.20,353.35 H 591.80 Q 593.00,353.35 593.00,354.55 V 354.55 Z" fill="url(#g-javascript)"><title>2026-W10 · JavaScript: +7</title></path><rect x="596.00" y="382.80" width="45.00" height="1.20" fill="url(#g-css)"><title>2026-W11 · CSS: +48</title></rect><rect x="596.00" y="379.74" width="45.00" height="3.06" fill="url(#g-shell)"><title>2026-W11 · Shell: +3,476</title></rect><rect x="596.00" y="378.54" width="45.00" height="1.20" fill="url(#g-hcl)"><title>2026-W11 · HCL: +656</title></rect><rect x="596.00" y="371.98" width="45.00" height="6.56" fill="url(#g-yaml)"><title>2026-W11 · YAML: +7,457</title></rect><rect x="596.00" y="369.99" width="45.00" height="1.99" fill="url(#g-python)"><title>2026-W11 · Python: +2,263</title></rect><rect x="596.00" y="362.48" width="45.00" height="7.51" fill="url(#g-markdown)"><title>2026-W11 · Markdown: +8,533</title></rect><rect x="596.00" y="307.18" width="45.00" height="55.30" fill="url(#g-json)"><title>2026-W11 · JSON: +62,836</title></rect><rect x="596.00" y="301.11" width="45.00" height="6.08" fill="url(#g-typescript)"><title>2026-W11 · TypeScript: +6,905</title></rect><path d="M 596.00,301.11 V 301.11 Q 596.00,299.91 597.20,299.91 H 639.80 Q 641.00,299.91 641.00,301.11 V 301.11 Z" fill="url(#g-javascript)"><title>2026-W11 · JavaScript: +141</title></path><rect x="644.00" y="382.80" width="45.00" height="1.20" fill="url(#g-css)"><title>2026-W12 · CSS: +179</title></rect><rect x="644.00" y="381.60" width="45.00" height="1.20" fill="url(#g-rust)"><title>2026-W12 · Rust: +40</title></rect><rect x="644.00" y="380.06" width="45.00" height="1.54" fill="url(#g-shell)"><title>2026-W12 · Shell: +1,747</title></rect><rect x="644.00" y="378.29" width="45.00" height="1.78" fill="url(#g-hcl)"><title>2026-W12 · HCL: +2,018</title></rect><rect x="644.00" y="377.09" width="45.00" height="1.20" fill="url(#g-yaml)"><title>2026-W12 · YAML: +537</title></rect><rect x="644.00" y="375.89" width="45.00" height="1.20" fill="url(#g-python)"><title>2026-W12 · Python: +627</title></rect><rect x="644.00" y="351.74" width="45.00" height="24.15" fill="url(#g-markdown)"><title>2026-W12 · Markdown: +27,441</title></rect><rect x="644.00" y="349.44" width="45.00" height="2.30" fill="url(#g-json)"><title>2026-W12 · JSON: +2,610</title></rect><rect x="644.00" y="343.30" width="45.00" height="6.14" fill="url(#g-typescript)"><title>2026-W12 · TypeScript: +6,981</title></rect><path d="M 644.00,343.30 V 339.93 Q 644.00,337.43 646.50,337.43 H 686.50 Q 689.00,337.43 689.00,339.93 V 343.30 Z" fill="url(#g-javascript)"><title>2026-W12 · JavaScript: +6,673</title></path><rect x="692.00" y="382.80" width="45.00" height="1.20" fill="url(#g-rust)"><title>2026-W13 · Rust: +214</title></rect><rect x="692.00" y="381.60" width="45.00" height="1.20" fill="url(#g-shell)"><title>2026-W13 · Shell: +417</title></rect><rect x="692.00" y="380.33" width="45.00" height="1.27" fill="url(#g-hcl)"><title>2026-W13 · HCL: +1,440</title></rect><rect x="692.00" y="379.13" width="45.00" height="1.20" fill="url(#g-yaml)"><title>2026-W13 · YAML: +399</title></rect><rect x="692.00" y="376.24" width="45.00" height="2.89" fill="url(#g-python)"><title>2026-W13 · Python: +3,288</title></rect><rect x="692.00" y="372.63" width="45.00" height="3.61" fill="url(#g-markdown)"><title>2026-W13 · Markdown: +4,097</title></rect><rect x="692.00" y="371.43" width="45.00" height="1.20" fill="url(#g-json)"><title>2026-W13 · JSON: +772</title></rect><rect x="692.00" y="359.95" width="45.00" height="11.49" fill="url(#g-typescript)"><title>2026-W13 · TypeScript: +13,052</title></rect><path d="M 692.00,359.95 V 359.75 Q 692.00,357.25 694.50,357.25 H 734.50 Q 737.00,357.25 737.00,359.75 V 359.95 Z" fill="url(#g-javascript)"><title>2026-W13 · JavaScript: +3,068</title></path><rect x="740.00" y="382.80" width="45.00" height="1.20" fill="url(#g-css)"><title>2026-W14 · CSS: +154</title></rect><rect x="740.00" y="381.23" width="45.00" height="1.57" fill="url(#g-rust)"><title>2026-W14 · Rust: +1,781</title></rect><rect x="740.00" y="380.03" width="45.00" height="1.20" fill="url(#g-shell)"><title>2026-W14 · Shell: +988</title></rect><rect x="740.00" y="378.83" width="45.00" height="1.20" fill="url(#g-hcl)"><title>2026-W14 · HCL: +1,318</title></rect><rect x="740.00" y="377.63" width="45.00" height="1.20" fill="url(#g-yaml)"><title>2026-W14 · YAML: +818</title></rect><rect x="740.00" y="372.80" width="45.00" height="4.83" fill="url(#g-python)"><title>2026-W14 · Python: +5,487</title></rect><rect x="740.00" y="365.05" width="45.00" height="7.75" fill="url(#g-markdown)"><title>2026-W14 · Markdown: +8,812</title></rect><rect x="740.00" y="356.52" width="45.00" height="8.53" fill="url(#g-json)"><title>2026-W14 · JSON: +9,693</title></rect><rect x="740.00" y="341.11" width="45.00" height="15.41" fill="url(#g-typescript)"><title>2026-W14 · TypeScript: +17,512</title></rect><path d="M 740.00,341.11 V 341.11 Q 740.00,339.91 741.20,339.91 H 783.80 Q 785.00,339.91 785.00,341.11 V 341.11 Z" fill="url(#g-javascript)"><title>2026-W14 · JavaScript: +1,267</title></path><rect x="788.00" y="382.80" width="45.00" height="1.20" fill="url(#g-css)"><title>2026-W15 · CSS: +291</title></rect><rect x="788.00" y="381.60" width="45.00" height="1.20" fill="url(#g-rust)"><title>2026-W15 · Rust: +1,262</title></rect><rect x="788.00" y="380.40" width="45.00" height="1.20" fill="url(#g-shell)"><title>2026-W15 · Shell: +192</title></rect><rect x="788.00" y="379.20" width="45.00" height="1.20" fill="url(#g-hcl)"><title>2026-W15 · HCL: +451</title></rect><rect x="788.00" y="376.58" width="45.00" height="2.62" fill="url(#g-yaml)"><title>2026-W15 · YAML: +2,975</title></rect><rect x="788.00" y="374.91" width="45.00" height="1.68" fill="url(#g-python)"><title>2026-W15 · Python: +1,905</title></rect><rect x="788.00" y="366.94" width="45.00" height="7.96" fill="url(#g-markdown)"><title>2026-W15 · Markdown: +9,048</title></rect><rect x="788.00" y="355.18" width="45.00" height="11.76" fill="url(#g-json)"><title>2026-W15 · JSON: +13,365</title></rect><rect x="788.00" y="335.07" width="45.00" height="20.11" fill="url(#g-typescript)"><title>2026-W15 · TypeScript: +22,853</title></rect><path d="M 788.00,335.07 V 333.91 Q 788.00,331.41 790.50,331.41 H 830.50 Q 833.00,331.41 833.00,333.91 V 335.07 Z" fill="url(#g-javascript)"><title>2026-W15 · JavaScript: +4,166</title></path><rect x="836.00" y="382.80" width="45.00" height="1.20" fill="url(#g-css)"><title>2026-W16 · CSS: +120</title></rect><rect x="836.00" y="380.00" width="45.00" height="2.80" fill="url(#g-rust)"><title>2026-W16 · Rust: +3,177</title></rect><rect x="836.00" y="378.80" width="45.00" height="1.20" fill="url(#g-shell)"><title>2026-W16 · Shell: +1,013</title></rect><rect x="836.00" y="376.84" width="45.00" height="1.97" fill="url(#g-hcl)"><title>2026-W16 · HCL: +2,236</title></rect><rect x="836.00" y="375.64" width="45.00" height="1.20" fill="url(#g-yaml)"><title>2026-W16 · YAML: +737</title></rect><rect x="836.00" y="369.86" width="45.00" height="5.78" fill="url(#g-python)"><title>2026-W16 · Python: +6,567</title></rect><rect x="836.00" y="360.38" width="45.00" height="9.48" fill="url(#g-markdown)"><title>2026-W16 · Markdown: +10,770</title></rect><rect x="836.00" y="359.18" width="45.00" height="1.20" fill="url(#g-json)"><title>2026-W16 · JSON: +466</title></rect><rect x="836.00" y="328.95" width="45.00" height="30.23" fill="url(#g-typescript)"><title>2026-W16 · TypeScript: +34,353</title></rect><path d="M 836.00,328.95 V 325.73 Q 836.00,323.23 838.50,323.23 H 878.50 Q 881.00,323.23 881.00,325.73 V 328.95 Z" fill="url(#g-javascript)"><title>2026-W16 · JavaScript: +6,495</title></path><rect x="884.00" y="382.80" width="45.00" height="1.20" fill="url(#g-css)"><title>2026-W17 · CSS: +465</title></rect><rect x="884.00" y="381.60" width="45.00" height="1.20" fill="url(#g-rust)"><title>2026-W17 · Rust: +498</title></rect><rect x="884.00" y="380.40" width="45.00" height="1.20" fill="url(#g-shell)"><title>2026-W17 · Shell: +374</title></rect><rect x="884.00" y="379.20" width="45.00" height="1.20" fill="url(#g-hcl)"><title>2026-W17 · HCL: +4,388</title></rect><rect x="884.00" y="378.00" width="45.00" height="1.20" fill="url(#g-yaml)"><title>2026-W17 · YAML: +1,622</title></rect><rect x="884.00" y="376.80" width="45.00" height="1.20" fill="url(#g-python)"><title>2026-W17 · Python: +932</title></rect><rect x="884.00" y="367.96" width="45.00" height="8.84" fill="url(#g-markdown)"><title>2026-W17 · Markdown: +83,466</title></rect><rect x="884.00" y="355.77" width="45.00" height="12.19" fill="url(#g-json)"><title>2026-W17 · JSON: +115,180</title></rect><rect x="884.00" y="324.28" width="45.00" height="31.49" fill="url(#g-typescript)"><title>2026-W17 · TypeScript: +297,417</title></rect><path d="M 884.00,324.28 V 214.74 Q 884.00,212.24 886.50,212.24 H 926.50 Q 929.00,212.24 929.00,214.74 V 324.28 Z" fill="url(#g-javascript)"><title>2026-W17 · JavaScript: +1,058,358</title></path>

  <!-- Clipped-outlier indicators -->
  <path d="M 901.5 214 L 906.5 209 L 911.5 214" stroke="var(--fg)" stroke-width="1.6" stroke-linecap="round" stroke-linejoin="round" fill="none" opacity="0.85"/><text x="906.5" y="204" text-anchor="middle" class="clip-label">+1.6M</text>

  <!-- X-axis labels -->
  <text x="186.5" y="402.0" text-anchor="middle" class="axis">JAN</text><text x="378.5" y="402.0" text-anchor="middle" class="axis">FEB</text><text x="570.5" y="402.0" text-anchor="middle" class="axis">MAR</text><text x="810.5" y="402.0" text-anchor="middle" class="axis">APR</text>

  <!-- Language breakdown section title -->
  <text x="28" y="420" class="section">LANGUAGE BREAKDOWN</text>
  <text x="932" y="420" class="period" text-anchor="end">
    ranked by lines added
  </text>

  <circle cx="33.0" cy="438" r="4" fill="#E9B824"/><text x="44.0" y="442" class="lb-name">JavaScript</text><rect x="120.0" y="435" width="252.0" height="6" rx="3" fill="var(--track)"/><rect x="120.0" y="435" width="252.0" height="6" rx="3" fill="url(#g-javascript)"/><text x="408.0" y="442" class="lb-val" text-anchor="end">+1.5M</text><text x="460.0" y="442" class="lb-pct" text-anchor="end">51.2%</text><circle cx="33.0" cy="458" r="4" fill="#3178C6"/><text x="44.0" y="462" class="lb-name">TypeScript</text><rect x="120.0" y="455" width="252.0" height="6" rx="3" fill="var(--track)"/><rect x="120.0" y="455" width="126.4" height="6" rx="3" fill="url(#g-typescript)"/><text x="408.0" y="462" class="lb-val" text-anchor="end">+749k</text><text x="460.0" y="462" class="lb-pct" text-anchor="end">25.7%</text><circle cx="33.0" cy="478" r="4" fill="#14B8A6"/><text x="44.0" y="482" class="lb-name">JSON</text><rect x="120.0" y="475" width="252.0" height="6" rx="3" fill="var(--track)"/><rect x="120.0" y="475" width="51.5" height="6" rx="3" fill="url(#g-json)"/><text x="408.0" y="482" class="lb-val" text-anchor="end">+305k</text><text x="460.0" y="482" class="lb-pct" text-anchor="end">10.5%</text><circle cx="33.0" cy="498" r="4" fill="#8B5CF6"/><text x="44.0" y="502" class="lb-name">Markdown</text><rect x="120.0" y="495" width="252.0" height="6" rx="3" fill="var(--track)"/><rect x="120.0" y="495" width="38.6" height="6" rx="3" fill="url(#g-markdown)"/><text x="408.0" y="502" class="lb-val" text-anchor="end">+229k</text><text x="460.0" y="502" class="lb-pct" text-anchor="end">7.8%</text><circle cx="33.0" cy="518" r="4" fill="#3776AB"/><text x="44.0" y="522" class="lb-name">Python</text><rect x="120.0" y="515" width="252.0" height="6" rx="3" fill="var(--track)"/><rect x="120.0" y="515" width="10.4" height="6" rx="3" fill="url(#g-python)"/><text x="408.0" y="522" class="lb-val" text-anchor="end">+62k</text><text x="460.0" y="522" class="lb-pct" text-anchor="end">2.1%</text><circle cx="505.0" cy="438" r="4" fill="#EC4899"/><text x="516.0" y="442" class="lb-name">YAML</text><rect x="592.0" y="435" width="252.0" height="6" rx="3" fill="var(--track)"/><rect x="592.0" y="435" width="5.3" height="6" rx="3" fill="url(#g-yaml)"/><text x="880.0" y="442" class="lb-val" text-anchor="end">+31k</text><text x="932.0" y="442" class="lb-pct" text-anchor="end">1.1%</text><circle cx="505.0" cy="458" r="4" fill="#6366F1"/><text x="516.0" y="462" class="lb-name">HCL</text><rect x="592.0" y="455" width="252.0" height="6" rx="3" fill="var(--track)"/><rect x="592.0" y="455" width="3.2" height="6" rx="3" fill="url(#g-hcl)"/><text x="880.0" y="462" class="lb-val" text-anchor="end">+19k</text><text x="932.0" y="462" class="lb-pct" text-anchor="end">0.7%</text><circle cx="505.0" cy="478" r="4" fill="#22C55E"/><text x="516.0" y="482" class="lb-name">Shell</text><rect x="592.0" y="475" width="252.0" height="6" rx="3" fill="var(--track)"/><rect x="592.0" y="475" width="2.5" height="6" rx="3" fill="url(#g-shell)"/><text x="880.0" y="482" class="lb-val" text-anchor="end">+15k</text><text x="932.0" y="482" class="lb-pct" text-anchor="end">0.5%</text><circle cx="505.0" cy="498" r="4" fill="#F97316"/><text x="516.0" y="502" class="lb-name">Rust</text><rect x="592.0" y="495" width="252.0" height="6" rx="3" fill="var(--track)"/><rect x="592.0" y="495" width="1.3" height="6" rx="3" fill="url(#g-rust)"/><text x="880.0" y="502" class="lb-val" text-anchor="end">+7.9k</text><text x="932.0" y="502" class="lb-pct" text-anchor="end">0.3%</text><circle cx="505.0" cy="518" r="4" fill="#563D7C"/><text x="516.0" y="522" class="lb-name">CSS</text><rect x="592.0" y="515" width="252.0" height="6" rx="3" fill="var(--track)"/><rect x="592.0" y="515" width="0.5" height="6" rx="3" fill="url(#g-css)"/><text x="880.0" y="522" class="lb-val" text-anchor="end">+3.2k</text><text x="932.0" y="522" class="lb-pct" text-anchor="end">0.1%</text>

  <!-- Footer -->
  <line x1="28" y1="550" x2="932" y2="550"
        stroke="var(--border)" stroke-width="1"/>
  <text x="28" y="566" class="footer">
    Generated 2026-04-23 · git diff-tree --numstat · non-forked, non-archived repos
  </text>
  <text x="932" y="566" class="footer" text-anchor="end">
    github.com · auto-updated
  </text>
</svg>