<svg xmlns="http://www.w3.org/2000/svg"
     viewBox="0 0 960 580"
     width="960" height="580"
     role="img" aria-label="Developer activity — weekly lines of code by language">

  <defs>
    <style>
      svg {
        --bg:        #FFFFFF;
        --fg:        #0F172A;
        --muted:     #64748B;
        --subtle:    #94A3B8;
        --border:    #E2E8F0;
        --grid:      #EEF2F6;
        --track:     #EEF2F6;
        --card-top:  #FFFFFF;
        --card-bot:  #F8FAFC;
        --accent:    #3178C6;
      }
      @media (prefers-color-scheme: dark) {
        svg {
          --bg:        #0D1117;
          --fg:        #E6EDF3;
          --muted:     #8B949E;
          --subtle:    #6E7681;
          --border:    #21262D;
          --grid:      #161B22;
          --track:     #1C2128;
          --card-top:  #161B22;
          --card-bot:  #0D1117;
          --accent:    #58A6FF;
        }
      }
      text {
        font-family: -apple-system, BlinkMacSystemFont, "Segoe UI",
                     "SF Pro Text", "Helvetica Neue", Arial, sans-serif;
        fill: var(--fg);
      }
      .mono {
        font-family: ui-monospace, SFMono-Regular, "SF Mono", Menlo,
                     Consolas, "Liberation Mono", monospace;
        font-variant-numeric: tabular-nums;
      }
      .eyebrow {
        font-size: 11px; font-weight: 600; letter-spacing: 2px;
        fill: var(--muted);
      }
      .period {
        font-size: 11px; fill: var(--muted);
        font-variant-numeric: tabular-nums;
      }
      .section {
        font-size: 10.5px; font-weight: 600; letter-spacing: 1.8px;
        fill: var(--muted);
      }
      .kpi-label {
        font-size: 9.5px; font-weight: 600; letter-spacing: 1.5px;
        fill: var(--muted);
      }
      .kpi-value {
        font-size: 26px; font-weight: 700; fill: var(--fg);
        font-variant-numeric: tabular-nums;
      }
      .kpi-sub {
        font-size: 10.5px; fill: var(--muted);
      }
      .axis {
        font-size: 9.5px; fill: var(--subtle);
        font-variant-numeric: tabular-nums;
      }
      .lb-name { font-size: 11px; font-weight: 500; fill: var(--fg); }
      .lb-val  { font-size: 10.5px; fill: var(--muted);
                  font-variant-numeric: tabular-nums; }
      .lb-pct  { font-size: 10.5px; font-weight: 600; fill: var(--fg);
                  font-variant-numeric: tabular-nums; }
      .clip-label { font-size: 9.5px; font-weight: 600; fill: var(--fg);
                     font-variant-numeric: tabular-nums; }
      .footer { font-size: 9.5px; fill: var(--subtle); }
    </style>
    <linearGradient id="g-javascript" x1="0" y1="0" x2="0" y2="1"><stop offset="0%" stop-color="#F7DF1E" stop-opacity="1"/><stop offset="100%" stop-color="#E9B824" stop-opacity="1"/></linearGradient><linearGradient id="g-typescript" x1="0" y1="0" x2="0" y2="1"><stop offset="0%" stop-color="#5198E8" stop-opacity="1"/><stop offset="100%" stop-color="#3178C6" stop-opacity="1"/></linearGradient><linearGradient id="g-json" x1="0" y1="0" x2="0" y2="1"><stop offset="0%" stop-color="#2DD4BF" stop-opacity="1"/><stop offset="100%" stop-color="#14B8A6" stop-opacity="1"/></linearGradient><linearGradient id="g-markdown" x1="0" y1="0" x2="0" y2="1"><stop offset="0%" stop-color="#A78BFA" stop-opacity="1"/><stop offset="100%" stop-color="#8B5CF6" stop-opacity="1"/></linearGradient><linearGradient id="g-python" x1="0" y1="0" x2="0" y2="1"><stop offset="0%" stop-color="#5497D4" stop-opacity="1"/><stop offset="100%" stop-color="#3776AB" stop-opacity="1"/></linearGradient><linearGradient id="g-yaml" x1="0" y1="0" x2="0" y2="1"><stop offset="0%" stop-color="#F472B6" stop-opacity="1"/><stop offset="100%" stop-color="#EC4899" stop-opacity="1"/></linearGradient><linearGradient id="g-hcl" x1="0" y1="0" x2="0" y2="1"><stop offset="0%" stop-color="#8B8EF7" stop-opacity="1"/><stop offset="100%" stop-color="#6366F1" stop-opacity="1"/></linearGradient><linearGradient id="g-shell" x1="0" y1="0" x2="0" y2="1"><stop offset="0%" stop-color="#4ADE80" stop-opacity="1"/><stop offset="100%" stop-color="#22C55E" stop-opacity="1"/></linearGradient><linearGradient id="g-html" x1="0" y1="0" x2="0" y2="1"><stop offset="0%" stop-color="#F76E4A" stop-opacity="1"/><stop offset="100%" stop-color="#E34C26" stop-opacity="1"/></linearGradient><linearGradient id="g-rust" x1="0" y1="0" x2="0" y2="1"><stop offset="0%" stop-color="#FB9A4A" stop-opacity="1"/><stop offset="100%" stop-color="#F97316" stop-opacity="1"/></linearGradient><linearGradient id="card-bg" x1="0" y1="0" x2="0" y2="1"><stop offset="0%" stop-color="var(--card-top)"/><stop offset="100%" stop-color="var(--card-bot)"/></linearGradient>
  </defs>

  <!-- Canvas -->
  <rect width="960" height="580" fill="var(--bg)" rx="12"/>

  <!-- Header: eyebrow with accent dot (left) + period (right) -->
  <circle cx="32" cy="36" r="4" fill="var(--accent)"/>
  <text x="44" y="40" class="eyebrow">DEVELOPER ACTIVITY</text>
  <text x="932" y="40" class="period" text-anchor="end">Last 18 weeks · 2026-W02 → 2026-W19</text>

  <!-- Divider under header -->
  <line x1="28" y1="54" x2="932" y2="54"
        stroke="var(--border)" stroke-width="1"/>

  <!-- KPI cards -->
  <rect x="28.0" y="72" width="215.5" height="96" rx="10" fill="url(#card-bg)" stroke="var(--border)"/><rect x="28.0" y="84" width="3" height="72" rx="1.5" fill="#22C55E"/><text x="44.0" y="96" class="kpi-label">TOTAL LINES</text><text x="44.0" y="132" class="kpi-value">2.4M</text><text x="44.0" y="154" class="kpi-sub">across 10 languages</text><rect x="257.5" y="72" width="215.5" height="96" rx="10" fill="url(#card-bg)" stroke="var(--border)"/><rect x="257.5" y="84" width="3" height="72" rx="1.5" fill="#E9B824"/><text x="273.5" y="96" class="kpi-label">TOP LANGUAGE</text><text x="273.5" y="132" class="kpi-value">JavaScript</text><text x="273.5" y="154" class="kpi-sub">45.8% of activity</text><rect x="487.0" y="72" width="215.5" height="96" rx="10" fill="url(#card-bg)" stroke="var(--border)"/><rect x="487.0" y="84" width="3" height="72" rx="1.5" fill="#F97316"/><text x="503.0" y="96" class="kpi-label">PEAK WEEK</text><text x="503.0" y="132" class="kpi-value">1.6M</text><text x="503.0" y="154" class="kpi-sub">week of Apr 20</text><rect x="716.5" y="72" width="215.5" height="96" rx="10" fill="url(#card-bg)" stroke="var(--border)"/><rect x="716.5" y="84" width="3" height="72" rx="1.5" fill="#3178C6"/><text x="732.5" y="96" class="kpi-label">WEEKLY AVG</text><text x="732.5" y="132" class="kpi-value">132k</text><text x="732.5" y="154" class="kpi-sub">over 18 weeks</text>

  <!-- Chart section title -->
  <text x="28" y="196" class="section">WEEKLY ACTIVITY</text>
  <text x="932" y="196" class="period" text-anchor="end">
    lines added per ISO week
  </text>

  <!-- Grid -->
  <line x1="68" y1="384.0" x2="932" y2="384.0" stroke="var(--grid)" stroke-width="1"/><line x1="68" y1="340.0" x2="932" y2="340.0" stroke="var(--grid)" stroke-width="1" stroke-dasharray="2,4"/><text x="60" y="343.5" text-anchor="end" class="axis">75k</text><line x1="68" y1="296.0" x2="932" y2="296.0" stroke="var(--grid)" stroke-width="1" stroke-dasharray="2,4"/><text x="60" y="299.5" text-anchor="end" class="axis">150k</text><line x1="68" y1="252.0" x2="932" y2="252.0" stroke="var(--grid)" stroke-width="1" stroke-dasharray="2,4"/><text x="60" y="255.5" text-anchor="end" class="axis">225k</text><line x1="68" y1="208.0" x2="932" y2="208.0" stroke="var(--grid)" stroke-width="1" stroke-dasharray="2,4"/><text x="60" y="211.5" text-anchor="end" class="axis">300k</text>

  <!-- Bars -->
  <rect x="68.00" y="382.80" width="45.00" height="1.20" fill="url(#g-html)"><title>2026-W02 · HTML: +262</title></rect><rect x="68.00" y="381.60" width="45.00" height="1.20" fill="url(#g-shell)"><title>2026-W02 · Shell: +1,044</title></rect><rect x="68.00" y="379.78" width="45.00" height="1.82" fill="url(#g-hcl)"><title>2026-W02 · HCL: +3,100</title></rect><rect x="68.00" y="373.31" width="45.00" height="6.47" fill="url(#g-yaml)"><title>2026-W02 · YAML: +11,024</title></rect><rect x="68.00" y="369.65" width="45.00" height="3.67" fill="url(#g-markdown)"><title>2026-W02 · Markdown: +6,252</title></rect><rect x="68.00" y="368.45" width="45.00" height="1.20" fill="url(#g-json)"><title>2026-W02 · JSON: +54</title></rect><rect x="68.00" y="367.10" width="45.00" height="1.34" fill="url(#g-typescript)"><title>2026-W02 · TypeScript: +2,290</title></rect><path d="M 68.00,367.10 V 367.10 Q 68.00,365.90 69.20,365.90 H 111.80 Q 113.00,365.90 113.00,367.10 V 367.10 Z" fill="url(#g-javascript)"><title>2026-W02 · JavaScript: +258</title></path><rect x="116.00" y="382.80" width="45.00" height="1.20" fill="url(#g-shell)"><title>2026-W03 · Shell: +216</title></rect><rect x="116.00" y="381.10" width="45.00" height="1.70" fill="url(#g-yaml)"><title>2026-W03 · YAML: +2,906</title></rect><rect x="116.00" y="379.90" width="45.00" height="1.20" fill="url(#g-python)"><title>2026-W03 · Python: +366</title></rect><rect x="116.00" y="376.61" width="45.00" height="3.29" fill="url(#g-markdown)"><title>2026-W03 · Markdown: +5,600</title></rect><rect x="116.00" y="375.41" width="45.00" height="1.20" fill="url(#g-json)"><title>2026-W03 · JSON: +1,208</title></rect><rect x="116.00" y="374.21" width="45.00" height="1.20" fill="url(#g-typescript)"><title>2026-W03 · TypeScript: +439</title></rect><path d="M 116.00,374.21 V 374.21 Q 116.00,373.01 117.20,373.01 H 159.80 Q 161.00,373.01 161.00,374.21 V 374.21 Z" fill="url(#g-javascript)"><title>2026-W03 · JavaScript: +15</title></path><rect x="164.00" y="382.80" width="45.00" height="1.20" fill="url(#g-yaml)"><title>2026-W04 · YAML: +233</title></rect><rect x="164.00" y="381.39" width="45.00" height="1.41" fill="url(#g-python)"><title>2026-W04 · Python: +2,397</title></rect><rect x="164.00" y="367.65" width="45.00" height="13.74" fill="url(#g-markdown)"><title>2026-W04 · Markdown: +23,426</title></rect><rect x="164.00" y="366.45" width="45.00" height="1.20" fill="url(#g-json)"><title>2026-W04 · JSON: +1,281</title></rect><path d="M 164.00,366.45 V 366.45 Q 164.00,365.25 165.20,365.25 H 207.80 Q 209.00,365.25 209.00,366.45 V 366.45 Z" fill="url(#g-javascript)"><title>2026-W04 · JavaScript: +22</title></path><rect x="212.00" y="382.80" width="45.00" height="1.20" fill="url(#g-shell)"><title>2026-W05 · Shell: +2</title></rect><rect x="212.00" y="381.60" width="45.00" height="1.20" fill="url(#g-yaml)"><title>2026-W05 · YAML: +1,894</title></rect><rect x="212.00" y="373.41" width="45.00" height="8.19" fill="url(#g-python)"><title>2026-W05 · Python: +13,966</title></rect><rect x="212.00" y="366.54" width="45.00" height="6.87" fill="url(#g-markdown)"><title>2026-W05 · Markdown: +11,708</title></rect><rect x="212.00" y="365.34" width="45.00" height="1.20" fill="url(#g-json)"><title>2026-W05 · JSON: +367</title></rect><path d="M 212.00,365.34 V 365.34 Q 212.00,364.14 213.20,364.14 H 255.80 Q 257.00,364.14 257.00,365.34 V 365.34 Z" fill="url(#g-typescript)"><title>2026-W05 · TypeScript: +1,695</title></path><rect x="260.00" y="382.80" width="45.00" height="1.20" fill="url(#g-python)"><title>2026-W06 · Python: +803</title></rect><rect x="260.00" y="381.60" width="45.00" height="1.20" fill="url(#g-markdown)"><title>2026-W06 · Markdown: +1,443</title></rect><path d="M 260.00,381.60 V 381.60 Q 260.00,380.40 261.20,380.40 H 303.80 Q 305.00,380.40 305.00,381.60 V 381.60 Z" fill="url(#g-json)"><title>2026-W06 · JSON: +202</title></path><rect x="308.00" y="382.80" width="45.00" height="1.20" fill="url(#g-shell)"><title>2026-W07 · Shell: +113</title></rect><rect x="308.00" y="381.60" width="45.00" height="1.20" fill="url(#g-hcl)"><title>2026-W07 · HCL: +662</title></rect><rect x="308.00" y="380.40" width="45.00" height="1.20" fill="url(#g-yaml)"><title>2026-W07 · YAML: +661</title></rect><rect x="308.00" y="376.65" width="45.00" height="3.75" fill="url(#g-python)"><title>2026-W07 · Python: +6,384</title></rect><rect x="308.00" y="375.45" width="45.00" height="1.20" fill="url(#g-markdown)"><title>2026-W07 · Markdown: +1,335</title></rect><rect x="308.00" y="374.25" width="45.00" height="1.20" fill="url(#g-json)"><title>2026-W07 · JSON: +354</title></rect><rect x="308.00" y="373.05" width="45.00" height="1.20" fill="url(#g-typescript)"><title>2026-W07 · TypeScript: +56</title></rect><path d="M 308.00,373.05 V 373.05 Q 308.00,371.85 309.20,371.85 H 351.80 Q 353.00,371.85 353.00,373.05 V 373.05 Z" fill="url(#g-javascript)"><title>2026-W07 · JavaScript: +8</title></path><rect x="356.00" y="382.80" width="45.00" height="1.20" fill="url(#g-rust)"><title>2026-W08 · Rust: +118</title></rect><rect x="356.00" y="381.60" width="45.00" height="1.20" fill="url(#g-shell)"><title>2026-W08 · Shell: +405</title></rect><rect x="356.00" y="380.40" width="45.00" height="1.20" fill="url(#g-hcl)"><title>2026-W08 · HCL: +895</title></rect><rect x="356.00" y="379.20" width="45.00" height="1.20" fill="url(#g-yaml)"><title>2026-W08 · YAML: +651</title></rect><rect x="356.00" y="378.00" width="45.00" height="1.20" fill="url(#g-markdown)"><title>2026-W08 · Markdown: +259</title></rect><rect x="356.00" y="376.80" width="45.00" height="1.20" fill="url(#g-json)"><title>2026-W08 · JSON: +6</title></rect><rect x="356.00" y="375.60" width="45.00" height="1.20" fill="url(#g-typescript)"><title>2026-W08 · TypeScript: +74</title></rect><path d="M 356.00,375.60 V 375.60 Q 356.00,374.40 357.20,374.40 H 399.80 Q 401.00,374.40 401.00,375.60 V 375.60 Z" fill="url(#g-javascript)"><title>2026-W08 · JavaScript: +6</title></path><rect x="404.00" y="382.67" width="45.00" height="1.33" fill="url(#g-shell)"><title>2026-W09 · Shell: +2,268</title></rect><rect x="404.00" y="381.47" width="45.00" height="1.20" fill="url(#g-hcl)"><title>2026-W09 · HCL: +906</title></rect><rect x="404.00" y="380.27" width="45.00" height="1.20" fill="url(#g-yaml)"><title>2026-W09 · YAML: +872</title></rect><rect x="404.00" y="374.16" width="45.00" height="6.11" fill="url(#g-python)"><title>2026-W09 · Python: +10,417</title></rect><rect x="404.00" y="369.70" width="45.00" height="4.45" fill="url(#g-markdown)"><title>2026-W09 · Markdown: +7,591</title></rect><rect x="404.00" y="343.77" width="45.00" height="25.94" fill="url(#g-json)"><title>2026-W09 · JSON: +44,212</title></rect><rect x="404.00" y="342.57" width="45.00" height="1.20" fill="url(#g-typescript)"><title>2026-W09 · TypeScript: +1,882</title></rect><path d="M 404.00,342.57 V 342.57 Q 404.00,341.37 405.20,341.37 H 447.80 Q 449.00,341.37 449.00,342.57 V 342.57 Z" fill="url(#g-javascript)"><title>2026-W09 · JavaScript: +569</title></path><rect x="452.00" y="382.80" width="45.00" height="1.20" fill="url(#g-rust)"><title>2026-W10 · Rust: +802</title></rect><rect x="452.00" y="381.60" width="45.00" height="1.20" fill="url(#g-html)"><title>2026-W10 · HTML: +1,033</title></rect><rect x="452.00" y="380.40" width="45.00" height="1.20" fill="url(#g-shell)"><title>2026-W10 · Shell: +532</title></rect><rect x="452.00" y="379.20" width="45.00" height="1.20" fill="url(#g-hcl)"><title>2026-W10 · HCL: +1,060</title></rect><rect x="452.00" y="378.00" width="45.00" height="1.20" fill="url(#g-yaml)"><title>2026-W10 · YAML: +1,047</title></rect><rect x="452.00" y="374.29" width="45.00" height="3.71" fill="url(#g-python)"><title>2026-W10 · Python: +6,327</title></rect><rect x="452.00" y="369.51" width="45.00" height="4.78" fill="url(#g-markdown)"><title>2026-W10 · Markdown: +8,150</title></rect><rect x="452.00" y="363.03" width="45.00" height="6.47" fill="url(#g-json)"><title>2026-W10 · JSON: +11,033</title></rect><rect x="452.00" y="361.57" width="45.00" height="1.47" fill="url(#g-typescript)"><title>2026-W10 · TypeScript: +2,500</title></rect><path d="M 452.00,361.57 V 361.57 Q 452.00,360.37 453.20,360.37 H 495.80 Q 497.00,360.37 497.00,361.57 V 361.57 Z" fill="url(#g-javascript)"><title>2026-W10 · JavaScript: +7</title></path><rect x="500.00" y="382.80" width="45.00" height="1.20" fill="url(#g-html)"><title>2026-W11 · HTML: +1,033</title></rect><rect x="500.00" y="380.29" width="45.00" height="2.51" fill="url(#g-shell)"><title>2026-W11 · Shell: +4,273</title></rect><rect x="500.00" y="379.09" width="45.00" height="1.20" fill="url(#g-hcl)"><title>2026-W11 · HCL: +656</title></rect><rect x="500.00" y="373.71" width="45.00" height="5.39" fill="url(#g-yaml)"><title>2026-W11 · YAML: +9,184</title></rect><rect x="500.00" y="353.06" width="45.00" height="20.65" fill="url(#g-python)"><title>2026-W11 · Python: +35,191</title></rect><rect x="500.00" y="323.02" width="45.00" height="30.04" fill="url(#g-markdown)"><title>2026-W11 · Markdown: +51,199</title></rect><rect x="500.00" y="278.33" width="45.00" height="44.69" fill="url(#g-json)"><title>2026-W11 · JSON: +76,176</title></rect><rect x="500.00" y="274.28" width="45.00" height="4.05" fill="url(#g-typescript)"><title>2026-W11 · TypeScript: +6,905</title></rect><path d="M 500.00,274.28 V 274.28 Q 500.00,273.08 501.20,273.08 H 543.80 Q 545.00,273.08 545.00,274.28 V 274.28 Z" fill="url(#g-javascript)"><title>2026-W11 · JavaScript: +141</title></path><rect x="548.00" y="382.80" width="45.00" height="1.20" fill="url(#g-rust)"><title>2026-W12 · Rust: +40</title></rect><rect x="548.00" y="381.60" width="45.00" height="1.20" fill="url(#g-html)"><title>2026-W12 · HTML: +159</title></rect><rect x="548.00" y="380.21" width="45.00" height="1.39" fill="url(#g-shell)"><title>2026-W12 · Shell: +2,364</title></rect><rect x="548.00" y="379.01" width="45.00" height="1.20" fill="url(#g-hcl)"><title>2026-W12 · HCL: +2,018</title></rect><rect x="548.00" y="377.81" width="45.00" height="1.20" fill="url(#g-yaml)"><title>2026-W12 · YAML: +1,232</title></rect><rect x="548.00" y="371.19" width="45.00" height="6.62" fill="url(#g-python)"><title>2026-W12 · Python: +11,292</title></rect><rect x="548.00" y="348.75" width="45.00" height="22.44" fill="url(#g-markdown)"><title>2026-W12 · Markdown: +38,250</title></rect><rect x="548.00" y="339.45" width="45.00" height="9.30" fill="url(#g-json)"><title>2026-W12 · JSON: +15,853</title></rect><rect x="548.00" y="335.35" width="45.00" height="4.10" fill="url(#g-typescript)"><title>2026-W12 · TypeScript: +6,981</title></rect><path d="M 548.00,335.35 V 333.94 Q 548.00,331.44 550.50,331.44 H 590.50 Q 593.00,331.44 593.00,333.94 V 335.35 Z" fill="url(#g-javascript)"><title>2026-W12 · JavaScript: +6,673</title></path><rect x="596.00" y="382.80" width="45.00" height="1.20" fill="url(#g-rust)"><title>2026-W13 · Rust: +214</title></rect><rect x="596.00" y="381.60" width="45.00" height="1.20" fill="url(#g-shell)"><title>2026-W13 · Shell: +1,532</title></rect><rect x="596.00" y="380.40" width="45.00" height="1.20" fill="url(#g-hcl)"><title>2026-W13 · HCL: +1,440</title></rect><rect x="596.00" y="379.20" width="45.00" height="1.20" fill="url(#g-yaml)"><title>2026-W13 · YAML: +636</title></rect><rect x="596.00" y="375.95" width="45.00" height="3.25" fill="url(#g-python)"><title>2026-W13 · Python: +5,548</title></rect><rect x="596.00" y="373.36" width="45.00" height="2.58" fill="url(#g-markdown)"><title>2026-W13 · Markdown: +4,400</title></rect><rect x="596.00" y="372.16" width="45.00" height="1.20" fill="url(#g-json)"><title>2026-W13 · JSON: +860</title></rect><rect x="596.00" y="364.51" width="45.00" height="7.66" fill="url(#g-typescript)"><title>2026-W13 · TypeScript: +13,052</title></rect><path d="M 596.00,364.51 V 364.51 Q 596.00,362.71 597.80,362.71 H 639.20 Q 641.00,362.71 641.00,364.51 V 364.51 Z" fill="url(#g-javascript)"><title>2026-W13 · JavaScript: +3,068</title></path><rect x="644.00" y="382.80" width="45.00" height="1.20" fill="url(#g-rust)"><title>2026-W14 · Rust: +1,781</title></rect><rect x="644.00" y="381.60" width="45.00" height="1.20" fill="url(#g-html)"><title>2026-W14 · HTML: +106</title></rect><rect x="644.00" y="380.40" width="45.00" height="1.20" fill="url(#g-shell)"><title>2026-W14 · Shell: +988</title></rect><rect x="644.00" y="379.20" width="45.00" height="1.20" fill="url(#g-hcl)"><title>2026-W14 · HCL: +1,318</title></rect><rect x="644.00" y="378.00" width="45.00" height="1.20" fill="url(#g-yaml)"><title>2026-W14 · YAML: +881</title></rect><rect x="644.00" y="374.57" width="45.00" height="3.43" fill="url(#g-python)"><title>2026-W14 · Python: +5,853</title></rect><rect x="644.00" y="369.40" width="45.00" height="5.17" fill="url(#g-markdown)"><title>2026-W14 · Markdown: +8,812</title></rect><rect x="644.00" y="363.71" width="45.00" height="5.69" fill="url(#g-json)"><title>2026-W14 · JSON: +9,693</title></rect><rect x="644.00" y="353.44" width="45.00" height="10.27" fill="url(#g-typescript)"><title>2026-W14 · TypeScript: +17,512</title></rect><path d="M 644.00,353.44 V 353.44 Q 644.00,352.24 645.20,352.24 H 687.80 Q 689.00,352.24 689.00,353.44 V 353.44 Z" fill="url(#g-javascript)"><title>2026-W14 · JavaScript: +1,267</title></path><rect x="692.00" y="382.80" width="45.00" height="1.20" fill="url(#g-rust)"><title>2026-W15 · Rust: +1,262</title></rect><rect x="692.00" y="381.60" width="45.00" height="1.20" fill="url(#g-html)"><title>2026-W15 · HTML: +13</title></rect><rect x="692.00" y="380.40" width="45.00" height="1.20" fill="url(#g-shell)"><title>2026-W15 · Shell: +271</title></rect><rect x="692.00" y="379.20" width="45.00" height="1.20" fill="url(#g-hcl)"><title>2026-W15 · HCL: +451</title></rect><rect x="692.00" y="377.45" width="45.00" height="1.75" fill="url(#g-yaml)"><title>2026-W15 · YAML: +2,975</title></rect><rect x="692.00" y="376.25" width="45.00" height="1.20" fill="url(#g-python)"><title>2026-W15 · Python: +1,905</title></rect><rect x="692.00" y="370.95" width="45.00" height="5.31" fill="url(#g-markdown)"><title>2026-W15 · Markdown: +9,049</title></rect><rect x="692.00" y="363.11" width="45.00" height="7.84" fill="url(#g-json)"><title>2026-W15 · JSON: +13,365</title></rect><rect x="692.00" y="349.70" width="45.00" height="13.41" fill="url(#g-typescript)"><title>2026-W15 · TypeScript: +22,853</title></rect><path d="M 692.00,349.70 V 349.70 Q 692.00,347.25 694.44,347.25 H 734.56 Q 737.00,347.25 737.00,349.70 V 349.70 Z" fill="url(#g-javascript)"><title>2026-W15 · JavaScript: +4,166</title></path><rect x="740.00" y="382.14" width="45.00" height="1.86" fill="url(#g-rust)"><title>2026-W16 · Rust: +3,177</title></rect><rect x="740.00" y="380.94" width="45.00" height="1.20" fill="url(#g-html)"><title>2026-W16 · HTML: +897</title></rect><rect x="740.00" y="379.74" width="45.00" height="1.20" fill="url(#g-shell)"><title>2026-W16 · Shell: +1,013</title></rect><rect x="740.00" y="378.42" width="45.00" height="1.31" fill="url(#g-hcl)"><title>2026-W16 · HCL: +2,236</title></rect><rect x="740.00" y="377.22" width="45.00" height="1.20" fill="url(#g-yaml)"><title>2026-W16 · YAML: +737</title></rect><rect x="740.00" y="373.37" width="45.00" height="3.85" fill="url(#g-python)"><title>2026-W16 · Python: +6,567</title></rect><rect x="740.00" y="367.05" width="45.00" height="6.32" fill="url(#g-markdown)"><title>2026-W16 · Markdown: +10,770</title></rect><rect x="740.00" y="365.85" width="45.00" height="1.20" fill="url(#g-json)"><title>2026-W16 · JSON: +466</title></rect><rect x="740.00" y="345.70" width="45.00" height="20.15" fill="url(#g-typescript)"><title>2026-W16 · TypeScript: +34,353</title></rect><path d="M 740.00,345.70 V 344.39 Q 740.00,341.89 742.50,341.89 H 782.50 Q 785.00,341.89 785.00,344.39 V 345.70 Z" fill="url(#g-javascript)"><title>2026-W16 · JavaScript: +6,495</title></path><rect x="788.00" y="382.80" width="45.00" height="1.20" fill="url(#g-rust)"><title>2026-W17 · Rust: +498</title></rect><rect x="788.00" y="381.60" width="45.00" height="1.20" fill="url(#g-html)"><title>2026-W17 · HTML: +127</title></rect><rect x="788.00" y="380.40" width="45.00" height="1.20" fill="url(#g-shell)"><title>2026-W17 · Shell: +878</title></rect><rect x="788.00" y="379.20" width="45.00" height="1.20" fill="url(#g-hcl)"><title>2026-W17 · HCL: +4,389</title></rect><rect x="788.00" y="378.00" width="45.00" height="1.20" fill="url(#g-yaml)"><title>2026-W17 · YAML: +2,587</title></rect><rect x="788.00" y="376.80" width="45.00" height="1.20" fill="url(#g-python)"><title>2026-W17 · Python: +2,701</title></rect><rect x="788.00" y="367.80" width="45.00" height="9.00" fill="url(#g-markdown)"><title>2026-W17 · Markdown: +86,757</title></rect><rect x="788.00" y="354.22" width="45.00" height="13.58" fill="url(#g-json)"><title>2026-W17 · JSON: +131,007</title></rect><rect x="788.00" y="322.71" width="45.00" height="31.51" fill="url(#g-typescript)"><title>2026-W17 · TypeScript: +303,876</title></rect><path d="M 788.00,322.71 V 215.02 Q 788.00,212.52 790.50,212.52 H 830.50 Q 833.00,212.52 833.00,215.02 V 322.71 Z" fill="url(#g-javascript)"><title>2026-W17 · JavaScript: +1,062,708</title></path><rect x="836.00" y="378.93" width="45.00" height="5.07" fill="url(#g-html)"><title>2026-W18 · HTML: +8,643</title></rect><rect x="836.00" y="377.73" width="45.00" height="1.20" fill="url(#g-shell)"><title>2026-W18 · Shell: +1,729</title></rect><rect x="836.00" y="376.53" width="45.00" height="1.20" fill="url(#g-hcl)"><title>2026-W18 · HCL: +1,652</title></rect><rect x="836.00" y="375.14" width="45.00" height="1.39" fill="url(#g-yaml)"><title>2026-W18 · YAML: +2,362</title></rect><rect x="836.00" y="370.98" width="45.00" height="4.16" fill="url(#g-python)"><title>2026-W18 · Python: +7,093</title></rect><rect x="836.00" y="367.21" width="45.00" height="3.78" fill="url(#g-markdown)"><title>2026-W18 · Markdown: +6,438</title></rect><rect x="836.00" y="360.45" width="45.00" height="6.76" fill="url(#g-json)"><title>2026-W18 · JSON: +11,522</title></rect><rect x="836.00" y="352.53" width="45.00" height="7.91" fill="url(#g-typescript)"><title>2026-W18 · TypeScript: +13,487</title></rect><path d="M 836.00,352.53 V 352.53 Q 836.00,351.33 837.20,351.33 H 879.80 Q 881.00,351.33 881.00,352.53 V 352.53 Z" fill="url(#g-javascript)"><title>2026-W18 · JavaScript: +831</title></path><rect x="884.00" y="382.46" width="45.00" height="1.54" fill="url(#g-rust)"><title>2026-W19 · Rust: +2,621</title></rect><rect x="884.00" y="381.19" width="45.00" height="1.28" fill="url(#g-html)"><title>2026-W19 · HTML: +2,176</title></rect><rect x="884.00" y="379.99" width="45.00" height="1.20" fill="url(#g-shell)"><title>2026-W19 · Shell: +1,573</title></rect><rect x="884.00" y="378.61" width="45.00" height="1.37" fill="url(#g-hcl)"><title>2026-W19 · HCL: +2,343</title></rect><rect x="884.00" y="377.41" width="45.00" height="1.20" fill="url(#g-yaml)"><title>2026-W19 · YAML: +803</title></rect><rect x="884.00" y="376.21" width="45.00" height="1.20" fill="url(#g-python)"><title>2026-W19 · Python: +1,502</title></rect><rect x="884.00" y="374.45" width="45.00" height="1.76" fill="url(#g-markdown)"><title>2026-W19 · Markdown: +2,997</title></rect><rect x="884.00" y="365.34" width="45.00" height="9.11" fill="url(#g-json)"><title>2026-W19 · JSON: +15,527</title></rect><rect x="884.00" y="356.95" width="45.00" height="8.39" fill="url(#g-typescript)"><title>2026-W19 · TypeScript: +14,305</title></rect><path d="M 884.00,356.95 V 356.95 Q 884.00,355.75 885.20,355.75 H 927.80 Q 929.00,355.75 929.00,356.95 V 356.95 Z" fill="url(#g-javascript)"><title>2026-W19 · JavaScript: +1,433</title></path>

  <!-- Clipped-outlier indicators -->
  <path d="M 805.5 214 L 810.5 209 L 815.5 214" stroke="var(--fg)" stroke-width="1.6" stroke-linecap="round" stroke-linejoin="round" fill="none" opacity="0.85"/><text x="810.5" y="204" text-anchor="middle" class="clip-label">+1.6M</text>

  <!-- X-axis labels -->
  <text x="90.5" y="402.0" text-anchor="middle" class="axis">JAN</text><text x="282.5" y="402.0" text-anchor="middle" class="axis">FEB</text><text x="474.5" y="402.0" text-anchor="middle" class="axis">MAR</text><text x="714.5" y="402.0" text-anchor="middle" class="axis">APR</text><text x="906.5" y="402.0" text-anchor="middle" class="axis">MAY</text>

  <!-- Language breakdown section title -->
  <text x="28" y="420" class="section">LANGUAGE BREAKDOWN</text>
  <text x="932" y="420" class="period" text-anchor="end">
    ranked by lines added
  </text>

  <circle cx="33.0" cy="438" r="4" fill="#E9B824"/><text x="44.0" y="442" class="lb-name">JavaScript</text><rect x="120.0" y="435" width="252.0" height="6" rx="3" fill="var(--track)"/><rect x="120.0" y="435" width="252.0" height="6" rx="3" fill="url(#g-javascript)"/><text x="408.0" y="442" class="lb-val" text-anchor="end">+1.1M</text><text x="460.0" y="442" class="lb-pct" text-anchor="end">45.8%</text><circle cx="33.0" cy="458" r="4" fill="#3178C6"/><text x="44.0" y="462" class="lb-name">TypeScript</text><rect x="120.0" y="455" width="252.0" height="6" rx="3" fill="var(--track)"/><rect x="120.0" y="455" width="102.5" height="6" rx="3" fill="url(#g-typescript)"/><text x="408.0" y="462" class="lb-val" text-anchor="end">+442k</text><text x="460.0" y="462" class="lb-pct" text-anchor="end">18.6%</text><circle cx="33.0" cy="478" r="4" fill="#14B8A6"/><text x="44.0" y="482" class="lb-name">JSON</text><rect x="120.0" y="475" width="252.0" height="6" rx="3" fill="var(--track)"/><rect x="120.0" y="475" width="77.2" height="6" rx="3" fill="url(#g-json)"/><text x="408.0" y="482" class="lb-val" text-anchor="end">+333k</text><text x="460.0" y="482" class="lb-pct" text-anchor="end">14.0%</text><circle cx="33.0" cy="498" r="4" fill="#8B5CF6"/><text x="44.0" y="502" class="lb-name">Markdown</text><rect x="120.0" y="495" width="252.0" height="6" rx="3" fill="var(--track)"/><rect x="120.0" y="495" width="65.9" height="6" rx="3" fill="url(#g-markdown)"/><text x="408.0" y="502" class="lb-val" text-anchor="end">+284k</text><text x="460.0" y="502" class="lb-pct" text-anchor="end">12.0%</text><circle cx="33.0" cy="518" r="4" fill="#3776AB"/><text x="44.0" y="522" class="lb-name">Python</text><rect x="120.0" y="515" width="252.0" height="6" rx="3" fill="var(--track)"/><rect x="120.0" y="515" width="27.4" height="6" rx="3" fill="url(#g-python)"/><text x="408.0" y="522" class="lb-val" text-anchor="end">+118k</text><text x="460.0" y="522" class="lb-pct" text-anchor="end">5.0%</text><circle cx="505.0" cy="438" r="4" fill="#EC4899"/><text x="516.0" y="442" class="lb-name">YAML</text><rect x="592.0" y="435" width="252.0" height="6" rx="3" fill="var(--track)"/><rect x="592.0" y="435" width="9.4" height="6" rx="3" fill="url(#g-yaml)"/><text x="880.0" y="442" class="lb-val" text-anchor="end">+41k</text><text x="932.0" y="442" class="lb-pct" text-anchor="end">1.7%</text><circle cx="505.0" cy="458" r="4" fill="#6366F1"/><text x="516.0" y="462" class="lb-name">HCL</text><rect x="592.0" y="455" width="252.0" height="6" rx="3" fill="var(--track)"/><rect x="592.0" y="455" width="5.4" height="6" rx="3" fill="url(#g-hcl)"/><text x="880.0" y="462" class="lb-val" text-anchor="end">+23k</text><text x="932.0" y="462" class="lb-pct" text-anchor="end">1.0%</text><circle cx="505.0" cy="478" r="4" fill="#22C55E"/><text x="516.0" y="482" class="lb-name">Shell</text><rect x="592.0" y="475" width="252.0" height="6" rx="3" fill="var(--track)"/><rect x="592.0" y="475" width="4.6" height="6" rx="3" fill="url(#g-shell)"/><text x="880.0" y="482" class="lb-val" text-anchor="end">+20k</text><text x="932.0" y="482" class="lb-pct" text-anchor="end">0.8%</text><circle cx="505.0" cy="498" r="4" fill="#E34C26"/><text x="516.0" y="502" class="lb-name">HTML</text><rect x="592.0" y="495" width="252.0" height="6" rx="3" fill="var(--track)"/><rect x="592.0" y="495" width="3.3" height="6" rx="3" fill="url(#g-html)"/><text x="880.0" y="502" class="lb-val" text-anchor="end">+14k</text><text x="932.0" y="502" class="lb-pct" text-anchor="end">0.6%</text><circle cx="505.0" cy="518" r="4" fill="#F97316"/><text x="516.0" y="522" class="lb-name">Rust</text><rect x="592.0" y="515" width="252.0" height="6" rx="3" fill="var(--track)"/><rect x="592.0" y="515" width="2.4" height="6" rx="3" fill="url(#g-rust)"/><text x="880.0" y="522" class="lb-val" text-anchor="end">+11k</text><text x="932.0" y="522" class="lb-pct" text-anchor="end">0.4%</text>

  <!-- Footer -->
  <line x1="28" y1="550" x2="932" y2="550"
        stroke="var(--border)" stroke-width="1"/>
  <text x="28" y="566" class="footer">
    Generated 2026-05-08 · git diff-tree --numstat · non-forked, non-archived repos
  </text>
  <text x="932" y="566" class="footer" text-anchor="end">
    github.com · auto-updated
  </text>
</svg>