<svg xmlns="http://www.w3.org/2000/svg"
     viewBox="0 0 960 752"
     width="960" height="752"
     role="img" aria-label="Developer activity — weekly lines of code by language">

  <defs>
    <style>
      svg {
        --bg:        #FFFFFF;
        --fg:        #0F172A;
        --muted:     #64748B;
        --subtle:    #94A3B8;
        --border:    #E2E8F0;
        --grid:      #EEF2F6;
        --track:     #EEF2F6;
        --card-top:  #FFFFFF;
        --card-bot:  #F8FAFC;
        --accent:    #3178C6;
      }
      @media (prefers-color-scheme: dark) {
        svg {
          --bg:        #0D1117;
          --fg:        #E6EDF3;
          --muted:     #8B949E;
          --subtle:    #6E7681;
          --border:    #21262D;
          --grid:      #161B22;
          --track:     #1C2128;
          --card-top:  #161B22;
          --card-bot:  #0D1117;
          --accent:    #58A6FF;
        }
      }
      text {
        font-family: -apple-system, BlinkMacSystemFont, "Segoe UI",
                     "SF Pro Text", "Helvetica Neue", Arial, sans-serif;
        fill: var(--fg);
      }
      .mono {
        font-family: ui-monospace, SFMono-Regular, "SF Mono", Menlo,
                     Consolas, "Liberation Mono", monospace;
        font-variant-numeric: tabular-nums;
      }
      .eyebrow {
        font-size: 11px; font-weight: 600; letter-spacing: 2px;
        fill: var(--muted);
      }
      .period {
        font-size: 11px; fill: var(--muted);
        font-variant-numeric: tabular-nums;
      }
      .section {
        font-size: 10.5px; font-weight: 600; letter-spacing: 1.8px;
        fill: var(--muted);
      }
      .kpi-label {
        font-size: 9.5px; font-weight: 600; letter-spacing: 1.5px;
        fill: var(--muted);
      }
      .kpi-value {
        font-size: 26px; font-weight: 700; fill: var(--fg);
        font-variant-numeric: tabular-nums;
      }
      .kpi-sub {
        font-size: 10.5px; fill: var(--muted);
      }
      .axis {
        font-size: 9.5px; fill: var(--subtle);
        font-variant-numeric: tabular-nums;
      }
      .pulse-val {
        font-size: 18px; font-weight: 700; fill: var(--fg);
        font-variant-numeric: tabular-nums;
      }
      .pulse-peak {
        font-size: 11px; font-weight: 600;
        font-variant-numeric: tabular-nums;
      }
      .lb-name { font-size: 11px; font-weight: 500; fill: var(--fg); }
      .lb-val  { font-size: 10.5px; fill: var(--muted);
                  font-variant-numeric: tabular-nums; }
      .lb-pct  { font-size: 10.5px; font-weight: 600; fill: var(--fg);
                  font-variant-numeric: tabular-nums; }
      .clip-label { font-size: 9.5px; font-weight: 600; fill: var(--fg);
                     font-variant-numeric: tabular-nums; }
      .footer { font-size: 9.5px; fill: var(--subtle); }
    </style>
    <linearGradient id="g-typescript" x1="0" y1="0" x2="0" y2="1"><stop offset="0%" stop-color="#5198E8" stop-opacity="1"/><stop offset="100%" stop-color="#3178C6" stop-opacity="1"/></linearGradient><linearGradient id="g-json" x1="0" y1="0" x2="0" y2="1"><stop offset="0%" stop-color="#2DD4BF" stop-opacity="1"/><stop offset="100%" stop-color="#14B8A6" stop-opacity="1"/></linearGradient><linearGradient id="g-markdown" x1="0" y1="0" x2="0" y2="1"><stop offset="0%" stop-color="#A78BFA" stop-opacity="1"/><stop offset="100%" stop-color="#8B5CF6" stop-opacity="1"/></linearGradient><linearGradient id="g-dart" x1="0" y1="0" x2="0" y2="1"><stop offset="0%" stop-color="#2DCFC7" stop-opacity="1"/><stop offset="100%" stop-color="#00B4AB" stop-opacity="1"/></linearGradient><linearGradient id="g-python" x1="0" y1="0" x2="0" y2="1"><stop offset="0%" stop-color="#5497D4" stop-opacity="1"/><stop offset="100%" stop-color="#3776AB" stop-opacity="1"/></linearGradient><linearGradient id="g-rust" x1="0" y1="0" x2="0" y2="1"><stop offset="0%" stop-color="#FB9A4A" stop-opacity="1"/><stop offset="100%" stop-color="#F97316" stop-opacity="1"/></linearGradient><linearGradient id="g-bash" x1="0" y1="0" x2="0" y2="1"><stop offset="0%" stop-color="#4ADE80" stop-opacity="1"/><stop offset="100%" stop-color="#22C55E" stop-opacity="1"/></linearGradient><linearGradient id="g-terraform" x1="0" y1="0" x2="0" y2="1"><stop offset="0%" stop-color="#8B8EF7" stop-opacity="1"/><stop offset="100%" stop-color="#6366F1" stop-opacity="1"/></linearGradient><linearGradient id="g-css" x1="0" y1="0" x2="0" y2="1"><stop offset="0%" stop-color="#7A58A8" stop-opacity="1"/><stop offset="100%" stop-color="#563D7C" stop-opacity="1"/></linearGradient><linearGradient id="g-yaml" x1="0" y1="0" x2="0" y2="1"><stop offset="0%" stop-color="#F472B6" stop-opacity="1"/><stop offset="100%" stop-color="#EC4899" stop-opacity="1"/></linearGradient><linearGradient id="g-html" x1="0" y1="0" x2="0" y2="1"><stop offset="0%" stop-color="#F76E4A" stop-opacity="1"/><stop offset="100%" stop-color="#E34C26" stop-opacity="1"/></linearGradient><linearGradient id="g-svelte" x1="0" y1="0" x2="0" y2="1"><stop offset="0%" stop-color="#FF6A3D" stop-opacity="1"/><stop offset="100%" stop-color="#FF3E00" stop-opacity="1"/></linearGradient><linearGradient id="g-astro" x1="0" y1="0" x2="0" y2="1"><stop offset="0%" stop-color="#FF8338" stop-opacity="1"/><stop offset="100%" stop-color="#FF5D01" stop-opacity="1"/></linearGradient><linearGradient id="g-c" x1="0" y1="0" x2="0" y2="1"><stop offset="0%" stop-color="#94A3B8" stop-opacity="1"/><stop offset="100%" stop-color="#64748B" stop-opacity="1"/></linearGradient><linearGradient id="g-svg" x1="0" y1="0" x2="0" y2="1"><stop offset="0%" stop-color="#9CA3AF" stop-opacity="1"/><stop offset="100%" stop-color="#6B7280" stop-opacity="1"/></linearGradient><linearGradient id="g-toml" x1="0" y1="0" x2="0" y2="1"><stop offset="0%" stop-color="#BE5D3A" stop-opacity="1"/><stop offset="100%" stop-color="#9C4221" stop-opacity="1"/></linearGradient><linearGradient id="g-text" x1="0" y1="0" x2="0" y2="1"><stop offset="0%" stop-color="#CBD5E1" stop-opacity="1"/><stop offset="100%" stop-color="#94A3B8" stop-opacity="1"/></linearGradient><linearGradient id="g-cpp" x1="0" y1="0" x2="0" y2="1"><stop offset="0%" stop-color="#FF75A1" stop-opacity="1"/><stop offset="100%" stop-color="#F34B7D" stop-opacity="1"/></linearGradient><linearGradient id="g-dockerfile" x1="0" y1="0" x2="0" y2="1"><stop offset="0%" stop-color="#52B0F2" stop-opacity="1"/><stop offset="100%" stop-color="#2496ED" stop-opacity="1"/></linearGradient><linearGradient id="g-other" x1="0" y1="0" x2="0" y2="1"><stop offset="0%" stop-color="#9CA3AF" stop-opacity="1"/><stop offset="100%" stop-color="#6B7280" stop-opacity="1"/></linearGradient><linearGradient id="card-bg" x1="0" y1="0" x2="0" y2="1"><stop offset="0%" stop-color="var(--card-top)"/><stop offset="100%" stop-color="var(--card-bot)"/></linearGradient>
  </defs>

  <!-- Canvas -->
  <rect width="960" height="752" fill="var(--bg)" rx="12"/>

  <!-- Header: eyebrow with accent dot (left) + period (right) -->
  <circle cx="32" cy="36" r="4" fill="var(--accent)"/>
  <text x="44" y="40" class="eyebrow">DEVELOPER ACTIVITY</text>
  <text x="932" y="40" class="period" text-anchor="end">Last 12 weeks · 2026-W18 → 2026-W29</text>

  <!-- Divider under header -->
  <line x1="28" y1="54" x2="932" y2="54"
        stroke="var(--border)" stroke-width="1"/>

  <!-- KPI cards -->
  <rect x="28.0" y="72" width="215.5" height="96" rx="10" fill="url(#card-bg)" stroke="var(--border)"/><rect x="28.0" y="84" width="3" height="72" rx="1.5" fill="#22C55E"/><text x="44.0" y="96" class="kpi-label">NET LINES</text><text x="44.0" y="132" class="kpi-value">255k</text><text x="44.0" y="154" class="kpi-sub">+364k / −110k · 20 langs</text><rect x="257.5" y="72" width="215.5" height="96" rx="10" fill="url(#card-bg)" stroke="var(--border)"/><rect x="257.5" y="84" width="3" height="72" rx="1.5" fill="#3178C6"/><text x="273.5" y="96" class="kpi-label">TOP LANGUAGE</text><text x="273.5" y="132" class="kpi-value">TypeScript</text><text x="273.5" y="154" class="kpi-sub">39.5% of activity</text><rect x="487.0" y="72" width="215.5" height="96" rx="10" fill="url(#card-bg)" stroke="var(--border)"/><rect x="487.0" y="84" width="3" height="72" rx="1.5" fill="#F97316"/><text x="503.0" y="96" class="kpi-label">PEAK WEEK</text><text x="503.0" y="132" class="kpi-value">92k</text><text x="503.0" y="154" class="kpi-sub">week of May 25</text><rect x="716.5" y="72" width="215.5" height="96" rx="10" fill="url(#card-bg)" stroke="var(--border)"/><rect x="716.5" y="84" width="3" height="72" rx="1.5" fill="#3178C6"/><text x="732.5" y="96" class="kpi-label">WEEKLY AVG</text><text x="732.5" y="132" class="kpi-value">30k</text><text x="732.5" y="154" class="kpi-sub">over 12 weeks</text>

  <!-- Chart section title -->
  <text x="28" y="196" class="section">WEEKLY ACTIVITY</text>
  <text x="932" y="196" class="period" text-anchor="end">
    lines added per week
  </text>

  <!-- Grid -->
  <line x1="68" y1="384.0" x2="932" y2="384.0" stroke="var(--grid)" stroke-width="1"/><line x1="68" y1="340.0" x2="932" y2="340.0" stroke="var(--grid)" stroke-width="1" stroke-dasharray="2,4"/><text x="60" y="343.5" text-anchor="end" class="axis">25k</text><line x1="68" y1="296.0" x2="932" y2="296.0" stroke="var(--grid)" stroke-width="1" stroke-dasharray="2,4"/><text x="60" y="299.5" text-anchor="end" class="axis">50k</text><line x1="68" y1="252.0" x2="932" y2="252.0" stroke="var(--grid)" stroke-width="1" stroke-dasharray="2,4"/><text x="60" y="255.5" text-anchor="end" class="axis">75k</text><line x1="68" y1="208.0" x2="932" y2="208.0" stroke="var(--grid)" stroke-width="1" stroke-dasharray="2,4"/><text x="60" y="211.5" text-anchor="end" class="axis">100k</text>

  <!-- Bars -->
  <rect x="68.00" y="382.80" width="69.00" height="1.20" fill="url(#g-other)"><title>2026-W18 · Other: +326</title></rect><rect x="68.00" y="381.60" width="69.00" height="1.20" fill="url(#g-dockerfile)"><title>2026-W18 · Dockerfile: +235</title></rect><rect x="68.00" y="380.40" width="69.00" height="1.20" fill="url(#g-text)"><title>2026-W18 · Text: +65</title></rect><rect x="68.00" y="379.20" width="69.00" height="1.20" fill="url(#g-astro)"><title>2026-W18 · Astro: +445</title></rect><rect x="68.00" y="378.00" width="69.00" height="1.20" fill="url(#g-svelte)"><title>2026-W18 · Svelte: +450</title></rect><rect x="68.00" y="376.80" width="69.00" height="1.20" fill="url(#g-yaml)"><title>2026-W18 · YAML: +199</title></rect><rect x="68.00" y="375.29" width="69.00" height="1.51" fill="url(#g-terraform)"><title>2026-W18 · Terraform: +858</title></rect><rect x="68.00" y="372.53" width="69.00" height="2.76" fill="url(#g-bash)"><title>2026-W18 · Bash: +1,569</title></rect><rect x="68.00" y="371.22" width="69.00" height="1.31" fill="url(#g-python)"><title>2026-W18 · Python: +746</title></rect><rect x="68.00" y="365.55" width="69.00" height="5.67" fill="url(#g-markdown)"><title>2026-W18 · Markdown: +3,219</title></rect><rect x="68.00" y="362.45" width="69.00" height="3.10" fill="url(#g-json)"><title>2026-W18 · JSON: +1,759</title></rect><path d="M 68.00,362.45 V 345.12 Q 68.00,342.62 70.50,342.62 H 134.50 Q 137.00,342.62 137.00,345.12 V 362.45 Z" fill="url(#g-typescript)"><title>2026-W18 · TypeScript: +11,269</title></path><rect x="140.00" y="380.14" width="69.00" height="3.86" fill="url(#g-other)"><title>2026-W19 · Other: +2,194</title></rect><rect x="140.00" y="378.94" width="69.00" height="1.20" fill="url(#g-dockerfile)"><title>2026-W19 · Dockerfile: +2</title></rect><rect x="140.00" y="377.74" width="69.00" height="1.20" fill="url(#g-text)"><title>2026-W19 · Text: +2</title></rect><rect x="140.00" y="376.54" width="69.00" height="1.20" fill="url(#g-toml)"><title>2026-W19 · TOML: +104</title></rect><rect x="140.00" y="375.34" width="69.00" height="1.20" fill="url(#g-svg)"><title>2026-W19 · SVG: +51</title></rect><rect x="140.00" y="374.14" width="69.00" height="1.20" fill="url(#g-astro)"><title>2026-W19 · Astro: +3</title></rect><rect x="140.00" y="372.94" width="69.00" height="1.20" fill="url(#g-svelte)"><title>2026-W19 · Svelte: +122</title></rect><rect x="140.00" y="371.74" width="69.00" height="1.20" fill="url(#g-html)"><title>2026-W19 · HTML: +212</title></rect><rect x="140.00" y="370.05" width="69.00" height="1.69" fill="url(#g-yaml)"><title>2026-W19 · YAML: +962</title></rect><rect x="140.00" y="364.61" width="69.00" height="5.43" fill="url(#g-css)"><title>2026-W19 · CSS: +3,088</title></rect><rect x="140.00" y="358.74" width="69.00" height="5.87" fill="url(#g-terraform)"><title>2026-W19 · Terraform: +3,338</title></rect><rect x="140.00" y="356.03" width="69.00" height="2.71" fill="url(#g-bash)"><title>2026-W19 · Bash: +1,540</title></rect><rect x="140.00" y="351.13" width="69.00" height="4.89" fill="url(#g-rust)"><title>2026-W19 · Rust: +2,780</title></rect><rect x="140.00" y="347.58" width="69.00" height="3.56" fill="url(#g-python)"><title>2026-W19 · Python: +2,021</title></rect><rect x="140.00" y="346.38" width="69.00" height="1.20" fill="url(#g-dart)"><title>2026-W19 · Dart: +400</title></rect><rect x="140.00" y="325.94" width="69.00" height="20.44" fill="url(#g-markdown)"><title>2026-W19 · Markdown: +11,613</title></rect><rect x="140.00" y="279.21" width="69.00" height="46.73" fill="url(#g-json)"><title>2026-W19 · JSON: +26,552</title></rect><path d="M 140.00,279.21 V 249.50 Q 140.00,247.00 142.50,247.00 H 206.50 Q 209.00,247.00 209.00,249.50 V 279.21 Z" fill="url(#g-typescript)"><title>2026-W19 · TypeScript: +18,298</title></path><rect x="212.00" y="382.62" width="69.00" height="1.38" fill="url(#g-other)"><title>2026-W20 · Other: +784</title></rect><rect x="212.00" y="381.42" width="69.00" height="1.20" fill="url(#g-toml)"><title>2026-W20 · TOML: +127</title></rect><rect x="212.00" y="380.22" width="69.00" height="1.20" fill="url(#g-svg)"><title>2026-W20 · SVG: +49</title></rect><rect x="212.00" y="379.02" width="69.00" height="1.20" fill="url(#g-astro)"><title>2026-W20 · Astro: +7</title></rect><rect x="212.00" y="377.82" width="69.00" height="1.20" fill="url(#g-html)"><title>2026-W20 · HTML: +8</title></rect><rect x="212.00" y="376.62" width="69.00" height="1.20" fill="url(#g-yaml)"><title>2026-W20 · YAML: +482</title></rect><rect x="212.00" y="375.42" width="69.00" height="1.20" fill="url(#g-css)"><title>2026-W20 · CSS: +186</title></rect><rect x="212.00" y="374.22" width="69.00" height="1.20" fill="url(#g-terraform)"><title>2026-W20 · Terraform: +348</title></rect><rect x="212.00" y="368.84" width="69.00" height="5.38" fill="url(#g-bash)"><title>2026-W20 · Bash: +3,057</title></rect><rect x="212.00" y="365.77" width="69.00" height="3.07" fill="url(#g-rust)"><title>2026-W20 · Rust: +1,744</title></rect><rect x="212.00" y="364.57" width="69.00" height="1.20" fill="url(#g-python)"><title>2026-W20 · Python: +546</title></rect><rect x="212.00" y="352.53" width="69.00" height="12.04" fill="url(#g-dart)"><title>2026-W20 · Dart: +6,843</title></rect><rect x="212.00" y="336.34" width="69.00" height="16.18" fill="url(#g-markdown)"><title>2026-W20 · Markdown: +9,195</title></rect><rect x="212.00" y="334.60" width="69.00" height="1.74" fill="url(#g-json)"><title>2026-W20 · JSON: +991</title></rect><path d="M 212.00,334.60 V 329.65 Q 212.00,327.15 214.50,327.15 H 278.50 Q 281.00,327.15 281.00,329.65 V 334.60 Z" fill="url(#g-typescript)"><title>2026-W20 · TypeScript: +4,232</title></path><rect x="284.00" y="382.80" width="69.00" height="1.20" fill="url(#g-other)"><title>2026-W21 · Other: +39</title></rect><rect x="284.00" y="381.60" width="69.00" height="1.20" fill="url(#g-toml)"><title>2026-W21 · TOML: +49</title></rect><rect x="284.00" y="380.40" width="69.00" height="1.20" fill="url(#g-yaml)"><title>2026-W21 · YAML: +20</title></rect><rect x="284.00" y="379.20" width="69.00" height="1.20" fill="url(#g-css)"><title>2026-W21 · CSS: +12</title></rect><rect x="284.00" y="378.00" width="69.00" height="1.20" fill="url(#g-terraform)"><title>2026-W21 · Terraform: +223</title></rect><rect x="284.00" y="376.80" width="69.00" height="1.20" fill="url(#g-bash)"><title>2026-W21 · Bash: +597</title></rect><rect x="284.00" y="375.36" width="69.00" height="1.44" fill="url(#g-rust)"><title>2026-W21 · Rust: +819</title></rect><rect x="284.00" y="374.16" width="69.00" height="1.20" fill="url(#g-python)"><title>2026-W21 · Python: +194</title></rect><rect x="284.00" y="371.97" width="69.00" height="2.19" fill="url(#g-markdown)"><title>2026-W21 · Markdown: +1,244</title></rect><rect x="284.00" y="370.77" width="69.00" height="1.20" fill="url(#g-json)"><title>2026-W21 · JSON: +123</title></rect><path d="M 284.00,370.77 V 370.04 Q 284.00,367.54 286.50,367.54 H 350.50 Q 353.00,367.54 353.00,370.04 V 370.77 Z" fill="url(#g-typescript)"><title>2026-W21 · TypeScript: +1,835</title></path><rect x="356.00" y="375.01" width="69.00" height="8.99" fill="url(#g-other)"><title>2026-W22 · Other: +5,109</title></rect><rect x="356.00" y="373.81" width="69.00" height="1.20" fill="url(#g-dockerfile)"><title>2026-W22 · Dockerfile: +46</title></rect><rect x="356.00" y="372.61" width="69.00" height="1.20" fill="url(#g-text)"><title>2026-W22 · Text: +658</title></rect><rect x="356.00" y="371.41" width="69.00" height="1.20" fill="url(#g-toml)"><title>2026-W22 · TOML: +335</title></rect><rect x="356.00" y="370.21" width="69.00" height="1.20" fill="url(#g-c)"><title>2026-W22 · C: +574</title></rect><rect x="356.00" y="368.59" width="69.00" height="1.62" fill="url(#g-html)"><title>2026-W22 · HTML: +921</title></rect><rect x="356.00" y="367.39" width="69.00" height="1.20" fill="url(#g-yaml)"><title>2026-W22 · YAML: +421</title></rect><rect x="356.00" y="366.06" width="69.00" height="1.32" fill="url(#g-css)"><title>2026-W22 · CSS: +752</title></rect><rect x="356.00" y="364.86" width="69.00" height="1.20" fill="url(#g-terraform)"><title>2026-W22 · Terraform: +271</title></rect><rect x="356.00" y="361.78" width="69.00" height="3.08" fill="url(#g-bash)"><title>2026-W22 · Bash: +1,750</title></rect><rect x="356.00" y="360.07" width="69.00" height="1.71" fill="url(#g-rust)"><title>2026-W22 · Rust: +973</title></rect><rect x="356.00" y="336.37" width="69.00" height="23.70" fill="url(#g-python)"><title>2026-W22 · Python: +13,465</title></rect><rect x="356.00" y="308.67" width="69.00" height="27.70" fill="url(#g-dart)"><title>2026-W22 · Dart: +15,738</title></rect><rect x="356.00" y="294.69" width="69.00" height="13.98" fill="url(#g-markdown)"><title>2026-W22 · Markdown: +7,946</title></rect><rect x="356.00" y="293.49" width="69.00" height="1.20" fill="url(#g-json)"><title>2026-W22 · JSON: +157</title></rect><path d="M 356.00,293.49 V 221.33 Q 356.00,218.83 358.50,218.83 H 422.50 Q 425.00,218.83 425.00,221.33 V 293.49 Z" fill="url(#g-typescript)"><title>2026-W22 · TypeScript: +42,421</title></path><rect x="428.00" y="379.17" width="69.00" height="4.83" fill="url(#g-other)"><title>2026-W23 · Other: +2,747</title></rect><rect x="428.00" y="377.97" width="69.00" height="1.20" fill="url(#g-dockerfile)"><title>2026-W23 · Dockerfile: +5</title></rect><rect x="428.00" y="376.77" width="69.00" height="1.20" fill="url(#g-toml)"><title>2026-W23 · TOML: +233</title></rect><rect x="428.00" y="375.57" width="69.00" height="1.20" fill="url(#g-c)"><title>2026-W23 · C: +206</title></rect><rect x="428.00" y="374.37" width="69.00" height="1.20" fill="url(#g-html)"><title>2026-W23 · HTML: +586</title></rect><rect x="428.00" y="372.12" width="69.00" height="2.25" fill="url(#g-yaml)"><title>2026-W23 · YAML: +1,276</title></rect><rect x="428.00" y="370.92" width="69.00" height="1.20" fill="url(#g-css)"><title>2026-W23 · CSS: +534</title></rect><rect x="428.00" y="367.91" width="69.00" height="3.01" fill="url(#g-terraform)"><title>2026-W23 · Terraform: +1,710</title></rect><rect x="428.00" y="366.71" width="69.00" height="1.20" fill="url(#g-bash)"><title>2026-W23 · Bash: +453</title></rect><rect x="428.00" y="352.36" width="69.00" height="14.35" fill="url(#g-rust)"><title>2026-W23 · Rust: +8,156</title></rect><rect x="428.00" y="351.16" width="69.00" height="1.20" fill="url(#g-python)"><title>2026-W23 · Python: +210</title></rect><rect x="428.00" y="336.05" width="69.00" height="15.10" fill="url(#g-markdown)"><title>2026-W23 · Markdown: +8,582</title></rect><rect x="428.00" y="324.29" width="69.00" height="11.76" fill="url(#g-json)"><title>2026-W23 · JSON: +6,683</title></rect><path d="M 428.00,324.29 V 257.92 Q 428.00,255.42 430.50,255.42 H 494.50 Q 497.00,255.42 497.00,257.92 V 324.29 Z" fill="url(#g-typescript)"><title>2026-W23 · TypeScript: +39,129</title></path><rect x="500.00" y="381.57" width="69.00" height="2.43" fill="url(#g-other)"><title>2026-W24 · Other: +1,378</title></rect><rect x="500.00" y="380.37" width="69.00" height="1.20" fill="url(#g-cpp)"><title>2026-W24 · C++: +100</title></rect><rect x="500.00" y="379.17" width="69.00" height="1.20" fill="url(#g-svg)"><title>2026-W24 · SVG: +55</title></rect><rect x="500.00" y="377.97" width="69.00" height="1.20" fill="url(#g-c)"><title>2026-W24 · C: +84</title></rect><rect x="500.00" y="376.77" width="69.00" height="1.20" fill="url(#g-astro)"><title>2026-W24 · Astro: +3</title></rect><rect x="500.00" y="375.57" width="69.00" height="1.20" fill="url(#g-svelte)"><title>2026-W24 · Svelte: +39</title></rect><rect x="500.00" y="374.37" width="69.00" height="1.20" fill="url(#g-html)"><title>2026-W24 · HTML: +203</title></rect><rect x="500.00" y="373.17" width="69.00" height="1.20" fill="url(#g-yaml)"><title>2026-W24 · YAML: +200</title></rect><rect x="500.00" y="371.97" width="69.00" height="1.20" fill="url(#g-css)"><title>2026-W24 · CSS: +316</title></rect><rect x="500.00" y="370.77" width="69.00" height="1.20" fill="url(#g-terraform)"><title>2026-W24 · Terraform: +620</title></rect><rect x="500.00" y="369.57" width="69.00" height="1.20" fill="url(#g-bash)"><title>2026-W24 · Bash: +26</title></rect><rect x="500.00" y="368.37" width="69.00" height="1.20" fill="url(#g-python)"><title>2026-W24 · Python: +291</title></rect><rect x="500.00" y="357.56" width="69.00" height="10.82" fill="url(#g-markdown)"><title>2026-W24 · Markdown: +6,145</title></rect><rect x="500.00" y="355.05" width="69.00" height="2.51" fill="url(#g-json)"><title>2026-W24 · JSON: +1,424</title></rect><path d="M 500.00,355.05 V 337.78 Q 500.00,335.28 502.50,335.28 H 566.50 Q 569.00,335.28 569.00,337.78 V 355.05 Z" fill="url(#g-typescript)"><title>2026-W24 · TypeScript: +11,235</title></path><rect x="572.00" y="375.83" width="69.00" height="8.17" fill="url(#g-other)"><title>2026-W25 · Other: +4,642</title></rect><rect x="572.00" y="374.63" width="69.00" height="1.20" fill="url(#g-cpp)"><title>2026-W25 · C++: +430</title></rect><rect x="572.00" y="373.43" width="69.00" height="1.20" fill="url(#g-text)"><title>2026-W25 · Text: +47</title></rect><rect x="572.00" y="372.23" width="69.00" height="1.20" fill="url(#g-svg)"><title>2026-W25 · SVG: +575</title></rect><rect x="572.00" y="371.03" width="69.00" height="1.20" fill="url(#g-c)"><title>2026-W25 · C: +364</title></rect><rect x="572.00" y="369.83" width="69.00" height="1.20" fill="url(#g-html)"><title>2026-W25 · HTML: +287</title></rect><rect x="572.00" y="368.63" width="69.00" height="1.20" fill="url(#g-yaml)"><title>2026-W25 · YAML: +221</title></rect><rect x="572.00" y="367.43" width="69.00" height="1.20" fill="url(#g-css)"><title>2026-W25 · CSS: +255</title></rect><rect x="572.00" y="366.23" width="69.00" height="1.20" fill="url(#g-terraform)"><title>2026-W25 · Terraform: +475</title></rect><rect x="572.00" y="365.03" width="69.00" height="1.20" fill="url(#g-bash)"><title>2026-W25 · Bash: +64</title></rect><rect x="572.00" y="363.83" width="69.00" height="1.20" fill="url(#g-python)"><title>2026-W25 · Python: +124</title></rect><rect x="572.00" y="359.56" width="69.00" height="4.27" fill="url(#g-markdown)"><title>2026-W25 · Markdown: +2,428</title></rect><rect x="572.00" y="358.36" width="69.00" height="1.20" fill="url(#g-json)"><title>2026-W25 · JSON: +293</title></rect><path d="M 572.00,358.36 V 350.48 Q 572.00,347.98 574.50,347.98 H 638.50 Q 641.00,347.98 641.00,350.48 V 358.36 Z" fill="url(#g-typescript)"><title>2026-W25 · TypeScript: +5,896</title></path><rect x="644.00" y="382.80" width="69.00" height="1.20" fill="url(#g-other)"><title>2026-W26 · Other: +530</title></rect><rect x="644.00" y="381.60" width="69.00" height="1.20" fill="url(#g-dockerfile)"><title>2026-W26 · Dockerfile: +1</title></rect><rect x="644.00" y="380.40" width="69.00" height="1.20" fill="url(#g-toml)"><title>2026-W26 · TOML: +36</title></rect><rect x="644.00" y="379.20" width="69.00" height="1.20" fill="url(#g-astro)"><title>2026-W26 · Astro: +79</title></rect><rect x="644.00" y="378.00" width="69.00" height="1.20" fill="url(#g-html)"><title>2026-W26 · HTML: +13</title></rect><rect x="644.00" y="376.80" width="69.00" height="1.20" fill="url(#g-yaml)"><title>2026-W26 · YAML: +110</title></rect><rect x="644.00" y="375.60" width="69.00" height="1.20" fill="url(#g-css)"><title>2026-W26 · CSS: +31</title></rect><rect x="644.00" y="374.40" width="69.00" height="1.20" fill="url(#g-terraform)"><title>2026-W26 · Terraform: +24</title></rect><rect x="644.00" y="373.20" width="69.00" height="1.20" fill="url(#g-bash)"><title>2026-W26 · Bash: +13</title></rect><rect x="644.00" y="371.02" width="69.00" height="2.18" fill="url(#g-rust)"><title>2026-W26 · Rust: +1,240</title></rect><rect x="644.00" y="368.84" width="69.00" height="2.18" fill="url(#g-python)"><title>2026-W26 · Python: +1,237</title></rect><rect x="644.00" y="367.64" width="69.00" height="1.20" fill="url(#g-markdown)"><title>2026-W26 · Markdown: +439</title></rect><rect x="644.00" y="366.44" width="69.00" height="1.20" fill="url(#g-json)"><title>2026-W26 · JSON: +5</title></rect><path d="M 644.00,366.44 V 364.70 Q 644.00,362.20 646.50,362.20 H 710.50 Q 713.00,362.20 713.00,364.70 V 366.44 Z" fill="url(#g-typescript)"><title>2026-W26 · TypeScript: +2,408</title></path><rect x="716.00" y="382.80" width="69.00" height="1.20" fill="url(#g-other)"><title>2026-W27 · Other: +51</title></rect><rect x="716.00" y="381.60" width="69.00" height="1.20" fill="url(#g-svg)"><title>2026-W27 · SVG: +273</title></rect><rect x="716.00" y="380.40" width="69.00" height="1.20" fill="url(#g-html)"><title>2026-W27 · HTML: +11</title></rect><rect x="716.00" y="379.20" width="69.00" height="1.20" fill="url(#g-yaml)"><title>2026-W27 · YAML: +24</title></rect><rect x="716.00" y="378.00" width="69.00" height="1.20" fill="url(#g-css)"><title>2026-W27 · CSS: +20</title></rect><rect x="716.00" y="376.80" width="69.00" height="1.20" fill="url(#g-markdown)"><title>2026-W27 · Markdown: +84</title></rect><path d="M 716.00,376.80 V 374.55 Q 716.00,372.05 718.50,372.05 H 782.50 Q 785.00,372.05 785.00,374.55 V 376.80 Z" fill="url(#g-typescript)"><title>2026-W27 · TypeScript: +2,699</title></path><rect x="788.00" y="382.76" width="69.00" height="1.24" fill="url(#g-other)"><title>2026-W28 · Other: +705</title></rect><rect x="788.00" y="381.56" width="69.00" height="1.20" fill="url(#g-svg)"><title>2026-W28 · SVG: +24</title></rect><rect x="788.00" y="380.33" width="69.00" height="1.23" fill="url(#g-astro)"><title>2026-W28 · Astro: +701</title></rect><rect x="788.00" y="379.07" width="69.00" height="1.26" fill="url(#g-svelte)"><title>2026-W28 · Svelte: +716</title></rect><rect x="788.00" y="377.87" width="69.00" height="1.20" fill="url(#g-html)"><title>2026-W28 · HTML: +17</title></rect><rect x="788.00" y="376.67" width="69.00" height="1.20" fill="url(#g-yaml)"><title>2026-W28 · YAML: +5</title></rect><rect x="788.00" y="375.47" width="69.00" height="1.20" fill="url(#g-terraform)"><title>2026-W28 · Terraform: +96</title></rect><rect x="788.00" y="374.27" width="69.00" height="1.20" fill="url(#g-bash)"><title>2026-W28 · Bash: +10</title></rect><rect x="788.00" y="373.07" width="69.00" height="1.20" fill="url(#g-markdown)"><title>2026-W28 · Markdown: +89</title></rect><rect x="788.00" y="371.87" width="69.00" height="1.20" fill="url(#g-json)"><title>2026-W28 · JSON: +52</title></rect><path d="M 788.00,371.87 V 371.74 Q 788.00,369.24 790.50,369.24 H 854.50 Q 857.00,369.24 857.00,371.74 V 371.87 Z" fill="url(#g-typescript)"><title>2026-W28 · TypeScript: +1,492</title></path><rect x="860.00" y="382.80" width="69.00" height="1.20" fill="url(#g-other)"><title>2026-W29 · Other: +166</title></rect><rect x="860.00" y="381.60" width="69.00" height="1.20" fill="url(#g-yaml)"><title>2026-W29 · YAML: +41</title></rect><rect x="860.00" y="380.40" width="69.00" height="1.20" fill="url(#g-python)"><title>2026-W29 · Python: +301</title></rect><rect x="860.00" y="379.20" width="69.00" height="1.20" fill="url(#g-markdown)"><title>2026-W29 · Markdown: +422</title></rect><rect x="860.00" y="378.00" width="69.00" height="1.20" fill="url(#g-json)"><title>2026-W29 · JSON: +208</title></rect><path d="M 860.00,378.00 V 378.00 Q 860.00,376.80 861.20,376.80 H 927.80 Q 929.00,376.80 929.00,378.00 V 378.00 Z" fill="url(#g-typescript)"><title>2026-W29 · TypeScript: +500</title></path>

  <!-- Clipped-outlier indicators -->
  

  <!-- X-axis labels -->
  <text x="174.5" y="402.0" text-anchor="middle" class="axis">MAY</text><text x="462.5" y="402.0" text-anchor="middle" class="axis">JUN</text><text x="822.5" y="402.0" text-anchor="middle" class="axis">JUL</text>

  <!-- Activity pulse section (commits + repos sparklines) -->
  <text x="28" y="408" class="section">ACTIVITY PULSE</text>
  <text x="932" y="408" class="period" text-anchor="end">weekly cadence</text>
  <rect x="28.0" y="420" width="440.0" height="36" rx="8" fill="url(#card-bg)" stroke="var(--border)"/><circle cx="40.0" cy="438.0" r="3.5" fill="#22C55E"/><text x="52.0" y="441.5" class="kpi-label">COMMITS</text><text x="116.0" y="443.0" class="pulse-val mono">1,336</text><text x="456.0" y="442.0" class="pulse-peak mono" fill="#22C55E" text-anchor="end">↑487</text><polygon points="178.0,450.0 178.0,444.7 199.3,426.0 220.5,446.2 241.8,448.4 263.1,439.7 284.4,441.4 305.6,445.1 326.9,446.5 348.2,448.4 369.5,449.5 390.7,449.0 412.0,449.4 412.0,450.0" fill="#22C55E" opacity="0.18"/><polyline points="178.0,444.7 199.3,426.0 220.5,446.2 241.8,448.4 263.1,439.7 284.4,441.4 305.6,445.1 326.9,446.5 348.2,448.4 369.5,449.5 390.7,449.0 412.0,449.4" fill="none" stroke="#22C55E" stroke-width="1.5" stroke-linejoin="round" stroke-linecap="round"/><rect x="492.0" y="420" width="440.0" height="36" rx="8" fill="url(#card-bg)" stroke="var(--border)"/><circle cx="504.0" cy="438.0" r="3.5" fill="#F97316"/><text x="516.0" y="441.5" class="kpi-label">REPOS</text><text x="580.0" y="443.0" class="pulse-val mono">24</text><text x="920.0" y="442.0" class="pulse-peak mono" fill="#F97316" text-anchor="end">↑11</text><polygon points="642.0,450.0 642.0,434.7 663.3,428.2 684.5,426.0 705.8,441.3 727.1,430.4 748.4,432.5 769.6,430.4 790.9,430.4 812.2,430.4 833.5,439.1 854.7,439.1 876.0,441.3 876.0,450.0" fill="#F97316" opacity="0.18"/><polyline points="642.0,434.7 663.3,428.2 684.5,426.0 705.8,441.3 727.1,430.4 748.4,432.5 769.6,430.4 790.9,430.4 812.2,430.4 833.5,439.1 854.7,439.1 876.0,441.3" fill="none" stroke="#F97316" stroke-width="1.5" stroke-linejoin="round" stroke-linecap="round"/>

  <!-- Language breakdown section title -->
  <text x="28" y="480" class="section">LANGUAGE BREAKDOWN</text>
  <text x="932" y="480" class="period" text-anchor="end">
    ranked by lines added
  </text>

  <circle cx="33.0" cy="498" r="4" fill="#3178C6"/><text x="44.0" y="502" class="lb-name">TypeScript</text><rect x="120.0" y="495" width="252.0" height="6" rx="3" fill="var(--track)"/><rect x="120.0" y="495" width="252.0" height="6" rx="3" fill="url(#g-typescript)"/><text x="408.0" y="502" class="lb-val" text-anchor="end">+144k</text><text x="460.0" y="502" class="lb-pct" text-anchor="end">39.5%</text><circle cx="33.0" cy="518" r="4" fill="#14B8A6"/><text x="44.0" y="522" class="lb-name">JSON</text><rect x="120.0" y="515" width="252.0" height="6" rx="3" fill="var(--track)"/><rect x="120.0" y="515" width="94.5" height="6" rx="3" fill="url(#g-json)"/><text x="408.0" y="522" class="lb-val" text-anchor="end">+54k</text><text x="460.0" y="522" class="lb-pct" text-anchor="end">14.8%</text><circle cx="33.0" cy="538" r="4" fill="#8B5CF6"/><text x="44.0" y="542" class="lb-name">Markdown</text><rect x="120.0" y="535" width="252.0" height="6" rx="3" fill="var(--track)"/><rect x="120.0" y="535" width="90.4" height="6" rx="3" fill="url(#g-markdown)"/><text x="408.0" y="542" class="lb-val" text-anchor="end">+52k</text><text x="460.0" y="542" class="lb-pct" text-anchor="end">14.2%</text><circle cx="33.0" cy="558" r="4" fill="#00B4AB"/><text x="44.0" y="562" class="lb-name">Dart</text><rect x="120.0" y="555" width="252.0" height="6" rx="3" fill="var(--track)"/><rect x="120.0" y="555" width="40.3" height="6" rx="3" fill="url(#g-dart)"/><text x="408.0" y="562" class="lb-val" text-anchor="end">+23k</text><text x="460.0" y="562" class="lb-pct" text-anchor="end">6.3%</text><circle cx="33.0" cy="578" r="4" fill="#3776AB"/><text x="44.0" y="582" class="lb-name">Python</text><rect x="120.0" y="575" width="252.0" height="6" rx="3" fill="var(--track)"/><rect x="120.0" y="575" width="33.9" height="6" rx="3" fill="url(#g-python)"/><text x="408.0" y="582" class="lb-val" text-anchor="end">+19k</text><text x="460.0" y="582" class="lb-pct" text-anchor="end">5.3%</text><circle cx="33.0" cy="598" r="4" fill="#F97316"/><text x="44.0" y="602" class="lb-name">Rust</text><rect x="120.0" y="595" width="252.0" height="6" rx="3" fill="var(--track)"/><rect x="120.0" y="595" width="27.5" height="6" rx="3" fill="url(#g-rust)"/><text x="408.0" y="602" class="lb-val" text-anchor="end">+16k</text><text x="460.0" y="602" class="lb-pct" text-anchor="end">4.3%</text><circle cx="33.0" cy="618" r="4" fill="#22C55E"/><text x="44.0" y="622" class="lb-name">Bash</text><rect x="120.0" y="615" width="252.0" height="6" rx="3" fill="var(--track)"/><rect x="120.0" y="615" width="16.3" height="6" rx="3" fill="url(#g-bash)"/><text x="408.0" y="622" class="lb-val" text-anchor="end">+9.3k</text><text x="460.0" y="622" class="lb-pct" text-anchor="end">2.5%</text><circle cx="33.0" cy="638" r="4" fill="#6366F1"/><text x="44.0" y="642" class="lb-name">Terraform</text><rect x="120.0" y="635" width="252.0" height="6" rx="3" fill="var(--track)"/><rect x="120.0" y="635" width="13.9" height="6" rx="3" fill="url(#g-terraform)"/><text x="408.0" y="642" class="lb-val" text-anchor="end">+8k</text><text x="460.0" y="642" class="lb-pct" text-anchor="end">2.2%</text><circle cx="33.0" cy="658" r="4" fill="#563D7C"/><text x="44.0" y="662" class="lb-name">CSS</text><rect x="120.0" y="655" width="252.0" height="6" rx="3" fill="var(--track)"/><rect x="120.0" y="655" width="10.1" height="6" rx="3" fill="url(#g-css)"/><text x="408.0" y="662" class="lb-val" text-anchor="end">+5.7k</text><text x="460.0" y="662" class="lb-pct" text-anchor="end">1.6%</text><circle cx="33.0" cy="678" r="4" fill="#EC4899"/><text x="44.0" y="682" class="lb-name">YAML</text><rect x="120.0" y="675" width="252.0" height="6" rx="3" fill="var(--track)"/><rect x="120.0" y="675" width="7.1" height="6" rx="3" fill="url(#g-yaml)"/><text x="408.0" y="682" class="lb-val" text-anchor="end">+4.1k</text><text x="460.0" y="682" class="lb-pct" text-anchor="end">1.1%</text><circle cx="505.0" cy="498" r="4" fill="#E34C26"/><text x="516.0" y="502" class="lb-name">HTML</text><rect x="592.0" y="495" width="252.0" height="6" rx="3" fill="var(--track)"/><rect x="592.0" y="495" width="4.0" height="6" rx="3" fill="url(#g-html)"/><text x="880.0" y="502" class="lb-val" text-anchor="end">+2.3k</text><text x="932.0" y="502" class="lb-pct" text-anchor="end">0.6%</text><circle cx="505.0" cy="518" r="4" fill="#FF3E00"/><text x="516.0" y="522" class="lb-name">Svelte</text><rect x="592.0" y="515" width="252.0" height="6" rx="3" fill="var(--track)"/><rect x="592.0" y="515" width="2.3" height="6" rx="3" fill="url(#g-svelte)"/><text x="880.0" y="522" class="lb-val" text-anchor="end">+1.3k</text><text x="932.0" y="522" class="lb-pct" text-anchor="end">0.4%</text><circle cx="505.0" cy="538" r="4" fill="#FF5D01"/><text x="516.0" y="542" class="lb-name">Astro</text><rect x="592.0" y="535" width="252.0" height="6" rx="3" fill="var(--track)"/><rect x="592.0" y="535" width="2.2" height="6" rx="3" fill="url(#g-astro)"/><text x="880.0" y="542" class="lb-val" text-anchor="end">+1.2k</text><text x="932.0" y="542" class="lb-pct" text-anchor="end">0.3%</text><circle cx="505.0" cy="558" r="4" fill="#64748B"/><text x="516.0" y="562" class="lb-name">C</text><rect x="592.0" y="555" width="252.0" height="6" rx="3" fill="var(--track)"/><rect x="592.0" y="555" width="2.2" height="6" rx="3" fill="url(#g-c)"/><text x="880.0" y="562" class="lb-val" text-anchor="end">+1.2k</text><text x="932.0" y="562" class="lb-pct" text-anchor="end">0.3%</text><circle cx="505.0" cy="578" r="4" fill="#6B7280"/><text x="516.0" y="582" class="lb-name">SVG</text><rect x="592.0" y="575" width="252.0" height="6" rx="3" fill="var(--track)"/><rect x="592.0" y="575" width="1.8" height="6" rx="3" fill="url(#g-svg)"/><text x="880.0" y="582" class="lb-val" text-anchor="end">+1k</text><text x="932.0" y="582" class="lb-pct" text-anchor="end">0.3%</text><circle cx="505.0" cy="598" r="4" fill="#9C4221"/><text x="516.0" y="602" class="lb-name">TOML</text><rect x="592.0" y="595" width="252.0" height="6" rx="3" fill="var(--track)"/><rect x="592.0" y="595" width="1.5" height="6" rx="3" fill="url(#g-toml)"/><text x="880.0" y="602" class="lb-val" text-anchor="end">+884</text><text x="932.0" y="602" class="lb-pct" text-anchor="end">0.2%</text><circle cx="505.0" cy="618" r="4" fill="#94A3B8"/><text x="516.0" y="622" class="lb-name">Text</text><rect x="592.0" y="615" width="252.0" height="6" rx="3" fill="var(--track)"/><rect x="592.0" y="615" width="1.4" height="6" rx="3" fill="url(#g-text)"/><text x="880.0" y="622" class="lb-val" text-anchor="end">+792</text><text x="932.0" y="622" class="lb-pct" text-anchor="end">0.2%</text><circle cx="505.0" cy="638" r="4" fill="#F34B7D"/><text x="516.0" y="642" class="lb-name">C++</text><rect x="592.0" y="635" width="252.0" height="6" rx="3" fill="var(--track)"/><rect x="592.0" y="635" width="0.9" height="6" rx="3" fill="url(#g-cpp)"/><text x="880.0" y="642" class="lb-val" text-anchor="end">+530</text><text x="932.0" y="642" class="lb-pct" text-anchor="end">0.1%</text><circle cx="505.0" cy="658" r="4" fill="#2496ED"/><text x="516.0" y="662" class="lb-name">Dockerfile</text><rect x="592.0" y="655" width="252.0" height="6" rx="3" fill="var(--track)"/><rect x="592.0" y="655" width="0.7" height="6" rx="3" fill="url(#g-dockerfile)"/><text x="880.0" y="662" class="lb-val" text-anchor="end">+418</text><text x="932.0" y="662" class="lb-pct" text-anchor="end">0.1%</text><circle cx="505.0" cy="678" r="4" fill="#6B7280"/><text x="516.0" y="682" class="lb-name">Other</text><rect x="592.0" y="675" width="252.0" height="6" rx="3" fill="var(--track)"/><rect x="592.0" y="675" width="35.5" height="6" rx="3" fill="url(#g-other)"/><text x="880.0" y="682" class="lb-val" text-anchor="end">+20k</text><text x="932.0" y="682" class="lb-pct" text-anchor="end">5.6%</text>

  <!-- Footer -->
  <line x1="28" y1="722" x2="932" y2="722"
        stroke="var(--border)" stroke-width="1"/>
  <text x="28" y="738" class="footer">
    Generated 2026-07-19 · git diff-tree --numstat · non-forked, non-archived repos
  </text>
  <text x="932" y="738" class="footer" text-anchor="end">
    github.com · auto-updated
  </text>
</svg>